<?xml version="1.0" encoding="UTF-8" standalone="no"?>
<!-- Created with Inkscape (http://www.inkscape.org/) -->

<svg
   width="96"
   height="96"
   viewBox="0 0 96 95.999998"
   version="1.1"
   id="svg5"
   xml:space="preserve"
   xmlns:xlink="http://www.w3.org/1999/xlink"
   xmlns="http://www.w3.org/2000/svg"
   xmlns:svg="http://www.w3.org/2000/svg"><defs
     id="defs2"><linearGradient
       id="linearGradient443"><stop
         style="stop-color:#de67d4;stop-opacity:1;"
         offset="0"
         id="stop439" /><stop
         style="stop-color:#ad41a4;stop-opacity:1;"
         offset="0.38555849"
         id="stop7158" /><stop
         style="stop-color:#85137d;stop-opacity:1;"
         offset="1"
         id="stop441" /></linearGradient><radialGradient
       xlink:href="#linearGradient443"
       id="radialGradient445"
       cx="334.59741"
       cy="-225.15457"
       fx="334.59741"
       fy="-225.15457"
       r="256"
       gradientUnits="userSpaceOnUse"
       gradientTransform="matrix(0.48801957,0,5.0842271e-6,0.36986876,-115.18664,160.05004)" /></defs><path
     id="rect1536"
     style="fill:url(#radialGradient445);fill-opacity:1;stroke-width:2;stroke-linecap:round;stroke-linejoin:round;paint-order:stroke markers fill"
     d="M 48 0 A 48 48 0 0 0 0 48 A 48 48 0 0 0 48 96 A 48 48 0 0 0 96 48 A 48 48 0 0 0 48 0 z " /><path
     id="rect288"
     style="color:#000000;fill:#ffffff;stroke-width:1;stroke-linecap:round;stroke-linejoin:round"
     d="m 29.906947,18.000003 c -4.878365,0 -8.892813,4.014448 -8.892813,8.892813 v 42.21437 c 0,4.878365 4.014448,8.892812 8.892813,8.892812 h 36.186105 c 4.878365,0 8.892814,-4.014447 8.892814,-8.892812 v -42.21437 c 0,-4.878365 -4.014449,-8.892813 -8.892814,-8.892813 z m 0,5.72438 h 36.186105 c 1.803549,0 3.168432,1.364881 3.168432,3.168433 v 9.057717 c -0.05093,-0.0051 -0.101977,-0.009 -0.153117,-0.01176 H 26.891639 c -0.05123,0.0066 -0.102279,0.01447 -0.153117,0.02352 v -9.069486 c 0,-1.803552 1.364881,-3.168433 3.168432,-3.168433 z m 3.015313,3.168433 c -1.665309,0 -3.015313,1.350003 -3.015313,3.015312 0,1.665311 1.350004,3.015312 3.015313,3.015312 1.665312,0 3.015313,-1.350001 3.015313,-3.015312 0,-1.665309 -1.350001,-3.015312 -3.015313,-3.015312 z m -6.183745,15.053005 c 0.05084,0.009 0.101887,0.01689 0.153117,0.02352 h 42.216729 c 0.05123,-0.0066 0.102279,-0.01447 0.153117,-0.02352 v 12.096582 c -0.05093,-0.0051 -0.101977,-0.009 -0.153117,-0.01176 H 26.891633 c -0.05123,0.0066 -0.102279,0.01447 -0.153117,0.02352 z m 6.183745,3.038868 c -1.665309,0 -3.015313,1.349999 -3.015313,3.015311 0,1.665312 1.350004,3.015312 3.015313,3.015312 1.665312,0 3.015313,-1.35 3.015313,-3.015312 0,-1.665312 -1.350001,-3.015311 -3.015313,-3.015311 z m -6.183745,15.053005 c 0.05084,0.009 0.101887,0.01689 0.153117,0.02352 h 42.216729 c 0.05123,-0.0066 0.102279,-0.01447 0.153117,-0.02352 v 9.069491 c 0,1.803552 -1.364884,3.168433 -3.168432,3.168433 H 29.906945 c -1.803551,0 -3.168433,-1.364881 -3.168433,-3.168433 z m 6.183745,3.038867 c -1.665309,0 -3.015313,1.350002 -3.015313,3.015312 0,1.665312 1.350004,3.015312 3.015313,3.015312 1.665312,0 3.015313,-1.35 3.015313,-3.015312 0,-1.665311 -1.350001,-3.015312 -3.015313,-3.015312 z" /></svg>
