<?xml version="1.0" encoding="UTF-8" standalone="no"?>
<!-- Created with Inkscape (http://www.inkscape.org/) -->

<svg
   width="96"
   height="96"
   viewBox="0 0 96 95.999998"
   version="1.1"
   id="svg5"
   xml:space="preserve"
   xmlns:xlink="http://www.w3.org/1999/xlink"
   xmlns="http://www.w3.org/2000/svg"
   xmlns:svg="http://www.w3.org/2000/svg"><defs
     id="defs2"><linearGradient
       id="linearGradient443"><stop
         style="stop-color:#de67d4;stop-opacity:1;"
         offset="0"
         id="stop439" /><stop
         style="stop-color:#ad41a4;stop-opacity:1;"
         offset="0.38555849"
         id="stop7158" /><stop
         style="stop-color:#85137d;stop-opacity:1;"
         offset="1"
         id="stop441" /></linearGradient><radialGradient
       xlink:href="#linearGradient443"
       id="radialGradient445"
       cx="334.59741"
       cy="-225.15457"
       fx="334.59741"
       fy="-225.15457"
       r="256"
       gradientUnits="userSpaceOnUse"
       gradientTransform="matrix(0.48801957,0,5.0842271e-6,0.36986876,-115.18664,160.05004)" /><radialGradient
       xlink:href="#linearGradient443"
       id="radialGradient991"
       cx="59.934898"
       cy="-3.5980241"
       fx="59.934898"
       fy="-3.5980241"
       r="49"
       gradientUnits="userSpaceOnUse"
       gradientTransform="matrix(2.2073905,-4.5455097e-7,0,1.5310235,-84.331506,78.198307)" /></defs><rect
     style="fill:url(#radialGradient991);stroke:none;stroke-width:1.60001;stroke-linecap:round;stroke-linejoin:round;paint-order:stroke markers fill;fill-opacity:1"
     id="rect429"
     width="98"
     height="98"
     x="-1"
     y="-1" /><path
     id="rect288"
     style="color:#000000;fill:#ffffff;stroke-width:1;stroke-linecap:round;stroke-linejoin:round"
     d="m 32.319353,22 c -4.227916,0 -7.707105,3.479189 -7.707105,7.707105 v 36.58579 C 24.612248,70.520812 28.091436,74 32.319352,74 h 31.361295 c 4.227915,0 7.707106,-3.479188 7.707106,-7.707105 V 29.707105 C 71.387753,25.479189 67.908562,22 63.680647,22 Z m 0,4.96113 h 31.361294 c 1.563076,0 2.745973,1.182897 2.745973,2.745975 v 7.850022 c -0.04414,-0.0044 -0.08838,-0.0078 -0.132701,-0.01019 H 29.706086 c -0.0444,0.0057 -0.08864,0.01254 -0.132701,0.02038 v -7.86022 c 0,-1.563079 1.182897,-2.745976 2.745974,-2.745976 z m 2.613272,2.745975 c -1.443269,0 -2.613272,1.170003 -2.613272,2.613271 0,1.443269 1.170003,2.61327 2.613272,2.61327 1.443269,0 2.61327,-1.170001 2.61327,-2.61327 0,-1.443268 -1.170001,-2.613271 -2.61327,-2.613271 z m -5.359246,13.045939 c 0.04406,0.0078 0.08831,0.01463 0.132701,0.02038 h 36.587834 c 0.0444,-0.0057 0.08864,-0.01254 0.132701,-0.02038 v 10.483705 c -0.04414,-0.0044 -0.08838,-0.0078 -0.132701,-0.01019 H 29.706081 c -0.0444,0.0057 -0.08864,0.01254 -0.132701,0.02038 z m 5.359246,2.633686 c -1.443269,0 -2.613272,1.169999 -2.613272,2.613269 0,1.443271 1.170003,2.613271 2.613272,2.613271 1.443269,0 2.61327,-1.17 2.61327,-2.613271 0,-1.44327 -1.170001,-2.613269 -2.61327,-2.613269 z m -5.359246,13.045938 c 0.04406,0.0078 0.08831,0.01463 0.132701,0.02038 h 36.587834 c 0.0444,-0.0057 0.08864,-0.01254 0.132701,-0.02038 v 7.860227 c 0,1.563078 -1.182898,2.745975 -2.745973,2.745975 H 32.31935 c -1.563076,0 -2.745975,-1.182897 -2.745975,-2.745975 z m 5.359246,2.633685 c -1.443269,0 -2.613272,1.170002 -2.613272,2.61327 0,1.443272 1.170003,2.613272 2.613272,2.613272 1.443269,0 2.61327,-1.17 2.61327,-2.613272 0,-1.443269 -1.170001,-2.61327 -2.61327,-2.61327 z" /></svg>
