<?xml version="1.0" encoding="UTF-8" standalone="no"?>
<!-- Created with Inkscape (http://www.inkscape.org/) -->

<svg
   width="96"
   height="96"
   viewBox="0 0 96 95.999998"
   version="1.1"
   id="svg5"
   xml:space="preserve"
   xmlns:xlink="http://www.w3.org/1999/xlink"
   xmlns="http://www.w3.org/2000/svg"
   xmlns:svg="http://www.w3.org/2000/svg"><defs
     id="defs2"><linearGradient
       id="linearGradient443"><stop
         style="stop-color:#e54379;stop-opacity:1;"
         offset="0"
         id="stop439" /><stop
         style="stop-color:#bf1f5a;stop-opacity:1;"
         offset="0.38555849"
         id="stop7158" /><stop
         style="stop-color:#8d1142;stop-opacity:1;"
         offset="1"
         id="stop441" /></linearGradient><radialGradient
       xlink:href="#linearGradient443"
       id="radialGradient445"
       cx="330.02945"
       cy="-242.21288"
       fx="330.02945"
       fy="-242.21288"
       r="256"
       gradientUnits="userSpaceOnUse"
       gradientTransform="matrix(0.47964671,0,4.8122644e-6,0.36330794,-109.33602,164.7051)" /></defs><path
     id="rect1536"
     style="fill:url(#radialGradient445);fill-opacity:1;stroke-width:2;stroke-linecap:round;stroke-linejoin:round;paint-order:stroke markers fill"
     d="M 48 0 A 48 48 0 0 0 0 48 A 48 48 0 0 0 48 96 A 48 48 0 0 0 96 48 A 48 48 0 0 0 48 0 z " /><path
     id="path4331"
     style="color:#000000;fill:#ffffff;stroke-width:0.999995;stroke-linecap:round;stroke-linejoin:round;-inkscape-stroke:none;paint-order:fill markers stroke"
     d="m 48,16.499998 c -13.219397,0 -24.000222,10.780825 -24.000222,24.000222 0,6.833702 3.315855,13.923251 7.599679,20.595892 4.283826,6.672647 9.645749,12.891878 14.27943,17.525553 a 3.0003277,3.0003277 0 0 0 4.242225,0 c 4.633681,-4.633675 9.995604,-10.852906 14.27943,-17.525553 4.283823,-6.672641 7.59968,-13.76219 7.59968,-20.595892 C 72.000222,27.280823 61.219397,16.499998 48,16.499998 Z m 0,6.000055 c 9.976733,0 18.000166,8.023436 18.000166,18.000167 0,4.764359 -2.684218,11.177677 -6.650453,17.355628 C 56.00797,63.061073 51.843308,67.700194 48,71.777851 44.156691,67.700194 39.992028,63.061073 36.650286,57.855848 32.684051,51.677897 29.999833,45.264579 29.999833,40.50022 29.999833,30.523489 38.023269,22.500053 48,22.500053 Z m 0,9.000083 c -4.95283,0 -9.000084,4.047251 -9.000084,9.000084 0,4.952829 4.047254,9.000083 9.000084,9.000083 4.952829,0 9.000083,-4.047254 9.000083,-9.000083 0,-4.952833 -4.047254,-9.000084 -9.000083,-9.000084 z m 0,3.000029 c 3.3315,0 6.000055,2.668554 6.000055,6.000055 0,3.3315 -2.668555,6.000055 -6.000055,6.000055 -3.331501,0 -6.000055,-2.668555 -6.000055,-6.000055 0,-3.331501 2.668554,-6.000055 6.000055,-6.000055 z" /></svg>
