<?xml version="1.0" encoding="UTF-8" standalone="no"?>
<!-- Created with Inkscape (http://www.inkscape.org/) -->

<svg
   width="96"
   height="96"
   viewBox="0 0 96 95.999998"
   version="1.1"
   id="svg5"
   xml:space="preserve"
   xmlns:xlink="http://www.w3.org/1999/xlink"
   xmlns="http://www.w3.org/2000/svg"
   xmlns:svg="http://www.w3.org/2000/svg"><defs
     id="defs2"><linearGradient
       id="linearGradient443"><stop
         style="stop-color:#00c9fa;stop-opacity:1;"
         offset="0"
         id="stop439" /><stop
         style="stop-color:#00a1f0;stop-opacity:1;"
         offset="0.38555849"
         id="stop7158" /><stop
         style="stop-color:#0061ab;stop-opacity:1;"
         offset="1"
         id="stop441" /></linearGradient><radialGradient
       xlink:href="#linearGradient443"
       id="radialGradient445"
       cx="327.86969"
       cy="-251.26059"
       fx="327.86969"
       fy="-251.26059"
       r="256"
       gradientUnits="userSpaceOnUse"
       gradientTransform="matrix(0.48222252,0,4.8865637e-6,0.36055827,-109.80083,170.05662)" /><radialGradient
       xlink:href="#linearGradient443"
       id="radialGradient991"
       cx="59.934898"
       cy="-3.5980241"
       fx="59.934898"
       fy="-3.5980241"
       r="49"
       gradientUnits="userSpaceOnUse"
       gradientTransform="matrix(2.2073905,-4.5455097e-7,0,1.5310235,-84.331505,78.198306)" /><linearGradient
       id="linearGradient443-0"><stop
         style="stop-color:#de67d4;stop-opacity:1;"
         offset="0"
         id="stop439-9" /><stop
         style="stop-color:#ad41a4;stop-opacity:1;"
         offset="0.38555849"
         id="stop7158-3" /><stop
         style="stop-color:#85137d;stop-opacity:1;"
         offset="1"
         id="stop441-6" /></linearGradient></defs><rect
     style="fill:url(#radialGradient991);fill-opacity:1;stroke:none;stroke-width:1.60001;stroke-linecap:round;stroke-linejoin:round;paint-order:stroke markers fill"
     id="rect429"
     width="98"
     height="98"
     x="-1"
     y="-1" /><path
     id="path300"
     style="color:#000000;fill:#ffffff;stroke-width:0.999996;stroke-linecap:round;stroke-linejoin:round"
     d="m 48,21.31356 c -10.094167,0 -18.333332,8.239165 -18.333332,18.333332 0,6.22451 3.126691,11.753568 7.89295,15.064639 1.425924,1.142771 1.964539,2.018146 2.250743,2.808315 0.306587,0.84644 0.332496,1.769903 0.332496,3.079426 v 2.619048 a 2.6193094,2.6193094 0 0 0 2.619047,2.619047 h 10.476191 a 2.6193094,2.6193094 0 0 0 2.619048,-2.619047 v -2.619048 c 0,-1.309523 0.0286,-2.22702 0.337611,-3.069196 0.309005,-0.842176 0.894955,-1.784821 2.588357,-3.053851 a 2.6190475,2.6190475 0 0 0 0.1023,-0.08695 c 4.515275,-3.34044 7.447922,-8.713115 7.447922,-14.74238 C 66.333333,29.552725 58.094166,21.31356 48,21.31356 Z m 0,5.238095 c 7.263297,0 13.095238,5.831938 13.095238,13.095237 0,4.59025 -2.34272,8.59326 -5.892857,10.936569 a 2.6190475,2.6190475 0 0 0 -0.603609,0.552457 c -1.673545,1.469327 -2.751613,3.025814 -3.324962,4.588448 -0.685038,1.867032 -0.654762,3.565383 -0.654762,4.874906 h -5.238095 c 0,-1.309523 0.02514,-3.001913 -0.649647,-4.864676 -0.576513,-1.591671 -1.672738,-3.182358 -3.386347,-4.680523 a 2.6190475,2.6190475 0 0 0 -0.511532,-0.445034 c -0.04709,-0.03085 -0.09146,-0.06576 -0.138103,-0.09719 -0.09101,-0.07189 -0.182181,-0.143471 -0.276228,-0.214841 a 2.6190475,2.6190475 0 0 0 -0.15345,-0.08695 c -3.249403,-2.381827 -5.360884,-6.206951 -5.360884,-10.563161 0,-7.263299 5.831938,-13.095237 13.095237,-13.095237 z m -3.304502,3.212424 a 1.3095237,1.3095237 0 0 0 -0.398993,0.08185 c -3.96286,1.49693 -6.772695,5.330173 -6.772695,9.800968 0,1.845562 0.482699,3.590872 1.324869,5.099983 a 1.3095237,1.3095237 0 0 0 1.780135,0.506416 1.3095237,1.3095237 0 0 0 0.506417,-1.78525 c -0.631306,-1.131256 -0.992373,-2.428302 -0.992373,-3.821154 0,-3.374126 2.1137,-6.230418 5.079519,-7.350726 a 1.3095237,1.3095237 0 0 0 0.762185,-1.688057 1.3095237,1.3095237 0 0 0 -1.289064,-0.84403 z m -3.243116,38.692336 a 1.3095237,1.3095237 0 0 0 -1.309525,1.309524 1.3095237,1.3095237 0 0 0 1.309525,1.309523 h 13.095236 a 1.3095237,1.3095237 0 0 0 1.309525,-1.309523 1.3095237,1.3095237 0 0 0 -1.309525,-1.309524 z m 0,5.238097 a 1.3095237,1.3095237 0 0 0 -1.309524,1.309524 1.3095237,1.3095237 0 0 0 1.309524,1.309524 h 13.095236 a 1.3095237,1.3095237 0 0 0 1.309525,-1.309524 1.3095237,1.3095237 0 0 0 -1.309525,-1.309524 z" /></svg>
