<?xml version="1.0" encoding="UTF-8" standalone="no"?>
<!-- Created with Inkscape (http://www.inkscape.org/) -->

<svg
   width="96"
   height="96"
   viewBox="0 0 96 95.999998"
   version="1.1"
   id="svg5"
   xml:space="preserve"
   xmlns:xlink="http://www.w3.org/1999/xlink"
   xmlns="http://www.w3.org/2000/svg"
   xmlns:svg="http://www.w3.org/2000/svg"><defs
     id="defs2"><linearGradient
       id="linearGradient443"><stop
         style="stop-color:#00c9fa;stop-opacity:1;"
         offset="0"
         id="stop439" /><stop
         style="stop-color:#00a1f0;stop-opacity:1;"
         offset="0.38555849"
         id="stop7158" /><stop
         style="stop-color:#0061ab;stop-opacity:1;"
         offset="1"
         id="stop441" /></linearGradient><radialGradient
       xlink:href="#linearGradient443"
       id="radialGradient445"
       cx="327.86969"
       cy="-251.26059"
       fx="327.86969"
       fy="-251.26059"
       r="256"
       gradientUnits="userSpaceOnUse"
       gradientTransform="matrix(0.48222252,0,4.8865637e-6,0.36055827,-109.80083,170.05662)" /></defs><path
     id="rect1536"
     style="fill:url(#radialGradient445);fill-opacity:1;stroke-width:2;stroke-linecap:round;stroke-linejoin:round;paint-order:stroke markers fill"
     d="M 48 0 A 48 48 0 0 0 0 48 A 48 48 0 0 0 48 96 A 48 48 0 0 0 96 48 A 48 48 0 0 0 48 0 z " /><path
     id="path300"
     style="color:#000000;fill:#ffffff;stroke-width:0.999999;stroke-linecap:round;stroke-linejoin:round"
     d="m 48,17 c -11.562411,0 -21,9.437589 -21,21 0,7.129893 3.581484,13.463178 9.041016,17.255859 1.633332,1.308993 2.250291,2.311695 2.578125,3.216798 C 38.970321,59.442215 39,60.5 39,62 v 3 a 3.0003,3.0003 0 0 0 3,3 h 12 a 3.0003,3.0003 0 0 0 3,-3 v -3 c 0,-1.5 0.03276,-2.550951 0.386718,-3.515625 0.353952,-0.964674 1.02513,-2.044431 2.964846,-3.498048 a 3,3 0 0 0 0.11718,-0.0996 C 65.640786,51.060404 69,44.906249 69,38 69,26.437589 59.562408,17 48,17 Z m 0,6 c 8.319777,0 15,6.68022 15,15 0,5.257923 -2.683479,9.843189 -6.75,12.527343 a 3,3 0 0 0 -0.691407,0.632814 C 53.641623,52.843205 52.406745,54.62609 51.75,56.416016 50.96532,58.554617 51,60.5 51,62 h -6 c 0,-1.5 0.0288,-3.438555 -0.744141,-5.572266 -0.660369,-1.823187 -1.916046,-3.645246 -3.878907,-5.361327 a 3,3 0 0 0 -0.585936,-0.509766 c -0.05394,-0.03534 -0.10476,-0.07533 -0.15819,-0.11133 -0.10425,-0.08235 -0.20868,-0.16434 -0.316407,-0.24609 a 3,3 0 0 0 -0.17577,-0.0996 C 35.418606,47.371346 33,42.98984 33,38 33,29.68022 39.68022,23 48,23 Z m -3.785157,3.679686 a 1.5,1.5 0 0 0 -0.457029,0.09375 C 39.218538,28.488101 36,32.878907 36,38 c 0,2.114007 0.552909,4.11318 1.517577,5.841798 a 1.5,1.5 0 0 0 2.039064,0.580077 1.5,1.5 0 0 0 0.580077,-2.044923 C 39.413586,41.081156 39,39.595448 39,38 c 0,-3.864909 2.421147,-7.136661 5.818359,-8.419923 a 1.5,1.5 0 0 0 0.873048,-1.933593 1.5,1.5 0 0 0 -1.476564,-0.966798 z M 40.5,71 A 1.5,1.5 0 0 0 39,72.5 1.5,1.5 0 0 0 40.5,74 h 15 A 1.5,1.5 0 0 0 57,72.5 1.5,1.5 0 0 0 55.5,71 Z m 0,6.000003 a 1.5,1.5 0 0 0 -1.5,1.5 1.5,1.5 0 0 0 1.5,1.5 h 15 a 1.5,1.5 0 0 0 1.5,-1.5 1.5,1.5 0 0 0 -1.5,-1.5 z" /></svg>
