<?xml version="1.0" encoding="UTF-8" standalone="no"?>
<!-- Created with Inkscape (http://www.inkscape.org/) -->

<svg
   width="192"
   height="192"
   viewBox="0 0 192 192"
   version="1.1"
   id="svg5"
   xml:space="preserve"
   xmlns:xlink="http://www.w3.org/1999/xlink"
   xmlns="http://www.w3.org/2000/svg"
   xmlns:svg="http://www.w3.org/2000/svg"><defs
     id="defs2"><linearGradient
       id="linearGradient443"><stop
         style="stop-color:#95e043;stop-opacity:1"
         offset="0"
         id="stop439" /><stop
         style="stop-color:#5ac918;stop-opacity:1"
         offset="0.38555849"
         id="stop7158" /><stop
         style="stop-color:#389000;stop-opacity:1"
         offset="1"
         id="stop441" /></linearGradient><radialGradient
       xlink:href="#linearGradient443"
       id="radialGradient445"
       cx="332.00125"
       cy="-246.26027"
       fx="332.00125"
       fy="-246.26027"
       r="256"
       gradientUnits="userSpaceOnUse"
       gradientTransform="matrix(0.93367277,0,8.0737791e-6,0.7005816,-212.13192,328.41831)" /></defs><rect
     style="fill:url(#radialGradient445);fill-opacity:1;stroke-width:2;stroke-linecap:round;stroke-linejoin:round;paint-order:stroke markers fill"
     id="rect1536"
     width="217.47456"
     height="217.47456"
     x="-12.88135"
     y="-12.644062" /><path
     id="circle6078"
     style="fill:#ffffff;fill-opacity:1;stroke-width:9.97692;stroke-linecap:round;stroke-linejoin:round;stroke-dasharray:none"
     d="M 94.948602,36.480063 C 63.21925,36.496643 35.305242,57.444745 26.426406,87.906452 l 46.306859,8.871225 C 74.54771,79.671073 88.971936,66.687371 106.17455,66.675976 c 8.64914,0.0011 16.96638,3.332237 23.2246,9.302316 l 21.08678,-12.96793 C 136.93023,46.233209 116.51781,36.482119 94.948602,36.480063 Z m 53.259868,35.907172 -14.34525,8.818353 c 3.88246,5.620917 5.96273,12.29041 5.96342,19.121812 -0.0106,15.1968 -10.206,28.50018 -24.87711,32.46253 l 12.57818,27.36265 c 20.06384,-9.65897 32.82843,-29.94965 32.84955,-52.2174 -7.5e-4,-12.871128 -4.28141,-25.376687 -12.16879,-35.547945 z M 46.518154,98.676925 c -0.02669,0.500728 -0.05342,1.002513 -0.06643,1.504075 3.49e-4,28.5425 23.138751,51.68078 51.681242,51.68124 5.719264,-0.0118 11.397234,-0.96978 16.802334,-2.83937 l -6.94691,-15.1132 c -0.60377,0.0389 -1.20881,0.063 -1.81384,0.0692 -17.272954,-0.0119 -31.732051,-13.0985 -33.460263,-30.28474 z" /></svg>
