<?xml version="1.0" encoding="UTF-8" standalone="no"?>
<!-- Created with Inkscape (http://www.inkscape.org/) -->

<svg
   width="192"
   height="192"
   viewBox="0 0 192 192"
   version="1.1"
   id="svg5"
   xml:space="preserve"
   xmlns:xlink="http://www.w3.org/1999/xlink"
   xmlns="http://www.w3.org/2000/svg"
   xmlns:svg="http://www.w3.org/2000/svg"><defs
     id="defs2"><linearGradient
       id="linearGradient443"><stop
         style="stop-color:#95e043;stop-opacity:1"
         offset="0"
         id="stop439" /><stop
         style="stop-color:#5ac918;stop-opacity:1"
         offset="0.38555849"
         id="stop7158" /><stop
         style="stop-color:#389000;stop-opacity:1"
         offset="1"
         id="stop441" /></linearGradient><radialGradient
       xlink:href="#linearGradient443"
       id="radialGradient445"
       cx="330.95816"
       cy="-248.25494"
       fx="330.95816"
       fy="-248.25494"
       r="256"
       gradientUnits="userSpaceOnUse"
       gradientTransform="matrix(0.92705541,0,7.6395273e-6,0.60720863,-210.51909,300.07731)" /></defs><rect
     style="fill:url(#radialGradient445);fill-opacity:1;stroke-width:2;stroke-linecap:round;stroke-linejoin:round;paint-order:stroke markers fill"
     id="rect1536"
     width="194"
     height="194"
     x="-1"
     y="-1" /><path
     id="circle6078"
     style="fill:#ffffff;fill-opacity:1;stroke-width:9.97691;stroke-linecap:round;stroke-linejoin:round;stroke-dasharray:none"
     d="M 94.150936,43.164232 C 66.028876,43.178932 41.288405,61.745445 33.419,88.743979 l 41.042249,7.862659 c 1.608162,-15.161764 14.392504,-26.669355 29.639361,-26.679454 7.66581,0.0011 15.03748,2.953395 20.5842,8.244738 L 143.37425,66.678311 C 131.3597,51.808545 113.26794,43.166055 94.150936,43.164232 Z m 47.204784,31.824901 -12.71435,7.815798 c 3.44106,4.981875 5.28482,10.893117 5.28543,16.947844 -0.009,13.469085 -9.04567,25.260015 -22.04884,28.771875 l 11.14818,24.2518 c 17.7828,-8.56084 29.09617,-26.54468 29.1149,-46.28082 -7.5e-4,-11.407795 -3.79466,-22.491606 -10.78532,-31.506497 z M 51.226523,98.289945 c -0.02366,0.443805 -0.04734,0.888536 -0.05888,1.333073 3.08e-4,25.297522 20.508117,45.805222 45.805628,45.805632 5.069039,-0.0104 10.101479,-0.85953 14.892069,-2.51656 l -6.15712,-13.395 c -0.53512,0.0344 -1.07138,0.0558 -1.60762,0.0613 -15.309195,-0.0104 -28.124442,-11.60931 -29.656178,-26.84165 z" /></svg>
