<?xml version="1.0" encoding="UTF-8" standalone="no"?>
<!-- Created with Inkscape (http://www.inkscape.org/) -->

<svg
   width="180"
   height="180"
   viewBox="0 0 180 180"
   version="1.1"
   id="svg5"
   xml:space="preserve"
   xmlns:xlink="http://www.w3.org/1999/xlink"
   xmlns="http://www.w3.org/2000/svg"
   xmlns:svg="http://www.w3.org/2000/svg"><defs
     id="defs2"><linearGradient
       id="linearGradient443"><stop
         style="stop-color:#95e043;stop-opacity:1"
         offset="0"
         id="stop439" /><stop
         style="stop-color:#5ac918;stop-opacity:1"
         offset="0.38555849"
         id="stop7158" /><stop
         style="stop-color:#389000;stop-opacity:1"
         offset="1"
         id="stop441" /></linearGradient><radialGradient
       xlink:href="#linearGradient443"
       id="radialGradient445"
       cx="330.95398"
       cy="-250.69225"
       fx="330.95398"
       fy="-250.69225"
       r="256"
       gradientUnits="userSpaceOnUse"
       gradientTransform="matrix(0.87083176,0,7.2617031e-6,0.64079823,-196.43765,305.8663)" /></defs><rect
     style="fill:url(#radialGradient445);fill-opacity:1;stroke-width:2;stroke-linecap:round;stroke-linejoin:round;paint-order:stroke markers fill"
     id="rect1536"
     width="203.24998"
     height="203.24998"
     x="-11.661012"
     y="-11.423724" /><path
     id="circle6078"
     style="fill:#ffffff;fill-opacity:1;stroke-width:9.97696;stroke-linecap:round;stroke-linejoin:round;stroke-dasharray:none"
     d="M 88.377297,34.487292 C 58.723298,34.502792 32.635089,54.080716 24.337,82.549984 l 43.27802,8.290976 c 1.695766,-15.987695 15.176532,-28.122159 31.253958,-28.132809 8.083412,10e-4 15.856642,3.114282 21.705522,8.69387 L 140.28203,59.282297 C 127.61299,43.602504 108.5357,34.489214 88.377297,34.487292 Z m 49.776243,33.558556 -13.40696,8.241562 c 3.62852,5.253264 5.57272,11.486519 5.57337,17.871093 -0.01,14.202807 -9.53845,26.636037 -23.24995,30.339217 l 11.75547,25.57292 c 18.7515,-9.0272 30.68118,-27.99071 30.70092,-48.80197 -7e-4,-12.02925 -4.00137,-23.716846 -11.37285,-33.222822 z M 43.114587,92.615982 c -0.02494,0.467976 -0.04993,0.936941 -0.06208,1.405696 3.26e-4,26.675592 21.625292,48.300442 48.300876,48.300872 5.345175,-0.011 10.651757,-0.90635 15.703317,-2.65365 l -6.49252,-14.12468 c -0.564276,0.0364 -1.129736,0.0589 -1.695197,0.0647 -16.14317,-0.0111 -29.656526,-12.24178 -31.271699,-28.303898 z" /></svg>
