<?xml version="1.0" encoding="UTF-8" standalone="no"?>
<!-- Created with Inkscape (http://www.inkscape.org/) -->

<svg
   width="96"
   height="96"
   viewBox="0 0 96 95.999998"
   version="1.1"
   id="svg5"
   xml:space="preserve"
   xmlns:xlink="http://www.w3.org/1999/xlink"
   xmlns="http://www.w3.org/2000/svg"
   xmlns:svg="http://www.w3.org/2000/svg"><defs
     id="defs2"><linearGradient
       id="linearGradient443"><stop
         style="stop-color:#ff9139;stop-opacity:1;"
         offset="0"
         id="stop439" /><stop
         style="stop-color:#ff6600;stop-opacity:1;"
         offset="0.38555849"
         id="stop7158" /><stop
         style="stop-color:#c62e00;stop-opacity:1;"
         offset="1"
         id="stop441" /></linearGradient><radialGradient
       xlink:href="#linearGradient443"
       id="radialGradient445"
       cx="326.90427"
       cy="-242.19301"
       fx="326.90427"
       fy="-242.19301"
       r="256"
       gradientUnits="userSpaceOnUse"
       gradientTransform="matrix(0.46862296,0,4.0216741e-6,0.36860868,-103.41679,162.71951)" /><radialGradient
       xlink:href="#linearGradient443"
       id="radialGradient991"
       cx="59.934898"
       cy="-3.5980241"
       fx="59.934898"
       fy="-3.5980241"
       r="49"
       gradientUnits="userSpaceOnUse"
       gradientTransform="matrix(2.2073905,-4.5455097e-7,0,1.5310235,-84.331504,78.198307)" /><linearGradient
       id="linearGradient443-9"><stop
         style="stop-color:#de67d4;stop-opacity:1;"
         offset="0"
         id="stop439-1" /><stop
         style="stop-color:#ad41a4;stop-opacity:1;"
         offset="0.38555849"
         id="stop7158-2" /><stop
         style="stop-color:#85137d;stop-opacity:1;"
         offset="1"
         id="stop441-7" /></linearGradient></defs><rect
     style="fill:url(#radialGradient991);fill-opacity:1;stroke:none;stroke-width:1.60001;stroke-linecap:round;stroke-linejoin:round;paint-order:stroke markers fill"
     id="rect429"
     width="98"
     height="98"
     x="-1"
     y="-1" /><path
     id="rect288"
     style="color:#000000;fill:#ffffff;stroke-width:1;stroke-linecap:round;stroke-linejoin:round"
     d="m 44.089914,19.628051 a 1.2999767,1.2999767 0 0 0 -0.401164,0.06601 1.2999767,1.2999767 0 0 0 -0.822641,1.645284 l 2.894478,8.688515 H 29.800325 c -4.276138,4e-6 -7.79986,3.523726 -7.79986,7.799864 v 25.999535 c 0,4.276136 3.523722,7.799861 7.79986,7.799861 h 36.399349 c 4.276136,0 7.799861,-3.523725 7.799861,-7.799861 V 37.827723 c 0,-4.276139 -3.523725,-7.799861 -7.799861,-7.799861 H 52.839366 l 2.894479,-8.688517 a 1.2999767,1.2999767 0 0 0 -0.82264,-1.645282 1.2999767,1.2999767 0 0 0 -1.645282,0.822641 l -3.168694,9.511158 H 48.502725 L 45.334031,20.516704 A 1.2999767,1.2999767 0 0 0 44.089914,19.628048 Z M 29.800325,35.227772 h 17.69695 l 0.568741,1.711297 a 1.3001067,1.3001067 0 0 0 2.467922,0 l 0.56874,-1.711297 h 15.096996 c 1.485341,0 2.599954,1.114613 2.599954,2.599953 V 63.82726 c 0,1.48534 -1.114613,2.599954 -2.599954,2.599954 H 29.800325 c -1.485343,0 -2.599953,-1.114614 -2.599953,-2.599954 V 37.827725 c 0,-1.48534 1.11461,-2.599953 2.599953,-2.599953 z m 10.399814,2.599953 c -4.276936,0 -7.79986,3.522927 -7.79986,7.799861 0,4.276934 3.522924,7.79986 7.79986,7.79986 4.276934,0 7.799861,-3.522926 7.799861,-7.79986 0,-4.276934 -3.522927,-7.799861 -7.799861,-7.799861 z m 0,5.199907 c 1.466704,0 2.599954,1.13325 2.599954,2.599954 0,1.466703 -1.13325,2.599953 -2.599954,2.599953 -1.466706,0 -2.599953,-1.13325 -2.599953,-2.599953 0,-1.466704 1.133247,-2.599954 2.599953,-2.599954 z m 14.299745,0 a 1.2999767,1.2999767 0 0 0 -1.299977,1.299977 1.2999767,1.2999767 0 0 0 1.299977,1.299977 h 10.399814 a 1.2999767,1.2999767 0 0 0 1.299976,-1.299977 1.2999767,1.2999767 0 0 0 -1.299976,-1.299977 z m 0,7.799861 a 1.2999767,1.2999767 0 0 0 -1.299977,1.299977 1.2999767,1.2999767 0 0 0 1.299977,1.299976 h 10.399814 a 1.2999767,1.2999767 0 0 0 1.299976,-1.299976 1.2999767,1.2999767 0 0 0 -1.299976,-1.299977 z m -19.657071,2.605031 a 2.5999535,2.5999535 0 0 0 -0.665224,0.126955 2.5999535,2.5999535 0 0 0 -1.503098,1.305055 l -2.599953,5.199907 a 2.6002135,2.6002135 0 0 0 2.325741,3.762819 H 48 a 2.6002135,2.6002135 0 0 0 2.325739,-3.762824 l -2.599953,-5.199907 a 2.5999535,2.5999535 0 0 0 -3.488611,-1.162869 2.5999535,2.5999535 0 0 0 -1.162868,3.488611 l 0.721079,1.437082 H 36.60489 l 0.721082,-1.437082 A 2.5999535,2.5999535 0 0 0 36.163101,53.70166 2.5999535,2.5999535 0 0 0 34.842813,53.432524 Z m 19.657071,5.194829 a 1.2999767,1.2999767 0 0 0 -1.299977,1.299977 1.2999767,1.2999767 0 0 0 1.299977,1.299977 h 10.399814 a 1.2999767,1.2999767 0 0 0 1.299976,-1.299977 1.2999767,1.2999767 0 0 0 -1.299976,-1.299977 z" /></svg>
