<?xml version="1.0" encoding="UTF-8" standalone="no"?>
<!-- Created with Inkscape (http://www.inkscape.org/) -->

<svg
   width="512"
   height="512"
   viewBox="0 0 512 511.99999"
   version="1.1"
   id="svg5"
   xmlns="http://www.w3.org/2000/svg"
   xmlns:svg="http://www.w3.org/2000/svg">
  <defs
     id="defs2" />
  <path
     id="circle6078"
     style="fill:#000000;fill-opacity:1;stroke-width:9.97691;stroke-linecap:round;stroke-linejoin:round;stroke-dasharray:none"
     d="M 261.91211 19.642578 C 140.63295 19.706088 33.937593 99.777113 0 216.21094 L 177 250.11914 C 183.93536 184.73256 239.06868 135.1041 304.82227 135.06055 C 337.88185 135.06455 369.67098 147.79774 393.5918 170.61719 L 474.19336 121.05078 C 422.37941 56.923435 344.35611 19.650446 261.91211 19.642578 z M 465.48633 156.89062 L 410.65625 190.59766 C 425.49615 212.08249 433.44656 237.57589 433.44922 263.6875 C 433.40872 321.77421 394.43878 372.62428 338.36133 387.76953 L 386.4375 492.35742 C 463.12758 455.43794 511.91923 377.87968 512 292.76562 C 511.997 243.56838 495.63422 195.76824 465.48633 156.89062 z M 76.796875 257.37891 C 76.694922 259.29286 76.592709 261.20986 76.542969 263.12695 C 76.544769 372.22504 164.98596 460.66623 274.08398 460.66797 C 295.94472 460.62297 317.64871 456.96251 338.30859 449.81641 L 311.75391 392.04883 C 309.4462 392.1972 307.13486 392.28889 304.82227 392.3125 C 238.7998 392.2675 183.53152 342.24762 176.92578 276.55664 L 76.796875 257.37891 z " />
</svg>
