<?xml version="1.0" encoding="UTF-8" standalone="no"?>
<!-- Created with Inkscape (http://www.inkscape.org/) -->

<svg
   width="96"
   height="96"
   viewBox="0 0 96 95.999998"
   version="1.1"
   id="svg5"
   xml:space="preserve"
   xmlns:xlink="http://www.w3.org/1999/xlink"
   xmlns="http://www.w3.org/2000/svg"
   xmlns:svg="http://www.w3.org/2000/svg"><defs
     id="defs2"><linearGradient
       id="linearGradient443"><stop
         style="stop-color:#e54379;stop-opacity:1;"
         offset="0"
         id="stop439" /><stop
         style="stop-color:#bf1f5a;stop-opacity:1;"
         offset="0.38555849"
         id="stop7158" /><stop
         style="stop-color:#8d1142;stop-opacity:1;"
         offset="1"
         id="stop441" /></linearGradient><radialGradient
       xlink:href="#linearGradient443"
       id="radialGradient445"
       cx="330.02945"
       cy="-242.21288"
       fx="330.02945"
       fy="-242.21288"
       r="256"
       gradientUnits="userSpaceOnUse"
       gradientTransform="matrix(0.47964671,0,4.8122644e-6,0.36330794,-109.33602,164.7051)" /><radialGradient
       xlink:href="#linearGradient443"
       id="radialGradient991"
       cx="59.934898"
       cy="-3.5980241"
       fx="59.934898"
       fy="-3.5980241"
       r="49"
       gradientUnits="userSpaceOnUse"
       gradientTransform="matrix(2.2073905,-4.5455097e-7,0,1.5310235,-84.331504,78.198307)" /><linearGradient
       id="linearGradient443-3"><stop
         style="stop-color:#de67d4;stop-opacity:1;"
         offset="0"
         id="stop439-5" /><stop
         style="stop-color:#ad41a4;stop-opacity:1;"
         offset="0.38555849"
         id="stop7158-6" /><stop
         style="stop-color:#85137d;stop-opacity:1;"
         offset="1"
         id="stop441-2" /></linearGradient></defs><rect
     style="fill:url(#radialGradient991);fill-opacity:1;stroke:none;stroke-width:1.60001;stroke-linecap:round;stroke-linejoin:round;paint-order:stroke markers fill"
     id="rect429"
     width="98"
     height="98"
     x="-1"
     y="-1" /><path
     id="path4331"
     style="color:#000000;fill:#ffffff;stroke-width:1;stroke-linecap:round;stroke-linejoin:round;-inkscape-stroke:none;paint-order:fill markers stroke"
     d="m 47.999997,21.110171 c -11.54074,0 -20.952574,9.411833 -20.952574,20.952573 0,5.965931 2.894796,12.15522 6.634642,17.980541 3.739848,5.825326 8.42089,11.254813 12.466167,15.300085 a 2.6193336,2.6193336 0 0 0 3.70353,0 c 4.04529,-4.045272 8.726331,-9.474759 12.466182,-15.300085 3.739825,-5.825321 6.634632,-12.01461 6.634632,-17.980541 0,-11.540743 -9.411844,-20.952573 -20.952579,-20.952573 z m 0,5.238143 c 8.709859,0 15.714435,7.004587 15.714435,15.71443 0,4.159361 -2.343362,9.75829 -5.805958,15.151739 -2.917384,4.544244 -6.553208,8.594269 -9.908477,12.154129 -3.355269,-3.55986 -6.991085,-7.609885 -9.90848,-12.154129 -3.462586,-5.393449 -5.80595,-10.992378 -5.80595,-15.151739 0,-8.709843 7.004587,-15.71443 15.71443,-15.71443 z m 0,7.857215 c -4.323898,0 -7.857214,3.533314 -7.857214,7.857215 0,4.323899 3.533316,7.857216 7.857214,7.857216 4.323909,0 7.85722,-3.533317 7.85722,-7.857216 0,-4.323901 -3.533311,-7.857215 -7.85722,-7.857215 z m 0,2.619072 c 2.908453,0 5.238149,2.32969 5.238149,5.238143 0,2.908453 -2.329696,5.238144 -5.238149,5.238144 -2.908453,0 -5.238143,-2.329691 -5.238143,-5.238144 0,-2.908453 2.32969,-5.238143 5.238143,-5.238143 z" /></svg>
