<?xml version="1.0" encoding="UTF-8" standalone="no"?>
<!-- Created with Inkscape (http://www.inkscape.org/) -->

<svg
   width="96"
   height="96"
   viewBox="0 0 96 95.999998"
   version="1.1"
   id="svg5"
   xml:space="preserve"
   xmlns:xlink="http://www.w3.org/1999/xlink"
   xmlns="http://www.w3.org/2000/svg"
   xmlns:svg="http://www.w3.org/2000/svg"><defs
     id="defs2"><linearGradient
       id="linearGradient443"><stop
         style="stop-color:#ff9139;stop-opacity:1;"
         offset="0"
         id="stop439" /><stop
         style="stop-color:#ff6600;stop-opacity:1;"
         offset="0.38555849"
         id="stop7158" /><stop
         style="stop-color:#c62e00;stop-opacity:1;"
         offset="1"
         id="stop441" /></linearGradient><radialGradient
       xlink:href="#linearGradient443"
       id="radialGradient445"
       cx="326.90427"
       cy="-242.19301"
       fx="326.90427"
       fy="-242.19301"
       r="256"
       gradientUnits="userSpaceOnUse"
       gradientTransform="matrix(0.46862296,0,4.0216741e-6,0.36860868,-103.41679,162.71951)" /></defs><path
     id="rect1536"
     style="fill:url(#radialGradient445);fill-opacity:1;stroke-width:2;stroke-linecap:round;stroke-linejoin:round;paint-order:stroke markers fill"
     d="M 48 0 A 48 48 0 0 0 0 48 A 48 48 0 0 0 48 96 A 48 48 0 0 0 96 48 A 48 48 0 0 0 48 0 z " /><path
     id="rect288"
     style="color:#000000;fill:#ffffff;stroke-width:0.999999;stroke-linecap:round;stroke-linejoin:round"
     d="m 43.487827,15.001073 a 1.4999732,1.4999732 0 0 0 -0.462882,0.07617 1.4999732,1.4999732 0 0 0 -0.949201,1.898405 l 3.339783,10.02521 H 26.999839 C 22.065833,27.000858 18,31.066691 18,36.000697 v 29.999465 c 0,4.934003 4.065833,8.99984 8.999839,8.99984 H 68.99909 c 4.934003,0 8.99984,-4.065837 8.99984,-8.99984 V 36.000695 c 0,-4.934006 -4.065837,-8.999839 -8.99984,-8.999839 H 53.583349 L 56.923133,16.975643 A 1.4999732,1.4999732 0 0 0 55.973932,15.077241 1.4999732,1.4999732 0 0 0 54.07553,16.026442 L 50.419345,27.000856 H 48.579532 L 44.923347,16.026442 A 1.4999732,1.4999732 0 0 0 43.487827,15.00107 Z M 26.999839,33.000752 h 20.419559 l 0.656239,1.974573 a 1.5001232,1.5001232 0 0 0 2.847603,0 l 0.656238,-1.974573 H 68.99909 c 1.713855,0 2.999947,1.286092 2.999947,2.999946 v 29.999465 c 0,1.713854 -1.286092,2.999947 -2.999947,2.999947 H 26.999839 c -1.713857,0 -2.999946,-1.286093 -2.999946,-2.999947 V 36.000698 c 0,-1.713854 1.286089,-2.999946 2.999946,-2.999946 z m 11.999786,2.999946 c -4.934927,0 -8.999839,4.064916 -8.999839,8.99984 0,4.934924 4.064912,8.999839 8.999839,8.999839 4.934924,0 8.99984,-4.064915 8.99984,-8.999839 0,-4.934924 -4.064916,-8.99984 -8.99984,-8.99984 z m 0,5.999893 c 1.692351,0 2.999947,1.307596 2.999947,2.999947 0,1.69235 -1.307596,2.999946 -2.999947,2.999946 -1.692353,0 -2.999946,-1.307596 -2.999946,-2.999946 0,-1.692351 1.307593,-2.999947 2.999946,-2.999947 z m 16.499706,0 a 1.4999732,1.4999732 0 0 0 -1.499973,1.499973 1.4999732,1.4999732 0 0 0 1.499973,1.499974 h 11.999786 a 1.4999732,1.4999732 0 0 0 1.499973,-1.499974 1.4999732,1.4999732 0 0 0 -1.499973,-1.499973 z m 0,8.99984 a 1.4999732,1.4999732 0 0 0 -1.499973,1.499973 1.4999732,1.4999732 0 0 0 1.499973,1.499973 h 11.999786 a 1.4999732,1.4999732 0 0 0 1.499973,-1.499973 1.4999732,1.4999732 0 0 0 -1.499973,-1.499973 z m -22.681236,3.005805 a 2.9999465,2.9999465 0 0 0 -0.767567,0.146487 2.9999465,2.9999465 0 0 0 -1.734344,1.505832 l -2.999946,5.999893 a 3.0002465,3.0002465 0 0 0 2.683548,4.341715 h 17.999679 a 3.0002465,3.0002465 0 0 0 2.683545,-4.341721 l -2.999946,-5.999893 a 2.9999465,2.9999465 0 0 0 -4.02532,-1.341771 2.9999465,2.9999465 0 0 0 -1.341771,4.02532 l 0.832014,1.658172 H 34.85126 l 0.832018,-1.658172 a 2.9999465,2.9999465 0 0 0 -1.341774,-4.02532 2.9999465,2.9999465 0 0 0 -1.523409,-0.310542 z m 22.681236,5.994034 a 1.4999732,1.4999732 0 0 0 -1.499973,1.499973 1.4999732,1.4999732 0 0 0 1.499973,1.499974 H 67.499117 A 1.4999732,1.4999732 0 0 0 68.99909,61.500243 1.4999732,1.4999732 0 0 0 67.499117,60.00027 Z" /></svg>
