<?xml version="1.0" encoding="UTF-8" standalone="no"?>
<!-- Created with Inkscape (http://www.inkscape.org/) -->

<svg
   width="96"
   height="96"
   viewBox="0 0 96 95.999998"
   version="1.1"
   id="svg5"
   xml:space="preserve"
   xmlns:xlink="http://www.w3.org/1999/xlink"
   xmlns="http://www.w3.org/2000/svg"
   xmlns:svg="http://www.w3.org/2000/svg"><defs
     id="defs2"><linearGradient
       id="linearGradient443"><stop
         style="stop-color:#95e043;stop-opacity:1"
         offset="0"
         id="stop439" /><stop
         style="stop-color:#5ac918;stop-opacity:1"
         offset="0.38555849"
         id="stop7158" /><stop
         style="stop-color:#389000;stop-opacity:1"
         offset="1"
         id="stop441" /></linearGradient><radialGradient
       xlink:href="#linearGradient443"
       id="radialGradient445"
       cx="331.96381"
       cy="-244.95329"
       fx="331.96381"
       fy="-244.95329"
       r="256"
       gradientUnits="userSpaceOnUse"
       gradientTransform="matrix(0.4691196,0,4.5639679e-6,0.35777135,-105.6967,163.34822)" /><radialGradient
       xlink:href="#linearGradient443"
       id="radialGradient991"
       cx="59.934898"
       cy="-3.5980241"
       fx="59.934898"
       fy="-3.5980241"
       r="49"
       gradientUnits="userSpaceOnUse"
       gradientTransform="matrix(2.2073905,-4.5455097e-7,0,1.5310235,-84.331507,78.198307)" /><linearGradient
       id="linearGradient443-3"><stop
         style="stop-color:#de67d4;stop-opacity:1;"
         offset="0"
         id="stop439-6" /><stop
         style="stop-color:#ad41a4;stop-opacity:1;"
         offset="0.38555849"
         id="stop7158-7" /><stop
         style="stop-color:#85137d;stop-opacity:1;"
         offset="1"
         id="stop441-5" /></linearGradient></defs><rect
     style="fill:url(#radialGradient991);fill-opacity:1;stroke:none;stroke-width:1.60001;stroke-linecap:round;stroke-linejoin:round;paint-order:stroke markers fill"
     id="rect429"
     width="98"
     height="98"
     x="-1"
     y="-1" /><path
     id="path908"
     style="color:#000000;fill:#ffffff;stroke-width:1;stroke-linecap:round;stroke-linejoin:round"
     d="M 42.800157,22 C 31.343376,22 22,31.343378 22,42.800158 c 0,11.456781 9.343376,20.800157 20.800157,20.800157 4.794522,0 9.216735,-1.639702 12.741114,-4.382455 L 69.56208,73.238669 a 2.6000197,2.6000197 0 0 0 3.676589,0 2.6000197,2.6000197 0 0 0 0,-3.676589 L 59.21786,55.541271 C 61.960613,52.016892 63.600315,47.594679 63.600315,42.800158 63.600315,31.343378 54.256939,22 42.800157,22 Z m 0,5.200039 c 8.646481,0 15.600119,6.953641 15.600119,15.600119 0,8.64648 -6.953638,15.600118 -15.600119,15.600118 -8.646479,0 -15.600118,-6.953638 -15.600118,-15.600118 0,-8.646478 6.953639,-15.600119 15.600118,-15.600119 z m -3.981279,3.280495 a 1.3000098,1.3000098 0 0 0 -0.401176,0.07618 c -5.02633,1.800349 -8.617643,6.614343 -8.617643,12.243451 0,1.913744 0.416932,3.738079 1.162898,5.377773 a 1.3000098,1.3000098 0 0 0 1.721499,0.644928 1.3000098,1.3000098 0 0 0 0.644927,-1.721497 c -0.59607,-1.310209 -0.929304,-2.762807 -0.929304,-4.301204 0,-4.525064 2.876906,-8.357969 6.891066,-9.795778 a 1.3000098,1.3000098 0 0 0 0.787117,-1.66056 1.3000098,1.3000098 0 0 0 -1.259384,-0.863286 z" /></svg>
