<?xml version="1.0" encoding="UTF-8" standalone="no"?>
<!-- Created with Inkscape (http://www.inkscape.org/) -->

<svg
   width="512"
   height="512"
   viewBox="0 0 512 511.99999"
   version="1.1"
   id="svg5"
   sodipodi:docname="favicon-small.svg"
   inkscape:version="1.3.2 (091e20ef0f, 2023-11-25)"
   xmlns:inkscape="http://www.inkscape.org/namespaces/inkscape"
   xmlns:sodipodi="http://sodipodi.sourceforge.net/DTD/sodipodi-0.dtd"
   xmlns="http://www.w3.org/2000/svg"
   xmlns:svg="http://www.w3.org/2000/svg">
  <sodipodi:namedview
     id="namedview1"
     pagecolor="#ffffff"
     bordercolor="#000000"
     borderopacity="0.25"
     inkscape:showpageshadow="2"
     inkscape:pageopacity="0.0"
     inkscape:pagecheckerboard="0"
     inkscape:deskcolor="#d1d1d1"
     inkscape:zoom="0.56933594"
     inkscape:cx="418.03087"
     inkscape:cy="273.12521"
     inkscape:window-width="1440"
     inkscape:window-height="831"
     inkscape:window-x="0"
     inkscape:window-y="0"
     inkscape:window-maximized="1"
     inkscape:current-layer="svg5" />
  <defs
     id="defs2" />
  <path
     id="circle4"
     style="fill:#b21527;fill-opacity:1;stroke-width:41.9307;stroke-linecap:round;stroke-linejoin:round;paint-order:fill markers stroke"
     d="m 65.303722,390.97092 10.766507,9.03745 H 390.84104 v -9.03745 z"
     sodipodi:nodetypes="ccccc" />
  <path
     id="circle5"
     style="fill:#b21527;fill-opacity:1;stroke-width:35.5748;stroke-linecap:round;stroke-linejoin:round;paint-order:fill markers stroke"
     d="M 0.68855685,336.75406 11.463087,345.79151 H 411.72562 v -9.03745 z"
     sodipodi:nodetypes="ccccc" />
  <path
     id="circle6"
     style="fill:#b21527;fill-opacity:1;stroke-width:41.9307;stroke-linecap:round;stroke-linejoin:round;paint-order:fill markers stroke"
     d="m 32.99618,363.85848 10.766507,9.03746 H 390.84104 v -9.03746 z"
     sodipodi:nodetypes="ccccc" />
  <path
     id="path4"
     style="fill:#b21527;fill-opacity:1;stroke-width:41.9307;stroke-linecap:round;stroke-linejoin:round;paint-order:fill markers stroke"
     d="m 466.83907,333.75228 v 12.03923 h 45.09337 l -14.34473,-12.03923 z"
     sodipodi:nodetypes="ccccc" />
  <path
     style="font-weight:900;font-size:36.2612px;line-height:1.15;font-family:'Source Serif 4 Display';-inkscape-font-specification:'Source Serif 4 Display Heavy';text-align:center;letter-spacing:-1.43235px;text-anchor:middle;fill:#b21527;fill-opacity:1;stroke-width:1.96116"
     d="m 155.69237,345.77968 h 94.88854 v -9.03691 l -15.43812,-3.38903 c -1.12935,-19.58005 -1.12935,-45.18489 -1.12935,-65.89487 v -57.61083 c 8.6604,-6.40134 18.07408,-10.16674 26.35791,-10.16674 12.0493,0 18.82714,6.77786 18.82714,25.60485 v 42.17272 c 0,20.70998 0,46.31482 -1.12935,65.89487 l -15.43825,3.38903 v 9.03691 h 93.38255 v -9.03691 l -15.43824,-3.38903 c -1.12935,-19.58005 -1.12935,-45.18489 -1.12935,-65.89487 v -44.05542 c 0,-38.78369 -19.58021,-56.85776 -48.19752,-56.85776 -22.21595,0 -39.91345,9.03696 -57.23433,32.75912 v -43.30235 l 1.50619,-78.697242 -6.02477,-4.518585 -75.30835,19.580185 v 7.530913 l 19.58021,6.024519 v 161.53661 c 0,20.70998 0,46.31482 -1.12936,65.89487 l -16.94443,3.38903 z"
     id="text29-3"
     aria-label="chf"
     sodipodi:nodetypes="ccccscsssccccccssscccccccsccc" />
  <path
     style="font-weight:900;font-size:36.2612px;line-height:1.15;font-family:'Source Serif 4 Display';-inkscape-font-specification:'Source Serif 4 Display Heavy';text-align:center;letter-spacing:-1.43235px;text-anchor:middle;fill:#b21527;fill-opacity:1;stroke-width:1.96116"
     d="m 84.526101,190.30736 c 30.876509,0 54.222089,-12.42579 68.907289,-41.41967 l -5.64809,-5.27137 c -9.79017,9.03676 -21.08647,15.06154 -34.64188,15.06154 -30.123507,0 -48.197504,-23.34558 -48.197504,-68.530756 0,-58.363979 20.333402,-74.555286 35.018449,-74.555286 h 1.129335 l 0.75335,20.333198 c 0.75336,28.617298 14.30869,36.901132 27.86411,36.901132 12.80243,0 20.33341,-5.648069 24.47535,-18.827067 0,-26.357973 -21.46288,-48.9504274 -60.246802,-48.9504274 -54.975213,0 -92.2529163,33.1356874 -92.2529163,94.8887594 0,58.740447 36.9012053,90.369957 82.8393093,90.369947 z"
     id="path1"
     aria-label="chf"
     sodipodi:nodetypes="sccsssccscssss" />
  <path
     style="font-weight:900;font-size:36.2612px;line-height:1.15;font-family:'Source Serif 4 Display';-inkscape-font-specification:'Source Serif 4 Display Heavy';text-align:center;letter-spacing:-1.43235px;text-anchor:middle;fill:#b21527;fill-opacity:1;stroke-width:1.96116"
     d="m 357.47462,506.95135 h 106.93789 v -9.0371 l -27.48747,-4.51831 C 435.7957,473.8156 435.7957,448.96382 435.7957,428.63055 v -82.83924 h 36.14807 v -12.04943 h -36.52464 c -2.25919,-44.80849 -1.5062,-70.41333 12.04942,-91.87622 l 5.64807,11.29616 c 9.79004,19.2037 20.33328,26.73461 33.88883,26.73461 12.42586,0 23.34566,-6.77784 24.09873,-20.70983 -4.14196,-20.70983 -25.98149,-28.99367 -46.69139,-28.99367 -22.59252,0 -41.79616,6.40115 -57.61083,21.08619 -15.81481,14.68519 -27.48769,41.79617 -29.74694,76.43811 l -0.37573,4.51845 -20.70982,4.51866 v 9.03697 h 19.58027 v 82.83924 c 0,20.70984 0,46.31468 -1.12936,65.89488 l -16.9443,3.38882 z"
     id="path2"
     aria-label="chf"
     sodipodi:nodetypes="ccccsccccccscsscccccsccc" />
  <circle
     style="fill:#b21527;fill-opacity:1;stroke:none;stroke-width:68.3057;stroke-linecap:round;stroke-linejoin:round;paint-order:fill markers stroke"
     id="path7"
     cx="471.99133"
     cy="381.92776"
     r="18.073994" />
</svg>
