<?xml version="1.0" encoding="UTF-8" standalone="no"?>
<!-- Created with Inkscape (http://www.inkscape.org/) -->

<svg
   width="249"
   height="65"
   viewBox="0 0 249 65"
   version="1.1"
   id="svg427"
   xml:space="preserve"
   xmlns="http://www.w3.org/2000/svg"
   xmlns:svg="http://www.w3.org/2000/svg"><defs
     id="defs424" /><g
     id="g347"
     transform="matrix(0.05598301,0,0,-0.05598301,0.46347367,60.000004)"
     style="stroke-width:2.38168"><path
       d="m 913.082,618.555 c -8.957,3.129 -19.176,4.644 -27.73,4.644 -23.434,0 -41.661,-12.304 -41.661,-35.328 0,-40.383 55.805,-32.355 55.805,-61.379 0,-15.254 -14.883,-21.179 -25.476,-21.179 -9.489,0 -20.637,3.66 -26.965,6.296 l -1.864,-17.285 c 8.559,-2.84 17.477,-5.39 26.606,-5.39 26.031,0 47.391,10.91 47.391,38.671 0,42.805 -55.766,37.004 -55.766,61.965 0,13.504 12.258,17.266 22.695,17.266 9.66,0 14.86,-1.668 24.348,-5.406 z M 749.055,491.133 h 72.703 v 16.387 h -54.137 v 42.742 h 49.293 v 16.418 h -49.293 v 37.91 h 54.137 v 16.351 h -72.703 z m -139.11,0 h 18.618 v 106.765 h 0.359 L 687.668,491.133 H 711.48 V 620.941 H 692.867 V 516.484 h -0.379 L 635.23,620.941 h -25.285 z m -134.265,0 h 18.601 v 106.765 h 0.375 l 58.75,-106.765 h 23.817 V 620.941 H 558.609 V 516.484 h -0.371 L 500.969,620.941 H 475.68 Z m -50.598,47.996 h -51.68 l 25.836,64.316 z m -90.379,-47.996 h 19.527 l 13.211,32.793 h 63.622 l 13.195,-32.793 h 20.269 l -54.871,129.808 h -19.504 z m -107.851,0 h 18.597 v 59.129 h 62.125 v -59.129 h 18.61 v 129.808 h -18.61 V 566.68 h -62.125 v 54.261 H 226.852 Z M 76.4141,556.047 c 0,-39.426 22.8789,-67.113 62.5119,-67.113 39.594,0 62.457,27.687 62.457,67.113 0,38.5 -23.055,67.152 -62.457,67.152 -39.4612,0 -62.5119,-28.652 -62.5119,-67.152 z m 19.7148,0 c 0,26.422 14.1371,50.984 42.7971,50.789 28.633,0.195 42.754,-24.367 42.754,-50.789 0,-25.785 -12.852,-50.734 -42.754,-50.734 -29.942,0 -42.7971,24.949 -42.7971,50.734 z M 0,491.133 c 3.87109,-1.445 9.09375,-2.199 15.0469,-2.199 28.0742,0 36.4453,17.472 36.4453,35.703 v 96.304 H 32.9063 v -90.394 c 0,-15.762 -4.4688,-25.234 -21.211,-25.234 -3.55077,0 -7.6328,0.332 -11.6953,1.843 v -16.023 0"
       style="fill:#898788;fill-opacity:1;fill-rule:nonzero;stroke:none;stroke-width:2.38168"
       id="path349" /><path
       d="m 2985,282.852 h 89.85 v 16.398 h -68.22 l 67.09,96.715 v 16.777 h -86.45 v -16.375 h 65.04 L 2985,299.656 Z m -121.98,0 h 18.62 v 106.804 h 0.36 l 58.77,-106.804 h 23.83 v 129.89 h -18.64 v -104.57 h -0.37 l -57.26,104.57 h -25.31 z m -57.1,0 h 18.59 v 129.89 h -18.59 z m -51.63,47.988 h -51.71 l 25.86,64.414 z m -90.39,-47.988 h 19.51 l 13.14,32.761 h 63.61 l 13.26,-32.761 h 20.27 l -54.89,129.89 h -19.47 z m -153.65,0 h 18.62 v 112.402 h 0.38 l 42.92,-112.402 h 18.29 l 42.93,112.402 h 0.34 V 282.852 h 18.6 v 129.89 h -30.65 l -40.01,-107.898 -40.72,107.898 h -30.7 v -129.89 0"
       style="fill:#898788;fill-opacity:1;fill-rule:nonzero;stroke:none;stroke-width:2.38168"
       id="path351" /><path
       d="m 2333.95,190.977 h 31.82 v 193.945 h 68.97 v 27.93 h -169.77 v -27.93 h 68.98 z m -102.32,82.05 h -88.37 l 44.2,109.961 z m -154.48,-82.05 h 33.38 l 22.56,55.957 h 108.7 l 22.59,-55.957 h 34.66 l -93.78,221.875 h -33.38 z m 122.04,240.378 h 29.9 v 31.75 h -29.9 z m -52.13,0 h 29.88 v 31.75 h -29.88 z M 2010.35,190.977 h 31.8 v 193.945 h 68.99 v 27.93 h -169.71 v -27.93 h 68.92 z m -129.38,0 h 31.8 v 221.875 h -31.8 z m -60.05,217.8 c -15.27,5.364 -32.73,7.895 -47.42,7.895 -40.03,0 -71.15,-20.949 -71.15,-60.414 0,-68.914 95.36,-55.281 95.36,-104.871 0,-26.035 -25.45,-36.282 -43.52,-36.282 -16.26,0 -35.33,6.36 -46.12,10.852 l -3.18,-29.602 c 14.62,-4.746 29.85,-9.226 45.46,-9.226 44.55,0 81.05,18.836 81.05,66.172 0,73.078 -95.36,63.25 -95.36,105.859 0,23.192 21,29.59 38.79,29.59 16.5,0 25.41,-2.918 41.68,-9.238 z m -279.1,-23.855 h 30.5 c 29.24,0 44.51,-12.746 44.51,-32.766 0,-21.316 -17.8,-34.609 -48,-34.609 h -27.01 z M 1510,190.977 h 31.82 v 98.543 h 19.07 c 16.84,0 27.36,0 37.22,-21.571 l 33.98,-76.972 h 36.26 l -41.97,88.367 c -7.01,13.73 -11.74,18.449 -21.63,22.219 v 0.703 c 25.74,4.394 45.77,23.488 45.77,50.515 0,53.117 -42.25,60.071 -86.13,60.071 H 1510 Z m -182.78,0 h 124.32 v 28.007 h -92.52 v 73.106 h 84.23 v 27.976 h -84.23 v 64.856 h 92.52 v 27.93 h -124.32 z m -28.58,221.875 h -33.4 L 1195,218.984 h -0.62 l -68.37,193.868 h -35.57 l 83.6,-221.875 h 39.72 z M 1031.62,190.977 h 31.78 v 221.875 h -31.78 z m -236.198,0 h 31.801 v 182.488 h 0.625 L 928.313,190.977 h 40.679 V 412.852 H 937.203 V 234.211 H 936.57 L 838.656,412.852 H 795.422 Z M 735.684,412.852 H 703.883 V 287.004 c 0,-42.602 -13.371,-71.899 -54.371,-71.899 -41,0 -54.375,29.297 -54.375,71.899 v 125.848 h -31.754 v -130.02 c 0,-62.238 31.461,-95.703 86.129,-95.703 54.703,0 86.172,33.465 86.172,95.703 v 130.02 0"
       style="fill:#898788;fill-opacity:1;fill-rule:nonzero;stroke:none;stroke-width:2.38168"
       id="path353" /><path
       d="m 2812.83,706.59 c -18.53,6.375 -32.73,11.117 -65.17,11.117 -67.73,0 -117.32,-45.453 -117.32,-113.82 0,-70.547 46.71,-115.645 117.01,-115.645 34.64,0 55.58,5.703 67.66,9.852 v 115.34 h -78.53 v -26.032 h 46.82 v -67.441 c -8.04,-1.535 -13.72,-3.75 -35.64,-3.75 -46.1,0 -83.59,34.609 -83.59,86.715 0,49.613 33.95,86.804 85.14,86.804 28.64,0 45.43,-5.085 61.01,-15.269 z m -332.27,-20.633 h 30.62 c 29.2,0 44.46,-12.715 44.46,-32.777 0,-21.27 -17.85,-34.625 -48,-34.625 h -27.08 z m -31.74,-193.965 h 31.74 v 98.61 h 19.12 c 16.83,0 27.34,0 37.2,-21.668 l 33.99,-76.942 h 36.23 l -41.91,88.418 c -7.03,13.649 -11.8,18.387 -21.63,22.231 v 0.64 c 25.77,4.442 45.78,23.512 45.78,50.528 0,53.089 -42.27,60.058 -86.18,60.058 h -54.34 z m -179.57,0 h 124.24 v 27.969 h -92.46 v 73.102 h 84.18 v 27.996 h -84.18 v 64.898 h 92.46 v 27.91 h -124.24 z m -173.93,195.84 h 33.38 c 18.46,0 41.06,-6.656 41.06,-33.031 0,-32.754 -26.13,-35.613 -56.94,-35.613 h -17.5 z m 0,-94.769 h 20.66 c 27.35,0 57.54,-4.731 57.54,-39.04 0,-29.921 -25.74,-35.949 -54.33,-35.949 h -23.87 z m -31.77,-101.071 h 59.14 c 45.18,0 84.52,11.492 84.52,59.16 0,31.161 -21.29,50.844 -51.45,53.391 v 0.625 c 27.98,6.996 45.73,22.25 45.73,52.816 0,40.961 -31.73,55.883 -77.84,55.883 h -60.1 z m -246.97,0 h 31.76 v 182.469 h 0.65 l 100.38,-182.469 h 40.75 v 221.875 h -31.77 V 535.215 h -0.65 l -97.93,178.652 h -43.19 z m -184.41,0 h 124.28 v 27.969 h -92.48 v 73.102 h 84.23 v 27.996 h -84.23 v 64.898 h 92.48 v 27.91 h -124.28 z m -127.78,0 h 31.78 v 193.965 h 68.98 v 27.91 h -169.74 v -27.91 h 68.98 z m -91.54,221.875 h -31.81 v -125.84 c 0,-42.589 -13.35,-71.816 -54.37,-71.816 -40.97,0 -54.33,29.227 -54.33,71.816 v 125.84 h -31.81 V 583.895 c 0,-62.293 31.5,-95.653 86.14,-95.653 54.72,0 86.18,33.36 86.18,95.653 z m -231.11,-7.277 c -18.45,6.375 -32.72,11.117 -65.14,11.117 -67.73,0 -117.327,-45.453 -117.327,-113.82 0,-70.547 46.727,-115.645 116.977,-115.645 34.65,0 55.6,5.703 67.73,9.852 v 115.34 h -78.55 v -26.032 h 46.73 v -67.441 c -7.94,-1.535 -13.65,-3.75 -35.56,-3.75 -46.12,0 -83.61,34.609 -83.61,86.715 0,49.613 33.99,86.804 85.18,86.804 28.6,0 45.42,-5.085 61.01,-15.269 l 2.56,32.129 v 0"
       style="fill:#898788;fill-opacity:1;fill-rule:nonzero;stroke:none;stroke-width:2.38168"
       id="path355" /><path
       d="M 3456.77,982.441 V 0 h 982.5 v 982.441 h -982.5 v 0"
       style="fill:#c4122d;fill-opacity:1;fill-rule:nonzero;stroke:none;stroke-width:2.38168"
       id="path357" /><path
       d="m 3949.11,441.836 c 0,18.836 4.7,21.023 22.07,21.023 h 4.35 c 1.85,0 2.55,4.329 2.55,7.969 0,1.801 0.37,4.699 -2.18,4.699 h -104.65 c -3.28,0 -3.69,-3.632 -3.69,-8.339 0,-3.614 0.76,-5.782 2.55,-5.782 h 26.8 c 15.25,0 24.71,-5.441 24.71,-23.566 v -24.969 c 0,-22.101 -22.16,-40.93 -64.92,-40.93 -56.48,0 -103.9,55.766 -103.9,119.145 0,86.941 66.97,118.465 109.69,118.465 47.8,0 69.95,-27.531 74.62,-55.059 0.4,-1.457 2.18,-1.457 4.34,-1.457 1.85,0 7.66,1.106 7.66,3.262 0,15.949 -1.85,44.547 -2.55,47.43 -21.72,11.242 -47.1,19.925 -80.75,19.925 -41.71,0 -153.6,-21.722 -153.6,-139.074 0,-55.047 45.98,-126.726 149.93,-126.726 16.64,0 59.04,5.039 86.97,22.429 z m -333.97,-67.715 c 0,-35.137 -2.17,-79.699 -20.28,-79.699 -10.51,0 -13.4,7.98 -16.32,15.969 -2.88,7.609 -6.14,15.547 -18.12,15.547 -9.75,0 -19.92,-7.938 -18.1,-18.458 3.27,-19.582 22.48,-27.187 40.59,-27.187 48.51,0 64.8,49.988 64.8,91.277 v 215.879 c 0,16.668 11.24,18.117 25.74,19.18 l 9.77,0.738 1.46,2.184 v 7.234 l -1.81,1.817 c -14.51,0 -36.22,-1.817 -54.33,-1.817 -24.61,0 -36.23,1.817 -46.01,1.817 -2.17,0 -5.44,-0.36 -5.81,-4.368 v -5.769 l 1.82,-1.836 c 30.41,0 36.6,-5.07 36.6,-25.691 v -206.817 0"
       style="fill:#ffffff;fill-opacity:1;fill-rule:nonzero;stroke:none;stroke-width:2.38168"
       id="path359" /><path
       d="m 4337.29,618.777 h -36.88 V 472.566 c 0,-49.461 -15.49,-83.437 -63.18,-83.437 -47.59,0 -63.05,33.976 -63.05,83.437 v 146.211 h -36.97 V 467.781 c 0,-72.383 36.57,-111.109 100.02,-111.109 63.55,0 100.06,38.726 100.06,111.109 v 150.996 0"
       style="fill:#ffffff;fill-opacity:1;fill-rule:nonzero;stroke:none;stroke-width:2.38168"
       id="path361" /><path
       d="M 4046.15,800.699 V 191.055 h 19.64 v 609.644 h -19.64 v 0"
       style="fill:#ffffff;fill-opacity:1;fill-rule:nonzero;stroke:none;stroke-width:2.38168"
       id="path363" /></g></svg>
