<?xml version="1.0" encoding="UTF-8" standalone="no"?>
<!-- Created with Inkscape (http://www.inkscape.org/) -->

<svg
   width="172"
   height="65"
   viewBox="0 0 172 65"
   version="1.1"
   id="svg427"
   xml:space="preserve"
   xmlns="http://www.w3.org/2000/svg"
   xmlns:svg="http://www.w3.org/2000/svg"><defs
     id="defs424" /><style
     type="text/css"
     id="style1244">
	.st0{fill:#F6F6F6;}
	.st1{fill:#1D1D1B;}
	.st2{fill:none;stroke:#1D1D1B;stroke-width:0.002920000;stroke-miterlimit:3.8637;}
</style><g
     id="g1254"
     transform="matrix(0.8332976,0,0,0.83329122,-17.605949,-17.224177)"
     style="stroke-width:1.20005">
	<path
   class="st1"
   d="m 74.5,95.4 c -0.9,-0.4 -2.4,-0.8 -4,-1.2 0.1,0.9 0.2,1.7 0.3,2.4 1.3,-0.4 2.5,-0.8 3.7,-1.2 z m -4,-2 c 2,0.5 4.1,1.1 4.9,1.6 0.7,-0.3 1.4,-0.6 2.1,-0.9 -1.2,-0.7 -4.2,-1.6 -6.9,-2.4 -0.1,0.6 -0.1,1.2 -0.1,1.7 z m 5.1,2.4 c -0.1,0 -0.1,0 0,0 -2.3,0.9 -4.5,1.5 -6.7,2 h -0.1 c -2,0.4 -4,0.7 -6,0.8 H 62.7 C 56.1,99 49.9,97.7 45.2,95.6 L 45,95.5 c 0,0 -0.1,0 -0.1,-0.1 C 37,91.7 33.4,85.2 41.2,80 c -0.8,-1.3 -1.8,-2.6 -2.9,-3.9 -0.3,-0.4 -0.7,-0.9 -1,-1.3 -0.6,1.6 -0.7,2.7 0.3,4.1 0.1,0.2 0.1,0.3 0,0.5 L 32.1,86 C 32,86.2 31.7,86.2 31.6,86 4,55.7 35.5,9.8 73.5,23 c 0.2,0.1 0.3,0.3 0.2,0.5 l -6,9.9 c -0.1,0.1 -0.2,0.2 -0.4,0.2 -1.9,-0.3 -3,-0.2 -3.8,0.5 1.7,0.3 3.5,0.7 5.3,1.4 1.6,-1.8 3.4,-3.5 5.2,-5 0,0 0.1,0 0.1,-0.1 0.1,-0.1 0.2,-0.1 0.3,0 0.1,0 0.2,0.1 0.2,0.2 v 0.1 L 78,40.9 c 0,0.1 0,0.2 0,0.3 0,0.1 -0.1,0.2 -0.2,0.2 -0.1,0.1 -0.2,0.1 -0.3,0.2 0.7,2.1 5.6,16.9 7.1,20.9 0.5,1.2 1.5,3.5 1.5,4.8 0,1.3 -0.9,2 -2.8,2.1 -1,0.9 -1.1,1.3 -0.6,1.9 1,1.4 0.5,2 -0.7,2.9 1.1,0.9 0.9,2.5 0.3,2.5 -0.8,0 -1.1,0.3 -1.6,0.9 3.5,3.4 0.6,6.4 -4.1,7.4 -1.5,0.3 -3.2,0.5 -5,0.4 0,0 0,0 0,0.1 -0.6,2 -1,3.9 -1.1,5.6 3.1,0.9 6.8,2 7.8,2.8 l 0.1,0.1 c 0.1,0.1 0.1,0.2 0.1,0.3 0,0.1 -0.1,0.2 -0.2,0.2 0,0 -0.1,0 -0.1,0.1 -0.8,0.4 -1.7,0.8 -2.6,1.2 z M 42.9,82.2 v 0 c 0.2,1 0.3,1.9 0.3,2.9 2.2,-1.5 1.6,-4 1,-5.2 -0.6,0.4 -1.1,0.7 -1.7,1.1 0.1,0.4 0.2,0.8 0.4,1.2 z m -0.6,0.7 c -1.6,1 -2.3,2.1 -2.4,3.3 1,-0.1 1.9,-0.4 2.5,-0.7 0.1,-0.9 0,-1.8 -0.1,-2.6 z m -2.5,4 c 0,0.5 0.2,0.9 0.4,1.4 5,-0.1 8.7,-5 6,-9.9 -0.5,0.4 -1,0.8 -1.5,1.1 1,1.9 1.9,6.7 -4.9,7.4 z m 0.9,2.1 c 0.4,0.6 0.9,1.1 1.5,1.6 7.3,-2.1 8.8,-8.2 5.9,-13.7 -0.4,0.4 -0.8,0.7 -1.3,1.1 3.1,5.3 -0.9,10.6 -6.1,11 z m 2.2,2.1 c 0.7,0.4 1.5,0.8 2.3,1.1 9,-4.5 6.8,-13.8 4.8,-17 -0.4,0.4 -0.9,0.8 -1.3,1.2 3,5.8 1.6,12.3 -5.8,14.7 z m 28,-36.4 c 3.1,-1.2 7,-1.8 10,-0.9 -1.3,-4 -2.7,-8.1 -3.5,-10.5 0,4 -1.9,7.8 -5.8,9.4 -0.2,0.7 -0.4,1.4 -0.7,2 z m -1.1,0.6 c 0,0 0,-0.1 0,0 0.6,-0.9 1,-1.8 1.2,-2.8 v -0.1 c 0.2,-0.8 0.2,-1.7 0.2,-2.6 v -0.1 c 0,-0.6 -0.1,-1.3 -0.3,-2 -0.5,0.5 -0.9,1 -1.3,1.6 0.2,2.3 -0.3,4.8 -2.8,7 0.1,0.7 0.1,1.4 0,2.1 1.3,-1 2.3,-2 3,-3.1 z M 51.4,76.5 c 0.2,-0.8 0.6,-1.4 1.2,-2 -0.3,-0.5 -0.4,-1.1 -0.5,-1.6 -0.5,0.6 -1,1.1 -1.6,1.7 0.3,0.6 0.6,1.2 0.9,1.9 z m 1.7,-2.4 c 0.4,-0.3 0.9,-0.5 1.4,-0.7 -0.3,-0.7 -0.5,-1.6 -0.6,-2.6 -0.4,0.5 -0.9,1 -1.3,1.5 0.1,0.6 0.3,1.2 0.5,1.8 z m -17,2.7 c 0,-0.8 0.3,-1.7 0.7,-2.7 -1.8,-2.6 -3.4,-6 -3.9,-11 V 63 c 0,-0.5 -0.1,-1 -0.1,-1.5 v -0.1 c 0,-0.2 0,-0.3 0,-0.5 -0.1,-1.6 0,-3.3 0.3,-4.9 v -0.1 c 0.1,-0.5 0.2,-1 0.3,-1.5 v -0.1 c 1.1,-4.6 3.4,-9 6.7,-12.6 l 0.1,-0.1 c 1,-1 2.1,-2 3.2,-2.9 v 0 c 1.8,-1.4 3.8,-2.5 6,-3.3 0,0 0,0 0.1,0 2.7,-1 5.7,-1.6 8.9,-1.6 0.2,0 0.4,0 0.6,0 1.2,0 2.4,0.1 3.7,0.3 0.6,-0.7 1.2,-1.1 2.1,-1.2 -0.1,0 -0.1,0 -0.2,-0.1 v 0 C 63,32.4 61.5,32.1 59.9,32 v 0 c -8.2,-0.5 -16.2,3.1 -21.6,9.1 v 0 c -1.1,1.2 -2.1,2.5 -3,3.9 0,0 0,0 0,0.1 -0.8,1.3 -1.5,2.7 -2.1,4.1 v 0 c -0.6,1.4 -1.1,2.9 -1.4,4.4 -1.4,5.9 -0.9,12.4 2.3,19 v 0 c 0.3,1.4 1.1,2.8 2,4.2 z m 1.3,-3 v 0 c 0.4,0.5 0.6,0.8 0.9,1.2 1.4,-1.1 2.7,-2.2 4,-3.4 -0.6,-0.3 -1.2,-0.6 -1.7,-0.9 -1,1 -1.6,1.4 -3.3,1.4 -0.3,0 -0.4,-0.2 -0.3,-0.5 0.3,-0.9 0,-3.2 0,-4.4 -0.1,-0.2 -0.3,-0.5 -0.4,-0.7 -0.4,0.1 -1,0.1 -1.7,0.1 -0.4,0 -0.5,-0.3 -0.2,-0.6 1.1,-1 0.9,-2.4 1.2,-4.3 -0.6,0.3 -1.8,1.1 -2.2,1.4 0.4,4.9 2,8.2 3.7,10.7 z m 3.5,4.6 C 55.5,68.6 61.3,50.9 74.4,39.7 l -1.9,-0.4 c -0.4,-0.1 -0.4,-0.1 -0.3,-0.5 l 0.3,-2.7 C 60.3,48.4 53.6,68.6 40,77.2 c 0.3,0.4 0.6,0.8 0.9,1.2 z M 74.8,33.8 c -0.6,0.5 -1.1,1 -1.6,1.5 l -0.4,3.4 2.2,0.5 c 0.4,-0.3 0.8,-0.7 1.3,-1 l -0.3,-1 c -0.6,0.2 -1.3,-0.1 -1.6,-0.8 -0.2,-0.6 0.1,-1.3 0.8,-1.6 z m -31.7,38 c -1.4,1.3 -2.8,2.6 -4.4,3.8 l 0.1,0.1 c 0.2,0.3 0.5,0.6 0.7,0.9 7.2,-4.5 12.4,-12.3 17.6,-20.5 4.5,-7.2 9.3,-15.2 15.4,-21.2 l 0.1,-0.1 c 0.6,-0.6 1.3,-1.2 1.9,-1.8 L 74,31.5 c -2.4,2 -4.5,4.2 -6.6,6.6 0,0 0,0.1 -0.1,0.1 -3.9,4.7 -7.2,10 -10.3,14.9 -1.7,2.6 -3.3,5.2 -5.1,7.8 0,0 0,0.1 -0.1,0.1 -0.7,1 -1.5,2 -2.2,3.1 0,0 0,0.1 -0.1,0.1 -0.5,0.7 -1.1,1.4 -1.7,2.1 0,0 0,0.1 -0.1,0.1 -0.8,1 -1.7,2 -2.6,3 0,0 0,0.1 -0.1,0.1 -0.4,0.7 -1.2,1.5 -1.9,2.3 z m -0.3,-0.7 c 0.5,-0.5 1.1,-1.1 1.6,-1.6 -3.3,-0.5 -5.2,-2.1 -5.9,-4.1 -0.5,0.4 -0.8,0.7 -1.2,0.9 0.1,0.2 0.2,0.4 0.3,0.6 0,0 0.1,0.1 0.1,0.2 1.3,2.1 2.8,2.8 5.1,4 z m 2.1,-2.3 c 0.5,-0.6 1.1,-1.2 1.6,-1.8 -6.1,1.7 -10,-7.9 0.5,-11.8 -0.8,-0.3 -1.5,-0.5 -2.2,-0.9 -6.8,3 -9.1,13.3 0.1,14.5 z m 2.6,-3 c 0.5,-0.7 1.1,-1.3 1.6,-2 C 49.3,62 48.9,60 46.6,59 c -0.6,0.3 -1.2,0.7 -1.7,1.2 3.3,0.5 3.2,4.7 0.2,4.7 -2.5,0 -2.4,-3.1 -1.3,-4.6 0,0 0,-0.1 0.1,-0.1 v 0 c 0.5,-0.7 1.3,-1.3 2.4,-1.9 0,0 0.1,0 0.1,-0.1 0.8,-0.4 1.8,-0.7 2.9,-1 h 0.1 C 50.1,57 50.8,56.9 51.7,56.8 51.1,56.5 50.3,56.3 49.6,56 49.1,55.8 48.6,55.7 48,55.5 36.9,59.1 41.4,69 47.5,65.8 Z m 2.3,-3.1 c 0.5,-0.7 1,-1.4 1.5,-2.1 -0.1,-0.7 -0.9,-2 -1.8,-2.7 -0.7,0.2 -1.4,0.4 -2.1,0.7 1.8,1 2.4,2.6 2.4,4.1 z m 2,-2.8 c 0.5,-0.8 1,-1.5 1.5,-2.3 -0.1,-0.1 -0.3,-0.2 -0.4,-0.3 -0.7,0.1 -1.6,0.2 -2.6,0.4 0.7,0.7 1.2,1.5 1.5,2.2 z m 1.9,-2.8 c 0.5,-0.8 1,-1.6 1.6,-2.4 -2,-0.5 -5.5,-0.2 -7.8,-0.2 0.8,0.3 1.6,0.5 2.4,0.8 1.2,0.4 2.3,0.8 3.3,1.4 0,0 0.1,0 0.1,0.1 0.1,0.1 0.3,0.2 0.4,0.3 z m 2,-3.1 c 0.4,-0.6 0.7,-1.2 1.1,-1.7 -2.2,-0.7 -5.7,-0.5 -7.9,-0.5 -2.6,0 -5.4,0.1 -7.5,-0.5 1.1,1 2.5,1.8 4,2.4 1.1,0.2 3.8,0 4.7,0 2,0 4.2,0 5.6,0.3 z m 1.5,-2.3 c 0.3,-0.5 0.6,-1 0.9,-1.5 -2.8,-1.1 -7.3,-0.7 -10.2,-0.7 -3.3,0 -6.7,-0.2 -8.9,-2 0.3,1.1 0.8,2 1.4,2.8 3.2,1.4 9.4,0.7 13.1,0.8 1.4,0.1 2.7,0.2 3.7,0.6 z m 1.3,-2.1 c 0.3,-0.5 0.6,-1 1,-1.5 -1.1,-0.4 -2.2,-0.6 -3.3,-0.8 H 56.1 C 53.3,46.9 50.5,47 47.5,47 45.6,47 43.9,46.9 42.3,46.5 h -0.1 c -1.3,-0.4 -2.4,-1.1 -3.3,-2.4 -0.1,0.1 -0.2,0.2 -0.3,0.4 0,0.6 0.1,1.1 0.2,1.7 1.8,2.4 5.3,2.7 9.2,2.7 3,-0.1 7.6,-0.5 10.5,0.7 z m 8.7,-12.2 c 0.3,-0.4 0.7,-0.8 1,-1.2 -1.9,-0.6 -3.7,-1.1 -5.5,-1.3 h -0.1 c -0.8,-0.1 -1.6,-0.2 -2.4,-0.3 0.3,0.4 0.5,1.1 0.5,1.9 0.4,0.4 0.7,0.9 0.7,1.4 0.5,-0.3 1.2,-0.4 2,-0.2 C 64,36.3 66,36 67.2,37.4 Z M 27.6,79.9 34.1,75 c -0.3,-0.6 -0.6,-1.1 -0.9,-1.7 l -5.5,3.3 C 27.3,76.8 26.9,76.2 27.3,76 l 5.5,-3.4 c -0.2,-0.5 -0.4,-0.9 -0.6,-1.4 l -7.5,3.5 c 0.9,1.8 1.9,3.5 2.9,5.2 z m 6.9,-4.3 -6.5,4.9 c 1.1,1.6 2.3,3.2 3.7,4.8 l 5.1,-6.1 c -0.3,-0.5 -0.7,-0.9 -1,-1.4 l -4.9,4.8 c -0.3,0.3 -0.8,-0.2 -0.5,-0.5 l 5,-4.9 c -0.3,-0.5 -0.6,-1.1 -0.9,-1.6 z m -9.9,-1.5 7.5,-3.5 c -0.2,-0.5 -0.4,-1 -0.5,-1.5 l -6.1,1.8 C 25,71 24.8,70.3 25.3,70.2 l 6.1,-1.8 c -0.2,-0.7 -0.4,-1.3 -0.5,-2 l -8.1,1.7 c 0.3,2.1 1,4 1.8,6 z m -2.1,-6.6 8.1,-1.7 c -0.1,-0.6 -0.2,-1.2 -0.3,-1.7 l -6.5,0.6 C 23.3,64.7 23.3,64 23.7,64 l 6.5,-0.6 C 30.1,62.8 30.1,62.1 30,61.5 l -8.3,-0.2 c 0.1,2 0.4,4.1 0.8,6.2 z m -0.8,-7 8.3,0.2 c 0,-0.6 0,-1.1 0,-1.7 l -6.4,-0.7 c -0.5,-0.1 -0.4,-0.8 0.1,-0.7 l 6.4,0.7 c 0,-0.7 0.1,-1.4 0.2,-2.1 l -8.1,-1.7 c -0.3,2 -0.5,4 -0.5,6 z m 0.6,-6.7 8.1,1.7 c 0.1,-0.6 0.2,-1.1 0.3,-1.6 l -6.2,-2 C 24,51.8 24.3,51.1 24.7,51.2 l 6.1,1.9 c 0.1,-0.5 0.3,-1.1 0.4,-1.6 l -7.5,-3.7 c -0.5,1.9 -1.1,3.9 -1.4,6 z m 1.8,-6.7 7.4,3.7 c 0.2,-0.5 0.4,-1.1 0.6,-1.6 l -5.7,-3.5 c -0.4,-0.2 0,-0.9 0.4,-0.6 l 5.6,3.4 c 0.2,-0.6 0.5,-1.1 0.8,-1.7 l -6.7,-5.1 c -0.9,1.8 -1.7,3.6 -2.4,5.4 z m 2.7,-5.9 6.7,5.1 C 33.7,45.9 34,45.4 34.3,45 l -4.9,-4.7 c -0.3,-0.3 0.2,-0.8 0.5,-0.5 l 4.8,4.6 c 0.4,-0.6 0.7,-1.1 1.1,-1.6 l -5.6,-6.5 c -1.2,1.5 -2.4,3.1 -3.4,4.9 z m 3.8,-5.5 5.6,6.5 c 0.4,-0.4 0.7,-0.9 1.1,-1.3 l -4.2,-5.7 c -0.3,-0.4 0.3,-0.8 0.6,-0.4 l 4.1,5.6 c 0.4,-0.4 0.8,-0.9 1.3,-1.3 l -4.4,-7.6 c -1.5,1.2 -2.8,2.6 -4.1,4.2 z m 4.6,-4.8 4.4,7.6 c 0.4,-0.3 0.8,-0.7 1.2,-1 l -2.9,-6.7 c -0.2,-0.4 0.5,-0.7 0.7,-0.3 l 2.8,6.5 c 0.5,-0.4 1,-0.8 1.6,-1.1 l -2.9,-8.7 c -1.7,1.2 -3.4,2.4 -4.9,3.7 z m 5.5,-4 2.9,8.7 C 44.1,35.3 44.5,35 45,34.8 L 43.3,27.5 C 43.2,27 43.9,26.9 44,27.3 l 1.7,7 c 0.5,-0.3 1,-0.5 1.5,-0.8 l -1.3,-9.4 c -1.8,0.9 -3.5,1.8 -5.2,2.8 z m 5.9,-3 1.3,9.4 c 0.5,-0.2 1.1,-0.4 1.7,-0.6 l -0.3,-7.8 c 0,-0.5 0.7,-0.5 0.7,0 l 0.2,7.6 c 0.5,-0.2 1.1,-0.3 1.7,-0.5 l 0.7,-9.8 c -2.1,0.4 -4.1,1 -6,1.7 z m 6.7,-1.8 -0.7,9.8 c 0.6,-0.1 1.3,-0.3 1.9,-0.3 l 1.2,-7.7 c 0.1,-0.5 0.8,-0.4 0.7,0.1 l -1.1,7.5 c 0.5,-0.1 1,-0.1 1.5,-0.1 l 2.5,-9.8 c -2,-0.1 -4,0.1 -6,0.5 z m 6.8,-0.6 -2.5,9.8 c 0.6,0 1.3,0 1.9,0 l 2.4,-7.7 c 0.1,-0.5 0.8,-0.2 0.7,0.2 l -2.4,7.5 c 0.6,0.1 1.2,0.1 1.8,0.2 l 4.1,-9.6 c -2,-0.3 -4,-0.4 -6,-0.4 z m 6.7,0.6 -4.1,9.6 c 0.5,0.1 1.1,0.2 1.6,0.4 l 4,-7.8 c 0.2,-0.4 0.9,-0.1 0.6,0.3 l -4,7.6 c 0.7,0.2 1.4,0.4 2.1,0.7 l 5.6,-9.3 C 70.7,22.9 68.8,22.4 66.8,22.1 Z M 53.9,43.6 c 0,0.1 0,0.1 -0.1,0.2 0,0.1 -0.1,0.1 -0.2,0.1 0,0 0,0 -0.1,0 -0.6,0.1 -1.2,0.1 -1.8,0 -0.1,0.1 -0.1,0.1 -0.2,0.2 0.1,0.7 0.4,1.5 1.2,2.3 0.5,0 1.1,0 1.6,0.1 L 55.9,40 c -1.8,-0.5 -2.2,-3.6 0.1,-4 0,-0.5 0.2,-1 0.5,-1.3 -1.2,0.1 -2.4,0.2 -3.6,0.5 l 0.3,3.7 v 0.1 0.4 c 0,0.5 -0.7,0.5 -0.7,0.1 v -0.3 l -1.5,-1 c -0.4,0.3 -0.6,0.8 -0.6,1.3 0,1 0.8,1.8 1.8,1.8 0.2,0 0.3,0 0.5,-0.1 v -0.1 c 0,-0.5 0.7,-0.5 0.7,-0.1 v 0.4 0.1 l 0.5,2.1 c 0,-0.1 0,0 0,0 z m -2.6,-6.6 0.2,0.1 c 0,0 0,0 0.1,0 l 1.2,0.8 -0.3,-2.9 c -0.9,0.2 -1.8,0.5 -2.7,0.8 -1.9,2 -1.6,4.2 -0.5,5.6 l 0.1,0.1 c 0.9,1.1 2.4,1.7 3.8,1.5 L 53,41.7 c -0.2,0 -0.4,0.1 -0.6,0.1 -1.4,0 -2.5,-1.1 -2.5,-2.5 0,-0.7 0.3,-1.3 0.8,-1.8 -0.1,-0.3 0.2,-0.7 0.6,-0.5 z m -0.4,6.6 c -0.8,-0.3 -1.5,-0.8 -2,-1.3 -2.5,0.6 -4.7,-1.2 -5.5,-2.8 -0.9,0.7 -1.7,1.4 -2.4,2.1 l 1.5,0.4 c 0,0 0,0 0.1,0 l 0.4,0.1 c 0.1,0 0.1,0 0.2,0.1 0.1,0 0.1,0.1 0.1,0.1 1.7,2.1 6,2.1 7.6,1.3 z m -2.5,-2 c -1,-1.4 -1.2,-3.2 0,-5.1 -1.6,0.7 -3.1,1.6 -4.4,2.6 0.6,1.3 2.4,2.8 4.4,2.5 z m -5.7,1.2 v 0 c -0.3,0.7 -0.3,2.2 -0.1,3 1.4,0.4 3,0.5 4.8,0.5 1.5,0 3,0 4.4,0 -0.5,-0.6 -0.8,-1.3 -0.9,-1.9 -2.1,0.8 -6.3,0.5 -8.2,-1.6 z m 1.2,11.1 c -0.5,-0.2 -0.9,-0.5 -1.3,-0.8 -0.5,0.4 -1,0.8 -1.5,1.1 0,0 0,0 -0.1,0 -0.9,0.8 -1.7,1.5 -2.3,2.2 0,0 0,0 -0.1,0.1 -0.3,0.3 -0.5,0.6 -0.7,1 0,0 0,0.1 -0.1,0.1 -0.8,1.3 -1.2,2.4 -1.4,3.5 -0.3,1.5 -0.1,3.5 -1,4.8 1.4,-0.1 1.8,-0.5 2.6,-1.3 -0.6,-3.8 2.1,-8.7 5.9,-10.7 z m 0.5,6.9 c -0.1,0.1 -0.2,0.3 -0.3,0.4 -0.8,1.6 0.1,2.9 1,2.9 2.3,0 2.1,-3.1 -0.7,-3.3 z M 40.3,54 c -1.2,-1 -2.6,-2 -3.3,-3.5 -0.1,0.8 -0.1,1.6 0.1,2.3 v 0 C 37.4,54 38,55 38.5,55.7 39,55.2 39.6,54.6 40.3,54 Z m -2.6,14.4 c 0.1,1 0.2,2 0,3 1.1,-0.1 1.6,-0.4 2.2,-1 -0.8,-0.6 -1.5,-1.2 -2.2,-2 z m -0.4,-13.3 -1.3,0.7 0.7,1.5 c 0.3,-0.1 0.5,-0.2 0.8,-0.3 0.2,-0.2 0.4,-0.5 0.6,-0.8 -0.3,-0.3 -0.5,-0.7 -0.8,-1.1 z m -3.9,6.4 c 0,0.3 0,0.6 0.1,0.9 0.7,-0.5 1.8,-1.2 2.4,-1.4 0.2,-0.9 0.5,-1.8 1,-2.8 -0.1,0 -0.1,0.1 -0.2,0.1 v 0 c -1.6,0.8 -3,2.6 -3.3,3.2 z m 0.1,-4.6 c -0.1,1.1 -0.2,2.2 -0.2,3.3 0.3,-0.5 0.8,-1 1.3,-1.5 z m 0.4,-2.3 c -0.1,0.4 -0.2,0.9 -0.2,1.3 l 1.5,2.5 c 0.3,-0.2 0.5,-0.4 0.8,-0.6 -1.2,-2.6 -1.5,-2 1,-3.2 -0.2,-0.4 -0.3,-0.8 -0.5,-1.2 -0.6,0.1 -1.7,0.5 -2.6,1.2 z m 4,-9.2 c -1.7,2.5 -3,5.3 -3.7,8.2 0.8,-0.5 1.6,-0.8 2.2,-1 -0.2,-1.1 -0.2,-2.2 0.3,-3.5 0.2,-0.4 0.6,-0.4 0.7,0.1 0.3,1.8 2.1,3.2 3.5,4.3 0.3,-0.3 0.7,-0.6 1.1,-0.8 -2.1,-1.5 -3.7,-3.7 -4.1,-7.3 z m 2.5,-3.2 c -0.4,0.4 -0.8,0.8 -1.1,1.3 0.7,1 1.6,1.6 2.6,2.1 -0.1,-0.9 -0.1,-2.1 0.1,-2.9 z m 20.1,-2.3 c -0.3,0.2 -0.7,0.3 -1.2,0.3 -0.1,1 -0.3,2.1 -0.1,3.1 l 1.9,-2 c -0.4,-0.5 -0.6,-1 -0.6,-1.4 z M 58.3,42 C 57.8,41.9 57.2,41.7 57,41.1 56.9,40.9 57.7,41 57.8,41 c 0.2,0 0.4,0 0.6,-0.1 0,-0.4 0.1,-0.8 0.2,-1.2 v 0 c 0,-0.1 0,-0.3 0.1,-0.4 0.1,-0.5 0.8,-0.4 0.7,0.1 2.1,-0.2 1.7,-3.2 -0.5,-2.7 -0.5,0.1 -0.6,-0.6 -0.1,-0.7 0.5,-0.1 0.9,-0.1 1.3,0 -0.2,-3 -4.9,-1.2 -2.2,1.1 0.4,0.3 -0.1,0.9 -0.5,0.5 -0.5,-0.4 -0.8,-0.8 -0.9,-1.2 -1.6,0.3 -1.2,2.3 -0.1,2.6 v -0.1 c 0.1,-0.5 0.8,-0.3 0.7,0.2 L 57,39.5 v 0 l -1.8,7 c 0.3,0 0.6,0.1 0.9,0.1 l 2.5,-2.7 C 58.4,43.3 58.3,42.7 58.3,42 Z m 3.6,2.5 c -0.4,-0.5 -0.5,-1.3 -0.4,-2 0.1,-0.3 0.4,0.2 0.5,0.3 0.2,0.2 0.5,0.3 0.8,0.5 0.6,-0.9 1.2,-1.7 1.8,-2.6 0.7,-0.9 1.4,-1.9 2.2,-2.8 -1.2,-1.5 -3.3,-0.6 -2.7,1.7 0.1,0.5 -0.6,0.6 -0.7,0.2 -0.1,-0.5 -0.2,-1 -0.1,-1.4 -1.6,-0.5 -2.7,0.9 -1.7,2.3 0.3,-0.3 0.8,0.2 0.5,0.5 l -2.8,3 -0.1,0.1 -2.2,2.4 c 1,0.2 2,0.4 3,0.8 0.5,-1 1.2,-2 1.9,-3 z m -3.2,20 c 4,-1.6 5.2,-4.8 5,-7.3 -0.9,1.3 -1.8,2.6 -2.6,3.9 -0.8,1.1 -1.6,2.2 -2.4,3.4 z m 7.9,-9.1 c 1.7,-1.7 2.2,-3.6 2.2,-5.3 -0.9,1.2 -1.8,2.4 -2.7,3.6 0.2,0.6 0.4,1.1 0.5,1.7 z M 71.8,49 c 1.8,-1.5 2.5,-3 2.5,-4.9 -1,0.9 -1.9,1.8 -2.8,2.8 0.1,0.8 0.2,1.5 0.3,2.1 z m -0.1,2.9 c 3.7,-1.7 5.2,-5.7 4.9,-9.8 -0.6,0.4 -1.2,0.9 -1.7,1.4 0.2,2.5 -0.7,4.5 -3.1,6.3 0,0.8 0,1.5 -0.1,2.1 z M 57.3,67.3 v 0 c 4.2,-0.4 7.9,-3.7 8.7,-8.2 V 59 c 0.1,-0.9 0.2,-1.8 0.1,-2.8 V 56.1 C 66,55.5 65.9,55 65.7,54.4 c -0.4,0.6 -0.9,1.2 -1.3,1.9 0.6,3.2 -0.8,7.6 -6.3,9.2 -0.4,0.6 -0.9,1.2 -1.4,1.8 0.2,0 0.4,0 0.6,0 z M 41.9,80 v 0 c 0.1,0.2 0.2,0.3 0.2,0.4 1.4,-0.8 2.7,-1.7 4,-2.8 0,0 0,0 0.1,0 0.6,-0.5 1.2,-1 1.8,-1.5 L 48.1,76 c 0.6,-0.5 1.1,-1.1 1.7,-1.6 0,0 0,-0.1 0.1,-0.1 0.7,-0.7 1.5,-1.5 2.2,-2.3 l 0.1,-0.1 c 0.6,-0.7 1.3,-1.5 1.9,-2.2 0,-0.1 0.1,-0.1 0.1,-0.1 0.5,-0.7 1.1,-1.4 1.6,-2.1 0,-0.1 0,0 0.1,-0.1 0.6,-0.8 1.2,-1.6 1.7,-2.4 0,0 0,-0.1 0.1,-0.1 2.1,-2.9 4.1,-5.9 6.1,-8.9 0,0 0,-0.1 0.1,-0.1 0.6,-0.8 1.1,-1.7 1.7,-2.5 0,0 0,-0.1 0.1,-0.1 1,-1.4 2,-2.7 3,-4 0.1,-0.1 0.2,-0.2 0.3,-0.4 0,0 0,-0.1 0.1,-0.1 0.6,-0.7 1.2,-1.5 1.8,-2.2 0,0 0,-0.1 0.1,-0.1 1.1,-1.2 2.3,-2.4 3.4,-3.5 l 0.1,-0.1 c 0.8,-0.7 1.5,-1.3 2.3,-1.8 L 76.9,41 77,40.9 c 0,0 0,0 0.1,0 0.1,-0.1 0.2,-0.2 0.3,-0.2 l -0.7,-2 c -0.4,0.3 -0.8,0.6 -1.1,0.9 0,0 0,0 -0.1,0.1 C 61.9,51 56.2,69.1 41.3,79 c 0.2,0.3 0.4,0.6 0.6,1 z m 12.8,1.3 c 0,0 0.1,0 0,0 0.4,0.1 0.7,0.1 1,0.1 0.9,0 1.7,-0.3 2.4,-0.8 v 0 c 0.8,-0.7 1.3,-1.7 1.3,-2.8 0,-0.6 -0.1,-1.1 -0.3,-1.5 v -0.1 c -0.6,-1.2 -1.9,-2.1 -3.3,-2.1 -0.2,0 -0.4,0 -0.5,0 h -0.1 c -0.7,0.1 -1.3,0.4 -1.8,0.8 h -0.1 c -0.8,0.7 -1.3,1.7 -1.3,2.8 0,1.7 1.1,3.2 2.7,3.6 z m -9.6,13.5 c 1.1,-0.4 2.1,-0.9 2.9,-1.4 l 0.1,-0.1 c 0.8,-0.5 1.5,-1.1 2.2,-1.7 0,0 0,-0.1 0.1,-0.1 3.2,-3.2 4.1,-7.3 4,-9.6 -0.7,-0.2 -1.4,-0.7 -1.9,-1.2 0.4,4.1 -0.9,9.1 -7,12.1 -0.1,0.1 -0.1,0.1 -0.2,0.1 0,0 -0.1,0 -0.2,0 -1,-0.3 -2.1,-0.9 -3,-1.5 -0.1,-0.1 -0.1,-0.1 -0.2,-0.2 -0.8,-0.6 -1.5,-1.4 -2,-2.2 -0.1,-0.1 -0.1,-0.1 -0.1,-0.2 -1.2,-2.1 -1,-4.5 2.4,-6.5 -0.2,-0.5 -0.4,-1 -0.6,-1.5 -7,4.6 -4.3,10.4 3.5,14 z M 48.3,94 c -0.7,0.4 -1.5,0.8 -2.3,1.2 4.1,1.7 9.4,2.8 15,2.7 C 57.7,96.6 51.5,94.7 48.3,94 Z m 2.4,-1.8 c -0.5,0.4 -1,0.9 -1.5,1.2 4,0.9 11.1,3.2 13.6,4.3 1.5,-0.1 3.1,-0.3 4.6,-0.5 -4.3,-1.3 -12.9,-4 -16.7,-5 z M 55,82.1 c 0,2.4 -0.8,6.4 -3.8,9.6 4.4,1.1 14,4.1 17.5,5.4 0.5,-0.1 1,-0.2 1.4,-0.3 -0.6,-2.8 -0.6,-6.9 0.8,-11.4 -4,-0.3 -8.5,-1.5 -12.7,-4.1 -0.7,0.5 -1.6,0.9 -2.6,0.9 -0.1,-0.1 -0.4,-0.1 -0.6,-0.1 z m 0,-9.7 c 0.1,0.3 0.2,0.6 0.3,0.9 0.1,0 0.3,0 0.4,0 0.7,0 1.4,0.2 2,0.5 0.4,-2 -1.5,-2.8 -2.7,-1.4 z m 2.6,-3.6 c 3.2,0.8 4.3,4.8 2.3,7.2 0.2,0.5 0.3,1.1 0.3,1.7 0,1.2 -0.5,2.3 -1.2,3.1 6.2,3.8 13.2,4.5 17.8,3.5 4.8,-1 6.5,-3.6 3.5,-6.4 -0.5,-0.5 0.9,-1.8 2,-1.9 0.1,-0.7 -0.2,-1.2 -0.7,-1.5 -1.5,-0.1 -3.9,0.6 -5.5,1 -0.1,0.3 -0.6,0.4 -0.7,0 -0.2,-0.5 0.3,-1.3 0.4,-1.5 0.2,-0.5 0.8,-0.2 0.6,0.3 -0.1,0.1 -0.2,0.3 -0.2,0.5 1.6,-0.4 3.8,-1.1 5.4,-1 0.4,-0.3 1.4,-1 1.2,-1.6 -0.1,-0.1 -0.2,-0.3 -0.4,-0.6 -0.8,-1 -0.4,-1.7 0.3,-2.5 -1.2,-0.2 -2.8,0 -3.6,0.9 -0.5,0.5 -1.3,-0.9 -1.4,-1.1 -0.3,-0.8 -0.3,-1.8 0.9,-2.9 0.3,-0.3 0.8,0.2 0.5,0.5 -0.9,0.9 -1.2,1.8 -0.3,2.7 v 0 c 1.3,-1 3.1,-1.2 4.6,-0.8 v 0 0 c 2.7,-0.2 2.5,-1.3 1.8,-3.2 -0.3,-0.8 -0.7,-1.7 -1,-2.7 -0.6,-1.5 -1.7,-4.6 -2.8,-8 -3.1,-1.2 -7.5,-0.5 -10.8,1 -0.8,1.3 -2,2.5 -3.7,3.7 -0.8,4.6 -4.6,8.1 -9,8.6 z M 56.8,68.7 56.9,68 c -0.3,0 -0.5,0 -0.8,0 -0.5,0.7 -1,1.3 -1.5,1.9 0,0.6 0.1,1.1 0.2,1.6 1.5,-1.3 4.4,-0.4 3.5,2.6 0.5,0.3 0.9,0.8 1.2,1.2 1.6,-2.2 0.2,-5.8 -2.9,-5.9 -0.5,0 -0.5,-0.7 0,-0.7 0.1,0 0.2,0 0.2,0 z M 69.2,43.1 c 0,0.4 -0.3,0.7 -0.7,0.7 -0.4,0 -0.7,-0.3 -0.7,-0.7 0,-0.4 0.3,-0.7 0.7,-0.7 0.4,0.1 0.7,0.4 0.7,0.7 z m 1.9,-2.2 c 0,0.4 -0.3,0.7 -0.7,0.7 -0.4,0 -0.7,-0.3 -0.7,-0.7 0,-0.4 0.3,-0.7 0.7,-0.7 0.4,0 0.7,0.3 0.7,0.7 z m -3.7,4.6 c 0,0.3 -0.3,0.6 -0.6,0.6 -0.3,0 -0.6,-0.3 -0.6,-0.6 0,-0.3 0.3,-0.6 0.6,-0.6 0.3,0 0.6,0.3 0.6,0.6 z M 47,39.1 c 0,0.4 -0.3,0.7 -0.7,0.7 -0.4,0 -0.7,-0.3 -0.7,-0.7 0,-0.4 0.3,-0.7 0.7,-0.7 0.4,0 0.7,0.3 0.7,0.7 z M 55.7,79 c 0.7,0 1.3,-0.6 1.3,-1.3 0,-0.7 -0.6,-1.3 -1.3,-1.3 -0.7,0 -1.3,0.6 -1.3,1.3 0,0.7 0.6,1.3 1.3,1.3 z m 0,0.7 c -1.1,0 -2,-0.9 -2,-2 0,-1.1 0.9,-2 2,-2 1.1,0 2,0.9 2,2 0,1.1 -0.9,2 -2,2 z M 83.2,68.6 Z m -10.5,-8 c -0.2,-0.6 -0.3,-1.3 -0.2,-2.1 -1.1,0.3 -2.1,0.8 -3,1.5 0.3,0.1 0.8,0.2 1.4,0.4 0.5,0.1 1.1,0.2 1.8,0.2 z m 0.5,-2.3 c -0.1,1 0,1.7 0.2,2.3 0.5,0 0.9,0 1.4,-0.1 -0.2,-0.3 -0.4,-0.8 -0.4,-1.2 0,-0.5 0,-0.9 0.2,-1.3 -0.4,0.1 -0.9,0.2 -1.4,0.3 z m 3,-1.1 c 0.5,0 1,-0.1 1.3,0 0.2,0 0.3,0.2 0.3,0.4 0,0.4 -0.6,0.7 -1,0.8 0.1,0.2 0.1,0.4 0.1,0.7 0.1,1 -0.3,1.9 -1,2.1 0,0 0,0 -0.1,0 -0.8,0.1 -1.7,0.2 -2.7,0.2 -0.1,0 -0.1,0 -0.2,0 -1.5,0 -3,-0.3 -4.2,-0.8 v 0 c -0.3,0.4 -0.9,-0.1 -0.5,-0.5 0,0 0.1,-0.1 0.2,-0.2 0,0 0,0 0.1,-0.1 0.9,-0.7 3.3,-2.5 7.7,-2.6 z"
   id="path1248"
   style="stroke-width:1.20005" />
	<path
   class="st2"
   d="m 74.5,95.4 c -0.9,-0.4 -2.4,-0.8 -4,-1.2 0.1,0.9 0.2,1.7 0.3,2.4 1.3,-0.4 2.5,-0.8 3.7,-1.2 z m -4,-2 c 2,0.5 4.1,1.1 4.9,1.6 0.7,-0.3 1.4,-0.6 2.1,-0.9 -1.2,-0.7 -4.2,-1.6 -6.9,-2.4 -0.1,0.6 -0.1,1.2 -0.1,1.7 z m 5.1,2.4 c -0.1,0 -0.1,0 0,0 -2.3,0.9 -4.5,1.5 -6.7,2 h -0.1 c -2,0.4 -4,0.7 -6,0.8 H 62.7 C 56.1,99 49.9,97.7 45.2,95.6 L 45,95.5 c 0,0 -0.1,0 -0.1,-0.1 C 37,91.7 33.4,85.2 41.2,80 c -0.8,-1.3 -1.8,-2.6 -2.9,-3.9 -0.3,-0.4 -0.7,-0.9 -1,-1.3 -0.6,1.6 -0.7,2.7 0.3,4.1 0.1,0.2 0.1,0.3 0,0.5 L 32.1,86 C 32,86.2 31.7,86.2 31.6,86 4,55.7 35.5,9.8 73.5,23 c 0.2,0.1 0.3,0.3 0.2,0.5 l -6,9.9 c -0.1,0.1 -0.2,0.2 -0.4,0.2 -1.9,-0.3 -3,-0.2 -3.8,0.5 1.7,0.3 3.5,0.7 5.3,1.4 1.6,-1.8 3.4,-3.5 5.2,-5 0,0 0.1,0 0.1,-0.1 0.1,-0.1 0.2,-0.1 0.3,0 0.1,0 0.2,0.1 0.2,0.2 v 0.1 L 78,40.9 c 0,0.1 0,0.2 0,0.3 0,0.1 -0.1,0.2 -0.2,0.2 -0.1,0.1 -0.2,0.1 -0.3,0.2 0.7,2.1 5.6,16.9 7.1,20.9 0.5,1.2 1.5,3.5 1.5,4.8 0,1.3 -0.9,2 -2.8,2.1 -1,0.9 -1.1,1.3 -0.6,1.9 1,1.4 0.5,2 -0.7,2.9 1.1,0.9 0.9,2.5 0.3,2.5 -0.8,0 -1.1,0.3 -1.6,0.9 3.5,3.4 0.6,6.4 -4.1,7.4 -1.5,0.3 -3.2,0.5 -5,0.4 0,0 0,0 0,0.1 -0.6,2 -1,3.9 -1.1,5.6 3.1,0.9 6.8,2 7.8,2.8 l 0.1,0.1 c 0.1,0.1 0.1,0.2 0.1,0.3 0,0.1 -0.1,0.2 -0.2,0.2 0,0 -0.1,0 -0.1,0.1 -0.8,0.4 -1.7,0.8 -2.6,1.2 z M 42.9,82.2 v 0 c 0.2,1 0.3,1.9 0.3,2.9 2.2,-1.5 1.6,-4 1,-5.2 -0.6,0.4 -1.1,0.7 -1.7,1.1 0.1,0.4 0.2,0.8 0.4,1.2 z m -0.6,0.7 c -1.6,1 -2.3,2.1 -2.4,3.3 1,-0.1 1.9,-0.4 2.5,-0.7 0.1,-0.9 0,-1.8 -0.1,-2.6 z m -2.5,4 c 0,0.5 0.2,0.9 0.4,1.4 5,-0.1 8.7,-5 6,-9.9 -0.5,0.4 -1,0.8 -1.5,1.1 1,1.9 1.9,6.7 -4.9,7.4 z m 0.9,2.1 c 0.4,0.6 0.9,1.1 1.5,1.6 7.3,-2.1 8.8,-8.2 5.9,-13.7 -0.4,0.4 -0.8,0.7 -1.3,1.1 3.1,5.3 -0.9,10.6 -6.1,11 z m 2.2,2.1 c 0.7,0.4 1.5,0.8 2.3,1.1 9,-4.5 6.8,-13.8 4.8,-17 -0.4,0.4 -0.9,0.8 -1.3,1.2 3,5.8 1.6,12.3 -5.8,14.7 z m 28,-36.4 c 3.1,-1.2 7,-1.8 10,-0.9 -1.3,-4 -2.7,-8.1 -3.5,-10.5 0,4 -1.9,7.8 -5.8,9.4 -0.2,0.7 -0.4,1.4 -0.7,2 z m -1.1,0.6 c 0,0 0,-0.1 0,0 0.6,-0.9 1,-1.8 1.2,-2.8 v -0.1 c 0.2,-0.8 0.2,-1.7 0.2,-2.6 v -0.1 c 0,-0.6 -0.1,-1.3 -0.3,-2 -0.5,0.5 -0.9,1 -1.3,1.6 0.2,2.3 -0.3,4.8 -2.8,7 0.1,0.7 0.1,1.4 0,2.1 1.3,-1 2.3,-2 3,-3.1 z M 51.4,76.5 c 0.2,-0.8 0.6,-1.4 1.2,-2 -0.3,-0.5 -0.4,-1.1 -0.5,-1.6 -0.5,0.6 -1,1.1 -1.6,1.7 0.3,0.6 0.6,1.2 0.9,1.9 z m 1.7,-2.4 c 0.4,-0.3 0.9,-0.5 1.4,-0.7 -0.3,-0.7 -0.5,-1.6 -0.6,-2.6 -0.4,0.5 -0.9,1 -1.3,1.5 0.1,0.6 0.3,1.2 0.5,1.8 z m -17,2.7 c 0,-0.8 0.3,-1.7 0.7,-2.7 -1.8,-2.6 -3.4,-6 -3.9,-11 V 63 c 0,-0.5 -0.1,-1 -0.1,-1.5 v -0.1 c 0,-0.2 0,-0.3 0,-0.5 -0.1,-1.6 0,-3.3 0.3,-4.9 v -0.1 c 0.1,-0.5 0.2,-1 0.3,-1.5 v -0.1 c 1.1,-4.6 3.4,-9 6.7,-12.6 l 0.1,-0.1 c 1,-1 2.1,-2 3.2,-2.9 v 0 c 1.8,-1.4 3.8,-2.5 6,-3.3 0,0 0,0 0.1,0 2.7,-1 5.7,-1.6 8.9,-1.6 0.2,0 0.4,0 0.6,0 1.2,0 2.4,0.1 3.7,0.3 0.6,-0.7 1.2,-1.1 2.1,-1.2 -0.1,0 -0.1,0 -0.2,-0.1 v 0 C 63,32.4 61.5,32.1 59.9,32 v 0 c -8.2,-0.5 -16.2,3.1 -21.6,9.1 v 0 c -1.1,1.2 -2.1,2.5 -3,3.9 0,0 0,0 0,0.1 -0.8,1.3 -1.5,2.7 -2.1,4.1 v 0 c -0.6,1.4 -1.1,2.9 -1.4,4.4 -1.4,5.9 -0.9,12.4 2.3,19 v 0 c 0.3,1.4 1.1,2.8 2,4.2 z m 1.3,-3 v 0 c 0.4,0.5 0.6,0.8 0.9,1.2 1.4,-1.1 2.7,-2.2 4,-3.4 -0.6,-0.3 -1.2,-0.6 -1.7,-0.9 -1,1 -1.6,1.4 -3.3,1.4 -0.3,0 -0.4,-0.2 -0.3,-0.5 0.3,-0.9 0,-3.2 0,-4.4 -0.1,-0.2 -0.3,-0.5 -0.4,-0.7 -0.4,0.1 -1,0.1 -1.7,0.1 -0.4,0 -0.5,-0.3 -0.2,-0.6 1.1,-1 0.9,-2.4 1.2,-4.3 -0.6,0.3 -1.8,1.1 -2.2,1.4 0.4,4.9 2,8.2 3.7,10.7 z m 3.5,4.6 C 55.5,68.6 61.3,50.9 74.4,39.7 l -1.9,-0.4 c -0.4,-0.1 -0.4,-0.1 -0.3,-0.5 l 0.3,-2.7 C 60.3,48.4 53.6,68.6 40,77.2 c 0.3,0.4 0.6,0.8 0.9,1.2 z M 74.8,33.8 c -0.6,0.5 -1.1,1 -1.6,1.5 l -0.4,3.4 2.2,0.5 c 0.4,-0.3 0.8,-0.7 1.3,-1 l -0.3,-1 c -0.6,0.2 -1.3,-0.1 -1.6,-0.8 -0.2,-0.6 0.1,-1.3 0.8,-1.6 z m -31.7,38 c -1.4,1.3 -2.8,2.6 -4.4,3.8 l 0.1,0.1 c 0.2,0.3 0.5,0.6 0.7,0.9 7.2,-4.5 12.4,-12.3 17.6,-20.5 4.5,-7.2 9.3,-15.2 15.4,-21.2 l 0.1,-0.1 c 0.6,-0.6 1.3,-1.2 1.9,-1.8 L 74,31.5 c -2.4,2 -4.5,4.2 -6.6,6.6 0,0 0,0.1 -0.1,0.1 -3.9,4.7 -7.2,10 -10.3,14.9 -1.7,2.6 -3.3,5.2 -5.1,7.8 0,0 0,0.1 -0.1,0.1 -0.7,1 -1.5,2 -2.2,3.1 0,0 0,0.1 -0.1,0.1 -0.5,0.7 -1.1,1.4 -1.7,2.1 0,0 0,0.1 -0.1,0.1 -0.8,1 -1.7,2 -2.6,3 0,0 0,0.1 -0.1,0.1 -0.4,0.7 -1.2,1.5 -1.9,2.3 z m -0.3,-0.7 c 0.5,-0.5 1.1,-1.1 1.6,-1.6 -3.3,-0.5 -5.2,-2.1 -5.9,-4.1 -0.5,0.4 -0.8,0.7 -1.2,0.9 0.1,0.2 0.2,0.4 0.3,0.6 0,0 0.1,0.1 0.1,0.2 1.3,2.1 2.8,2.8 5.1,4 z m 2.1,-2.3 c 0.5,-0.6 1.1,-1.2 1.6,-1.8 -6.1,1.7 -10,-7.9 0.5,-11.8 -0.8,-0.3 -1.5,-0.5 -2.2,-0.9 -6.8,3 -9.1,13.3 0.1,14.5 z m 2.6,-3 c 0.5,-0.7 1.1,-1.3 1.6,-2 C 49.3,62 48.9,60 46.6,59 c -0.6,0.3 -1.2,0.7 -1.7,1.2 3.3,0.5 3.2,4.7 0.2,4.7 -2.5,0 -2.4,-3.1 -1.3,-4.6 0,0 0,-0.1 0.1,-0.1 v 0 c 0.5,-0.7 1.3,-1.3 2.4,-1.9 0,0 0.1,0 0.1,-0.1 0.8,-0.4 1.8,-0.7 2.9,-1 h 0.1 C 50.1,57 50.8,56.9 51.7,56.8 51.1,56.5 50.3,56.3 49.6,56 49.1,55.8 48.6,55.7 48,55.5 36.9,59.1 41.4,69 47.5,65.8 Z m 2.3,-3.1 c 0.5,-0.7 1,-1.4 1.5,-2.1 -0.1,-0.7 -0.9,-2 -1.8,-2.7 -0.7,0.2 -1.4,0.4 -2.1,0.7 1.8,1 2.4,2.6 2.4,4.1 z m 2,-2.8 c 0.5,-0.8 1,-1.5 1.5,-2.3 -0.1,-0.1 -0.3,-0.2 -0.4,-0.3 -0.7,0.1 -1.6,0.2 -2.6,0.4 0.7,0.7 1.2,1.5 1.5,2.2 z m 1.9,-2.8 c 0.5,-0.8 1,-1.6 1.6,-2.4 -2,-0.5 -5.5,-0.2 -7.8,-0.2 0.8,0.3 1.6,0.5 2.4,0.8 1.2,0.4 2.3,0.8 3.3,1.4 0,0 0.1,0 0.1,0.1 0.1,0.1 0.3,0.2 0.4,0.3 z m 2,-3.1 c 0.4,-0.6 0.7,-1.2 1.1,-1.7 -2.2,-0.7 -5.7,-0.5 -7.9,-0.5 -2.6,0 -5.4,0.1 -7.5,-0.5 1.1,1 2.5,1.8 4,2.4 1.1,0.2 3.8,0 4.7,0 2,0 4.2,0 5.6,0.3 z m 1.5,-2.3 c 0.3,-0.5 0.6,-1 0.9,-1.5 -2.8,-1.1 -7.3,-0.7 -10.2,-0.7 -3.3,0 -6.7,-0.2 -8.9,-2 0.3,1.1 0.8,2 1.4,2.8 3.2,1.4 9.4,0.7 13.1,0.8 1.4,0.1 2.7,0.2 3.7,0.6 z m 1.3,-2.1 c 0.3,-0.5 0.6,-1 1,-1.5 -1.1,-0.4 -2.2,-0.6 -3.3,-0.8 H 56.1 C 53.3,46.9 50.5,47 47.5,47 45.6,47 43.9,46.9 42.3,46.5 h -0.1 c -1.3,-0.4 -2.4,-1.1 -3.3,-2.4 -0.1,0.1 -0.2,0.2 -0.3,0.4 0,0.6 0.1,1.1 0.2,1.7 1.8,2.4 5.3,2.7 9.2,2.7 3,-0.1 7.6,-0.5 10.5,0.7 z m 8.7,-12.2 c 0.3,-0.4 0.7,-0.8 1,-1.2 -1.9,-0.6 -3.7,-1.1 -5.5,-1.3 h -0.1 c -0.8,-0.1 -1.6,-0.2 -2.4,-0.3 0.3,0.4 0.5,1.1 0.5,1.9 0.4,0.4 0.7,0.9 0.7,1.4 0.5,-0.3 1.2,-0.4 2,-0.2 C 64,36.3 66,36 67.2,37.4 Z M 27.6,79.9 34.1,75 c -0.3,-0.6 -0.6,-1.1 -0.9,-1.7 l -5.5,3.3 C 27.3,76.8 26.9,76.2 27.3,76 l 5.5,-3.4 c -0.2,-0.5 -0.4,-0.9 -0.6,-1.4 l -7.5,3.5 c 0.9,1.8 1.9,3.5 2.9,5.2 z m 6.9,-4.3 -6.5,4.9 c 1.1,1.6 2.3,3.2 3.7,4.8 l 5.1,-6.1 c -0.3,-0.5 -0.7,-0.9 -1,-1.4 l -4.9,4.8 c -0.3,0.3 -0.8,-0.2 -0.5,-0.5 l 5,-4.9 c -0.3,-0.5 -0.6,-1.1 -0.9,-1.6 z m -9.9,-1.5 7.5,-3.5 c -0.2,-0.5 -0.4,-1 -0.5,-1.5 l -6.1,1.8 C 25,71 24.8,70.3 25.3,70.2 l 6.1,-1.8 c -0.2,-0.7 -0.4,-1.3 -0.5,-2 l -8.1,1.7 c 0.3,2.1 1,4 1.8,6 z m -2.1,-6.6 8.1,-1.7 c -0.1,-0.6 -0.2,-1.2 -0.3,-1.7 l -6.5,0.6 C 23.3,64.7 23.3,64 23.7,64 l 6.5,-0.6 C 30.1,62.8 30.1,62.1 30,61.5 l -8.3,-0.2 c 0.1,2 0.4,4.1 0.8,6.2 z m -0.8,-7 8.3,0.2 c 0,-0.6 0,-1.1 0,-1.7 l -6.4,-0.7 c -0.5,-0.1 -0.4,-0.8 0.1,-0.7 l 6.4,0.7 c 0,-0.7 0.1,-1.4 0.2,-2.1 l -8.1,-1.7 c -0.3,2 -0.5,4 -0.5,6 z m 0.6,-6.7 8.1,1.7 c 0.1,-0.6 0.2,-1.1 0.3,-1.6 l -6.2,-2 C 24,51.8 24.3,51.1 24.7,51.2 l 6.1,1.9 c 0.1,-0.5 0.3,-1.1 0.4,-1.6 l -7.5,-3.7 c -0.5,1.9 -1.1,3.9 -1.4,6 z m 1.8,-6.7 7.4,3.7 c 0.2,-0.5 0.4,-1.1 0.6,-1.6 l -5.7,-3.5 c -0.4,-0.2 0,-0.9 0.4,-0.6 l 5.6,3.4 c 0.2,-0.6 0.5,-1.1 0.8,-1.7 l -6.7,-5.1 c -0.9,1.8 -1.7,3.6 -2.4,5.4 z m 2.7,-5.9 6.7,5.1 C 33.7,45.9 34,45.4 34.3,45 l -4.9,-4.7 c -0.3,-0.3 0.2,-0.8 0.5,-0.5 l 4.8,4.6 c 0.4,-0.6 0.7,-1.1 1.1,-1.6 l -5.6,-6.5 c -1.2,1.5 -2.4,3.1 -3.4,4.9 z m 3.8,-5.5 5.6,6.5 c 0.4,-0.4 0.7,-0.9 1.1,-1.3 l -4.2,-5.7 c -0.3,-0.4 0.3,-0.8 0.6,-0.4 l 4.1,5.6 c 0.4,-0.4 0.8,-0.9 1.3,-1.3 l -4.4,-7.6 c -1.5,1.2 -2.8,2.6 -4.1,4.2 z m 4.6,-4.8 4.4,7.6 c 0.4,-0.3 0.8,-0.7 1.2,-1 l -2.9,-6.7 c -0.2,-0.4 0.5,-0.7 0.7,-0.3 l 2.8,6.5 c 0.5,-0.4 1,-0.8 1.6,-1.1 l -2.9,-8.7 c -1.7,1.2 -3.4,2.4 -4.9,3.7 z m 5.5,-4 2.9,8.7 C 44.1,35.3 44.5,35 45,34.8 L 43.3,27.5 C 43.2,27 43.9,26.9 44,27.3 l 1.7,7 c 0.5,-0.3 1,-0.5 1.5,-0.8 l -1.3,-9.4 c -1.8,0.9 -3.5,1.8 -5.2,2.8 z m 5.9,-3 1.3,9.4 c 0.5,-0.2 1.1,-0.4 1.7,-0.6 l -0.3,-7.8 c 0,-0.5 0.7,-0.5 0.7,0 l 0.2,7.6 c 0.5,-0.2 1.1,-0.3 1.7,-0.5 l 0.7,-9.8 c -2.1,0.4 -4.1,1 -6,1.7 z m 6.7,-1.8 -0.7,9.8 c 0.6,-0.1 1.3,-0.3 1.9,-0.3 l 1.2,-7.7 c 0.1,-0.5 0.8,-0.4 0.7,0.1 l -1.1,7.5 c 0.5,-0.1 1,-0.1 1.5,-0.1 l 2.5,-9.8 c -2,-0.1 -4,0.1 -6,0.5 z m 6.8,-0.6 -2.5,9.8 c 0.6,0 1.3,0 1.9,0 l 2.4,-7.7 c 0.1,-0.5 0.8,-0.2 0.7,0.2 l -2.4,7.5 c 0.6,0.1 1.2,0.1 1.8,0.2 l 4.1,-9.6 c -2,-0.3 -4,-0.4 -6,-0.4 z m 6.7,0.6 -4.1,9.6 c 0.5,0.1 1.1,0.2 1.6,0.4 l 4,-7.8 c 0.2,-0.4 0.9,-0.1 0.6,0.3 l -4,7.6 c 0.7,0.2 1.4,0.4 2.1,0.7 l 5.6,-9.3 C 70.7,22.9 68.8,22.4 66.8,22.1 Z M 53.9,43.6 c 0,0.1 0,0.1 -0.1,0.2 0,0.1 -0.1,0.1 -0.2,0.1 0,0 0,0 -0.1,0 -0.6,0.1 -1.2,0.1 -1.8,0 -0.1,0.1 -0.1,0.1 -0.2,0.2 0.1,0.7 0.4,1.5 1.2,2.3 0.5,0 1.1,0 1.6,0.1 L 55.9,40 c -1.8,-0.5 -2.2,-3.6 0.1,-4 0,-0.5 0.2,-1 0.5,-1.3 -1.2,0.1 -2.4,0.2 -3.6,0.5 l 0.3,3.7 v 0.1 0.4 c 0,0.5 -0.7,0.5 -0.7,0.1 v -0.3 l -1.5,-1 c -0.4,0.3 -0.6,0.8 -0.6,1.3 0,1 0.8,1.8 1.8,1.8 0.2,0 0.3,0 0.5,-0.1 v -0.1 c 0,-0.5 0.7,-0.5 0.7,-0.1 v 0.4 0.1 l 0.5,2.1 c 0,-0.1 0,0 0,0 z m -2.6,-6.6 0.2,0.1 c 0,0 0,0 0.1,0 l 1.2,0.8 -0.3,-2.9 c -0.9,0.2 -1.8,0.5 -2.7,0.8 -1.9,2 -1.6,4.2 -0.5,5.6 l 0.1,0.1 c 0.9,1.1 2.4,1.7 3.8,1.5 L 53,41.7 c -0.2,0 -0.4,0.1 -0.6,0.1 -1.4,0 -2.5,-1.1 -2.5,-2.5 0,-0.7 0.3,-1.3 0.8,-1.8 -0.1,-0.3 0.2,-0.7 0.6,-0.5 z m -0.4,6.6 c -0.8,-0.3 -1.5,-0.8 -2,-1.3 -2.5,0.6 -4.7,-1.2 -5.5,-2.8 -0.9,0.7 -1.7,1.4 -2.4,2.1 l 1.5,0.4 c 0,0 0,0 0.1,0 l 0.4,0.1 c 0.1,0 0.1,0 0.2,0.1 0.1,0 0.1,0.1 0.1,0.1 1.7,2.1 6,2.1 7.6,1.3 z m -2.5,-2 c -1,-1.4 -1.2,-3.2 0,-5.1 -1.6,0.7 -3.1,1.6 -4.4,2.6 0.6,1.3 2.4,2.8 4.4,2.5 z m -5.7,1.2 v 0 c -0.3,0.7 -0.3,2.2 -0.1,3 1.4,0.4 3,0.5 4.8,0.5 1.5,0 3,0 4.4,0 -0.5,-0.6 -0.8,-1.3 -0.9,-1.9 -2.1,0.8 -6.3,0.5 -8.2,-1.6 z m 1.2,11.1 c -0.5,-0.2 -0.9,-0.5 -1.3,-0.8 -0.5,0.4 -1,0.8 -1.5,1.1 0,0 0,0 -0.1,0 -0.9,0.8 -1.7,1.5 -2.3,2.2 0,0 0,0 -0.1,0.1 -0.3,0.3 -0.5,0.6 -0.7,1 0,0 0,0.1 -0.1,0.1 -0.8,1.3 -1.2,2.4 -1.4,3.5 -0.3,1.5 -0.1,3.5 -1,4.8 1.4,-0.1 1.8,-0.5 2.6,-1.3 -0.6,-3.8 2.1,-8.7 5.9,-10.7 z m 0.5,6.9 c -0.1,0.1 -0.2,0.3 -0.3,0.4 -0.8,1.6 0.1,2.9 1,2.9 2.3,0 2.1,-3.1 -0.7,-3.3 z M 40.3,54 c -1.2,-1 -2.6,-2 -3.3,-3.5 -0.1,0.8 -0.1,1.6 0.1,2.3 v 0 C 37.4,54 38,55 38.5,55.7 39,55.2 39.6,54.6 40.3,54 Z m -2.6,14.4 c 0.1,1 0.2,2 0,3 1.1,-0.1 1.6,-0.4 2.2,-1 -0.8,-0.6 -1.5,-1.2 -2.2,-2 z m -0.4,-13.3 -1.3,0.7 0.7,1.5 c 0.3,-0.1 0.5,-0.2 0.8,-0.3 0.2,-0.2 0.4,-0.5 0.6,-0.8 -0.3,-0.3 -0.5,-0.7 -0.8,-1.1 z m -3.9,6.4 c 0,0.3 0,0.6 0.1,0.9 0.7,-0.5 1.8,-1.2 2.4,-1.4 0.2,-0.9 0.5,-1.8 1,-2.8 -0.1,0 -0.1,0.1 -0.2,0.1 v 0 c -1.6,0.8 -3,2.6 -3.3,3.2 z m 0.1,-4.6 c -0.1,1.1 -0.2,2.2 -0.2,3.3 0.3,-0.5 0.8,-1 1.3,-1.5 z m 0.4,-2.3 c -0.1,0.4 -0.2,0.9 -0.2,1.3 l 1.5,2.5 c 0.3,-0.2 0.5,-0.4 0.8,-0.6 -1.2,-2.6 -1.5,-2 1,-3.2 -0.2,-0.4 -0.3,-0.8 -0.5,-1.2 -0.6,0.1 -1.7,0.5 -2.6,1.2 z m 4,-9.2 c -1.7,2.5 -3,5.3 -3.7,8.2 0.8,-0.5 1.6,-0.8 2.2,-1 -0.2,-1.1 -0.2,-2.2 0.3,-3.5 0.2,-0.4 0.6,-0.4 0.7,0.1 0.3,1.8 2.1,3.2 3.5,4.3 0.3,-0.3 0.7,-0.6 1.1,-0.8 -2.1,-1.5 -3.7,-3.7 -4.1,-7.3 z m 2.5,-3.2 c -0.4,0.4 -0.8,0.8 -1.1,1.3 0.7,1 1.6,1.6 2.6,2.1 -0.1,-0.9 -0.1,-2.1 0.1,-2.9 z m 20.1,-2.3 c -0.3,0.2 -0.7,0.3 -1.2,0.3 -0.1,1 -0.3,2.1 -0.1,3.1 l 1.9,-2 c -0.4,-0.5 -0.6,-1 -0.6,-1.4 z M 58.3,42 C 57.8,41.9 57.2,41.7 57,41.1 56.9,40.9 57.7,41 57.8,41 c 0.2,0 0.4,0 0.6,-0.1 0,-0.4 0.1,-0.8 0.2,-1.2 v 0 c 0,-0.1 0,-0.3 0.1,-0.4 0.1,-0.5 0.8,-0.4 0.7,0.1 2.1,-0.2 1.7,-3.2 -0.5,-2.7 -0.5,0.1 -0.6,-0.6 -0.1,-0.7 0.5,-0.1 0.9,-0.1 1.3,0 -0.2,-3 -4.9,-1.2 -2.2,1.1 0.4,0.3 -0.1,0.9 -0.5,0.5 -0.5,-0.4 -0.8,-0.8 -0.9,-1.2 -1.6,0.3 -1.2,2.3 -0.1,2.6 v -0.1 c 0.1,-0.5 0.8,-0.3 0.7,0.2 L 57,39.5 v 0 l -1.8,7 c 0.3,0 0.6,0.1 0.9,0.1 l 2.5,-2.7 C 58.4,43.3 58.3,42.7 58.3,42 Z m 3.6,2.5 c -0.4,-0.5 -0.5,-1.3 -0.4,-2 0.1,-0.3 0.4,0.2 0.5,0.3 0.2,0.2 0.5,0.3 0.8,0.5 0.6,-0.9 1.2,-1.7 1.8,-2.6 0.7,-0.9 1.4,-1.9 2.2,-2.8 -1.2,-1.5 -3.3,-0.6 -2.7,1.7 0.1,0.5 -0.6,0.6 -0.7,0.2 -0.1,-0.5 -0.2,-1 -0.1,-1.4 -1.6,-0.5 -2.7,0.9 -1.7,2.3 0.3,-0.3 0.8,0.2 0.5,0.5 l -2.8,3 -0.1,0.1 -2.2,2.4 c 1,0.2 2,0.4 3,0.8 0.5,-1 1.2,-2 1.9,-3 z m -3.2,20 c 4,-1.6 5.2,-4.8 5,-7.3 -0.9,1.3 -1.8,2.6 -2.6,3.9 -0.8,1.1 -1.6,2.2 -2.4,3.4 z m 7.9,-9.1 c 1.7,-1.7 2.2,-3.6 2.2,-5.3 -0.9,1.2 -1.8,2.4 -2.7,3.6 0.2,0.6 0.4,1.1 0.5,1.7 z M 71.8,49 c 1.8,-1.5 2.5,-3 2.5,-4.9 -1,0.9 -1.9,1.8 -2.8,2.8 0.1,0.8 0.2,1.5 0.3,2.1 z m -0.1,2.9 c 3.7,-1.7 5.2,-5.7 4.9,-9.8 -0.6,0.4 -1.2,0.9 -1.7,1.4 0.2,2.5 -0.7,4.5 -3.1,6.3 0,0.8 0,1.5 -0.1,2.1 z M 57.3,67.3 v 0 c 4.2,-0.4 7.9,-3.7 8.7,-8.2 V 59 c 0.1,-0.9 0.2,-1.8 0.1,-2.8 V 56.1 C 66,55.5 65.9,55 65.7,54.4 c -0.4,0.6 -0.9,1.2 -1.3,1.9 0.6,3.2 -0.8,7.6 -6.3,9.2 -0.4,0.6 -0.9,1.2 -1.4,1.8 0.2,0 0.4,0 0.6,0 z M 41.9,80 v 0 c 0.1,0.2 0.2,0.3 0.2,0.4 1.4,-0.8 2.7,-1.7 4,-2.8 0,0 0,0 0.1,0 0.6,-0.5 1.2,-1 1.8,-1.5 L 48.1,76 c 0.6,-0.5 1.1,-1.1 1.7,-1.6 0,0 0,-0.1 0.1,-0.1 0.7,-0.7 1.5,-1.5 2.2,-2.3 l 0.1,-0.1 c 0.6,-0.7 1.3,-1.5 1.9,-2.2 0,-0.1 0.1,-0.1 0.1,-0.1 0.5,-0.7 1.1,-1.4 1.6,-2.1 0,-0.1 0,0 0.1,-0.1 0.6,-0.8 1.2,-1.6 1.7,-2.4 0,0 0,-0.1 0.1,-0.1 2.1,-2.9 4.1,-5.9 6.1,-8.9 0,0 0,-0.1 0.1,-0.1 0.6,-0.8 1.1,-1.7 1.7,-2.5 0,0 0,-0.1 0.1,-0.1 1,-1.4 2,-2.7 3,-4 0.1,-0.1 0.2,-0.2 0.3,-0.4 0,0 0,-0.1 0.1,-0.1 0.6,-0.7 1.2,-1.5 1.8,-2.2 0,0 0,-0.1 0.1,-0.1 1.1,-1.2 2.3,-2.4 3.4,-3.5 l 0.1,-0.1 c 0.8,-0.7 1.5,-1.3 2.3,-1.8 L 76.9,41 77,40.9 c 0,0 0,0 0.1,0 0.1,-0.1 0.2,-0.2 0.3,-0.2 l -0.7,-2 c -0.4,0.3 -0.8,0.6 -1.1,0.9 0,0 0,0 -0.1,0.1 C 61.9,51 56.2,69.1 41.3,79 c 0.2,0.3 0.4,0.6 0.6,1 z m 12.8,1.3 c 0,0 0.1,0 0,0 0.4,0.1 0.7,0.1 1,0.1 0.9,0 1.7,-0.3 2.4,-0.8 v 0 c 0.8,-0.7 1.3,-1.7 1.3,-2.8 0,-0.6 -0.1,-1.1 -0.3,-1.5 v -0.1 c -0.6,-1.2 -1.9,-2.1 -3.3,-2.1 -0.2,0 -0.4,0 -0.5,0 h -0.1 c -0.7,0.1 -1.3,0.4 -1.8,0.8 h -0.1 c -0.8,0.7 -1.3,1.7 -1.3,2.8 0,1.7 1.1,3.2 2.7,3.6 z m -9.6,13.5 c 1.1,-0.4 2.1,-0.9 2.9,-1.4 l 0.1,-0.1 c 0.8,-0.5 1.5,-1.1 2.2,-1.7 0,0 0,-0.1 0.1,-0.1 3.2,-3.2 4.1,-7.3 4,-9.6 -0.7,-0.2 -1.4,-0.7 -1.9,-1.2 0.4,4.1 -0.9,9.1 -7,12.1 -0.1,0.1 -0.1,0.1 -0.2,0.1 0,0 -0.1,0 -0.2,0 -1,-0.3 -2.1,-0.9 -3,-1.5 -0.1,-0.1 -0.1,-0.1 -0.2,-0.2 -0.8,-0.6 -1.5,-1.4 -2,-2.2 -0.1,-0.1 -0.1,-0.1 -0.1,-0.2 -1.2,-2.1 -1,-4.5 2.4,-6.5 -0.2,-0.5 -0.4,-1 -0.6,-1.5 -7,4.6 -4.3,10.4 3.5,14 z M 48.3,94 c -0.7,0.4 -1.5,0.8 -2.3,1.2 4.1,1.7 9.4,2.8 15,2.7 C 57.7,96.6 51.5,94.7 48.3,94 Z m 2.4,-1.8 c -0.5,0.4 -1,0.9 -1.5,1.2 4,0.9 11.1,3.2 13.6,4.3 1.5,-0.1 3.1,-0.3 4.6,-0.5 -4.3,-1.3 -12.9,-4 -16.7,-5 z M 55,82.1 c 0,2.4 -0.8,6.4 -3.8,9.6 4.4,1.1 14,4.1 17.5,5.4 0.5,-0.1 1,-0.2 1.4,-0.3 -0.6,-2.8 -0.6,-6.9 0.8,-11.4 -4,-0.3 -8.5,-1.5 -12.7,-4.1 -0.7,0.5 -1.6,0.9 -2.6,0.9 -0.1,-0.1 -0.4,-0.1 -0.6,-0.1 z m 0,-9.7 c 0.1,0.3 0.2,0.6 0.3,0.9 0.1,0 0.3,0 0.4,0 0.7,0 1.4,0.2 2,0.5 0.4,-2 -1.5,-2.8 -2.7,-1.4 z m 2.6,-3.6 c 3.2,0.8 4.3,4.8 2.3,7.2 0.2,0.5 0.3,1.1 0.3,1.7 0,1.2 -0.5,2.3 -1.2,3.1 6.2,3.8 13.2,4.5 17.8,3.5 4.8,-1 6.5,-3.6 3.5,-6.4 -0.5,-0.5 0.9,-1.8 2,-1.9 0.1,-0.7 -0.2,-1.2 -0.7,-1.5 -1.5,-0.1 -3.9,0.6 -5.5,1 -0.1,0.3 -0.6,0.4 -0.7,0 -0.2,-0.5 0.3,-1.3 0.4,-1.5 0.2,-0.5 0.8,-0.2 0.6,0.3 -0.1,0.1 -0.2,0.3 -0.2,0.5 1.6,-0.4 3.8,-1.1 5.4,-1 0.4,-0.3 1.4,-1 1.2,-1.6 -0.1,-0.1 -0.2,-0.3 -0.4,-0.6 -0.8,-1 -0.4,-1.7 0.3,-2.5 -1.2,-0.2 -2.8,0 -3.6,0.9 -0.5,0.5 -1.3,-0.9 -1.4,-1.1 -0.3,-0.8 -0.3,-1.8 0.9,-2.9 0.3,-0.3 0.8,0.2 0.5,0.5 -0.9,0.9 -1.2,1.8 -0.3,2.7 v 0 c 1.3,-1 3.1,-1.2 4.6,-0.8 v 0 0 c 2.7,-0.2 2.5,-1.3 1.8,-3.2 -0.3,-0.8 -0.7,-1.7 -1,-2.7 -0.6,-1.5 -1.7,-4.6 -2.8,-8 -3.1,-1.2 -7.5,-0.5 -10.8,1 -0.8,1.3 -2,2.5 -3.7,3.7 -0.8,4.6 -4.6,8.1 -9,8.6 z M 56.8,68.7 56.9,68 c -0.3,0 -0.5,0 -0.8,0 -0.5,0.7 -1,1.3 -1.5,1.9 0,0.6 0.1,1.1 0.2,1.6 1.5,-1.3 4.4,-0.4 3.5,2.6 0.5,0.3 0.9,0.8 1.2,1.2 1.6,-2.2 0.2,-5.8 -2.9,-5.9 -0.5,0 -0.5,-0.7 0,-0.7 0.1,0 0.2,0 0.2,0 z M 69.2,43.1 c 0,0.4 -0.3,0.7 -0.7,0.7 -0.4,0 -0.7,-0.3 -0.7,-0.7 0,-0.4 0.3,-0.7 0.7,-0.7 0.4,0.1 0.7,0.4 0.7,0.7 z m 1.9,-2.2 c 0,0.4 -0.3,0.7 -0.7,0.7 -0.4,0 -0.7,-0.3 -0.7,-0.7 0,-0.4 0.3,-0.7 0.7,-0.7 0.4,0 0.7,0.3 0.7,0.7 z m -3.7,4.6 c 0,0.3 -0.3,0.6 -0.6,0.6 -0.3,0 -0.6,-0.3 -0.6,-0.6 0,-0.3 0.3,-0.6 0.6,-0.6 0.3,0 0.6,0.3 0.6,0.6 z M 47,39.1 c 0,0.4 -0.3,0.7 -0.7,0.7 -0.4,0 -0.7,-0.3 -0.7,-0.7 0,-0.4 0.3,-0.7 0.7,-0.7 0.4,0 0.7,0.3 0.7,0.7 z M 55.7,79 c 0.7,0 1.3,-0.6 1.3,-1.3 0,-0.7 -0.6,-1.3 -1.3,-1.3 -0.7,0 -1.3,0.6 -1.3,1.3 0,0.7 0.6,1.3 1.3,1.3 z m 0,0.7 c -1.1,0 -2,-0.9 -2,-2 0,-1.1 0.9,-2 2,-2 1.1,0 2,0.9 2,2 0,1.1 -0.9,2 -2,2 z M 83.2,68.6 Z m -10.5,-8 c -0.2,-0.6 -0.3,-1.3 -0.2,-2.1 -1.1,0.3 -2.1,0.8 -3,1.5 0.3,0.1 0.8,0.2 1.4,0.4 0.5,0.1 1.1,0.2 1.8,0.2 z m 0.5,-2.3 c -0.1,1 0,1.7 0.2,2.3 0.5,0 0.9,0 1.4,-0.1 -0.2,-0.3 -0.4,-0.8 -0.4,-1.2 0,-0.5 0,-0.9 0.2,-1.3 -0.4,0.1 -0.9,0.2 -1.4,0.3 z m 3,-1.1 c 0.5,0 1,-0.1 1.3,0 0.2,0 0.3,0.2 0.3,0.4 0,0.4 -0.6,0.7 -1,0.8 0.1,0.2 0.1,0.4 0.1,0.7 0.1,1 -0.3,1.9 -1,2.1 0,0 0,0 -0.1,0 -0.8,0.1 -1.7,0.2 -2.7,0.2 -0.1,0 -0.1,0 -0.2,0 -1.5,0 -3,-0.3 -4.2,-0.8 v 0 c -0.3,0.4 -0.9,-0.1 -0.5,-0.5 0,0 0.1,-0.1 0.2,-0.2 0,0 0,0 0.1,-0.1 0.9,-0.7 3.3,-2.5 7.7,-2.6 z"
   id="path1250" />
	<path
   class="st1"
   d="m 101.7,30.2 v 1.3 h 4 v 12.4 h 1.5 V 31.5 h 4 v -1.3 z m 12.6,0 v 13.7 h 7.4 v -1.3 h -5.9 v -5.1 h 5.4 v -1.3 h -5.4 v -4.7 h 5.9 v -1.3 z m 17.6,0.9 c 1.3,0 2.5,0.3 3.5,1 L 136,31 c -1.3,-0.7 -2.6,-1 -4.1,-1 -4,0 -7.2,2.9 -7.2,7.1 0,4.5 3.2,7.1 7.2,7.1 1.4,0 2.9,-0.5 4.1,-1.2 l -0.5,-1 c -1.1,0.6 -2.3,1 -3.5,1 -3.3,0 -5.7,-2.6 -5.7,-5.9 -0.1,-3.4 2.2,-6 5.6,-6 z m 7.6,-0.9 v 13.7 h 1.5 v -6.6 h 7.5 v 6.6 H 150 V 30.2 h -1.5 v 5.9 H 141 v -5.9 z m 17,-0.3 -1.6,0.4 v 13.6 h 1.5 V 32.1 l 8,12.1 1.6,-0.4 V 30.2 h -1.4 v 11.7 z m 15,0.3 V 43.9 H 173 V 30.2 Z m 9.4,12.9 c -1.1,0 -2.2,-0.5 -2.9,-1 l -0.6,1 c 1.1,0.7 2.2,1 3.6,1 3,0 4.4,-1.9 4.4,-3.9 0,-2.1 -1.5,-3 -3,-3.7 l -1.2,-0.6 c -1,-0.5 -2.1,-1.2 -2.1,-2.4 0,-1.8 1.5,-2.6 2.7,-2.6 1.3,0 2.1,0.4 2.9,1 l 0.5,-1 c -1.1,-0.6 -2.2,-1 -3.5,-1 -2.4,0 -4.1,1.5 -4.1,3.5 0,2.9 2.1,3.4 4.1,4.4 1.1,0.5 2,1.2 2,2.6 0.1,1.6 -1.2,2.7 -2.8,2.7 z m 15,-12 c 1.3,0 2.5,0.3 3.5,1 L 200,31 c -1.3,-0.7 -2.6,-1 -4.1,-1 -4,0 -7.2,2.9 -7.2,7.1 0,4.5 3.2,7.1 7.2,7.1 1.4,0 2.9,-0.5 4.1,-1.2 l -0.5,-1 c -1.1,0.6 -2.3,1 -3.5,1 -3.3,0 -5.7,-2.6 -5.7,-5.9 -0.1,-3.4 2.3,-6 5.6,-6 z m 8,-0.9 v 13.7 h 1.5 v -6.6 h 7.5 v 6.6 h 1.5 V 30.2 h -1.5 v 5.9 h -7.5 v -5.9 z m 15.4,0 v 13.7 h 7.5 v -1.3 h -5.9 v -5.1 h 5.4 v -1.3 h -5.4 v -4.7 h 5.9 V 30.2 Z M 113.9,61.8 v -9 h -1.5 v 8.8 c 0,3.1 -1.5,4 -3.8,4 -2.6,0 -3.7,-1.4 -3.7,-4 v -8.8 h -1.6 v 9.1 c 0,3.1 1.8,4.8 5.2,4.8 2.6,0.1 5.4,-0.7 5.4,-4.9 z m 5.9,-9.2 -1.6,0.4 v 13.6 h 1.5 V 54.8 l 8,12.1 1.6,-0.4 V 52.9 h -1.4 v 11.7 z m 14.4,0.3 v 13.7 h 1.5 V 52.9 Z m 5.9,-0.2 -1.5,0.5 5.2,13.4 h 1.5 l 5.3,-13.4 -1.5,-0.5 -4.5,12.3 z m 13.5,0.2 v 13.7 h 7.4 v -1.3 h -5.9 v -5.2 h 5.3 v -1.3 h -5.3 v -4.7 h 5.9 v -1.3 h -7.4 z m 14.4,6.6 h -1.8 V 54 h 2.2 c 2.4,0 3.1,1.2 3.1,2.7 0,2.3 -1.7,2.8 -3.5,2.8 z m 0.8,-6.6 h -4.1 v 13.7 h 1.5 v -5.9 h 1.3 c 1,0 1.5,0.4 2.1,1.1 l 0.6,0.8 3.2,4.4 1.3,-0.8 -2.7,-3.7 c -0.5,-0.7 -1.3,-1.9 -2.1,-2.2 V 60 c 1.9,-0.3 3,-1.3 3,-3.6 0,-2.1 -1.5,-3.5 -4.1,-3.5 z m 11.4,12.9 c -1.1,0 -2.2,-0.5 -2.9,-1 l -0.6,1 c 1.1,0.7 2.2,1 3.6,1 3,0 4.4,-1.9 4.4,-3.9 0,-2.1 -1.5,-3 -3,-3.7 l -1.2,-0.6 c -1,-0.5 -2.1,-1.2 -2.1,-2.4 0,-1.8 1.5,-2.6 2.7,-2.6 1.3,0 2.1,0.5 2.9,1 l 0.5,-1 c -1.1,-0.6 -2.2,-1 -3.5,-1 -2.4,0 -4.1,1.5 -4.1,3.5 0,2.9 2.1,3.4 4.1,4.4 1.1,0.5 2,1.2 2,2.6 0.1,1.7 -1.1,2.7 -2.8,2.7 z m 8.6,-12.9 v 13.7 h 1.5 V 52.9 Z m 4.5,0 v 1.3 h 4 v 12.4 h 1.5 V 54.1 h 4 v -1.3 h -9.5 z m 16.5,1.3 2.5,6.8 h -5.1 z M 216,66.4 210.6,52.9 H 209 l -5.6,13.5 1.5,0.5 1.8,-4.8 h 6 l 1.8,4.8 z M 213.7,52 h -1.4 v 1.8 h 1.4 z m -6.4,1.8 V 52 h -1.4 v 1.8 z m 10.1,-0.9 v 1.3 h 4 v 12.4 h 1.5 V 54.2 h 4 V 52.9 Z M 106.8,88 h -2 V 76.7 h 2.3 c 3.8,0 6.3,1.9 6.3,5.6 0.1,3.6 -2.5,5.7 -6.6,5.7 z m 0.7,-12.5 h -4.2 v 13.7 h 3.7 c 4.7,0 7.9,-2.4 7.9,-7 0,-3.4 -1.9,-6.7 -7.4,-6.7 z m 15.9,1.4 2.5,6.8 h -5.1 z m 6.2,12.1 -5.4,-13.5 h -1.6 L 117,89 l 1.5,0.5 1.8,-4.8 h 6 l 1.8,4.8 z m 7,-6.8 h -1.8 v -5.5 h 2.2 c 2.4,0 3.1,1.2 3.1,2.7 0,2.2 -1.7,2.8 -3.5,2.8 z m 0.8,-6.7 h -4.1 v 13.7 h 1.5 v -5.9 h 1.3 c 1,0 1.5,0.4 2.1,1.1 l 0.6,0.8 3.2,4.4 1.3,-0.8 -2.7,-3.6 c -0.5,-0.7 -1.3,-1.9 -2.1,-2.1 v -0.3 c 1.9,-0.3 3,-1.3 3,-3.6 0,-2.2 -1.5,-3.7 -4.1,-3.7 z m 14.4,0 h -1.7 l -3.8,13.5 1.5,0.4 3.2,-11.9 3.5,11.6 h 1.7 l 3.5,-11.7 3.2,11.9 1.5,-0.4 -3.9,-13.4 h -1.7 l -3.5,11.9 z m 19.1,12.9 c -1.1,0 -2.2,-0.5 -2.9,-1 l -0.6,1 c 1.1,0.7 2.2,1 3.6,1 3,0 4.4,-1.9 4.4,-3.9 0,-2.1 -1.5,-3 -3,-3.7 l -1.2,-0.6 c -1,-0.5 -2.1,-1.2 -2.1,-2.4 0,-1.8 1.5,-2.6 2.7,-2.6 1.3,0 2.1,0.4 2.9,1 l 0.5,-1 c -1.1,-0.6 -2.2,-1 -3.5,-1 -2.4,0 -4.1,1.5 -4.1,3.5 0,2.9 2.1,3.4 4.1,4.4 1.1,0.5 2,1.2 2,2.6 0.1,1.7 -1.1,2.7 -2.8,2.7 z m 7,-12.9 v 1.3 h 4 v 12.4 h 1.5 V 76.8 h 4 v -1.3 z m 16.7,1.4 2.5,6.8 H 192 Z m 6.2,12.2 -5.4,-13.6 h -1.6 l -5.6,13.5 1.5,0.5 1.8,-4.8 h 6 l 1.8,4.8 z m 6.7,-1.1 h -2 V 76.7 h 2.3 c 3.8,0 6.3,1.9 6.3,5.6 0,3.6 -2.6,5.7 -6.6,5.7 z m 0.6,-12.5 h -4.2 v 13.7 h 3.7 c 4.7,0 7.9,-2.4 7.9,-7 0,-3.4 -1.9,-6.7 -7.4,-6.7 z m 9.3,0 v 1.3 h 4 v 12.4 h 1.5 V 76.8 h 4 v -1.3 z"
   id="path1252"
   style="stroke-width:1.20005" />
</g></svg>
