<?xml version="1.0" encoding="UTF-8" standalone="no"?>
<!-- Created with Inkscape (http://www.inkscape.org/) -->

<svg
   width="360"
   height="75"
   viewBox="0 0 360 75"
   version="1.1"
   id="svg427"
   xmlns="http://www.w3.org/2000/svg"
   xmlns:svg="http://www.w3.org/2000/svg">
  <defs
     id="defs424" />
  <path
     id="circle6078-6"
     style="fill:#bf1f5a;fill-opacity:1;stroke-width:9.97694;stroke-linecap:round;stroke-linejoin:round;stroke-dasharray:none"
     d="M 28.369148,-1.1403984e-8 C 15.232707,0.0069026 3.6759766,8.6798242 1.1963378e-6,21.291444 L 19.171822,24.964207 c 0.751208,-7.082399 6.723068,-12.457944 13.845214,-12.462661 3.580874,4.37e-4 7.0241,1.379625 9.615101,3.851334 l 8.730386,-5.368942 C 45.750257,4.0379345 37.29913,8.5131042e-4 28.369148,-1.1403984e-8 Z" />
  <path
     id="circle6080-7"
     style="fill:#e54379;fill-opacity:1;stroke-width:8.10546;stroke-linecap:round;stroke-linejoin:round;stroke-dasharray:none"
     d="m 50.419449,14.86615 -5.938902,3.650997 c 1.607395,2.327146 2.468436,5.088351 2.468723,7.916649 -0.0044,6.291705 -4.225462,11.799573 -10.299533,13.440048 l 5.207561,11.328447 C 50.164041,47.203333 55.448853,38.802674 55.457601,29.583479 55.457314,24.254642 53.68494,19.077202 50.419449,14.86615 Z" />
  <path
     id="circle6082-5"
     style="fill:#8d1142;fill-opacity:1;stroke-width:7.22077;stroke-linecap:round;stroke-linejoin:round;stroke-dasharray:none"
     d="m 8.3183496,25.750506 c -0.011044,0.207309 -0.022088,0.414962 -0.027472,0.622616 2.002e-4,11.817037 9.5797304,21.39657 21.3967634,21.396754 2.367862,-0.0046 4.718582,-0.401386 6.956372,-1.175422 l -2.876175,-6.257077 c -0.249962,0.01611 -0.50032,0.026 -0.750811,0.02853 C 25.865756,40.361306 19.8793,34.943103 19.163794,27.827732 Z" />
  <g
     aria-label="Digitales"
     id="text392"
     style="font-size:10.1721px;line-height:1.25;font-family:'Noto Color Emoji';-inkscape-font-specification:'Noto Color Emoji';stroke-width:0.195811;fill:#ffffff"
     transform="matrix(2.3008698,0,0,2.3008698,-58.54255,-452.2222)">
    <g
       aria-label="Digitales"
       id="text393"
       style="stroke-width:0.0851031;fill:#ffffff">
      <path
         d="m 56.255787,205.4567 h 2.054764 c 1.912355,0 3.29576,-0.99687 3.29576,-3.33645 0,-2.33959 -1.383405,-3.27542 -3.397481,-3.27542 h -1.953043 z m 1.749601,-1.40375 v -3.80437 h 0.101721 c 0.956177,0 1.708913,0.32551 1.708913,1.87167 0,1.54616 -0.752736,1.9327 -1.708913,1.9327 z"
         style="font-weight:900;font-family:'Source Sans 3';-inkscape-font-specification:'Source Sans 3 Heavy';fill:#ffffff"
         id="path500" />
      <path
         d="m 62.643848,205.4567 h 1.749601 v -5.08605 h -1.749601 z m 0.874801,-5.71672 c 0.569637,0 0.956177,-0.34586 0.956177,-0.87481 0,-0.52894 -0.38654,-0.8748 -0.956177,-0.8748 -0.569638,0 -0.956178,0.34586 -0.956178,0.8748 0,0.52895 0.38654,0.87481 0.956178,0.87481 z"
         style="font-weight:900;font-family:'Source Sans 3';-inkscape-font-specification:'Source Sans 3 Heavy';fill:#ffffff"
         id="path502" />
      <path
         d="m 67.424717,207.55215 c 1.810634,0 2.949909,-0.75274 2.949909,-1.85132 0,-0.93584 -0.732391,-1.32238 -2.003904,-1.32238 h -0.762907 c -0.508605,0 -0.712047,-0.0814 -0.712047,-0.30516 0,-0.14241 0.02034,-0.20344 0.122065,-0.29499 0.223786,0.0509 0.406884,0.0712 0.569637,0.0712 1.139276,0 2.054765,-0.48826 2.054765,-1.66822 0,-0.1831 -0.03052,-0.34585 -0.122066,-0.50861 v -0.0407 h 0.77308 v -1.26134 h -1.892011 c -0.24413,-0.0814 -0.528949,-0.12207 -0.813768,-0.12207 -1.118931,0 -2.176829,0.58998 -2.176829,1.85132 0,0.58998 0.325507,1.0579 0.691703,1.30203 v 0.0407 c -0.345852,0.24413 -0.569638,0.61033 -0.569638,0.95618 0,0.42723 0.203442,0.6917 0.467917,0.8748 v 0.0407 c -0.467917,0.24413 -0.712047,0.55946 -0.712047,0.97652 0,0.91549 0.976521,1.26134 2.136141,1.26134 z m 0.162753,-4.7402 c -0.325507,0 -0.549293,-0.22379 -0.549293,-0.71205 0,-0.46791 0.223786,-0.6917 0.549293,-0.6917 0.325508,0 0.549294,0.22379 0.549294,0.6917 0,0.48826 -0.223786,0.71205 -0.549294,0.71205 z m 0.122066,3.66196 c -0.589982,0 -0.996866,-0.14241 -0.996866,-0.46792 0,-0.14241 0.06103,-0.24413 0.183098,-0.3662 0.142409,0.0407 0.325507,0.061 0.732391,0.061 h 0.396712 c 0.4374,0 0.68153,0.0407 0.68153,0.30516 0,0.28482 -0.427228,0.46792 -0.996865,0.46792 z"
         style="font-weight:900;font-family:'Source Sans 3';-inkscape-font-specification:'Source Sans 3 Heavy';fill:#ffffff"
         id="path504" />
      <path
         d="m 71.127356,205.4567 h 1.749602 v -5.08605 h -1.749602 z m 0.874801,-5.71672 c 0.569638,0 0.956177,-0.34586 0.956177,-0.87481 0,-0.52894 -0.386539,-0.8748 -0.956177,-0.8748 -0.569638,0 -0.956178,0.34586 -0.956178,0.8748 0,0.52895 0.38654,0.87481 0.956178,0.87481 z"
         style="font-weight:900;font-family:'Source Sans 3';-inkscape-font-specification:'Source Sans 3 Heavy';fill:#ffffff"
         id="path506" />
      <path
         d="m 76.152355,205.57876 c 0.528949,0 0.935833,-0.10172 1.200308,-0.20344 l -0.264475,-1.22065 c -0.122065,0.0407 -0.284818,0.061 -0.447572,0.061 -0.325507,0 -0.610326,-0.1831 -0.610326,-0.74256 v -1.73943 h 1.159619 v -1.36306 H 76.03029 v -1.52582 h -1.444438 l -0.203442,1.52582 -0.77308,0.061 v 1.30203 h 0.671359 v 1.76994 c 0,1.241 0.549293,2.07511 1.871666,2.07511 z"
         style="font-weight:900;font-family:'Source Sans 3';-inkscape-font-specification:'Source Sans 3 Heavy';fill:#ffffff"
         id="path508" />
      <path
         d="m 79.244666,205.57876 c 0.549294,0 0.996866,-0.24413 1.40375,-0.61033 h 0.04069 l 0.122065,0.48827 h 1.424094 v -2.82785 c 0,-1.66822 -0.793424,-2.38027 -2.115797,-2.38027 -0.793424,0 -1.525815,0.24413 -2.237862,0.67136 l 0.610326,1.11893 c 0.528949,-0.28482 0.915489,-0.40688 1.281685,-0.40688 0.447572,0 0.671358,0.16275 0.712047,0.52895 -1.953044,0.20344 -2.766812,0.79342 -2.766812,1.85132 0,0.83411 0.569638,1.5665 1.525814,1.5665 z m 0.610326,-1.34272 c -0.305163,0 -0.467916,-0.13223 -0.467916,-0.36619 0,-0.28482 0.264474,-0.5493 1.098587,-0.67136 v 0.6917 c -0.183098,0.20344 -0.345852,0.34585 -0.630671,0.34585 z"
         style="font-weight:900;font-family:'Source Sans 3';-inkscape-font-specification:'Source Sans 3 Heavy';fill:#ffffff"
         id="path510" />
      <path
         d="m 84.941035,205.57876 c 0.38654,0 0.671359,-0.061 0.854456,-0.14241 l -0.203442,-1.28168 c -0.08138,0.0203 -0.122065,0.0203 -0.183097,0.0203 -0.122066,0 -0.284819,-0.10172 -0.284819,-0.44757 v -5.35053 h -1.749601 v 5.2895 c 0,1.13927 0.386539,1.91235 1.566503,1.91235 z"
         style="font-weight:900;font-family:'Source Sans 3';-inkscape-font-specification:'Source Sans 3 Heavy';fill:#ffffff"
         id="path512" />
      <path
         d="m 88.623318,201.57095 c 0.52895,0 0.691703,0.34585 0.691703,0.73239 h -1.515643 c 0.132238,-0.54929 0.498433,-0.73239 0.82394,-0.73239 z m 0.14241,4.00781 c 0.569637,0 1.302029,-0.20344 1.851322,-0.58998 l -0.549293,-1.03756 c -0.366196,0.20345 -0.712047,0.30517 -1.057899,0.30517 -0.478088,0 -0.986693,-0.15258 -1.179963,-0.81377 h 2.899048 c 0.03052,-0.12207 0.0712,-0.42723 0.0712,-0.73239 0,-1.36306 -0.712047,-2.46165 -2.217518,-2.46165 -1.240996,0 -2.441304,1.01721 -2.441304,2.66509 0,1.68857 1.139275,2.66509 2.624402,2.66509 z"
         style="font-weight:900;font-family:'Source Sans 3';-inkscape-font-specification:'Source Sans 3 Heavy';fill:#ffffff"
         id="path514" />
      <path
         d="m 93.322821,205.57876 c 1.424094,0 2.17683,-0.73239 2.17683,-1.68857 0,-0.81377 -0.569638,-1.30203 -1.342718,-1.54616 -0.651014,-0.20344 -0.895144,-0.30516 -0.895144,-0.52895 0,-0.18309 0.142409,-0.28482 0.447572,-0.28482 0.325507,0 0.701875,0.0916 1.078243,0.3662 l 0.732391,-0.97652 c -0.447573,-0.38654 -1.098587,-0.67136 -1.871667,-0.67136 -1.200307,0 -2.014075,0.65101 -2.014075,1.64788 0,0.77308 0.589981,1.26134 1.302028,1.52582 0.539122,0.20344 0.935834,0.30516 0.935834,0.56963 0,0.20345 -0.14241,0.30517 -0.508605,0.30517 -0.345852,0 -0.813768,-0.10172 -1.281685,-0.46792 l -0.732391,0.97652 c 0.528949,0.50861 1.322373,0.77308 1.973387,0.77308 z"
         style="font-weight:900;font-family:'Source Sans 3';-inkscape-font-specification:'Source Sans 3 Heavy';fill:#ffffff"
         id="path516" />
    </g>
    <g
       aria-label="Familiennamenwörterbuch"
       id="text447"
       style="stroke-width:0.0851031;fill:#ffffff">
      <path
         d="m 56.306645,217.07687 h 1.179963 v -2.77698 h 2.42096 v -0.99687 h -2.42096 v -1.88183 h 2.838016 v -0.99687 h -4.017979 z"
         style="font-weight:600;font-family:'Source Sans 3';-inkscape-font-specification:'Source Sans 3 Semi-Bold';fill:#ffffff"
         id="path519" />
      <path
         d="m 62.23695,217.19894 c 0.589981,0 1.078242,-0.28482 1.546159,-0.67136 h 0.04069 l 0.08138,0.54929 h 0.96635 v -2.94991 c 0,-1.40375 -0.620499,-2.16665 -1.861495,-2.16665 -0.793424,0 -1.505471,0.29499 -2.054764,0.64084 l 0.427228,0.79342 c 0.447573,-0.26447 0.915489,-0.46791 1.40375,-0.46791 0.671359,0 0.895145,0.42723 0.915489,0.93583 -2.054764,0.22379 -2.949909,0.75274 -2.949909,1.87167 0,0.8748 0.610326,1.46478 1.485127,1.46478 z m 0.366195,-0.95618 c -0.406884,0 -0.712047,-0.16275 -0.712047,-0.58998 0,-0.50861 0.447573,-0.81377 1.810634,-0.97652 v 1.0579 c -0.366196,0.34585 -0.691703,0.5086 -1.098587,0.5086 z"
         style="font-weight:600;font-family:'Source Sans 3';-inkscape-font-specification:'Source Sans 3 Semi-Bold';fill:#ffffff"
         id="path521" />
      <path
         d="m 66.275261,217.07687 h 1.169791 v -3.48903 c 0.38654,-0.41705 0.742564,-0.62049 1.047727,-0.62049 0.528949,0 0.773079,0.30516 0.773079,1.1291 v 2.98042 h 1.169792 v -3.48903 c 0.38654,-0.41705 0.732391,-0.62049 1.047726,-0.62049 0.518777,0 0.762908,0.30516 0.762908,1.1291 v 2.98042 h 1.179963 v -3.133 c 0,-1.26134 -0.48826,-1.98356 -1.546159,-1.98356 -0.63067,0 -1.129103,0.38654 -1.607192,0.89514 -0.233958,-0.55946 -0.651014,-0.89514 -1.383405,-0.89514 -0.620498,0 -1.108759,0.35602 -1.525815,0.80359 h -0.04069 l -0.08138,-0.68153 h -0.966349 z"
         style="font-weight:600;font-family:'Source Sans 3';-inkscape-font-specification:'Source Sans 3 Semi-Bold';fill:#ffffff"
         id="path523" />
      <path
         d="m 74.850327,217.07687 h 1.169791 v -4.9945 h -1.169791 z m 0.579809,-5.8693 c 0.417056,0 0.701875,-0.26447 0.701875,-0.67136 0,-0.39671 -0.284819,-0.66118 -0.701875,-0.66118 -0.417056,0 -0.701875,0.26447 -0.701875,0.66118 0,0.40689 0.284819,0.67136 0.701875,0.67136 z"
         style="font-weight:600;font-family:'Source Sans 3';-inkscape-font-specification:'Source Sans 3 Semi-Bold';fill:#ffffff"
         id="path525" />
      <path
         d="m 78.654683,217.17859 c 0.274647,0 0.478089,-0.0407 0.620498,-0.10172 l -0.152582,-0.8748 c -0.08138,0.0204 -0.122065,0.0204 -0.172925,0.0204 -0.132238,0 -0.264475,-0.0916 -0.264475,-0.38654 v -5.94051 h -1.169791 v 5.87947 c 0,0.87481 0.305163,1.40375 1.139275,1.40375 z"
         style="font-weight:600;font-family:'Source Sans 3';-inkscape-font-specification:'Source Sans 3 Semi-Bold';fill:#ffffff"
         id="path527" />
      <path
         d="m 80.272047,217.07687 h 1.169792 v -4.9945 h -1.169792 z m 0.57981,-5.8693 c 0.417056,0 0.701875,-0.26447 0.701875,-0.67136 0,-0.39671 -0.284819,-0.66118 -0.701875,-0.66118 -0.417056,0 -0.701875,0.26447 -0.701875,0.66118 0,0.40689 0.284819,0.67136 0.701875,0.67136 z"
         style="font-weight:600;font-family:'Source Sans 3';-inkscape-font-specification:'Source Sans 3 Semi-Bold';fill:#ffffff"
         id="path529" />
      <path
         d="m 84.941032,212.88597 c 0.671358,0 0.996866,0.44757 0.996866,1.15962 h -2.136141 c 0.142409,-0.88497 0.651014,-1.15962 1.139275,-1.15962 z m 0.142409,4.31297 c 0.63067,0 1.240996,-0.20344 1.708913,-0.52895 l -0.406884,-0.75274 c -0.345851,0.22379 -0.732391,0.34586 -1.159619,0.34586 -0.691703,0 -1.312201,-0.40689 -1.444439,-1.32238 h 3.133007 c 0.04069,-0.1831 0.06103,-0.38654 0.06103,-0.61032 0,-1.38341 -0.691703,-2.3701 -2.054764,-2.3701 -1.179964,0 -2.319239,0.98669 -2.319239,2.61423 0,1.66822 1.078242,2.6244 2.481992,2.6244 z"
         style="font-weight:600;font-family:'Source Sans 3';-inkscape-font-specification:'Source Sans 3 Semi-Bold';fill:#ffffff"
         id="path531" />
      <path
         d="m 88.094381,217.07687 h 1.169792 v -3.48903 c 0.417056,-0.40688 0.701875,-0.62049 1.139275,-0.62049 0.549294,0 0.783252,0.30516 0.783252,1.1291 v 2.98042 h 1.169791 v -3.133 c 0,-1.26134 -0.467916,-1.98356 -1.535987,-1.98356 -0.68153,0 -1.190136,0.35602 -1.637708,0.79342 h -0.04069 l -0.08138,-0.67136 h -0.96635 z"
         style="font-weight:600;font-family:'Source Sans 3';-inkscape-font-specification:'Source Sans 3 Semi-Bold';fill:#ffffff"
         id="path533" />
      <path
         d="m 93.790754,217.07687 h 1.169792 v -3.48903 c 0.417056,-0.40688 0.701875,-0.62049 1.139275,-0.62049 0.549293,0 0.783252,0.30516 0.783252,1.1291 v 2.98042 h 1.169791 v -3.133 c 0,-1.26134 -0.467916,-1.98356 -1.535987,-1.98356 -0.681531,0 -1.190136,0.35602 -1.637708,0.79342 h -0.04069 l -0.08138,-0.67136 h -0.96635 z"
         style="font-weight:600;font-family:'Source Sans 3';-inkscape-font-specification:'Source Sans 3 Semi-Bold';fill:#ffffff"
         id="path535" />
      <path
         d="m 100.6976,217.19894 c 0.58999,0 1.07825,-0.28482 1.54616,-0.67136 h 0.0407 l 0.0814,0.54929 h 0.96635 v -2.94991 c 0,-1.40375 -0.6205,-2.16665 -1.8615,-2.16665 -0.79342,0 -1.505468,0.29499 -2.054761,0.64084 l 0.427228,0.79342 c 0.447573,-0.26447 0.915493,-0.46791 1.403753,-0.46791 0.67136,0 0.89514,0.42723 0.91549,0.93583 -2.05477,0.22379 -2.949913,0.75274 -2.949913,1.87167 0,0.8748 0.610326,1.46478 1.485123,1.46478 z m 0.3662,-0.95618 c -0.40688,0 -0.71205,-0.16275 -0.71205,-0.58998 0,-0.50861 0.44757,-0.81377 1.81064,-0.97652 v 1.0579 c -0.3662,0.34585 -0.69171,0.5086 -1.09859,0.5086 z"
         style="font-weight:600;font-family:'Source Sans 3';-inkscape-font-specification:'Source Sans 3 Semi-Bold';fill:#ffffff"
         id="path537" />
      <path
         d="m 104.73591,217.07687 h 1.1698 v -3.48903 c 0.38654,-0.41705 0.74256,-0.62049 1.04772,-0.62049 0.52895,0 0.77308,0.30516 0.77308,1.1291 v 2.98042 h 1.16979 v -3.48903 c 0.38654,-0.41705 0.73239,-0.62049 1.04773,-0.62049 0.51878,0 0.76291,0.30516 0.76291,1.1291 v 2.98042 h 1.17996 v -3.133 c 0,-1.26134 -0.48826,-1.98356 -1.54616,-1.98356 -0.63067,0 -1.1291,0.38654 -1.60719,0.89514 -0.23396,-0.55946 -0.65101,-0.89514 -1.38341,-0.89514 -0.62049,0 -1.10875,0.35602 -1.52581,0.80359 h -0.0407 l -0.0814,-0.68153 h -0.96635 z"
         style="font-weight:600;font-family:'Source Sans 3';-inkscape-font-specification:'Source Sans 3 Semi-Bold';fill:#ffffff"
         id="path539" />
      <path
         d="m 115.31488,212.88597 c 0.67136,0 0.99687,0.44757 0.99687,1.15962 h -2.13614 c 0.14241,-0.88497 0.65101,-1.15962 1.13927,-1.15962 z m 0.14241,4.31297 c 0.63067,0 1.241,-0.20344 1.70892,-0.52895 l -0.40689,-0.75274 c -0.34585,0.22379 -0.73239,0.34586 -1.15962,0.34586 -0.6917,0 -1.3122,-0.40689 -1.44444,-1.32238 h 3.13301 c 0.0407,-0.1831 0.061,-0.38654 0.061,-0.61032 0,-1.38341 -0.6917,-2.3701 -2.05476,-2.3701 -1.17996,0 -2.31924,0.98669 -2.31924,2.61423 0,1.66822 1.07824,2.6244 2.48199,2.6244 z"
         style="font-weight:600;font-family:'Source Sans 3';-inkscape-font-specification:'Source Sans 3 Semi-Bold';fill:#ffffff"
         id="path541" />
      <path
         d="m 118.46823,217.07687 h 1.16979 v -3.48903 c 0.41706,-0.40688 0.70188,-0.62049 1.13928,-0.62049 0.54929,0 0.78325,0.30516 0.78325,1.1291 v 2.98042 h 1.16979 v -3.133 c 0,-1.26134 -0.46791,-1.98356 -1.53598,-1.98356 -0.68153,0 -1.19014,0.35602 -1.63771,0.79342 h -0.0407 l -0.0814,-0.67136 h -0.96635 z"
         style="font-weight:600;font-family:'Source Sans 3';-inkscape-font-specification:'Source Sans 3 Semi-Bold';fill:#ffffff"
         id="path543" />
      <path
         d="m 124.98854,217.07687 h 1.44444 l 0.50861,-2.31924 c 0.10172,-0.44757 0.18309,-0.85445 0.26447,-1.50547 h 0.0407 c 0.0814,0.65102 0.16275,1.0579 0.26447,1.50547 l 0.50861,2.31924 h 1.4953 l 1.27151,-4.9945 h -1.11893 l -0.58998,2.59389 c -0.10172,0.44757 -0.16276,0.89514 -0.25431,1.48512 h -0.0407 c -0.0915,-0.58998 -0.1831,-1.03755 -0.295,-1.48512 l -0.63067,-2.59389 h -1.22065 l -0.61032,2.59389 c -0.10172,0.44757 -0.1831,0.89514 -0.27465,1.48512 h -0.0407 c -0.0712,-0.58998 -0.15258,-1.03755 -0.2543,-1.48512 l -0.58998,-2.59389 h -1.20031 z"
         style="font-weight:600;font-family:'Source Sans 3';-inkscape-font-specification:'Source Sans 3 Semi-Bold';fill:#ffffff"
         id="path545" />
      <path
         d="m 133.75689,217.19894 c 1.25116,0 2.38027,-0.95618 2.38027,-2.61423 0,-1.66823 -1.12911,-2.6244 -2.38027,-2.6244 -1.241,0 -2.3701,0.95617 -2.3701,2.6244 0,1.65805 1.1291,2.61423 2.3701,2.61423 z m 0,-0.95618 c -0.7324,0 -1.1698,-0.66118 -1.1698,-1.65805 0,-1.00704 0.4374,-1.66823 1.1698,-1.66823 0.73239,0 1.17996,0.66119 1.17996,1.66823 0,0.99687 -0.44757,1.65805 -1.17996,1.65805 z m -1.04773,-5.04536 c 0.3662,0 0.6205,-0.27465 0.6205,-0.6205 0,-0.34585 -0.2543,-0.6205 -0.6205,-0.6205 -0.35602,0 -0.6205,0.27465 -0.6205,0.6205 0,0.34585 0.26448,0.6205 0.6205,0.6205 z m 2.09545,0 c 0.35603,0 0.6205,-0.27465 0.6205,-0.6205 0,-0.34585 -0.26447,-0.6205 -0.6205,-0.6205 -0.36619,0 -0.6205,0.27465 -0.6205,0.6205 0,0.34585 0.25431,0.6205 0.6205,0.6205 z"
         style="font-weight:600;font-family:'Source Sans 3';-inkscape-font-specification:'Source Sans 3 Semi-Bold';fill:#ffffff"
         id="path547" />
      <path
         d="m 137.29677,217.07687 h 1.1698 v -3.05163 c 0.30516,-0.75273 0.78325,-1.02738 1.17996,-1.02738 0.21361,0 0.32551,0.0204 0.48826,0.061 l 0.23396,-0.99686 c -0.15258,-0.0712 -0.31534,-0.10172 -0.56964,-0.10172 -0.53912,0 -1.06807,0.35602 -1.41392,1.00704 h -0.0407 l -0.0814,-0.88498 h -0.96635 z"
         style="font-weight:600;font-family:'Source Sans 3';-inkscape-font-specification:'Source Sans 3 Semi-Bold';fill:#ffffff"
         id="path549" />
      <path
         d="m 142.85073,217.17859 c 0.40688,0 0.76291,-0.0915 1.02738,-0.20344 l -0.21361,-0.82394 c -0.16276,0.0712 -0.34585,0.10172 -0.51878,0.10172 -0.47809,0 -0.70187,-0.29499 -0.70187,-0.8748 v -2.3701 h 1.27151 v -0.92566 h -1.27151 v -1.5665 h -0.97653 l -0.14241,1.5665 -0.77308,0.0509 v 0.8748 h 0.71205 v 2.3701 c 0,1.07825 0.42723,1.80046 1.58685,1.80046 z"
         style="font-weight:600;font-family:'Source Sans 3';-inkscape-font-specification:'Source Sans 3 Semi-Bold';fill:#ffffff"
         id="path551" />
      <path
         d="m 146.60421,212.88597 c 0.67135,0 0.99686,0.44757 0.99686,1.15962 h -2.13614 c 0.14241,-0.88497 0.65101,-1.15962 1.13928,-1.15962 z m 0.1424,4.31297 c 0.63068,0 1.241,-0.20344 1.70892,-0.52895 l -0.40689,-0.75274 c -0.34585,0.22379 -0.73239,0.34586 -1.15962,0.34586 -0.6917,0 -1.3122,-0.40689 -1.44443,-1.32238 h 3.133 c 0.0407,-0.1831 0.061,-0.38654 0.061,-0.61032 0,-1.38341 -0.69171,-2.3701 -2.05477,-2.3701 -1.17996,0 -2.31924,0.98669 -2.31924,2.61423 0,1.66822 1.07825,2.6244 2.48199,2.6244 z"
         style="font-weight:600;font-family:'Source Sans 3';-inkscape-font-specification:'Source Sans 3 Semi-Bold';fill:#ffffff"
         id="path553" />
      <path
         d="m 149.75756,217.07687 h 1.16979 v -3.05163 c 0.30516,-0.75273 0.78325,-1.02738 1.17996,-1.02738 0.21362,0 0.32551,0.0204 0.48826,0.061 l 0.23396,-0.99686 c -0.15258,-0.0712 -0.31533,-0.10172 -0.56963,-0.10172 -0.53913,0 -1.06808,0.35602 -1.41393,1.00704 h -0.0407 l -0.0814,-0.88498 h -0.96635 z"
         style="font-weight:600;font-family:'Source Sans 3';-inkscape-font-specification:'Source Sans 3 Semi-Bold';fill:#ffffff"
         id="path555" />
      <path
         d="m 155.9727,217.19894 c 1.10876,0 2.13614,-0.98669 2.13614,-2.70578 0,-1.53599 -0.72222,-2.53285 -1.97339,-2.53285 -0.5086,0 -1.02738,0.2543 -1.44443,0.6205 l 0.0305,-0.83412 v -1.85132 h -1.16979 v 7.1815 h 0.92566 l 0.10172,-0.52895 h 0.0305 c 0.41706,0.41706 0.90532,0.65102 1.36306,0.65102 z m -0.24413,-0.96635 c -0.29499,0 -0.65101,-0.11189 -1.00704,-0.41706 v -2.32941 c 0.38654,-0.37637 0.73239,-0.55946 1.09859,-0.55946 0.75273,0 1.07824,0.58998 1.07824,1.58684 0,1.12911 -0.5086,1.71909 -1.16979,1.71909 z"
         style="font-weight:600;font-family:'Source Sans 3';-inkscape-font-specification:'Source Sans 3 Semi-Bold';fill:#ffffff"
         id="path557" />
      <path
         d="m 160.76376,217.19894 c 0.68153,0 1.16979,-0.33568 1.60719,-0.85446 h 0.0305 l 0.0915,0.73239 h 0.95618 v -4.9945 h -1.16979 v 3.41783 c -0.37637,0.48826 -0.67136,0.6917 -1.10876,0.6917 -0.53912,0 -0.77308,-0.30516 -0.77308,-1.1291 v -2.98043 h -1.16979 v 3.13301 c 0,1.26134 0.46792,1.98356 1.53599,1.98356 z"
         style="font-weight:600;font-family:'Source Sans 3';-inkscape-font-specification:'Source Sans 3 Semi-Bold';fill:#ffffff"
         id="path559" />
      <path
         d="m 167.03994,217.19894 c 0.6205,0 1.19014,-0.24413 1.60719,-0.63067 l -0.47809,-0.72222 c -0.27464,0.24413 -0.63067,0.39671 -1.01721,0.39671 -0.79342,0 -1.34271,-0.66118 -1.34271,-1.65805 0,-1.00704 0.56963,-1.66823 1.36306,-1.66823 0.35602,0 0.6205,0.13224 0.84428,0.32551 l 0.55947,-0.72222 c -0.35602,-0.33568 -0.82394,-0.55946 -1.46478,-0.55946 -1.33255,0 -2.50234,0.95617 -2.50234,2.6244 0,1.65805 1.04773,2.61423 2.43113,2.61423 z"
         style="font-weight:600;font-family:'Source Sans 3';-inkscape-font-specification:'Source Sans 3 Semi-Bold';fill:#ffffff"
         id="path561" />
      <path
         d="m 169.63383,217.07687 h 1.16979 v -3.48903 c 0.41705,-0.40688 0.70187,-0.62049 1.13927,-0.62049 0.5493,0 0.78325,0.30516 0.78325,1.1291 v 2.98042 h 1.1698 v -3.133 c 0,-1.26134 -0.46792,-1.98356 -1.53599,-1.98356 -0.68153,0 -1.17997,0.35602 -1.59702,0.75273 l 0.0407,-0.96635 v -1.85132 h -1.16979 z"
         style="font-weight:600;font-family:'Source Sans 3';-inkscape-font-specification:'Source Sans 3 Semi-Bold';fill:#ffffff"
         id="path563" />
    </g>
    <g
       aria-label="Deutschlands"
       id="text451"
       style="stroke-width:0.0851031;fill:#ffffff">
      <path
         d="m 56.380206,228.80727 h 1.566504 c 2.054764,0 3.031286,-1.34272 3.031286,-3.37714 0,-2.02425 -0.976522,-3.32628 -3.041458,-3.32628 h -1.556332 z m 0.467917,-0.39672 v -5.90999 h 1.037554 c 1.820806,0 2.604058,1.19014 2.604058,2.92957 0,1.7496 -0.783252,2.98042 -2.604058,2.98042 z"
         style="font-weight:300;font-family:'Source Sans 3';-inkscape-font-specification:'Source Sans 3 Light';fill:#ffffff"
         id="path566" />
      <path
         d="m 64.202533,224.18913 c 0.874801,0 1.434266,0.6205 1.434266,1.8615 h -3.102491 c 0.111894,-1.26134 0.915489,-1.8615 1.668225,-1.8615 z m 0.122065,4.7402 c 0.712047,0 1.15962,-0.22378 1.535987,-0.47809 l -0.183098,-0.31533 c -0.345851,0.24413 -0.783251,0.39671 -1.3122,0.39671 -1.017211,0 -1.810634,-0.79342 -1.841151,-2.09545 h 3.509375 c 0.03052,-0.13224 0.03052,-0.25431 0.03052,-0.37637 0,-1.43427 -0.712047,-2.25821 -1.871666,-2.25821 -1.088415,0 -2.125969,0.97652 -2.125969,2.57354 0,1.59702 1.007038,2.5532 2.258206,2.5532 z"
         style="font-weight:300;font-family:'Source Sans 3';-inkscape-font-specification:'Source Sans 3 Light';fill:#ffffff"
         id="path568" />
      <path
         d="m 68.790148,228.92933 c 0.671359,0 1.179964,-0.37637 1.658053,-0.93583 h 0.02034 l 0.05086,0.81377 h 0.376368 v -4.88261 h -0.447572 v 3.60092 c -0.569638,0.6917 -0.996866,0.99687 -1.576676,0.99687 -0.783252,0 -1.108759,-0.48826 -1.108759,-1.52582 v -3.07197 H 67.31519 v 3.13301 c 0,1.26134 0.467916,1.87166 1.474954,1.87166 z"
         style="font-weight:300;font-family:'Source Sans 3';-inkscape-font-specification:'Source Sans 3 Light';fill:#ffffff"
         id="path570" />
      <path
         d="m 74.099977,228.88864 c 0.254302,0 0.549293,-0.0814 0.813768,-0.21361 l -0.14241,-0.32551 c -0.223786,0.11189 -0.427228,0.15258 -0.610326,0.15258 -0.671358,0 -0.82394,-0.42722 -0.82394,-1.04772 v -3.14318 h 1.413922 v -0.38654 h -1.413922 v -1.61737 h -0.38654 l -0.06103,1.61737 -0.77308,0.0407 v 0.34585 h 0.762908 v 3.11266 c 0,0.8748 0.274646,1.46478 1.220652,1.46478 z"
         style="font-weight:300;font-family:'Source Sans 3';-inkscape-font-specification:'Source Sans 3 Light';fill:#ffffff"
         id="path572" />
      <path
         d="m 77.01935,228.92933 c 1.057898,0 1.64788,-0.64084 1.64788,-1.37323 0,-0.94601 -0.82394,-1.21048 -1.59702,-1.4953 -0.600154,-0.22379 -1.118931,-0.4374 -1.118931,-0.98669 0,-0.44758 0.345852,-0.88498 1.108759,-0.88498 0.488261,0 0.844285,0.16276 1.169792,0.39671 l 0.24413,-0.27464 c -0.356023,-0.29499 -0.844284,-0.50861 -1.40375,-0.50861 -1.01721,0 -1.566503,0.58998 -1.566503,1.30203 0,0.82394 0.77308,1.1291 1.515643,1.39358 0.569637,0.20344 1.190136,0.46792 1.190136,1.07824 0,0.51878 -0.396712,0.96635 -1.15962,0.96635 -0.732391,0 -1.169791,-0.22378 -1.576675,-0.57981 l -0.244131,0.28482 c 0.427228,0.41706 1.037554,0.68153 1.79029,0.68153 z"
         style="font-weight:300;font-family:'Source Sans 3';-inkscape-font-specification:'Source Sans 3 Light';fill:#ffffff"
         id="path574" />
      <path
         d="m 81.76971,228.92933 c 0.63067,0 1.149447,-0.26447 1.556331,-0.66119 l -0.233958,-0.27464 c -0.315335,0.31533 -0.783252,0.53912 -1.302029,0.53912 -1.06807,0 -1.769945,-0.8748 -1.769945,-2.15649 0,-1.29185 0.773079,-2.17683 1.769945,-2.17683 0.498433,0 0.884973,0.19327 1.179964,0.47809 l 0.24413,-0.27464 c -0.335679,-0.34585 -0.762907,-0.60016 -1.434266,-0.60016 -1.190136,0 -2.22769,0.93584 -2.22769,2.57354 0,1.61737 0.956178,2.5532 2.217518,2.5532 z"
         style="font-weight:300;font-family:'Source Sans 3';-inkscape-font-specification:'Source Sans 3 Light';fill:#ffffff"
         id="path576" />
      <path
         d="m 84.526343,228.80727 h 0.447572 v -3.6823 c 0.600154,-0.61033 1.01721,-0.91549 1.59702,-0.91549 0.793424,0 1.118931,0.48826 1.118931,1.52581 v 3.07198 h 0.447572 v -3.13301 c 0,-1.26134 -0.467916,-1.87167 -1.474954,-1.87167 -0.671359,0 -1.179964,0.37637 -1.688569,0.88498 v -3.19404 h -0.447572 z"
         style="font-weight:300;font-family:'Source Sans 3';-inkscape-font-specification:'Source Sans 3 Light';fill:#ffffff"
         id="path578" />
      <path
         d="m 90.497363,228.88864 c 0.132238,0 0.233959,-0.0203 0.325508,-0.061 l -0.08138,-0.35602 c -0.08138,0.0203 -0.122065,0.0203 -0.162754,0.0203 -0.142409,0 -0.233958,-0.0814 -0.233958,-0.31533 v -6.68307 h -0.447573 v 6.62203 c 0,0.53912 0.203442,0.77308 0.600154,0.77308 z"
         style="font-weight:300;font-family:'Source Sans 3';-inkscape-font-specification:'Source Sans 3 Light';fill:#ffffff"
         id="path580" />
      <path
         d="m 93.376062,228.92933 c 0.640842,0 1.230824,-0.35602 1.729257,-0.75273 h 0.03052 l 0.04069,0.63067 h 0.38654 v -3.12284 c 0,-1.04772 -0.396712,-1.88184 -1.546159,-1.88184 -0.793424,0 -1.474954,0.3662 -1.820806,0.63067 l 0.203442,0.31534 c 0.335679,-0.22379 0.905317,-0.5493 1.556331,-0.5493 0.96635,0 1.169792,0.8036 1.15962,1.54616 -2.17683,0.24413 -3.153351,0.75274 -3.153351,1.84115 0,0.92567 0.640842,1.34272 1.413922,1.34272 z m 0.08138,-0.39671 c -0.559466,0 -1.037555,-0.26448 -1.037555,-0.96635 0,-0.77308 0.681531,-1.23082 2.695607,-1.46478 v 1.64788 c -0.610326,0.51877 -1.098587,0.78325 -1.658052,0.78325 z"
         style="font-weight:300;font-family:'Source Sans 3';-inkscape-font-specification:'Source Sans 3 Light';fill:#ffffff"
         id="path582" />
      <path
         d="m 97.302487,228.80727 h 0.447572 v -3.6823 c 0.600154,-0.61033 1.01721,-0.91549 1.59702,-0.91549 0.793421,0 1.118931,0.48826 1.118931,1.52581 v 3.07198 h 0.44757 v -3.13301 c 0,-1.26134 -0.46791,-1.87167 -1.474952,-1.87167 -0.671359,0 -1.179964,0.37637 -1.678397,0.8748 h -0.03052 l -0.04069,-0.75273 h -0.386539 z"
         style="font-weight:300;font-family:'Source Sans 3';-inkscape-font-specification:'Source Sans 3 Light';fill:#ffffff"
         id="path584" />
      <path
         d="m 104.3314,228.92933 c 0.65102,0 1.19014,-0.35602 1.58685,-0.75273 h 0.0305 l 0.0407,0.63067 h 0.38654 v -7.31374 h -0.44758 v 2.01407 l 0.0203,0.89515 c -0.48826,-0.37637 -0.88498,-0.60016 -1.47496,-0.60016 -1.15962,0 -2.16665,0.99687 -2.16665,2.57354 0,1.64788 0.79342,2.5532 2.02424,2.5532 z m 0.061,-0.39671 c -1.03756,0 -1.6072,-0.86463 -1.6072,-2.15649 0,-1.23082 0.74257,-2.17683 1.71909,-2.17683 0.47809,0 0.90532,0.17293 1.42409,0.63068 v 2.89904 c -0.51877,0.51878 -0.99686,0.8036 -1.53598,0.8036 z"
         style="font-weight:300;font-family:'Source Sans 3';-inkscape-font-specification:'Source Sans 3 Light';fill:#ffffff"
         id="path586" />
      <path
         d="m 109.42761,228.92933 c 1.0579,0 1.64788,-0.64084 1.64788,-1.37323 0,-0.94601 -0.82394,-1.21048 -1.59702,-1.4953 -0.60015,-0.22379 -1.11893,-0.4374 -1.11893,-0.98669 0,-0.44758 0.34585,-0.88498 1.10876,-0.88498 0.48826,0 0.84428,0.16276 1.16979,0.39671 l 0.24413,-0.27464 c -0.35602,-0.29499 -0.84428,-0.50861 -1.40375,-0.50861 -1.01721,0 -1.5665,0.58998 -1.5665,1.30203 0,0.82394 0.77308,1.1291 1.51564,1.39358 0.56964,0.20344 1.19014,0.46792 1.19014,1.07824 0,0.51878 -0.39672,0.96635 -1.15962,0.96635 -0.73239,0 -1.1698,-0.22378 -1.57668,-0.57981 l -0.24413,0.28482 c 0.42723,0.41706 1.03755,0.68153 1.79029,0.68153 z"
         style="font-weight:300;font-family:'Source Sans 3';-inkscape-font-specification:'Source Sans 3 Light';fill:#ffffff"
         id="path588" />
    </g>
  </g>
</svg>
