<?xml version="1.0" encoding="UTF-8" standalone="no"?>
<!-- Created with Inkscape (http://www.inkscape.org/) -->

<svg
   width="65"
   height="65"
   viewBox="0 0 65 65"
   version="1.1"
   id="svg427"
   xmlns="http://www.w3.org/2000/svg"
   xmlns:svg="http://www.w3.org/2000/svg">
  <defs
     id="defs424" />
  <g
     id="g595"
     transform="matrix(0.04402631,0,0,-0.04402631,0,65.000001)"
     style="stroke-width:3.02851">
    <path
       d="m 527.336,285.93 c 0,5.308 -0.422,6.91 5.477,6.91 0.757,0 2.187,0 2.187,1.09 0,0.941 -0.676,1.179 -1.43,1.179 -3.199,0 -6.402,-0.328 -9.601,-0.328 -3.203,0 -6.235,0.328 -9.434,0.328 -0.844,0 -1.433,-0.238 -1.433,-1.179 0,-1.09 1.351,-1.09 2.109,-1.09 5.894,0 5.473,-1.602 5.473,-6.91 v -34.45 c 0,-5.3 0.421,-6.91 -5.391,-6.91 -0.84,0 -2.191,0 -2.191,-1.09 0,-0.839 0.671,-1.179 1.433,-1.179 2.863,0 5.559,0.34 8.426,0.34 8.078,0 16.336,-0.34 24.422,-0.34 2.273,0 2.109,1.008 2.187,3.199 0.086,2.949 0.926,5.898 0.926,8.762 0,0.59 0,1.168 -0.754,1.168 -0.504,0 -0.847,-0.66 -1.012,-1.078 -0.925,-2.282 -2.441,-5.391 -4.378,-6.993 -2.36,-1.937 -6.231,-2.789 -9.262,-2.789 -7.586,0 -7.754,3.039 -7.754,9.45 v 31.91 0"
       style="fill:#231f20;fill-opacity:1;fill-rule:nonzero;stroke:none;stroke-width:3.02851"
       id="path597" />
    <path
       d="m 578.77,288.461 c 0,1.43 -0.25,3.281 1.347,3.879 1.348,0.5 5.055,0.5 6.403,0.5 2.859,0 6.488,0 9.265,-0.84 2.778,-0.84 3.957,-2.359 5.223,-4.98 l 1.258,-2.348 c 0.254,-0.59 0.593,-1.692 1.351,-1.692 0.84,0 0.758,1.27 0.758,1.77 V 292 c 0,1.09 0.422,3.109 -1.184,3.109 -7.152,0 -14.23,-0.328 -21.472,-0.328 -5.227,0 -10.61,0.328 -15.836,0.328 -0.754,0 -1.434,-0.418 -1.434,-1.269 0,-1 1.352,-1 2.192,-1 5.816,0 5.472,-1.68 5.472,-6.91 v -34.289 c 0,-5.379 0.344,-7.071 -5.472,-7.071 -0.84,0 -2.192,-0.07 -2.192,-1 0,-0.929 0.68,-1.269 1.434,-1.269 1.683,0 3.543,0.34 5.226,0.34 h 32.93 c 0.672,0 0.84,-0.09 0.926,0.5 l 1.262,8.929 c 0.168,0.68 0.339,1.352 0.339,2.02 0,0.59 -0.253,0.93 -0.843,0.93 -1.012,0 -1.602,-2.27 -1.852,-2.872 -2.863,-7.398 -7.5,-7.578 -14.738,-7.578 -6.656,0 -10.363,0.09 -10.363,7.84 v 14.649 c 0,2.871 0.843,2.871 4.214,2.871 2.524,0 6.903,0 10.192,-0.758 1.847,-0.422 2.523,-2.953 2.941,-5.391 0.09,-0.511 0.344,-1.429 1.102,-1.429 0.418,0 0.922,0.168 0.922,1.519 -0.082,2.699 -0.25,5.219 -0.422,7.91 0.172,2.348 0.34,4.879 0.422,7.25 0,0.668 -0.504,0.828 -0.922,0.828 -0.758,0 -1.012,-0.91 -1.102,-1.429 -0.418,-2.43 -0.84,-5.551 -2.941,-5.809 -3.289,-0.422 -7.668,-0.332 -10.192,-0.332 -3.457,0 -4.214,0 -4.214,3.949 v 12.223 0"
       style="fill:#231f20;fill-opacity:1;fill-rule:nonzero;stroke:none;stroke-width:3.02851"
       id="path599" />
    <path
       d="m 630.211,251.398 c 0,-5.308 0.426,-6.988 -5.477,-6.988 -0.754,0 -2.105,0.09 -2.105,-1.012 0,-0.929 0.672,-1.097 1.434,-1.097 3.199,0 6.402,0.34 9.597,0.34 3.203,0 6.238,-0.34 9.442,-0.34 0.75,0 1.425,0.168 1.425,1.097 0,1.102 -1.425,1.012 -2.187,1.012 -5.813,0.09 -5.477,1.602 -5.477,6.988 v 34.532 c 0,5.308 -0.422,6.91 5.477,6.91 0.762,0 2.187,0 2.187,1.09 0,0.941 -0.675,1.179 -1.425,1.179 -3.204,0 -6.407,-0.328 -9.606,-0.328 -3.203,0 -6.234,0.328 -9.433,0.328 -0.84,0 -1.434,-0.238 -1.434,-1.179 0,-1.09 1.351,-1.09 2.105,-1.09 5.903,0 5.477,-1.602 5.477,-6.91 v -34.532 0"
       style="fill:#231f20;fill-opacity:1;fill-rule:nonzero;stroke:none;stroke-width:3.02851"
       id="path601" />
    <path
       d="m 675.82,267.059 c 0,4.632 0.758,3.882 5.727,3.882 4.719,0 9.18,0 13.394,-2.441 4.293,-2.359 6.485,-6.488 6.485,-11.379 0,-3.531 -1.602,-7.32 -4.215,-9.68 -3.113,-2.871 -6.82,-3.371 -10.863,-3.371 -2.192,0 -6.231,0.09 -8.086,1.27 -2.614,1.59 -2.442,5.469 -2.442,8.16 z m 0,21.48 c 0,1.43 -0.172,3.711 0.84,4.801 1.348,1.531 5.141,1.531 6.91,1.531 7.325,0 14.317,-3.039 14.317,-11.473 0,-2.949 -1.012,-5.808 -3.117,-7.738 -2.86,-2.699 -6.657,-3.039 -10.274,-3.039 h -4.551 c -3.707,0 -4.125,0.168 -4.125,4.039 z m -6.648,-36.898 c 0,-5.379 0.332,-7.231 -5.563,-7.231 -0.757,0 -2.105,0.25 -2.105,-0.84 0,-0.929 0.676,-1.269 1.426,-1.269 1.773,0 3.629,0.34 5.308,0.34 6.907,0 13.649,-0.34 20.551,-0.34 4.973,0 9.352,0.34 13.566,3.289 3.872,2.519 6.567,6.992 6.567,11.801 0,8.5 -7.496,13.968 -15.074,14.898 5.726,1.18 11.703,4.883 11.703,11.531 0,4.981 -3.621,8.668 -7.914,10.539 -4.887,2.102 -11.453,2.102 -16.68,2.102 -4.883,0 -11.957,-0.172 -16.676,-1.012 -0.926,-0.168 -3.875,-0.578 -3.875,-2.019 0,-0.508 0.422,-0.758 0.926,-0.758 1.012,0 2.441,0.668 4.043,0.668 4.383,0 3.797,-3.699 3.797,-7.07 v -34.629 0"
       style="fill:#231f20;fill-opacity:1;fill-rule:evenodd;stroke:none;stroke-width:3.02851"
       id="path603" />
    <path
       d="m 771.059,253.5 -29.809,38.66 c -1.016,1.36 -1.687,2.531 -3.457,2.949 h -10.445 c -0.922,0 -2.02,-0.078 -2.02,-1.347 0,-0.922 1.348,-0.922 2.11,-0.922 5.89,0 5.472,-1.68 5.472,-7 v -34.442 c 0,-5.218 0.418,-6.988 -5.472,-6.988 -0.762,0 -2.196,0.25 -2.196,-0.84 0,-0.929 0.676,-1.269 1.52,-1.269 2.441,0 4.968,0.34 7.324,0.34 2.531,0 4.891,-0.34 7.414,-0.34 0.844,0 1.434,0.34 1.434,1.269 0,1.09 -1.352,0.84 -2.106,0.84 -5.894,0 -5.476,1.77 -5.476,6.988 v 38.071 l 35.375,-45.989 c 0.425,-0.66 1.183,-2.019 2.105,-2.019 0.762,0 0.59,1.18 0.59,1.609 v 42.77 c 0,5.23 -0.336,7 5.473,7 0.839,0 2.191,0 2.191,0.922 0,0.929 -0.672,1.347 -1.43,1.347 -2.449,0 -4.797,-0.328 -7.332,-0.328 -2.519,0 -4.879,0.328 -7.414,0.328 -0.84,0 -1.512,-0.418 -1.512,-1.347 0,-0.922 1.352,-0.922 2.106,-0.922 5.898,0 5.555,-1.68 5.555,-7 v -32.34 0"
       style="fill:#231f20;fill-opacity:1;fill-rule:nonzero;stroke:none;stroke-width:3.02851"
       id="path605" />
    <path
       d="m 802.777,251.398 c 0,-5.308 0.426,-6.988 -5.468,-6.988 -0.762,0 -2.11,0.09 -2.11,-1.012 0,-0.929 0.676,-1.097 1.434,-1.097 3.203,0 6.398,0.34 9.597,0.34 3.208,0 6.235,-0.34 9.438,-0.34 0.758,0 1.434,0.168 1.434,1.097 0,1.102 -1.434,1.012 -2.196,1.012 -5.808,0.09 -5.468,1.602 -5.468,6.988 v 34.532 c 0,5.308 -0.422,6.91 5.468,6.91 0.762,0 2.196,0 2.196,1.09 0,0.941 -0.676,1.179 -1.434,1.179 -3.203,0 -6.398,-0.328 -9.598,-0.328 -3.203,0 -6.234,0.328 -9.437,0.328 -0.84,0 -1.434,-0.238 -1.434,-1.179 0,-1.09 1.348,-1.09 2.11,-1.09 5.894,0 5.468,-1.602 5.468,-6.91 v -34.532 0"
       style="fill:#231f20;fill-opacity:1;fill-rule:nonzero;stroke:none;stroke-width:3.02851"
       id="path607" />
    <path
       d="m 858.75,288.699 c 0,4.301 0,4.141 3.789,4.141 h 4.887 c 2.613,0 4.969,0 6.82,-2.192 1.266,-1.597 1.852,-3.957 2.449,-5.718 0.16,-0.508 0.332,-1.192 0.922,-1.192 0.93,0 1.012,0.762 1.012,1.434 l 0.508,10.277 c 0,0.59 0.414,3.031 -0.762,3.031 -0.84,0 -1.012,-0.75 -1.266,-1.441 -0.839,-2.348 -2.945,-1.93 -5.136,-1.93 h -30.571 c -1.347,0 -3.117,-0.238 -4.211,0.672 -0.675,0.508 -0.593,1.02 -0.675,1.778 0,0.5 -0.254,0.921 -0.758,0.921 -0.758,0 -0.922,-0.589 -1.102,-1.171 l -3.277,-10.95 c -0.172,-0.429 -0.504,-1.429 -0.504,-2.027 0,-0.594 0.246,-1.012 0.84,-1.012 0.84,0 1.515,1.43 1.848,2.02 4.042,6.742 7.164,7.5 14.828,7.5 2.609,0 3.711,0.59 3.711,-2.449 v -38.993 c 0,-5.308 0.418,-6.988 -5.481,-6.988 -0.754,0 -2.109,0.09 -2.109,-1.012 0,-0.929 0.679,-1.097 1.433,-1.097 3.203,0 6.403,0.34 9.606,0.34 3.199,0 6.23,-0.34 9.429,-0.34 0.758,0 1.438,0.168 1.438,1.097 0,1.102 -1.438,1.012 -2.188,1.012 -5.812,0 -5.48,1.602 -5.48,6.988 v 37.301 0"
       style="fill:#231f20;fill-opacity:1;fill-rule:nonzero;stroke:none;stroke-width:3.02851"
       id="path609" />
    <path
       d="m 900.414,251.398 c 0,-5.308 0.422,-6.988 -5.473,-6.988 -0.761,0 -2.109,0.09 -2.109,-1.012 0,-0.929 0.68,-1.097 1.43,-1.097 3.199,0 6.402,0.34 9.605,0.34 3.203,0 6.231,-0.34 9.434,-0.34 0.758,0 1.426,0.168 1.426,1.097 0,1.102 -1.426,1.012 -2.188,1.012 -5.809,0.09 -5.469,1.602 -5.469,6.988 v 34.532 c 0,5.308 -0.425,6.91 5.469,6.91 0.762,0 2.188,0 2.188,1.09 0,0.941 -0.668,1.179 -1.426,1.179 -3.203,0 -6.403,-0.328 -9.602,-0.328 -3.203,0 -6.238,0.328 -9.437,0.328 -0.84,0 -1.43,-0.238 -1.43,-1.179 0,-1.09 1.348,-1.09 2.109,-1.09 5.895,0 5.473,-1.602 5.473,-6.91 v -34.532 0"
       style="fill:#231f20;fill-opacity:1;fill-rule:nonzero;stroke:none;stroke-width:3.02851"
       id="path611" />
    <path
       d="m 938.277,251.398 c 0,-5.308 0.418,-6.988 -5.48,-6.988 -0.754,0 -2.106,0.09 -2.106,-1.012 0,-0.929 0.676,-1.097 1.438,-1.097 3.199,0 6.394,0.34 9.601,0.34 3.196,0 6.231,-0.34 9.43,-0.34 0.754,0 1.434,0.168 1.434,1.097 0,1.102 -1.434,1.012 -2.188,1.012 -5.812,0.09 -5.48,1.602 -5.48,6.988 v 34.532 c 0,5.308 -0.422,6.91 5.48,6.91 0.754,0 2.188,0 2.188,1.09 0,0.941 -0.68,1.179 -1.434,1.179 -3.199,0 -6.402,-0.328 -9.601,-0.328 -3.2,0 -6.231,0.328 -9.43,0.328 -0.844,0 -1.438,-0.238 -1.438,-1.179 0,-1.09 1.352,-1.09 2.106,-1.09 5.898,0 5.48,-1.602 5.48,-6.91 v -34.532 0"
       style="fill:#231f20;fill-opacity:1;fill-rule:nonzero;stroke:none;stroke-width:3.02851"
       id="path613" />
    <path
       d="m 643.391,367.332 c -0.254,2.777 0.504,4.637 -2.36,5.727 -4.043,1.601 -9.269,2.351 -13.558,2.351 -16.172,0 -32.008,-11.621 -32.008,-28.461 0,-8.09 3.535,-14.66 9.769,-19.789 5.899,-4.801 12.969,-6.57 20.551,-6.57 6.149,0 12.723,1.25 17.942,4.629 1.937,1.261 1.515,2.179 1.515,4.383 v 9.679 c 0,1.27 -0.168,3.711 0.926,4.629 0.59,0.602 1.855,0.602 2.609,0.68 l 1.598,0.172 c 0.762,0 1.605,0.078 1.605,1.09 0,0.839 -0.757,1.007 -1.433,1.007 -2.945,0 -5.813,-0.339 -8.676,-0.339 -3.027,0 -6.058,0.339 -9.094,0.339 -0.761,0 -1.937,0 -1.937,-1.089 0,-1.09 1.176,-1.008 2.019,-1.008 4.883,0 5.731,-0.762 5.731,-5.481 v -6.992 c 0,-2.019 0.164,-5.648 -1.602,-7.07 -2.359,-1.949 -6.738,-2.367 -9.605,-2.367 -7.242,0 -13.391,1.937 -18.188,7.5 -4.297,4.886 -6.066,10.789 -6.066,17.187 0,6.063 2.105,13.223 6.066,18.02 4.297,5.3 10.278,7.41 16.926,7.41 14.91,0 13.309,-10.86 16.176,-10.86 0.926,0 1.258,0.84 1.258,1.68 l -0.164,3.543 v 0"
       style="fill:#231f20;fill-opacity:1;fill-rule:nonzero;stroke:none;stroke-width:3.02851"
       id="path615" />
    <path
       d="m 681.863,367.422 c 0,1.418 -0.254,3.277 1.352,3.867 1.348,0.512 5.051,0.512 6.398,0.512 2.864,0 6.485,0 9.266,-0.852 2.777,-0.84 3.957,-2.359 5.223,-4.969 l 1.257,-2.359 c 0.254,-0.582 0.594,-1.68 1.352,-1.68 0.844,0 0.762,1.258 0.762,1.758 v 7.25 c 0,1.102 0.418,3.121 -1.184,3.121 -7.156,0 -14.234,-0.34 -21.48,-0.34 -5.219,0 -10.61,0.34 -15.829,0.34 -0.761,0 -1.437,-0.422 -1.437,-1.269 0,-1 1.348,-1 2.191,-1 5.813,0 5.477,-1.692 5.477,-6.91 v -34.289 c 0,-5.383 0.336,-7.071 -5.477,-7.071 -0.843,0 -2.191,-0.09 -2.191,-1.011 0,-0.918 0.676,-1.27 1.437,-1.27 1.68,0 3.536,0.352 5.219,0.352 h 32.93 c 0.676,0 0.844,-0.09 0.93,0.488 l 1.261,8.941 c 0.172,0.668 0.336,1.348 0.336,2.02 0,0.59 -0.246,0.929 -0.84,0.929 -1.011,0 -1.597,-2.281 -1.851,-2.859 -2.863,-7.422 -7.496,-7.59 -14.742,-7.59 -6.653,0 -10.36,0.09 -10.36,7.828 v 14.661 c 0,2.871 0.84,2.871 4.211,2.871 2.531,0 6.91,0 10.196,-0.762 1.851,-0.418 2.523,-2.949 2.945,-5.399 0.082,-0.5 0.336,-1.429 1.094,-1.429 0.421,0 0.925,0.168 0.925,1.519 -0.082,2.7 -0.254,5.219 -0.418,7.918 0.164,2.352 0.336,4.883 0.418,7.242 0,0.668 -0.504,0.84 -0.925,0.84 -0.758,0 -1.012,-0.929 -1.094,-1.422 -0.422,-2.449 -0.84,-5.566 -2.945,-5.816 -3.286,-0.422 -7.665,-0.344 -10.196,-0.344 -3.453,0 -4.211,0 -4.211,3.961 v 12.223 0"
       style="fill:#231f20;fill-opacity:1;fill-rule:nonzero;stroke:none;stroke-width:3.02851"
       id="path617" />
    <path
       d="m 771.461,332.449 -29.816,38.672 c -1.016,1.34 -1.688,2.527 -3.457,2.949 h -10.446 c -0.926,0 -2.019,-0.09 -2.019,-1.351 0,-0.918 1.347,-0.918 2.109,-0.918 5.895,0 5.473,-1.692 5.473,-7 v -34.449 c 0,-5.223 0.422,-6.981 -5.473,-6.981 -0.762,0 -2.191,0.25 -2.191,-0.851 0,-0.918 0.672,-1.27 1.515,-1.27 2.446,0 4.969,0.352 7.324,0.352 2.532,0 4.891,-0.352 7.415,-0.352 0.843,0 1.433,0.352 1.433,1.27 0,1.101 -1.351,0.851 -2.105,0.851 -5.895,0 -5.477,1.758 -5.477,6.981 v 38.07 l 35.375,-45.992 c 0.422,-0.668 1.18,-2.02 2.102,-2.02 0.761,0 0.593,1.192 0.593,1.61 v 42.781 c 0,5.219 -0.339,7 5.477,7 0.84,0 2.191,0 2.191,0.918 0,0.929 -0.679,1.351 -1.433,1.351 -2.446,0 -4.801,-0.34 -7.324,-0.34 -2.532,0 -4.891,0.34 -7.414,0.34 -0.84,0 -1.52,-0.422 -1.52,-1.351 0,-0.918 1.348,-0.918 2.105,-0.918 5.899,0 5.563,-1.692 5.563,-7 v -32.352 0"
       style="fill:#231f20;fill-opacity:1;fill-rule:nonzero;stroke:none;stroke-width:3.02851"
       id="path619" />
    <path
       d="m 803.18,330.352 c 0,-5.301 0.414,-6.981 -5.481,-6.981 -0.758,0 -2.101,0.07 -2.101,-1.012 0,-0.929 0.672,-1.109 1.433,-1.109 3.199,0 6.403,0.352 9.602,0.352 3.195,0 6.226,-0.352 9.426,-0.352 0.761,0 1.437,0.18 1.437,1.109 0,1.082 -1.437,1.012 -2.187,1.012 -5.813,0.07 -5.481,1.59 -5.481,6.981 v 34.539 c 0,5.3 -0.418,6.91 5.481,6.91 0.75,0 2.187,0 2.187,1.09 0,0.929 -0.676,1.179 -1.437,1.179 -3.2,0 -6.403,-0.34 -9.598,-0.34 -3.199,0 -6.231,0.34 -9.43,0.34 -0.84,0 -1.433,-0.25 -1.433,-1.179 0,-1.09 1.343,-1.09 2.101,-1.09 5.895,0 5.481,-1.61 5.481,-6.91 v -34.539 0"
       style="fill:#231f20;fill-opacity:1;fill-rule:nonzero;stroke:none;stroke-width:3.02851"
       id="path621" />
    <path
       d="m 885.508,348.039 c 0,-6.309 -1.266,-11.957 -5.227,-17.008 -4.035,-4.972 -9.769,-8.09 -16.25,-8.09 -6.398,0 -12.293,2.61 -16.34,7.489 -4.128,4.89 -5.644,11.3 -5.644,17.609 0,6.063 1.43,12.383 5.308,17.18 4.04,5.14 10.106,7.922 16.676,7.922 6.321,0 11.875,-2.86 15.918,-7.661 4.211,-5.14 5.559,-10.949 5.559,-17.441 z m -51.035,0 c 0,-15.328 14.226,-27.449 29.39,-27.449 16.004,0 29.313,11.199 29.313,27.449 0,16.262 -13.309,27.371 -29.313,27.371 -15.164,0 -29.39,-12.039 -29.39,-27.371 v 0"
       style="fill:#231f20;fill-opacity:1;fill-rule:evenodd;stroke:none;stroke-width:3.02851"
       id="path623" />
    <path
       d="m 268.5,296.93 5.188,4.34 -15.715,18.73 18.722,15.711 -4.351,5.187 -18.723,-15.707 -15.629,18.629 -5.183,-4.359 15.629,-18.629 -18.625,-15.621 4.347,-5.191 18.629,15.628 15.711,-18.718 v 0"
       style="fill:#231f20;fill-opacity:1;fill-rule:nonzero;stroke:none;stroke-width:3.02851"
       id="path625" />
    <path
       d="m 151.816,439.949 c -0.671,-0.051 -3.871,-0.629 -4.312,0.27 -0.332,0.679 2.16,3 2.5,3.453 l 15.418,17 c 0.223,0.109 1.641,1.777 2.094,2 1.238,0.598 2.164,-2.152 2.496,-2.832 l 6.316,-12.961 c 0.215,-0.449 2.426,-3.828 1.301,-4.379 -0.34,-0.16 -1.125,-0.27 -1.516,-0.32 z m 36.02,3.352 c -4.875,-0.281 -5,-1.18 -7.195,3.32 l -7.473,15.32 c -2.637,5.411 -2.254,4.618 2.336,9.789 l 6.805,7.774 c 1.187,1.281 3.175,3.508 4.754,4.269 3.375,1.657 5.46,-2.628 6.89,-5.55 0.555,-1.133 1.598,-3.282 3.281,-2.453 1.02,0.5 0.582,1.679 0.25,2.359 -2.031,4.164 -4.57,8.226 -6.546,12.281 -2.418,4.961 -4.383,10.141 -6.801,15.09 -0.282,0.563 -0.938,1.637 -1.953,1.141 -1.692,-0.817 -0.645,-2.961 -0.094,-4.094 2.691,-5.516 -2.91,-10.621 -6.426,-14.567 l -45.453,-50.339 c -0.566,-0.551 -1.809,-1.711 -1.367,-2.621 0.605,-1.239 2.344,-0.801 3.414,-0.7 l 67.039,5.789 c 2.523,0.25 8.695,0.75 10.992,0.051 2.289,-0.691 3.559,-2.73 4.547,-4.75 0.496,-1.019 1.535,-3.16 3.113,-2.39 1.914,0.941 -0.183,3.539 -0.738,4.66 -1.535,3.16 -3.523,6.09 -5.066,9.25 -1.536,3.152 -2.625,6.531 -4.165,9.672 -0.546,1.136 -1.32,2.707 -2.667,2.058 -1.579,-0.769 -0.532,-2.64 -0.04,-3.648 1.266,-2.59 3.344,-7.711 -0.371,-9.532 -2.031,-0.98 -4.836,-1.23 -6.968,-1.441 l -10.098,-0.738 v 0"
       style="fill:#231f20;fill-opacity:1;fill-rule:evenodd;stroke:none;stroke-width:3.02851"
       id="path627" />
    <path
       d="m 91.7852,557.551 c -3.2149,-1.434 -4.9258,-1.469 -4.9922,-5.313 -0.125,-5.707 1.1562,-14.515 2.8984,-19.886 7.0899,-21.805 29.8946,-36.016 51.9456,-28.852 21.097,6.863 33.48,30 26.433,51.688 -2.558,7.871 -6.394,14 -12.015,19.941 -2.989,3.125 -3.188,2.926 -6.961,1.965 l -9.852,-2.543 c -0.875,-0.153 -1.429,-0.856 -1.121,-1.813 1.043,-3.222 20.223,1.434 26.227,-17.047 3.136,-9.656 0.414,-18.707 -5.317,-26.628 -5.285,-7.258 -12.5,-12.243 -20.961,-14.993 -17.879,-5.8 -38.2614,-1.492 -44.7692,18.535 -6,18.481 8.9452,24.391 7.9372,27.485 -0.304,0.957 -1.019,1.125 -1.9685,0.812 l -7.4843,-3.351 v 0"
       style="fill:#231f20;fill-opacity:1;fill-rule:nonzero;stroke:none;stroke-width:3.02851"
       id="path629" />
    <path
       d="m 93.1289,614.539 c -0.6562,0.149 -3.8906,0.527 -4.0469,1.52 -0.1172,0.742 2.9453,2.242 3.3985,2.566 l 19.7105,11.746 c 0.25,0.043 2.09,1.219 2.59,1.301 1.356,0.211 1.442,-2.695 1.559,-3.43 l 2.254,-14.238 c 0.078,-0.5 1.203,-4.383 -0.039,-4.582 -0.371,-0.047 -1.153,0.078 -1.543,0.141 z m 35.4261,-7.332 c -4.75,1.145 -5.125,0.332 -5.914,5.277 l -2.664,16.836 c -0.946,5.946 -0.805,5.078 5.097,8.676 l 8.778,5.457 c 1.507,0.863 4.058,2.414 5.793,2.684 3.714,0.593 4.457,-4.114 4.968,-7.328 0.196,-1.243 0.567,-3.594 2.422,-3.297 1.117,0.172 1.047,1.433 0.926,2.176 -0.727,4.582 -1.965,9.199 -2.668,13.667 -0.863,5.442 -1.23,10.969 -2.094,16.418 -0.097,0.618 -0.418,1.84 -1.535,1.661 -1.855,-0.293 -1.484,-2.653 -1.289,-3.887 0.965,-6.067 -5.883,-9.301 -10.398,-12.051 L 71.793,618.645 c -0.7032,-0.364 -2.2344,-1.11 -2.0742,-2.11 0.2109,-1.355 2.0039,-1.457 3.0546,-1.672 l 65.8046,-14.062 c 2.492,-0.504 8.535,-1.824 10.524,-3.16 1.992,-1.332 2.613,-3.649 2.961,-5.875 0.179,-1.114 0.55,-3.473 2.285,-3.188 2.101,0.32 0.847,3.426 0.652,4.668 -0.547,3.465 -1.594,6.856 -2.141,10.32 -0.546,3.469 -0.601,7.012 -1.148,10.477 -0.195,1.238 -0.477,2.973 -1.961,2.738 -1.73,-0.273 -1.273,-2.359 -1.098,-3.472 0.45,-2.856 0.942,-8.356 -3.14,-9.004 -2.231,-0.352 -4.989,0.23 -7.082,0.66 l -9.875,2.242 v 0"
       style="fill:#231f20;fill-opacity:1;fill-rule:evenodd;stroke:none;stroke-width:3.02851"
       id="path631" />
    <path
       d="m 72.0508,697.734 c -2.0039,-0.035 -5.8906,-0.23 -7.418,1.243 -1.914,1.855 -2.2734,8.117 -2.3164,10.75 -0.3984,22.683 14.4844,38.992 37.7966,39.394 9.774,0.176 19.864,-3.289 27.121,-9.93 8.032,-7.507 10.192,-16.371 10.371,-26.894 0.2,-10.906 -2.394,-13.465 -13.546,-13.652 z m 54.4332,-8.957 c 8.024,0.153 10.774,0.821 10.922,-7.949 0.02,-1.258 -0.195,-3.269 1.438,-3.238 1.25,0.015 1.73,1.031 1.715,2.164 -0.047,2.637 -0.594,5.129 -0.637,7.887 -0.16,9.023 0.18,18.3 0.019,27.574 -0.214,12.16 -2.535,23.152 -10.843,32.406 -7.672,8.387 -18.785,13.082 -30.3128,12.891 -12.0313,-0.215 -23.1993,-6.68 -30.1758,-16.328 -6.8555,-9.524 -9.4141,-20.852 -9.2149,-32.379 0.086,-5.008 2.1289,-35.938 6.6407,-35.86 0.7578,0.012 1.3711,0.524 1.3593,1.403 -0.0234,1.254 -1.4414,3.613 -1.4922,6.246 -0.082,4.883 5.0704,4.222 8.8282,4.281 l 51.7535,0.902 v 0"
       style="fill:#231f20;fill-opacity:1;fill-rule:evenodd;stroke:none;stroke-width:3.02851"
       id="path633" />
    <path
       d="m 75.1719,804.461 c -2.1172,0.254 -4.8985,0.219 -5.4805,2.691 -0.5,2.078 0.1719,7.559 0.4141,9.547 0.5234,4.227 1.1797,9.574 2.9258,13.528 1.75,3.953 4.2031,5.425 8.289,6.816 l 3.7149,1.437 c 0.914,0.27 2.5937,0.563 2.7304,1.68 0.1485,1.25 -1.7304,1.352 -2.4765,1.445 l -10.6993,1.313 c -1.6171,0.203 -4.5273,1.187 -4.8125,-1.176 -1.3007,-10.57 -2.0859,-21.09 -3.3984,-31.781 -0.9492,-7.715 -2.4219,-15.617 -3.3711,-23.332 -0.1406,-1.117 0.3594,-2.191 1.6055,-2.344 1.4961,-0.18 1.7344,1.813 1.8906,3.051 1.0547,8.586 3.4805,7.781 11.1914,6.832 l 50.6327,-6.215 c 7.965,-0.976 10.516,-0.781 9.461,-9.367 -0.156,-1.25 -0.273,-3.25 1.094,-3.422 1.371,-0.16 1.984,0.774 2.129,1.891 0.301,2.48 0.14,5.289 0.449,7.773 l 5.973,48.641 c 0.121,0.996 0.277,1.226 -0.582,1.457 l -12.957,3.492 c -0.965,0.371 -1.926,0.742 -2.922,0.863 -0.875,0.106 -1.418,-0.203 -1.524,-1.078 -0.179,-1.496 3.067,-2.773 3.891,-3.258 10.43,-5.574 9.84,-12.445 8.523,-23.144 -1.203,-9.828 -2,-15.285 -13.445,-13.879 l -21.648,2.652 c -4.227,0.524 -4.075,1.77 -3.465,6.742 0.461,3.731 1.25,10.207 2.968,14.918 0.957,2.657 4.813,3.196 8.497,3.375 0.757,0.036 2.179,0.243 2.308,1.356 0.078,0.621 -0.074,1.398 -2.066,1.648 -3.996,0.36 -7.754,0.571 -11.77,0.813 -3.4568,0.676 -7.1522,1.379 -10.6248,1.929 -0.9961,0.122 -1.3359,-0.585 -1.4102,-1.214 -0.1367,-1.114 1.1875,-1.657 1.9141,-1.875 3.5352,-1.071 8.0629,-2.25 8.0509,-5.411 0.023,-4.921 -0.891,-11.382 -1.3478,-15.109 -0.6289,-5.101 -0.7656,-6.223 -6.6172,-5.5 l -18.0351,2.215 v 0"
       style="fill:#231f20;fill-opacity:1;fill-rule:nonzero;stroke:none;stroke-width:3.02851"
       id="path635" />
    <path
       d="m 83.5781,892.531 c -2.1328,-0.203 -3.7383,0.094 -4.3554,-2.211 l -3.7618,-14.043 c -0.3593,-1.328 -1.5468,-3.343 0.3868,-3.867 1.6953,-0.453 2.3945,1.184 2.7187,2.387 1.75,6.539 2.6094,6.828 8.6524,4.687 l 52.6292,-18.125 c 5.836,-1.953 8.882,-3.152 7.066,-9.933 -0.293,-1.09 -0.723,-3.184 0.731,-3.567 1.21,-0.328 1.679,0.454 1.972,1.543 0.942,3.508 1.434,7.278 2.403,10.903 0.972,3.64 2.429,7.136 3.406,10.773 0.289,1.09 0.711,2.66 -0.742,3.055 -1.696,0.449 -2.25,-2.129 -2.579,-3.332 -2.304,-8.598 -8.445,-6.824 -15.703,-4.363 l -48.9372,16.882 0.2266,0.844 67.7736,7.406 c 0.914,0.012 2.465,-0.015 2.789,1.192 0.285,1.09 -0.945,1.812 -1.695,2.402 l -55.754,43.746 0.23,0.848 54.84,-14.692 c 2.184,-0.586 6.723,-1.543 7.871,-4.058 0.727,-1.629 0.652,-4.328 0.168,-6.141 -0.324,-1.215 -1.25,-3.687 0.566,-4.176 1.333,-0.355 1.813,0.942 2.075,1.911 1.261,4.722 2.074,9.695 3.371,14.531 1.043,3.875 2.558,7.621 3.597,11.492 0.262,0.973 0.5,2.34 -0.832,2.695 -1.824,0.485 -2.257,-2.121 -2.586,-3.328 -0.453,-1.695 -1.058,-3.48 -2.835,-4.297 -2.082,-1.007 -6.895,0.414 -8.832,0.934 l -50,13.398 c -2.176,0.578 -7.032,1.368 -8.336,3.274 -1.0395,1.445 0.035,4.012 0.461,5.582 0.32,1.211 0.535,2.969 -1.1567,3.43 -1.9454,0.511 -1.9219,-1.825 -2.2774,-3.153 l -3.5976,-13.441 c -0.3594,-1.332 -0.6836,-2.547 0.6914,-3.696 l 50.4653,-40.246 -61.1099,-7.246 v 0"
       style="fill:#231f20;fill-opacity:1;fill-rule:nonzero;stroke:none;stroke-width:3.02851"
       id="path637" />
    <path
       d="m 172.012,965.848 c 7.324,-2.957 9.883,-3.317 6.597,-11.45 -0.425,-1.046 -1.296,-2.855 0.219,-3.468 1.277,-0.516 1.887,0.32 2.309,1.367 1.785,4.414 3.101,9.016 4.883,13.433 1.789,4.415 3.941,8.411 5.726,12.825 0.422,1.047 0.563,2.074 -0.711,2.59 -1.515,0.613 -2.191,-1.415 -2.617,-2.454 -3.355,-7.976 -5.258,-6.66 -12.695,-3.664 l -47.649,19.254 c -7.32,2.957 -9.761,3.266 -6.476,11.409 0.418,1.04 1.218,3.02 -0.289,3.63 -1.282,0.52 -2,-0.28 -2.426,-1.32 -1.781,-4.42 -3.102,-9.023 -4.891,-13.437 -1.785,-4.418 -3.937,-8.411 -5.726,-12.833 -0.461,-1.16 -0.45,-2.113 0.836,-2.625 1.507,-0.617 2.261,1.247 2.683,2.29 3.281,8.136 5.262,6.664 12.578,3.707 l 47.649,-19.254 v 0"
       style="fill:#231f20;fill-opacity:1;fill-rule:nonzero;stroke:none;stroke-width:3.02851"
       id="path639" />
    <path
       d="m 161.621,1046.98 c -0.426,0.53 -2.738,2.82 -2.258,3.69 0.367,0.66 3.703,-0.04 4.266,-0.06 l 22.766,-2.88 c 0.214,-0.12 2.398,-0.32 2.839,-0.57 1.2,-0.67 -0.523,-3.01 -0.89,-3.66 l -6.989,-12.62 c -0.242,-0.43 -1.746,-4.19 -2.839,-3.57 -0.332,0.19 -0.871,0.76 -1.137,1.05 z m 23.402,-27.58 c -3.035,3.83 -3.839,3.42 -1.41,7.8 l 8.266,14.91 c 2.918,5.26 2.492,4.5 9.355,3.7 l 10.282,-1.11 c 1.726,-0.25 4.683,-0.6 6.218,-1.45 3.289,-1.82 0.977,-5.98 -0.601,-8.84 -0.606,-1.09 -1.758,-3.17 -0.117,-4.08 0.988,-0.55 1.707,0.48 2.07,1.15 2.246,4.05 4.117,8.46 6.305,12.41 2.675,4.81 5.785,9.4 8.461,14.22 0.304,0.55 0.8,1.71 -0.184,2.25 -1.648,0.91 -2.801,-1.17 -3.41,-2.26 -2.973,-5.37 -10.371,-3.72 -15.613,-3.1 l -67.305,8.36 c -0.781,0.15 -2.445,0.5 -2.938,-0.38 -0.668,-1.2 0.688,-2.39 1.379,-3.2 l 43.196,-51.6 c 1.66,-1.93 5.601,-6.69 6.351,-8.961 0.742,-2.278 -0.191,-4.489 -1.285,-6.461 -0.547,-0.981 -1.699,-3.067 -0.164,-3.918 1.859,-1.035 2.785,2.18 3.391,3.277 1.699,3.067 2.964,6.383 4.668,9.453 1.699,3.07 3.839,5.9 5.539,8.97 0.609,1.09 1.464,2.63 0.144,3.35 -1.535,0.85 -2.461,-1.07 -3.008,-2.06 -1.394,-2.51 -4.398,-7.15 -8.011,-5.15 -1.977,1.09 -3.789,3.25 -5.18,4.87 l -6.399,7.85 v 0"
       style="fill:#231f20;fill-opacity:1;fill-rule:evenodd;stroke:none;stroke-width:3.02851"
       id="path641" />
    <path
       d="m 266.051,1157.07 c 8.496,3.82 16.652,5.58 24.109,-1.13 7.36,-6.62 5.899,-17.8 -0.39,-24.78 -7.625,-8.48 -16.516,-8.24 -25.368,-1.95 -0.828,0.58 -3.156,2.67 -4.246,1.46 -0.922,-1.03 -0.058,-2.31 0.606,-3.07 2.168,-2.46 4.496,-4.56 6.918,-6.74 1.675,-1.51 3.941,-4.06 6.39,-3.4 5.852,1.82 12.192,6.24 16.297,10.8 4.867,5.4 8.25,11.97 8.574,19.26 0.254,7.03 -2.14,13.74 -7.355,18.43 -4.008,3.61 -9.695,5.53 -15.106,5.51 -4.441,-0.05 -9.917,-2.2 -14.082,-4.02 -8.058,-3.71 -20.543,-11.01 -28.554,-3.8 -6.805,6.12 -4.684,14.84 0.851,20.99 6.543,7.26 12.5,6.96 20.774,3.21 0.91,-0.3 2.562,-1.46 3.484,-0.44 0.594,0.65 0.461,1.45 -0.191,2.04 -2.508,2.09 -5.094,4.08 -7.602,6.17 -1.762,1.41 -2.707,2.6 -4.953,1.42 -4.504,-2.18 -10.019,-6.99 -13.285,-10.63 -8.227,-9.13 -10.231,-23.35 -0.449,-32.15 8.289,-7.46 18.148,-4.2 27.25,-0.08 l 6.328,2.9 v 0"
       style="fill:#231f20;fill-opacity:1;fill-rule:nonzero;stroke:none;stroke-width:3.02851"
       id="path643" />
    <path
       d="m 321.391,1258.66 c -2.625,2.36 -3.344,3.9 -6.887,2.39 -5.262,-2.2 -12.789,-6.96 -16.981,-10.73 -17.043,-15.34 -20.746,-41.95 -5.234,-59.19 14.844,-16.48 41.016,-18.38 57.969,-3.13 6.148,5.54 10.191,11.54 13.336,19.1 1.633,3.99 1.371,4.1 -1.043,7.15 l -6.328,7.96 c -0.496,0.74 -1.368,0.97 -2.118,0.3 -2.511,-2.27 9.54,-17.9 -4.902,-30.9 -7.543,-6.79 -16.922,-7.98 -26.492,-5.98 -8.773,1.88 -16.258,6.44 -22.215,13.07 -12.582,13.96 -16.926,34.34 -1.277,48.43 14.437,13 25.918,1.75 28.34,3.92 0.746,0.68 0.605,1.39 -0.063,2.14 l -6.105,5.47 v 0"
       style="fill:#231f20;fill-opacity:1;fill-rule:nonzero;stroke:none;stroke-width:3.02851"
       id="path645" />
    <path
       d="m 382.523,1231.25 c 4.528,-6.46 6.481,-8.16 -0.707,-13.2 -0.921,-0.64 -2.636,-1.69 -1.703,-3.02 0.789,-1.13 1.758,-0.76 2.68,-0.12 3.902,2.73 7.516,5.88 11.418,8.61 3.902,2.73 7.883,4.91 11.785,7.64 0.922,0.65 1.602,1.43 0.817,2.55 -0.938,1.34 -2.614,0.02 -3.536,-0.63 -7.156,-4.86 -8.043,-2.72 -12.64,3.85 l -29.481,42.1 c -4.523,6.46 -6.406,8.05 0.782,13.09 0.929,0.64 2.671,1.86 1.734,3.2 -0.789,1.13 -1.824,0.86 -2.75,0.22 -3.902,-2.74 -7.52,-5.87 -11.418,-8.61 -3.902,-2.74 -7.883,-4.91 -11.785,-7.64 -1.031,-0.72 -1.531,-1.53 -0.742,-2.66 0.937,-1.34 2.578,-0.18 3.503,0.46 7.188,5.03 8.04,2.73 12.567,-3.75 l 29.476,-42.09 v 0"
       style="fill:#231f20;fill-opacity:1;fill-rule:nonzero;stroke:none;stroke-width:3.02851"
       id="path647" />
    <path
       d="m 403.129,1309.98 c -1.035,1.86 -2.699,4.09 -1.039,6.02 1.387,1.63 6.211,4.3 7.965,5.27 3.722,2.07 8.441,4.68 12.664,5.59 4.23,0.91 6.855,-0.22 10.383,-2.7 l 3.343,-2.16 c 0.758,-0.58 1.985,-1.76 2.969,-1.21 1.098,0.6 0.078,2.18 -0.289,2.84 l -5.223,9.43 c -0.789,1.42 -1.699,4.35 -3.785,3.2 -9.316,-5.16 -18.281,-10.7 -27.711,-15.92 -6.797,-3.78 -14.054,-7.23 -20.847,-10.99 -0.989,-0.55 -1.563,-1.59 -0.954,-2.68 0.727,-1.31 2.481,-0.34 3.579,0.26 7.562,4.2 8.339,1.75 12.109,-5.04 l 24.727,-44.62 c 3.89,-7.01 5.543,-8.96 -2.02,-13.16 -1.094,-0.6 -2.789,-1.68 -2.121,-2.89 0.672,-1.2 1.789,-1.16 2.773,-0.61 2.196,1.22 4.364,2.99 6.555,4.2 l 42.863,23.77 c 0.875,0.49 1.16,0.49 0.84,1.32 l -4.793,12.53 c -0.269,1 -0.539,2 -1.019,2.88 -0.426,0.77 -1,1.02 -1.762,0.6 -1.32,-0.73 -0.445,-4.12 -0.356,-5.07 1.629,-11.71 -4.285,-15.27 -13.71,-20.5 -8.661,-4.8 -13.543,-7.37 -19.133,2.72 l -10.578,19.08 c -2.067,3.72 -0.965,4.33 3.418,6.77 3.293,1.82 8.992,4.98 13.808,6.36 2.723,0.79 5.422,-2.02 7.731,-4.89 0.472,-0.6 1.468,-1.62 2.457,-1.08 0.55,0.31 1.09,0.9 0.113,2.65 -2.059,3.44 -4.098,6.61 -6.262,10 -1.48,3.19 -3.086,6.6 -4.679,9.73 -0.481,0.87 -1.262,0.73 -1.809,0.43 -0.988,-0.56 -0.648,-1.93 -0.391,-2.66 1.211,-3.47 2.91,-7.84 0.352,-9.68 -3.973,-2.92 -9.734,-5.98 -13.024,-7.8 -4.492,-2.49 -5.476,-3.04 -8.335,2.12 l -8.809,15.89 v 0"
       style="fill:#231f20;fill-opacity:1;fill-rule:nonzero;stroke:none;stroke-width:3.02851"
       id="path649" />
    <path
       d="m 541.09,1316.45 -62.043,37.82 c -2.121,1.32 -3.688,2.61 -6.367,2.25 l -14.512,-5.57 c -1.289,-0.5 -2.762,-1.2 -2.09,-2.96 0.492,-1.28 2.367,-0.56 3.418,-0.16 8.195,3.15 8.508,0.59 11.332,-6.79 l 18.371,-47.86 c 2.789,-7.25 4.317,-9.49 -3.871,-12.63 -1.055,-0.41 -3.18,-0.82 -2.598,-2.34 0.493,-1.29 1.61,-1.39 2.782,-0.94 3.394,1.3 6.722,3.11 10,4.37 3.511,1.35 6.968,2.13 10.48,3.49 1.164,0.44 1.805,1.23 1.313,2.51 -0.586,1.53 -2.321,0.46 -3.375,0.06 -8.192,-3.16 -8.547,-0.47 -11.336,6.78 l -20.297,52.89 73.664,-45.02 c 0.949,-0.71 2.723,-2.18 4.004,-1.68 1.055,0.4 0.191,1.95 -0.031,2.53 l -22.821,59.44 c -2.781,7.25 -4.191,9.54 3.883,12.64 1.168,0.45 3.043,1.17 2.543,2.45 -0.492,1.29 -1.652,1.51 -2.703,1.11 -3.395,-1.3 -6.488,-3.03 -10,-4.38 -3.512,-1.34 -6.969,-2.13 -10.481,-3.48 -1.167,-0.45 -1.878,-1.4 -1.386,-2.68 0.496,-1.29 2.363,-0.57 3.418,-0.17 8.195,3.15 8.625,0.63 11.453,-6.74 l 17.25,-44.94 v 0"
       style="fill:#231f20;fill-opacity:1;fill-rule:nonzero;stroke:none;stroke-width:3.02851"
       id="path651" />
    <path
       d="m 593.461,1384.37 c -1.328,6.25 -1.273,6.01 4.238,7.18 l 7.114,1.51 c 3.8,0.81 7.234,1.54 10.613,-1.08 2.328,-1.93 3.922,-5.18 5.32,-7.58 0.402,-0.68 0.859,-1.61 1.715,-1.42 1.352,0.28 1.234,1.41 1.031,2.39 l -2.441,15.11 c -0.188,0.86 -0.328,4.55 -2.047,4.18 -1.227,-0.26 -1.234,-1.41 -1.391,-2.47 -0.5,-3.69 -3.695,-3.73 -6.886,-4.41 l -44.5,-9.46 c -1.965,-0.42 -4.457,-1.34 -6.34,-0.32 -1.137,0.53 -1.172,1.29 -1.528,2.37 -0.156,0.73 -0.656,1.26 -1.39,1.11 -1.106,-0.24 -1.164,-1.15 -1.227,-2.05 l -1.394,-16.97 c -0.114,-0.66 -0.293,-2.23 -0.11,-3.09 0.18,-0.86 0.68,-1.39 1.539,-1.21 1.227,0.26 1.762,2.55 2.071,3.51 3.8,11.06 8.097,13.13 19.257,15.5 3.801,0.81 5.215,2 6.153,-2.41 L 595.32,1328 c 1.645,-7.73 2.778,-10.04 -5.804,-11.87 -1.11,-0.24 -3.09,-0.52 -2.754,-2.12 0.289,-1.35 1.32,-1.39 2.422,-1.15 4.66,0.99 9.214,2.47 13.875,3.45 4.656,1 9.175,1.45 13.836,2.44 1.101,0.23 2.031,0.68 1.742,2.04 -0.336,1.59 -2.399,1.03 -3.5,0.79 -8.457,-1.8 -8.461,0.63 -10.133,8.48 l -11.543,54.31 v 0"
       style="fill:#231f20;fill-opacity:1;fill-rule:nonzero;stroke:none;stroke-width:3.02851"
       id="path653" />
    <path
       d="m 655.984,1339.5 c 0.965,-7.84 1.899,-10.25 -6.812,-11.32 -1.121,-0.14 -3.125,-0.26 -2.934,-1.88 0.172,-1.37 1.2,-1.5 2.317,-1.35 4.73,0.57 9.394,1.66 14.121,2.23 4.726,0.59 9.265,0.64 13.996,1.21 1.121,0.15 2.082,0.52 1.918,1.89 -0.199,1.61 -2.301,1.23 -3.418,1.09 -8.602,-0.93 -8.379,1.37 -9.356,9.33 l -6.265,51.01 c -0.961,7.84 -1.875,10.13 6.836,11.19 1.117,0.14 3.23,0.4 3.031,2.02 -0.164,1.37 -1.203,1.62 -2.324,1.48 -4.727,-0.58 -9.395,-1.65 -14.125,-2.24 -4.723,-0.58 -9.262,-0.63 -13.989,-1.21 -1.246,-0.15 -2.07,-0.64 -1.906,-2.01 0.199,-1.61 2.196,-1.37 3.313,-1.23 8.707,1.07 8.375,-1.37 9.336,-9.2 l 6.261,-51.01 v 0"
       style="fill:#231f20;fill-opacity:1;fill-rule:nonzero;stroke:none;stroke-width:3.02851"
       id="path655" />
    <path
       d="m 720.859,1388.89 c 0.235,0.63 1.059,3.79 2.067,3.81 0.746,0 1.804,-3.24 2.07,-3.73 l 8.891,-21.16 c 0.004,-0.25 0.918,-2.24 0.922,-2.74 0.027,-1.38 -2.868,-1.05 -3.614,-1.07 l -14.414,-0.25 c -0.496,0 -4.5,-0.58 -4.523,0.67 -0.008,0.38 0.23,1.14 0.347,1.52 z m -12.199,-34.05 c 1.809,4.54 1.047,5.03 6.059,5.11 l 17.043,0.3 c 6.011,0.11 5.136,0.09 7.883,-6.25 l 4.179,-9.46 c 0.649,-1.62 1.824,-4.36 1.86,-6.11 0.058,-3.76 -4.7,-3.84 -7.957,-3.9 -1.25,-0.01 -3.633,-0.06 -3.602,-1.94 0.02,-1.13 1.273,-1.23 2.027,-1.22 4.641,0.08 9.391,0.67 13.903,0.75 5.511,0.09 11.035,-0.32 16.547,-0.22 0.625,0.02 1.878,0.16 1.859,1.29 -0.027,1.88 -2.414,1.83 -3.664,1.82 -6.145,-0.11 -8.402,7.12 -10.488,11.97 l -26.414,62.47 c -0.262,0.75 -0.793,2.37 -1.797,2.35 -1.379,-0.02 -1.723,-1.79 -2.078,-2.79 l -23.09,-63.21 c -0.84,-2.39 -2.996,-8.2 -4.598,-9.99 -1.598,-1.77 -3.973,-2.07 -6.227,-2.11 -1.128,-0.02 -3.507,-0.06 -3.48,-1.82 0.039,-2.13 3.281,-1.31 4.535,-1.29 3.512,0.06 7.016,0.62 10.52,0.68 3.511,0.06 7.027,-0.37 10.539,-0.32 1.25,0.03 3.008,0.05 2.976,1.56 -0.027,1.76 -2.16,1.59 -3.285,1.58 -2.883,-0.05 -8.402,0.23 -8.476,4.36 -0.036,2.25 0.918,4.9 1.632,6.93 l 3.594,9.46 v 0"
       style="fill:#231f20;fill-opacity:1;fill-rule:evenodd;stroke:none;stroke-width:3.02851"
       id="path657" />
    <path
       d="m 805.395,1393.43 c 1.07,8.71 1.468,9.92 10.921,8.76 11.079,-1.36 17.157,-8.42 15.75,-19.87 -0.613,-4.97 -2.793,-9.37 -7.277,-11.98 -5.176,-3.03 -10.336,-2.9 -16.059,-2.2 -2.113,0.27 -6.449,-0.09 -6.074,3.02 z m -16.215,-50.79 c -0.961,-7.84 -0.645,-10.41 -9.352,-9.34 -1.121,0.14 -3.094,0.51 -3.289,-1.11 -0.172,-1.37 0.789,-1.74 1.906,-1.87 4.735,-0.59 9.524,-0.67 14.246,-1.25 4.731,-0.58 9.149,-1.62 13.875,-2.21 1.122,-0.14 2.145,0 2.317,1.36 0.195,1.62 -1.934,1.75 -3.059,1.9 -8.558,1.17 -7.789,3.34 -6.816,11.31 l 2.355,19.16 c 0.141,1.12 0.379,4.12 1.235,4.89 0.715,0.68 1.82,0.42 2.812,0.3 9.453,-1.17 9.207,-2.15 12.617,-11.4 l 9.215,-25.76 c 0.766,-1.99 1.219,-4.45 3.703,-4.75 l 13.192,-1.62 c 0.996,-0.12 2.254,-0.15 2.406,1.09 0.215,1.75 -2.023,2.02 -3.02,2.14 -5.472,0.68 -6.753,5.63 -8.464,10.26 l -7.692,20.65 c -1.347,3.44 -2.676,8.02 -6.582,9.14 10.492,0.1 20.637,5.55 22.024,16.86 1.605,13.07 -9.371,20.35 -21.188,21.8 -7.09,0.88 -14.125,1.23 -21.332,2.12 -3.984,0.49 -8.156,1.5 -12.137,1.99 -1.371,0.17 -2.297,-0.23 -2.468,-1.59 -0.188,-1.49 1.804,-1.74 2.929,-1.87 8.707,-1.07 7.797,-3.36 6.817,-11.32 l -6.25,-50.88 v 0"
       style="fill:#231f20;fill-opacity:1;fill-rule:evenodd;stroke:none;stroke-width:3.02851"
       id="path659" />
    <path
       d="m 897.09,1325.11 -7.879,57.25 c -0.223,1.62 -0.734,3.58 -0.281,5.27 0.582,2.17 5.722,0.54 6.601,0.44 1.008,-0.14 2.489,-0.41 2.883,1.04 0.387,1.45 -0.824,1.77 -1.91,2.07 -3.762,1 -7.516,1.5 -11.152,2.46 -4.356,1.18 -8.34,2.76 -12.707,3.93 -1.086,0.29 -2.571,0.56 -2.926,-0.77 -0.489,-1.82 1.574,-2.37 2.781,-2.69 5.57,-1.5 6.016,-5.63 6.664,-10.48 l 9.387,-69.09 c 0.172,-0.82 0.062,-3.64 1.273,-3.97 0.969,-0.25 2.406,2.21 2.848,2.87 l 41.066,54.01 c 1.653,2.28 4.325,5.45 6.746,6.76 1.778,0.81 3.692,0.69 5.383,0.24 1.09,-0.3 2.973,-0.54 3.363,0.91 0.29,1.09 -0.304,1.77 -1.281,2.03 -3.386,0.91 -6.902,1.33 -10.293,2.24 -3.394,0.91 -6.894,2.37 -10.285,3.27 -1.211,0.33 -2.758,0.35 -3.148,-1.09 -0.489,-1.82 3.847,-2.6 4.937,-2.88 2.18,-0.59 4.922,-1.98 4.176,-4.76 -0.488,-1.82 -2.289,-4.19 -3.348,-5.72 l -32.898,-43.34 v 0"
       style="fill:#231f20;fill-opacity:1;fill-rule:nonzero;stroke:none;stroke-width:3.02851"
       id="path661" />
    <path
       d="m 988.445,1357.73 c 0.129,2.14 0.676,3.68 -1.496,4.65 l -13.281,5.91 c -1.262,0.56 -3.066,2.05 -3.883,0.22 -0.719,-1.6 0.789,-2.55 1.934,-3.05 6.176,-2.76 6.328,-3.66 3.277,-9.29 l -26.133,-49.14 c -2.847,-5.46 -4.515,-8.28 -10.925,-5.43 -1.028,0.45 -3.028,1.2 -3.641,-0.17 -0.508,-1.14 0.191,-1.72 1.223,-2.18 3.32,-1.48 6.96,-2.55 10.394,-4.08 3.438,-1.53 6.664,-3.52 10.102,-5.04 1.031,-0.46 2.515,-1.13 3.129,0.25 0.714,1.6 -1.743,2.56 -2.891,3.06 -8.125,3.62 -5.414,9.42 -1.844,16.19 l 24.32,45.7 0.805,-0.36 -3.289,-68.09 c -0.129,-0.91 -0.394,-2.44 0.746,-2.94 1.031,-0.46 1.938,0.64 2.637,1.29 l 51.931,48.23 0.8,-0.36 -23.09,-51.87 c -0.92,-2.06 -2.58,-6.4 -5.24,-7.13 -1.72,-0.47 -4.378,0.02 -6.096,0.79 -1.149,0.51 -3.446,1.8 -4.211,0.09 -0.559,-1.26 0.652,-1.93 1.566,-2.34 4.469,-1.99 9.251,-3.57 13.831,-5.61 3.66,-1.64 7.12,-3.72 10.78,-5.36 0.92,-0.4 2.23,-0.85 2.8,0.41 0.76,1.72 -1.74,2.56 -2.9,3.07 -1.6,0.71 -3.27,1.6 -3.8,3.48 -0.65,2.21 1.5,6.75 2.31,8.58 l 21.06,47.28 c 0.91,2.06 2.44,6.73 4.53,7.72 1.59,0.81 3.96,-0.66 5.45,-1.33 1.15,-0.5 2.85,-0.99 3.56,0.62 0.82,1.82 -1.5,2.17 -2.75,2.74 l -12.72,5.65 c -1.26,0.56 -2.4,1.07 -3.75,-0.11 l -47.655,-43.55 2.41,61.5 v 0"
       style="fill:#231f20;fill-opacity:1;fill-rule:nonzero;stroke:none;stroke-width:3.02851"
       id="path663" />
    <path
       d="m 1138.15,1266.08 c 1.28,1.7 2.64,4.13 5.07,3.4 2.05,-0.61 6.46,-3.93 8.06,-5.14 3.41,-2.56 7.7,-5.8 10.26,-9.29 2.55,-3.49 2.59,-6.35 1.75,-10.59 l -0.6,-3.93 c -0.23,-0.93 -0.81,-2.53 0.08,-3.21 1.01,-0.75 2.04,0.82 2.49,1.43 l 6.49,8.6 c 0.97,1.31 3.29,3.33 1.39,4.76 -8.51,6.41 -17.22,12.35 -25.83,18.84 -6.2,4.68 -12.31,9.9 -18.52,14.58 -0.89,0.68 -2.08,0.78 -2.83,-0.22 -0.91,-1.2 0.7,-2.41 1.7,-3.16 6.91,-5.21 5,-6.91 0.32,-13.12 l -30.7,-40.74 c -4.83,-6.4 -5.93,-8.7 -12.85,-3.5 -1,0.75 -2.67,1.86 -3.5,0.76 -0.83,-1.1 -0.33,-2.1 0.57,-2.79 2.01,-1.5 4.5,-2.76 6.51,-4.26 l 39.13,-29.51 c 0.8,-0.6 0.93,-0.85 1.56,-0.23 l 9.5,9.49 c 0.8,0.64 1.6,1.29 2.21,2.09 0.53,0.7 0.53,1.34 -0.18,1.87 -1.2,0.9 -3.94,-1.27 -4.76,-1.75 -10.04,-6.25 -15.7,-2.3 -24.31,4.19 -7.9,5.96 -12.24,9.38 -5.29,18.58 l 13.12,17.42 c 2.57,3.4 3.57,2.65 7.57,-0.36 3.01,-2.26 8.21,-6.18 11.43,-10.03 1.82,-2.16 0.36,-5.77 -1.32,-9.05 -0.35,-0.68 -0.88,-2 0.01,-2.67 0.51,-0.38 1.26,-0.64 2.47,0.96 2.31,3.28 4.38,6.43 6.59,9.78 2.31,2.66 4.77,5.51 6.98,8.24 0.61,0.8 0.16,1.45 -0.35,1.83 -0.9,0.69 -2.02,-0.2 -2.58,-0.72 -2.68,-2.53 -5.98,-5.86 -8.7,-4.27 -4.28,2.44 -9.41,6.46 -12.42,8.73 -4.1,3.09 -5,3.77 -1.46,8.48 l 10.94,14.51 v 0"
       style="fill:#231f20;fill-opacity:1;fill-rule:nonzero;stroke:none;stroke-width:3.02851"
       id="path665" />
    <path
       d="m 1215.23,1197.99 c 4.6,4.44 4.42,4.26 8.34,0.2 l 5.05,-5.23 c 2.7,-2.8 5.13,-5.32 4.71,-9.56 -0.41,-3.01 -2.32,-6.08 -3.61,-8.53 -0.36,-0.71 -0.91,-1.59 -0.31,-2.21 0.97,-1 1.87,-0.3 2.58,0.39 l 11.53,10.08 c 0.63,0.61 3.68,2.68 2.46,3.94 -0.87,0.91 -1.86,0.3 -2.84,-0.12 -3.39,-1.54 -5.12,1.15 -7.39,3.49 l -31.6,32.74 c -1.4,1.44 -3.5,3.07 -3.63,5.2 -0.16,1.24 0.47,1.67 1.2,2.55 0.54,0.52 0.73,1.23 0.2,1.77 -0.78,0.81 -1.59,0.38 -2.4,-0.04 l -15.11,-7.81 c -0.62,-0.25 -2.06,-0.94 -2.69,-1.56 -0.63,-0.6 -0.81,-1.31 -0.21,-1.93 0.87,-0.9 3.1,-0.15 4.09,0.1 11.38,2.64 15.42,0.08 23.35,-8.12 2.69,-2.79 4.45,-3.36 1.21,-6.49 l -41.74,-40.31 c -5.69,-5.49 -7.05,-7.68 -13.16,-1.36 -0.77,0.8 -2.08,2.33 -3.25,1.2 -0.99,-0.96 -0.48,-1.86 0.31,-2.67 3.31,-3.42 6.98,-6.5 10.29,-9.92 3.31,-3.43 6.08,-7.02 9.38,-10.45 0.79,-0.81 1.67,-1.36 2.66,-0.41 1.17,1.14 -0.39,2.59 -1.18,3.4 -6.01,6.21 -3.95,7.52 1.82,13.08 l 39.94,38.58 v 0"
       style="fill:#231f20;fill-opacity:1;fill-rule:nonzero;stroke:none;stroke-width:3.02851"
       id="path667" />
    <path
       d="m 1294.31,1092.54 c 6.7,4.18 8.39,5.97 13.03,-1.47 0.6,-0.95 1.72,-2.76 3.11,-1.9 1.16,0.73 0.96,1.78 0.35,2.74 -2.52,4.04 -5.47,7.82 -7.99,11.85 -2.53,4.04 -4.49,8.13 -7.01,12.17 -0.66,1.06 -1.45,1.61 -2.62,0.88 -1.38,-0.86 -0.32,-2.56 0.28,-3.52 4.65,-7.45 2.29,-8.17 -4.4,-12.36 l -43.47,-27.16 c -6.7,-4.19 -8.39,-5.98 -12.97,1.35 -0.67,1.06 -1.73,2.76 -3.11,1.9 -1.06,-0.66 -0.96,-1.78 -0.36,-2.73 2.26,-3.62 4.81,-6.75 7.06,-10.37 6.39,-10.2 12.47,-20.88 18.85,-31.08 1.79,-2.88 2.93,-1.87 5.76,-0.25 3.79,2.22 8.17,3.48 11.79,5.74 0.74,0.47 1.48,0.93 0.89,1.89 -0.4,0.63 -1.52,0.53 -2.18,0.41 -3.61,-0.63 -8.73,-1.17 -12.28,0.01 -4.3,1.45 -8.42,5.67 -10.82,9.5 -5.97,9.57 -2.28,12.17 5.8,17.22 l 40.29,25.18 v 0"
       style="fill:#231f20;fill-opacity:1;fill-rule:nonzero;stroke:none;stroke-width:3.02851"
       id="path669" />
    <path
       d="m 1279.24,1016.28 c -7.1,-3.46 -9.08,-5.12 -12.93,2.77 -0.49,1.01 -1.26,2.87 -2.73,2.15 -1.24,-0.61 -1.02,-1.62 -0.52,-2.63 2.09,-4.28 4.62,-8.34 6.72,-12.62 2.08,-4.28 3.6,-8.559 5.69,-12.841 0.5,-1.015 1.16,-1.8 2.4,-1.195 1.47,0.711 0.42,2.57 -0.08,3.586 -3.67,7.82 -1.43,8.37 5.78,11.88 l 46.19,22.53 c 7.1,3.46 8.96,5.06 12.81,-2.82 0.5,-1.01 1.42,-2.93 2.89,-2.22 1.24,0.61 1.14,1.68 0.65,2.69 -2.1,4.28 -4.64,8.35 -6.72,12.63 -2.09,4.27 -3.62,8.56 -5.7,12.83 -0.56,1.13 -1.28,1.75 -2.51,1.15 -1.46,-0.72 -0.58,-2.52 -0.1,-3.54 3.85,-7.87 1.44,-8.36 -5.66,-11.82 l -46.18,-22.53 v 0"
       style="fill:#231f20;fill-opacity:1;fill-rule:nonzero;stroke:none;stroke-width:3.02851"
       id="path671" />
    <path
       d="m 1361.08,969.516 c 5.97,2.289 5.74,2.195 7.76,-3.067 l 2.61,-6.781 c 1.38,-3.629 2.64,-6.91 0.59,-10.652 -1.55,-2.61 -4.51,-4.688 -6.66,-6.45 -0.6,-0.503 -1.45,-1.093 -1.14,-1.918 0.5,-1.285 1.59,-0.996 2.53,-0.636 l 14.54,4.781 c 0.82,0.309 4.44,1.031 3.82,2.668 -0.45,1.176 -1.59,0.996 -2.67,0.996 -3.73,-0.094 -4.27,3.055 -5.43,6.098 l -16.31,42.476 c -0.72,1.879 -2.01,4.189 -1.31,6.219 0.35,1.2 1.1,1.35 2.1,1.88 0.7,0.26 1.16,0.84 0.88,1.53 -0.4,1.06 -1.32,0.98 -2.21,0.9 l -16.98,-1.27 c -0.66,0 -2.25,-0.07 -3.06,-0.38 -0.83,-0.32 -1.28,-0.89 -0.96,-1.71 0.45,-1.17 2.79,-1.34 3.79,-1.5 11.52,-2.02 14.23,-5.942 18.33,-16.595 1.39,-3.621 2.79,-4.832 -1.43,-6.453 l -54.18,-20.797 c -7.36,-2.828 -9.48,-4.316 -12.62,3.883 -0.41,1.051 -1.01,2.969 -2.53,2.387 -1.29,-0.496 -1.16,-1.52 -0.75,-2.574 1.69,-4.446 3.87,-8.715 5.58,-13.156 1.71,-4.45 2.85,-8.84 4.56,-13.29 0.41,-1.054 1,-1.898 2.29,-1.402 1.51,0.578 0.63,2.524 0.23,3.582 -3.09,8.07 -0.69,8.457 6.8,11.328 l 51.83,19.903 v 0"
       style="fill:#231f20;fill-opacity:1;fill-rule:nonzero;stroke:none;stroke-width:3.02851"
       id="path673" />
    <path
       d="m 1381.83,903.746 c 2.06,0.512 4.64,1.547 6.07,-0.555 1.21,-1.761 2.55,-7.109 3.04,-9.062 1.02,-4.129 2.33,-9.359 2.12,-13.676 -0.22,-4.32 -1.99,-6.574 -5.3,-9.336 l -2.96,-2.664 c -0.75,-0.582 -2.21,-1.461 -1.94,-2.562 0.3,-1.215 2.1,-0.633 2.82,-0.453 l 10.47,2.601 c 1.57,0.402 4.65,0.52 4.07,2.832 -2.57,10.332 -5.61,20.43 -8.22,30.891 -1.87,7.535 -3.33,15.449 -5.21,22.984 -0.28,1.098 -1.13,1.918 -2.35,1.613 -1.44,-0.363 -0.96,-2.308 -0.66,-3.527 2.09,-8.391 -0.46,-8.512 -8,-10.387 l -49.5,-12.343 c -7.78,-1.946 -10.09,-3.039 -12.19,5.351 -0.3,1.219 -0.91,3.133 -2.24,2.797 -1.34,-0.332 -1.59,-1.426 -1.31,-2.52 0.6,-2.429 1.75,-4.98 2.36,-7.417 l 11.86,-47.547 c 0.24,-0.973 0.18,-1.25 1.07,-1.157 l 13.34,1.391 c 1.04,0 2.07,-0.004 3.05,0.234 0.84,0.219 1.24,0.704 1.02,1.559 -0.36,1.453 -3.86,1.488 -4.79,1.633 -11.74,1.472 -13.66,8.101 -16.26,18.554 -2.4,9.618 -3.61,14.993 7.59,17.782 l 21.16,5.277 c 4.13,1.031 4.43,-0.187 5.64,-5.043 0.91,-3.652 2.49,-9.98 2.58,-14.996 0.06,-2.828 -3.35,-4.711 -6.73,-6.191 -0.69,-0.305 -1.94,-1.008 -1.67,-2.102 0.16,-0.609 0.58,-1.273 2.53,-0.789 3.86,1.094 7.44,2.246 11.27,3.461 3.47,0.601 7.18,1.269 10.62,1.996 0.97,0.246 1.03,1.031 0.88,1.641 -0.28,1.093 -1.7,1.129 -2.47,1.066 -3.67,-0.269 -8.33,-0.785 -9.44,2.164 -1.8,4.59 -3.25,10.949 -4.16,14.594 -1.25,4.988 -1.51,6.078 4.2,7.504 l 17.64,4.402 v 0"
       style="fill:#231f20;fill-opacity:1;fill-rule:nonzero;stroke:none;stroke-width:3.02851"
       id="path675" />
    <path
       d="m 1395.28,821.516 c 8.71,1.07 9.98,0.968 11.16,-8.481 1.35,-11.074 -4.03,-18.676 -15.47,-20.086 -4.98,-0.617 -9.78,0.442 -13.4,4.168 -4.18,4.281 -5.31,9.321 -6.01,15.039 -0.26,2.121 -1.65,6.246 1.46,6.629 z m -53.2,3.445 c -7.83,-0.969 -10.25,-1.891 -11.32,6.816 -0.13,1.121 -0.25,3.129 -1.87,2.926 -1.38,-0.172 -1.5,-1.199 -1.36,-2.312 0.58,-4.731 1.66,-9.395 2.24,-14.118 0.58,-4.73 0.63,-9.269 1.21,-14.003 0.14,-1.11 0.5,-2.079 1.88,-1.918 1.62,0.199 1.23,2.3 1.1,3.421 -0.93,8.602 1.36,8.375 9.33,9.352 l 19.15,2.359 c 1.12,0.133 4.09,0.625 5.06,-0.015 0.82,-0.528 0.83,-1.668 0.96,-2.656 1.16,-9.454 0.14,-9.454 -8.01,-15.004 l -22.76,-15.168 c -1.75,-1.223 -4.02,-2.258 -3.72,-4.754 l 1.63,-13.184 c 0.11,-0.992 0.4,-2.223 1.64,-2.07 1.74,0.215 1.46,2.449 1.34,3.445 -0.67,5.469 3.83,7.926 7.9,10.695 l 18.18,12.465 c 3.02,2.133 7.15,4.532 7.27,8.598 2.65,-10.164 10.38,-18.684 21.7,-17.293 13.07,1.602 17.47,14.02 16.03,25.836 -0.87,7.09 -2.23,13.996 -3.12,21.215 -0.49,3.98 -0.5,8.277 -0.99,12.25 -0.18,1.363 -0.77,2.179 -2.14,2.008 -1.5,-0.18 -1.25,-2.172 -1.12,-3.293 1.08,-8.711 -1.36,-8.371 -9.33,-9.356 l -50.88,-6.242 v 0"
       style="fill:#231f20;fill-opacity:1;fill-rule:evenodd;stroke:none;stroke-width:3.02851"
       id="path677" />
    <path
       d="m 1392.39,725.551 c 0.62,-0.266 3.74,-1.196 3.72,-2.199 -0.02,-0.75 -3.29,-1.7 -3.8,-1.942 l -21.45,-8.144 c -0.25,0 -2.27,-0.84 -2.76,-0.832 -1.39,0.019 -0.96,2.906 -0.95,3.652 l 0.25,14.406 c 0.01,0.504 -0.42,4.531 0.83,4.508 0.38,-0.012 1.13,-0.273 1.5,-0.41 z m -33.61,13.367 c 4.47,-1.957 4.99,-1.215 4.9,-6.223 l -0.3,-17.05 c -0.1,-6.008 -0.09,-5.137 -6.52,-7.653 l -9.6,-3.847 c -1.63,-0.59 -4.42,-1.676 -6.18,-1.641 -3.75,0.059 -3.67,4.824 -3.61,8.082 0.02,1.258 0.06,3.637 -1.82,3.672 -1.12,0.012 -1.27,-1.231 -1.28,-1.985 -0.09,-4.644 0.34,-9.414 0.25,-13.925 -0.09,-5.512 -0.69,-11.02 -0.78,-16.532 -0.01,-0.625 0.09,-1.882 1.21,-1.902 1.88,-0.027 1.92,2.352 1.95,3.602 0.1,6.14 7.41,8.148 12.34,10.066 l 63.35,24.215 c 0.75,0.238 2.4,0.711 2.41,1.707 0.02,1.383 -1.72,1.793 -2.73,2.184 l -62.35,25.277 c -2.36,0.93 -8.1,3.281 -9.82,4.937 -1.73,1.661 -1.94,4.055 -1.9,6.305 0.02,1.129 0.06,3.512 -1.69,3.543 -2.13,0.035 -1.43,-3.242 -1.45,-4.492 -0.07,-3.504 0.37,-7.031 0.31,-10.531 -0.06,-3.512 -0.63,-7.012 -0.68,-10.524 -0.02,-1.25 -0.06,-3 1.45,-3.035 1.75,-0.031 1.66,2.109 1.68,3.238 0.05,2.879 0.53,8.383 4.66,8.309 2.25,-0.035 4.87,-1.082 6.86,-1.863 l 9.34,-3.934 v 0"
       style="fill:#231f20;fill-opacity:1;fill-rule:evenodd;stroke:none;stroke-width:3.02851"
       id="path679" />
    <path
       d="m 1394.68,640.824 c 8.67,-1.371 9.86,-1.816 8.38,-11.226 -1.75,-11.016 -9.02,-16.844 -20.4,-15.039 -4.96,0.785 -9.29,3.121 -11.73,7.695 -2.85,5.281 -2.54,10.43 -1.63,16.125 0.32,2.101 0.12,6.449 3.22,5.957 z m -50.2,17.973 c -7.79,1.242 -10.37,1.016 -8.99,9.68 0.17,1.117 0.6,3.078 -1.01,3.324 -1.35,0.222 -1.76,-0.735 -1.94,-1.848 -0.74,-4.707 -0.99,-9.484 -1.74,-14.187 -0.74,-4.703 -1.94,-9.078 -2.69,-13.786 -0.18,-1.117 -0.08,-2.148 1.27,-2.363 1.62,-0.254 1.83,1.871 2.01,2.992 1.47,8.516 3.62,7.672 11.54,6.414 L 1361.99,646 c 1.12,-0.172 4.11,-0.512 4.87,-1.398 0.64,-0.743 0.34,-1.829 0.18,-2.821 -1.49,-9.414 -2.46,-9.133 -11.83,-12.207 l -26.06,-8.316 c -2.02,-0.699 -4.49,-1.07 -4.88,-3.535 l -2.08,-13.129 c -0.16,-0.989 -0.23,-2.246 1.01,-2.442 1.73,-0.273 2.08,1.953 2.24,2.946 0.87,5.449 5.86,6.562 10.55,8.093 l 20.9,6.977 c 3.49,1.219 8.12,2.395 9.37,6.25 -0.26,-10.492 4.81,-20.813 16.08,-22.598 13,-2.054 20.67,8.66 22.53,20.422 1.12,7.051 1.72,14.067 2.85,21.246 0.63,3.965 1.8,8.09 2.43,12.047 0.21,1.363 -0.15,2.313 -1.51,2.528 -1.49,0.234 -1.79,-1.743 -1.97,-2.856 -1.38,-8.668 -3.63,-7.684 -11.56,-6.422 l -50.63,8.012 v 0"
       style="fill:#231f20;fill-opacity:1;fill-rule:evenodd;stroke:none;stroke-width:3.02851"
       id="path681" />
    <path
       d="m 1321.98,551.844 57.5,5.879 c 1.62,0.156 3.6,0.605 5.28,0.09 2.14,-0.661 0.33,-5.739 0.2,-6.614 -0.17,-1.004 -0.5,-2.476 0.94,-2.914 1.44,-0.433 1.81,0.762 2.14,1.84 1.13,3.711 1.75,7.457 2.85,11.051 1.33,4.316 3.05,8.246 4.36,12.558 0.34,1.075 0.66,2.563 -0.66,2.957 -1.8,0.555 -2.42,-1.484 -2.78,-2.683 -1.69,-5.52 -5.85,-5.813 -10.72,-6.293 l -69.36,-6.981 c -0.83,-0.129 -3.65,0.079 -4.02,-1.125 -0.3,-0.957 2.12,-2.48 2.77,-2.945 l 52.54,-42.926 c 2.22,-1.738 5.31,-4.511 6.51,-6.972 0.76,-1.813 0.58,-3.719 0.06,-5.395 -0.32,-1.086 -0.63,-2.949 0.8,-3.391 1.08,-0.332 1.78,0.247 2.07,1.204 1.03,3.351 1.57,6.855 2.6,10.214 1.02,3.356 2.61,6.801 3.63,10.157 0.37,1.199 0.45,2.75 -0.99,3.191 -1.79,0.555 -2.72,-3.758 -3.05,-4.836 -0.66,-2.16 -2.14,-4.851 -4.89,-4.004 -1.8,0.551 -4.11,2.434 -5.61,3.539 l -42.17,34.399 v 0"
       style="fill:#231f20;fill-opacity:1;fill-rule:nonzero;stroke:none;stroke-width:3.02851"
       id="path683" />
    <path
       d="m 1352.14,459.09 c 2.14,-0.211 3.66,-0.809 4.71,1.332 l 6.36,13.066 c 0.61,1.242 2.16,2.989 0.36,3.875 -1.58,0.766 -2.57,-0.703 -3.12,-1.824 -2.97,-6.09 -3.87,-6.207 -9.39,-2.949 l -48.21,27.824 c -5.35,3.031 -8.11,4.801 -5.04,11.109 0.5,1.016 1.32,2.989 -0.04,3.641 -1.12,0.551 -1.73,-0.125 -2.22,-1.137 -1.59,-3.273 -2.8,-6.871 -4.44,-10.254 -1.65,-3.371 -3.75,-6.539 -5.4,-9.914 -0.5,-1.015 -1.21,-2.472 0.15,-3.136 1.57,-0.774 2.62,1.648 3.16,2.781 3.91,7.992 9.59,5.082 16.24,1.273 l 44.83,-25.898 -0.39,-0.797 -67.93,5.668 c -0.9,0.16 -2.42,0.48 -2.97,-0.648 -0.5,-1.012 0.58,-1.954 1.2,-2.672 l 46.39,-53.59 -0.39,-0.781 -51.04,24.89 c -2.02,0.992 -6.3,2.801 -6.94,5.481 -0.41,1.73 0.17,4.371 1,6.058 0.55,1.133 1.93,3.383 0.24,4.203 -1.24,0.61 -1.96,-0.57 -2.39,-1.472 -2.14,-4.399 -3.9,-9.117 -6.09,-13.629 -1.76,-3.598 -3.96,-6.988 -5.72,-10.59 -0.45,-0.898 -0.94,-2.199 0.3,-2.801 1.69,-0.82 2.62,1.653 3.17,2.781 0.77,1.579 1.7,3.2 3.61,3.68 2.24,0.578 6.69,-1.73 8.49,-2.609 l 46.52,-22.699 c 2.03,-0.981 6.65,-2.68 7.57,-4.801 0.73,-1.61 -0.81,-3.93 -1.53,-5.391 -0.54,-1.129 -1.09,-2.808 0.48,-3.59 1.81,-0.871 2.24,1.43 2.84,2.668 l 6.1,12.5 c 0.6,1.242 1.15,2.371 0.02,3.762 l -41.86,49.141 61.37,-4.551 v 0"
       style="fill:#231f20;fill-opacity:1;fill-rule:nonzero;stroke:none;stroke-width:3.02851"
       id="path685" />
    <path
       d="m 1252.54,352.879 -5.26,4.262 -15.39,-18.993 -18.99,15.383 -4.26,-5.261 19,-15.379 -15.31,-18.891 5.27,-4.262 15.3,18.891 18.89,-15.297 4.26,5.258 -18.89,15.301 15.38,18.988 v 0"
       style="fill:#231f20;fill-opacity:1;fill-rule:nonzero;stroke:none;stroke-width:3.02851"
       id="path687" />
    <path
       d="m 346.879,278.43 c 0.601,2.062 1.484,3.429 -0.414,4.859 l -11.61,8.75 c -1.105,0.832 -2.531,2.699 -3.738,1.09 -1.054,-1.41 0.196,-2.649 1.196,-3.399 5.406,-4.082 5.355,-4.992 1.105,-9.789 l -36.52,-42.011 c -3.992,-4.668 -6.257,-7.051 -11.859,-2.828 -0.902,0.679 -2.68,1.867 -3.586,0.66 -0.754,-0.992 -0.203,-1.723 0.695,-2.41 2.907,-2.18 6.211,-4.043 9.207,-6.313 3.008,-2.258 5.711,-4.918 8.711,-7.18 0.907,-0.687 2.204,-1.66 3.114,-0.461 1.054,1.391 -1.125,2.883 -2.129,3.641 -7.106,5.352 -3.16,10.383 1.844,16.18 l 33.98,39.062 0.699,-0.531 -18.519,-65.609 c -0.328,-0.86 -0.934,-2.27 0.066,-3.039 0.899,-0.672 2.031,0.199 2.856,0.679 l 61.453,35.301 0.695,-0.531 -34.168,-45.34 c -1.359,-1.789 -3.949,-5.66 -6.711,-5.77 -1.777,-0.082 -4.254,1.008 -5.758,2.141 -1,0.75 -2.953,2.539 -4.086,1.027 -0.824,-1.097 0.196,-2.027 1,-2.629 3.903,-2.941 8.211,-5.558 12.215,-8.582 3.203,-2.406 6.102,-5.218 9.305,-7.628 0.801,-0.61 1.976,-1.34 2.808,-0.239 1.133,1.508 -1.125,2.891 -2.121,3.649 -1.398,1.05 -2.824,2.281 -2.925,4.23 -0.145,2.32 2.972,6.238 4.183,7.852 l 31.153,41.328 c 1.355,1.808 3.902,6.012 6.152,6.512 1.73,0.418 3.711,-1.551 5.008,-2.52 1.004,-0.75 2.554,-1.613 3.609,-0.211 1.211,1.59 -0.973,2.449 -2.07,3.277 l -11.114,8.383 c -1.097,0.828 -2.105,1.578 -3.679,0.731 l -56.223,-31.703 16.176,59.371 v 0"
       style="fill:#231f20;fill-opacity:1;fill-rule:nonzero;stroke:none;stroke-width:3.02851"
       id="path689" />
    <path
       d="m 481.891,155.949 c -4.121,-8.461 -9.493,-15.179 -18.086,-19.347 -8.649,-4.012 -18.34,-4.454 -27.02,-0.223 -8.558,4.18 -14.738,11.519 -16.961,20.691 -2.336,9.231 -0.183,18.782 3.938,27.219 3.953,8.121 9.988,15.633 18.304,19.52 8.758,4.242 18.68,4 27.469,-0.278 8.449,-4.121 14.016,-11.582 16.293,-20.652 2.277,-9.609 0.289,-18.27 -3.937,-26.93 z m -68.27,33.293 c -10,-20.504 1.125,-46.004 21.402,-55.902 21.403,-10.442 46.516,-4.141 57.118,17.601 10.601,21.75 0.054,45.297 -21.344,55.739 -20.277,9.89 -47.18,3.058 -57.176,-17.438 v 0"
       style="fill:#231f20;fill-opacity:1;fill-rule:evenodd;stroke:none;stroke-width:3.02851"
       id="path691" />
    <path
       d="m 606.152,146.359 c 0.707,4.09 2.508,6.473 -1.187,9.141 -5.195,3.859 -12.406,6.949 -18.582,8.609 -23.242,6.243 -50.481,-4.379 -56.969,-28.597 -3.113,-11.614 -0.562,-22.422 6.422,-32.211 6.625,-9.1721 16.113,-14.4299 27.008,-17.3518 8.84,-2.3672 18.765,-3.0898 27.57,-0.25 3.274,1.0703 3.024,2.5625 3.867,5.6992 l 3.731,13.9336 c 0.484,1.809 1.187,5.387 3.117,6.297 1.074,0.633 2.891,0.133 4.012,-0.027 l 2.371,-0.383 c 1.082,-0.297 2.328,-0.489 2.715,0.953 0.324,1.219 -0.7,1.75 -1.668,2.008 -4.239,1.14 -8.481,1.75 -12.602,2.851 -4.355,1.18 -8.586,2.828 -12.945,4 -1.086,0.289 -2.782,0.739 -3.203,-0.84 -0.422,-1.562 1.304,-1.902 2.515,-2.222 7.024,-1.879 7.942,-3.297 6.121,-10.09 l -2.691,-10.0274 c -0.777,-2.9102 -1.93,-8.1797 -5.027,-9.5625 -4.133,-1.8672 -10.59,-0.8008 -14.707,0.3125 -10.411,2.789 -18.504,7.9375 -23.262,17.7774 -4.297,8.68 -4.567,17.832 -2.098,27.031 2.332,8.719 8.117,18.192 15.656,23.578 8.219,5.973 17.625,6.692 27.192,4.133 21.43,-5.742 14.945,-20.75 19.055,-21.851 1.339,-0.36 2.144,0.718 2.464,1.941 l 1.125,5.148 v 0"
       style="fill:#231f20;fill-opacity:1;fill-rule:nonzero;stroke:none;stroke-width:3.02851"
       id="path693" />
    <path
       d="m 684.98,81.3203 -17.707,55.0117 c -0.492,1.559 -1.339,3.398 -1.183,5.137 0.195,2.25 5.543,1.531 6.426,1.582 1.007,0.039 2.519,0.031 2.652,1.531 0.129,1.5 -1.121,1.598 -2.242,1.707 -3.871,0.332 -7.66,0.16 -11.406,0.492 -4.5,0.391 -8.7,1.258 -13.196,1.66 -1.121,0.098 -2.633,0.11 -2.75,-1.269 -0.164,-1.871 1.961,-2.063 3.203,-2.184 5.743,-0.488 6.907,-4.488 8.387,-9.156 l 21.238,-66.3906 c 0.313,-0.793 0.696,-3.6016 1.946,-3.7031 1,-0.0781 1.988,2.5937 2.304,3.3203 l 31.071,60.3324 c 1.222,2.531 3.304,6.121 5.461,7.82 1.613,1.109 3.515,1.328 5.265,1.168 1.121,-0.098 3.016,-0.008 3.149,1.492 0.097,1.121 -0.61,1.688 -1.606,1.77 -3.496,0.308 -7.039,0.109 -10.531,0.41 -3.496,0.32 -7.199,1.148 -10.695,1.449 -1.25,0.109 -2.778,-0.141 -2.911,-1.629 -0.167,-1.883 4.239,-1.891 5.364,-1.98 2.246,-0.2 5.187,-1.09 4.933,-3.961 -0.16,-1.871 -1.523,-4.52 -2.304,-6.211 L 684.98,81.3203 v 0"
       style="fill:#231f20;fill-opacity:1;fill-rule:nonzero;stroke:none;stroke-width:3.02851"
       id="path695" />
    <path
       d="M 824.52,85.4805 775.313,138.93 c -1.676,1.859 -2.829,3.519 -5.504,3.922 L 754.32,141.5 c -1.371,-0.129 -2.98,-0.391 -2.82,-2.27 0.121,-1.378 2.117,-1.199 3.246,-1.101 8.738,0.769 8.336,-1.777 9.024,-9.637 l 4.46,-51.0818 c 0.68,-7.7383 1.536,-10.3086 -7.207,-11.0782 -1.125,-0.0937 -3.273,0.0977 -3.136,-1.5234 0.121,-1.3867 1.168,-1.7969 2.41,-1.6797 3.625,0.3125 7.324,1.1406 10.82,1.4414 3.746,0.3399 7.285,0.1485 11.031,0.4688 1.25,0.1093 2.082,0.6797 1.961,2.0625 -0.14,1.6172 -2.105,1.0703 -3.23,0.9687 -8.738,-0.7617 -8.344,1.9102 -9.02,9.6602 l -4.941,56.4295 58.41,-63.578 c 0.707,-0.9531 2.012,-2.8515 3.383,-2.7304 1.125,0.1093 0.719,1.8281 0.664,2.457 l -5.547,63.4214 c -0.68,7.75 -1.41,10.329 7.207,11.079 1.25,0.121 3.246,0.281 3.125,1.66 -0.117,1.371 -1.176,1.902 -2.297,1.801 -3.621,-0.309 -7.074,-1.122 -10.816,-1.438 -3.746,-0.332 -7.285,-0.141 -11.031,-0.461 -1.254,-0.121 -2.2,-0.832 -2.078,-2.199 0.125,-1.371 2.121,-1.203 3.246,-1.102 8.742,0.77 8.457,-1.781 9.144,-9.64 l 4.192,-47.9495 v 0"
       style="fill:#231f20;fill-opacity:1;fill-rule:nonzero;stroke:none;stroke-width:3.02851"
       id="path697" />
    <path
       d="m 898.98,153.48 c -1.542,6.2 -1.48,5.961 3.993,7.321 l 7.05,1.758 c 3.77,0.941 7.18,1.793 10.637,-0.707 2.406,-1.852 4.106,-5.043 5.59,-7.383 0.426,-0.68 0.914,-1.59 1.77,-1.367 1.332,0.32 1.179,1.449 0.941,2.429 l -2.977,15.02 c -0.207,0.847 -0.476,4.531 -2.179,4.097 -1.223,-0.296 -1.188,-1.449 -1.309,-2.527 -0.367,-3.699 -3.558,-3.851 -6.726,-4.641 l -44.145,-11.011 c -1.945,-0.469 -4.406,-1.489 -6.32,-0.539 -1.16,0.492 -1.219,1.25 -1.614,2.32 -0.179,0.73 -0.699,1.25 -1.425,1.059 -1.094,-0.27 -1.121,-1.18 -1.157,-2.09 l -0.8,-17 c -0.09,-0.68 -0.215,-2.258 0,-3.098 0.211,-0.851 0.726,-1.371 1.582,-1.152 1.211,0.301 1.664,2.601 1.949,3.57 3.406,11.191 7.629,13.41 18.699,16.172 3.77,0.93 5.141,2.18 6.227,-2.191 l 14.043,-56.3208 c 1.91,-7.6601 3.125,-9.9375 -5.391,-12.0586 -1.094,-0.2617 -3.066,-0.6289 -2.676,-2.2187 0.336,-1.3321 1.367,-1.3321 2.461,-1.0625 4.621,1.1523 9.125,2.789 13.742,3.9414 4.625,1.1601 9.121,1.7578 13.743,2.9101 1.093,0.2696 2.011,0.7579 1.679,2.0977 -0.394,1.5898 -2.437,0.9531 -3.531,0.6797 -8.395,-2.0977 -8.481,0.332 -10.426,8.1133 L 898.98,153.48 v 0"
       style="fill:#231f20;fill-opacity:1;fill-rule:nonzero;stroke:none;stroke-width:3.02851"
       id="path699" />
    <path
       d="m 983.023,121.879 c 2.829,-7.367 4.313,-9.488 -3.878,-12.637 -1.059,-0.402 -2.973,-1.004 -2.387,-2.531 0.492,-1.281 1.519,-1.152 2.566,-0.75 4.453,1.711 8.719,3.891 13.164,5.59 4.446,1.711 8.842,2.859 13.292,4.57 1.05,0.399 1.89,0.988 1.4,2.277 -0.58,1.524 -2.53,0.641 -3.58,0.243 -8.12,-2.993 -8.463,-0.711 -11.334,6.781 l -18.418,47.976 c -2.832,7.364 -4.27,9.383 3.925,12.512 1.043,0.41 3.04,1.172 2.457,2.699 -0.496,1.282 -1.57,1.282 -2.617,0.871 -4.445,-1.71 -8.718,-3.878 -13.16,-5.589 -4.449,-1.7 -8.844,-2.852 -13.293,-4.559 -1.164,-0.453 -1.847,-1.113 -1.355,-2.402 0.586,-1.532 2.461,-0.809 3.511,-0.399 8.188,3.141 8.461,0.699 11.289,-6.672 l 18.418,-47.98 v 0"
       style="fill:#231f20;fill-opacity:1;fill-rule:nonzero;stroke:none;stroke-width:3.02851"
       id="path701" />
    <path
       d="m 1095.62,179.461 -66.69,28.801 c -2.29,1.027 -4.02,2.09 -6.63,1.347 l -13.59,-7.539 c -1.21,-0.66 -2.57,-1.558 -1.66,-3.211 0.66,-1.199 2.42,-0.218 3.4,0.313 7.68,4.258 8.35,1.758 12.17,-5.141 l 24.86,-44.851 c 3.77,-6.782 5.59,-8.789 -2.08,-13.032 -0.99,-0.558 -3.04,-1.25 -2.25,-2.679 0.67,-1.207 1.79,-1.16 2.89,-0.547 3.18,1.758 6.22,4.019 9.29,5.726 3.29,1.813 6.61,3.082 9.89,4.903 1.1,0.609 1.63,1.469 0.96,2.679 -0.79,1.418 -2.37,0.122 -3.35,-0.429 -7.68,-4.242 -8.41,-1.641 -12.17,5.16 l -27.47,49.539 79.22,-34.32 c 1.04,-0.578 3,-1.789 4.2,-1.121 0.99,0.543 -0.09,1.953 -0.39,2.5 l -30.86,55.703 c -3.77,6.789 -5.49,8.847 2.08,13.039 1.1,0.609 2.84,1.578 2.18,2.789 -0.67,1.211 -1.85,1.262 -2.84,0.719 -3.18,-1.758 -6,-3.911 -9.29,-5.719 -3.29,-1.828 -6.6,-3.102 -9.89,-4.918 -1.1,-0.602 -1.67,-1.641 -1,-2.84 0.67,-1.211 2.42,-0.23 3.41,0.309 7.67,4.257 8.45,1.82 12.28,-5.082 l 23.33,-42.098 v 0"
       style="fill:#231f20;fill-opacity:1;fill-rule:nonzero;stroke:none;stroke-width:3.02851"
       id="path703" />
    <path
       d="m 1137.32,259.301 c -0.2,0.64 -1.49,3.629 -0.71,4.269 0.58,0.469 3.41,-1.441 3.93,-1.66 l 20.03,-11.199 c 0.15,-0.191 2.1,-1.199 2.41,-1.602 0.87,-1.07 -1.6,-2.578 -2.19,-3.058 l -11.2,-9.071 c -0.39,-0.32 -3.19,-3.23 -3.98,-2.261 -0.24,0.293 -0.52,1.043 -0.66,1.41 z m 11.36,-34.352 c -1.38,4.692 -2.28,4.61 1.61,7.762 l 13.25,10.73 c 4.68,3.789 4,3.231 10.06,-0.07 l 9.12,-4.883 c 1.52,-0.879 4.13,-2.308 5.23,-3.668 2.37,-2.922 -1.34,-5.922 -3.87,-7.968 -0.97,-0.793 -2.82,-2.293 -1.64,-3.762 0.71,-0.871 1.76,-0.18 2.35,0.301 3.6,2.91 6.99,6.308 10.49,9.14 4.29,3.469 8.89,6.559 13.18,10.02 0.49,0.398 1.38,1.289 0.67,2.16 -1.19,1.469 -3.04,-0.039 -4,-0.82 -4.78,-3.879 -11.01,0.441 -15.65,2.98 l -59.27,32.961 c -0.67,0.43 -2.08,1.367 -2.87,0.75 -1.07,-0.871 -0.26,-2.473 0.09,-3.492 l 20.71,-64.008 c 0.82,-2.41 2.7,-8.312 2.53,-10.703 -0.16,-2.391 -1.85,-4.09 -3.6,-5.508 -0.88,-0.699 -2.73,-2.211 -1.63,-3.57 1.35,-1.66 3.4,0.98 4.37,1.769 2.74,2.211 5.15,4.809 7.88,7.02 2.72,2.199 5.77,4.019 8.49,6.23 0.98,0.789 2.35,1.899 1.4,3.071 -1.12,1.359 -2.69,-0.09 -3.57,-0.789 -2.23,-1.821 -6.75,-4.993 -9.36,-1.782 -1.42,1.75 -2.3,4.442 -2.97,6.469 l -3,9.66 v 0"
       style="fill:#231f20;fill-opacity:1;fill-rule:evenodd;stroke:none;stroke-width:3.02851"
       id="path705" />
    <path
       d="m 769.031,564.109 -2.863,2.496 h -55.859 l -2.512,-2.496 1.074,-68.046 c 6.445,-3.219 11.817,-1.786 19.699,-2.497 11.817,3.219 25.778,1.075 38.672,1.789 l 1.789,2.5 z m 13.875,-77.632 -2.476,2.476 c -26.235,1.067 -53.891,1.067 -79.77,0 -6.738,-6.734 3.895,-12.762 6.735,-18.781 25.168,-1.422 45.378,-1.422 70.55,0 z m -80.586,80.445 -6.148,1.445 c 0,0 -2.234,-51.109 1.34,-71.457 0.218,3.246 4.711,-2 4.914,1.336 1.133,18.402 -0.406,50.063 -0.106,68.676 z m 71.735,18.234 h -71.961 l -1.824,-2.554 c 0.925,-5.168 3.07,-6 5.992,-7.473 l 65.609,0.703 2.914,3.117 c -0.367,2.196 0.727,4.754 -0.73,6.207 z m -30.145,51.641 c -6.383,1.769 -1.062,9.57 -4.965,12.766 -8.855,-0.36 -0.707,-10.645 -7.09,-13.469 -2.48,-0.715 -7.8,-2.844 -9.218,1.765 0.355,2.125 4.254,3.903 4.254,6.028 -5.668,-2.125 -10.637,-7.09 -14.532,-11.344 l 6.024,-12.766 c 10.992,-4.613 21.629,1.77 32.262,2.84 3.187,2.481 8.863,8.156 6.738,13.477 z m -9.219,-41.481 c -1.769,4.254 -7.445,9.575 -12.761,10.282 -3.192,-4.965 1.769,-8.504 4.254,-12.055 2.129,-3.547 6.379,-1.414 8.507,1.773 z m 8.508,11.18 c 0.203,5.43 -6.594,4.668 -12.051,4.777 l 0.707,-2.488 c 3.196,0.356 8.504,-6.547 11.344,-2.289 z m 357.021,-178.867 -21.27,-1.867 c -10.28,2.609 -24.12,2.609 -34.75,0 l -615.118,-3.711 -8.508,-0.742 c -8.863,-1.5 -17.371,2.601 -24.816,0 h -85.09 l -2.48,-1.868 c -3.188,-1.48 -0.352,-3.722 0,-5.211 36.519,-5.96 73.746,3.352 109.91,-1.109 l 751.182,1.879 2.56,3.699 c 3.53,2.61 0.7,7.813 -2.48,8.93 z m -4.47,13.262 c -7.84,-1.121 -769.461,-4.871 -769.461,-4.871 l -2.496,-1.872 c 0.355,-1.859 -0.711,-4.839 1.07,-6.316 l 676.267,2.969 c 49.18,2.238 106.97,-2.84 154.36,2.371 -0.35,1.859 -0.42,4.898 -2.2,6.387 -16.03,2.613 -41.51,3.929 -57.54,1.332 z m 36.15,9.91 c -15.32,5.219 -34.2,1.859 -51.3,2.988 l -442.186,-2.988 c -96.203,0.379 -194.437,-0.86 -292.777,-0.492 -1.071,-1.489 -2.246,-6.207 -0.465,-7.309 l 732.928,2.602 c 15.32,3.347 33.14,1.109 49.52,1.847 z m -23.16,15.738 c -103.69,0.75 -190.658,-3.32 -294.349,-2.207 l -24.965,-1.203 -421.805,-1.059 c -2.137,-0.371 -3.207,-2.601 -2.851,-4.461 2.14,-1.121 3.566,-2.609 6.054,-1.859 l 392.653,1.859 c 14.253,1.11 30.996,1.11 44.543,0 l 278.64,1.493 c 7.11,4.089 17.45,0 24.58,3.718 1.06,2.231 -1.44,2.602 -2.5,3.719 z m -650.564,6.051 c -18.981,3.219 -40.11,1.07 -60.156,1.781 -3.586,-1.781 -1.438,-6.441 1.789,-6.801 h 55.855 c 1.078,1.43 3.223,2.512 2.512,5.02 z m -10.387,15.387 h -41.18 l -2.507,-4.293 c 11.816,-6.45 29.367,-1.789 43.687,-2.508 l 2.504,1.793 c 0.359,2.14 -0.352,4.656 -2.504,5.008 z m 107.41,-2.438 c -11.933,6.516 -28.207,2.535 -42.312,3.625 l -3.617,-2.535 c -0.723,-2.539 1.082,-3.617 1.808,-5.43 h 39.781 z m 5.637,-11.93 c -16.637,2.887 -36.738,1.082 -54.098,1.442 l -3.617,-2.531 c -0.723,-2.532 1.09,-3.622 2.531,-5.059 h 49.036 c 4.828,0.539 7.593,1.078 6.148,6.148 z m 133.32,2.918 h -57.105 c -1.809,-1.808 -2.524,-5.828 0.367,-7.265 h 55.961 l 2.535,1.437 c 2.172,1.461 -1.398,4.371 -1.758,5.828 z m -4.285,11.246 c -12.652,3.25 -29.308,0.653 -43.051,1.379 -2.894,-1.804 -2.894,-4.339 -0.726,-6.152 l 40.601,-0.012 c 1.813,0.356 3.539,2.61 3.176,4.785 z m 144.324,1.997 h -35.09 l -3.585,-5.004 c 12.531,-2.871 27.578,-2.157 40.46,-1.082 2.868,2.156 1.075,5.367 -1.785,6.086 z m 12.129,-19.438 -2.101,6.875 h -53.418 c -1.785,-0.719 -4.953,-5.336 -3.16,-7.125 17.902,-1.434 40.773,-1.203 58.679,0.25 z m 135.492,3.238 -2.894,4.973 -64.16,-1.211 c -1.793,-2.902 -1.793,-6.301 1.074,-8.23 l 65.16,0.347 z m -11.914,13.688 c -10.738,8.953 -26.851,0.719 -40.464,1.793 -1.786,-2.153 0,-5.367 1.792,-6.082 l 37.958,1.797 z m 103.468,4.308 h -37.24 l -3.22,-5.015 c 12.53,-4.656 29,-2.508 42.97,-1.785 2.15,2.492 0,5.726 -2.51,6.8 z m -25.06,-13.613 c 0,0 -18.27,2.27 -25.07,1.543 -0.72,-3.226 0.36,-7.555 1.8,-8.984 l 61.87,1.078 c 1.44,0.359 -2.15,7.187 -2.52,7.187 -9.7,1.446 -23.91,-0.824 -36.08,-0.824 z m -645.501,188.055 0.726,-171.445 c 12.434,-3.196 27.703,-1.418 40.141,-1.766 l 6.043,4.961 -0.719,168.258 8.891,-0.008 -0.297,-182.817 13.5,-15.261 21.312,-0.719 c 5.684,4.258 2.489,12.437 10.305,15.98 l 0.332,182.817 h 7.48 l 0.293,-170.735 c 12.789,-3.195 28.067,-1.062 41.918,-1.777 l 3.555,3.563 v 168.957 l 8.59,-0.008 V 483.191 c 9.59,-26.632 41.141,-9.98 61.391,-14.601 2.128,6.039 3.375,13.051 11.191,14.476 0.289,24.707 -0.094,101.18 -0.645,182.922 l 7.2,0.02 0.726,-170.735 c 13.149,-2.476 30.199,-3.195 42.629,0.723 v 170.02 l 8.891,-0.008 -0.016,-75.77 c 4.926,-1.937 13.926,0.606 20.317,1.309 -3.551,13.863 -6.036,28.426 -11.012,41.918 6.398,5.683 13.144,15.273 21.312,18.832 -4.015,3.008 -5.371,8.332 -5.191,13.711 h 10.262 c -0.02,-0.313 -0.043,-0.586 -0.079,-0.848 2.485,-3.898 4.61,-9.215 9.571,-10.273 3.547,2.125 4.965,7.078 6.742,10.976 -0.027,0.059 -0.055,0.117 -0.078,0.164 l 12.664,-0.019 c -2.254,-4.836 -2.055,-10.637 -6.535,-14.774 35.879,-11.371 0,-39.082 4.261,-58.617 7.11,-2.496 15.426,1.293 21.829,-3.683 0.343,-5.68 2.117,-19.118 -4.606,-21.586 l 1.067,-69.258 3.742,-2.817 c 2.129,0.356 4.972,-1.062 6.043,1.786 v 168.957 l 7.39,-0.008 v -128.11 c 1.071,-14.203 -2.84,-30.543 3.555,-42.625 13.141,0.723 28.063,-2.128 40.141,2.485 v 168.25 h 9.297 V 484.27 l 14.566,-15.282 h 40.141 c 3.906,1.063 4.617,5.321 4.269,9.242 1.059,7.458 9.231,1.77 12.785,6.04 v 181.738 h 6.836 l 1.692,-166.473 1.777,-5.07 h 37.297 l 2.484,5.07 -0.562,166.473 h 10.179 l 0.684,-155.449 1.07,-24.52 13.496,-15.641 19.538,-0.687 c 2.49,1.758 5.68,2.828 4.27,6.734 -1.07,5.688 5.32,6.746 8.52,8.524 l -1.34,181.039 h 7.13 l 1.38,-166.473 2.48,-2.476 c 13.86,0.699 29.49,-2.133 41.92,2.476 l -0.59,166.473 h 8.54 l 0.68,-154.063 c 0.87,-13.293 -2.85,-30.672 7.42,-37.113 4.95,-6.723 14.14,-1.762 20.5,-4.25 8.36,-20.363 25.23,-5.773 32.17,-22.973 14.84,0 10.85,-15.449 29.81,-16.359 4.25,-7.059 4.91,-15.43 1.37,-21.441 l -874.204,-2.848 c -2.476,6.019 -3.18,16.258 0.707,21.211 5.656,-0.352 11.313,-0.352 15.203,3.18 1.059,2.828 -2.125,8.128 2.824,8.488 6.719,0 14.497,-0.719 17.676,6 0,3.89 1.063,8.129 6.008,7.789 4.594,0.34 10.606,-1.777 13.434,3.18 2.117,3.531 -1.063,9.179 4.242,10.953 8.48,2.129 23.68,-4.953 25.449,6 -2.476,7.789 7.422,5.672 8.481,12.031 0,0 -0.313,85.453 -0.75,180.203 l 6.289,0.012 v 0"
       style="fill:#231f20;fill-opacity:1;fill-rule:nonzero;stroke:none;stroke-width:3.02851"
       id="path707" />
    <path
       d="m 799.219,1247.66 c -8.16,17.02 -26.586,22.68 -41.836,29.78 -31.91,7.08 -60.274,-4.97 -79.063,-26.94 v -3.55 z m 3.496,-6.69 -126.617,-0.33 c -1.778,-1.06 -4.207,-6.86 -0.664,-8.28 h 128.277 l 1.531,2.53 c 0.711,2.49 -1.824,4.66 -2.527,6.08 z m 84.781,-33.02 c -21.621,5.32 -40.766,17.01 -65.23,15.96 -72.328,-0.71 -150.328,7.44 -215.203,-13.47 -35.458,-13.12 -71.973,-35.11 -92.891,-69.85 h 403.101 l 48.579,1.77 v 2.49 c -21.633,28 -49.993,47.51 -78.356,63.1 z m 207.054,-187.19 -711.558,-1.78 c -6.73,-1.41 2.129,-4.25 0,-7.8 -1.769,-13.473 -3.894,-28.352 1.774,-40.766 l 708.714,1.774 3.55,3.191 c -1.07,15.242 2.12,31.911 -2.48,45.381 z m -62.41,54.24 -17.72,1.78 c -3.55,-4.98 -6.38,2.83 -10.28,-0.72 l -544.566,-2.83 c -26.234,1.07 -51.054,-2.13 -68.777,-21.98 l 1.769,-2.48 615.124,1.77 c 27.29,3.55 57.78,-0.35 85.08,3.18 -12.77,19.51 -38.29,26.6 -60.63,21.28 z m 15.6,8.51 c -19.49,32.26 -64.869,16.31 -98.912,20.56 l -479.683,-1.77 c -8.864,-2.12 -30.489,-17.73 -26.59,-21.98 l 599.875,1.42 z m -97.138,51.05 c -5.321,-0.71 -9.922,-1.42 -14.532,-0.71 l -423.668,-1.77 c -14.89,-2.84 -30.492,-7.44 -39.004,-21.28 l 1.778,-1.76 530.734,1.06 4.96,1.42 c -10.987,22.68 -37.577,21.62 -60.268,23.04 z m 162.378,-90.04 H 925.074 l -557.324,-2.5 -2.48,-1.77 c -0.707,-2.12 4.046,-6.77 5.824,-7.12 l 737.076,2.15 c 0,0 7.18,1.5 7.17,4.87 0,1.94 -1.65,3.31 -2.36,4.37 z m -20.21,-78.364 H 944.578 l -558.039,-2.476 -3.547,-3.543 c 0.707,-2.84 -1.058,-6.746 2.836,-8.508 l 618.312,1.059 13.82,1.417 c 15.96,-2.476 35.46,-2.476 51.77,0 8.51,3.907 26.23,-4.964 27.3,7.793 -0.71,1.782 -2.48,3.907 -4.26,4.258 z M 464.594,935.805 c -1.805,5.703 -5.785,6.843 -10.121,9.879 -19.168,-0.758 -38.703,1.519 -56.422,-1.895 -5.785,-1.141 -12.656,-6.086 -11.571,-13.68 1.446,-4.183 5.786,-8.742 10.489,-7.98 2.527,0.379 5.058,1.512 5.426,4.555 -2.168,3.804 -5.426,0 -7.961,0 -0.723,1.519 -3.614,2.285 -2.532,4.562 1.45,3.801 5.426,5.699 8.68,7.223 16.996,-0.766 36.895,-3.039 52.809,1.894 2.882,-1.515 7.586,-4.172 6.863,-8.359 -2.891,-5.32 -6.508,2.668 -11.211,0 -1.809,-1.516 -2.891,-3.801 -2.527,-6.453 2.168,-4.184 7.23,-4.563 11.211,-5.328 6.867,1.527 7.593,9.125 6.867,15.582 z m 104.863,5.32 c -17.723,8.359 -40.867,3.039 -60.758,4.559 l -11.57,-9.118 c -2.172,-4.937 0,-10.257 3.613,-13.683 4.34,-0.754 8.684,-2.66 12.301,1.906 1.445,10.641 -7.238,-0.387 -9.773,6.457 -1.446,3.039 2.175,4.184 3.621,6.078 17.722,1.145 39.062,-2.277 56.422,3.039 1.804,-2.285 7.23,-2.66 5.054,-7.601 -3.25,-7.973 -7.586,4.183 -11.926,0 -1.089,-3.035 -2.171,-8.36 0.723,-10.633 5.426,-3.426 10.848,1.512 13.738,5.316 3.981,4.184 0.731,9.879 -1.445,13.68 z m 285.863,-5.344 c -2.527,6.078 -8.679,9.5 -13.738,11.778 -21.344,-2.657 -47.379,6.843 -63.652,-8.36 -1.809,-4.941 -7.239,-11.015 0,-15.578 3.98,-1.519 9.398,-4.558 13.015,-0.762 1.086,2.668 2.168,7.223 -0.718,9.121 -3.622,1.899 -4.336,-3.417 -6.875,-3.796 -1.442,1.898 -3.618,3.035 -2.532,5.695 2.895,3.418 5.785,6.086 10.125,6.461 10.485,-5.317 23.868,-1.899 35.801,-3.043 6.875,1.144 16.645,9.879 22.43,0 -0.363,-15.57 -10.485,8.359 -13.746,-6.078 2.172,-4.176 6.508,-7.215 11.211,-7.598 6.152,0.383 6.511,7.598 8.679,12.16 z m -153.976,7.246 c -21.699,6.84 -44.121,2.657 -66.188,0 -5.058,-3.418 -7.593,-9.121 -7.593,-15.582 1.445,-6.457 7.96,-8.359 13.742,-8.359 2.172,1.902 3.258,4.18 3.617,6.465 -0.723,5.695 -7.234,0.375 -8.684,4.558 -2.886,1.895 0.731,3.414 1.45,4.563 18.082,5.316 41.234,1.133 59.316,3.797 l 3.25,-3.797 c 0.367,-14.824 -8.676,6.074 -11.934,-5.324 -1.086,-2.664 1.082,-3.797 2.535,-5.707 3.614,-3.032 10.489,-1.512 13.016,1.91 -0.723,6.836 5.785,12.918 -2.527,17.476 z m 283.39,-8.418 c -6.144,22.422 -32.91,10.645 -48.816,13.684 -11.215,-3.039 -28.219,4.176 -32.914,-11.777 -1.449,-5.317 1.805,-8.743 5.062,-11.786 3.25,-1.519 8.321,-1.519 10.489,1.899 2.89,9.496 -7.239,3.422 -9.407,7.98 1.09,3.426 4.344,5.704 7.598,5.704 18.813,-4.942 37.254,1.14 55.695,1.523 l 6.149,-5.32 c 0,-12.161 -9.039,1.519 -12.297,-5.317 0.355,-5.328 5.785,-4.949 8.684,-7.601 6.144,0 7.586,6.453 9.757,11.011 z m 100.846,12.93 -52.81,0.754 c -5.78,-1.141 -11.93,-3.797 -14.82,-9.875 -1.09,-3.422 -2.17,-9.504 1.81,-11.789 3.61,-1.512 9.04,-5.699 11.93,0 2.89,9.121 -5.42,2.66 -8.68,7.223 -2.53,2.273 1.81,3.421 2.89,5.328 17.73,2.273 37.98,-0.762 55.34,2.656 l 3.62,-3.418 c 1.81,-2.293 0.72,-5.703 -1.81,-7.219 -3.26,-0.765 -5.43,7.219 -8.68,1.516 -2.17,-1.516 0.72,-3.426 0.72,-5.32 4.34,-3.797 11.58,-3.422 14.83,1.894 5.42,5.707 1.8,14.063 -4.34,18.25 z M 721.672,666.008 c 0.074,2.226 0.414,4.453 0.93,6.535 4.621,7.457 12.082,15.277 21.316,14.566 8.172,-4.257 13.145,-12.785 17.051,-20.605 -0.071,-0.152 -0.149,-0.301 -0.215,-0.449 l -12.664,-0.047 c -2.391,5.722 -1.43,15.465 -10.207,15.105 -7.778,-1.008 -5.559,-9.445 -5.949,-15.133 z m -325.152,0 c -0.497,107.273 -1.161,226.476 -1.723,247.121 -7.426,2.125 -11.668,9.184 -14.492,15.199 8.129,11.313 -14.492,14.848 -4.242,24.746 1.062,6.715 -13.43,14.492 -0.708,17.672 l 0.708,44.184 c -5.657,7.78 -19.793,14.84 -17.672,27.22 3.882,9.53 14.492,2.83 21.211,6.01 12.015,17.67 31.101,23.32 49.128,28.63 8.129,12.01 21.208,25.44 34.637,31.45 8.133,12.72 21.914,22.27 35.703,26.51 31.106,41.71 75.996,76 125.481,85.55 l 39.941,7.77 c 3.535,4.24 0.352,11.31 2.477,15.91 19.789,31.81 57.617,45.24 96.14,37.46 19.442,-4.94 36.051,-18.73 49.84,-35.7 0,-6.01 -0.707,-12.72 6.004,-15.2 61.512,-3.18 115.945,-30.04 155.883,-79.88 3.891,-1.77 6.363,-6.71 11.309,-6.01 21.925,-8.49 30.755,-32.87 53.375,-39.59 13.44,-8.84 21.56,-25.8 38.18,-27.22 18.73,-2.47 20.14,-32.51 41.35,-27.21 2.83,-2.83 2.12,-8.48 1.06,-12.01 -3.88,-6.73 -12.73,-6.37 -16.26,-14.16 v -49.476 c 11.32,-7.418 -8.13,-15.195 1.06,-25.445 -3.89,-6.363 -8.48,-12.016 -7.77,-20.152 l -12.73,-16.258 1.09,-247.121 h -8.54 l -0.47,130.156 c 2.48,4.621 -2.13,83.477 -1.78,121.133 -4.97,3.914 -8.52,10.305 -11.72,15.992 h -15.28 c -3.91,-8.883 -16.69,-8.883 -18.12,-19.535 l 1.07,-58.613 c 0,-8.176 -1.07,-18.477 0.71,-27.356 -2.84,-9.949 -1.42,-16.699 -0.71,-27.355 l 1.11,-134.422 h -7.13 l -1.86,251.289 c -8.17,3.914 -13.14,12.086 -12.07,21.324 -6.4,3.547 -11.019,0.715 -17.765,0 0,-11.371 -9.593,-15.633 -15.636,-23.09 l 1.093,-249.515 -10.179,-0.008 -0.856,251.289 -10.301,15.285 h -20.605 c -5.691,-2.848 -8.883,-7.812 -13.496,-12.074 l 2.57,-254.5 h -6.836 v 11.863 l -1.773,238.367 -1.781,2.84 c -7.457,-2.484 -12.434,3.199 -15.985,8.524 -1.777,3.203 0.352,7.82 -3.555,9.949 h -30.546 c -1.426,-9.949 -9.594,-15.625 -18.121,-20.254 V 666.016 l -9.297,-0.008 v 251.289 l -6.039,6.043 c -0.356,10.656 -11.368,9.242 -19.536,9.242 -10.304,1.414 -10.304,-10.305 -18.121,-14.566 v -252 l -7.39,-0.008 v 244.547 c 0.347,3.55 -2.496,6.039 -6.043,5.683 -7.11,3.203 -14.567,10.66 -12.797,19.887 -10.293,3.211 -22.731,1.078 -34.098,1.426 -6.039,-2.129 -14.562,1.785 -19.539,-3.196 -0.351,-9.585 -11.367,-15.632 -17.762,-21.32 l -0.054,-247.027 h -8.891 v 250.23 l -6.039,8.532 c 1.066,12.781 -14.207,4.613 -21.316,7.105 -8.528,-4.625 -7.813,-15.988 -17.051,-19.898 l 1.051,-245.961 -7.2,-0.008 c -0.8,118.015 -1.957,247.027 -1.957,247.027 l -10.296,6.043 c -3.915,4.621 -6.754,10.656 -4.27,17.047 -12.438,0 -25.574,3.563 -37.652,0 -2.133,-9.582 -9.594,-17.047 -17.762,-22.371 V 666.016 l -8.59,-0.008 V 911.27 c -1.426,6.027 -11.726,8.519 -9.594,16.332 -14.566,13.152 -26.285,-5.325 -36.59,-14.567 l 0.418,-247.027 h -7.48 l 0.375,207.605 -1.777,41.203 c -7.813,4.262 -14.207,12.082 -12.789,22.028 -5.329,-0.719 -11.719,1.422 -15.981,-1.778 1.067,-9.234 -8.176,-15.625 -14.566,-20.25 L 457.891,666.008 H 449 l -1.062,247.746 -6.04,5.324 c 2.489,15.633 -15.273,8.172 -23.796,9.949 l -16.344,-15.273 1.051,-247.746 h -6.289 v 0"
       style="fill:#231f20;fill-opacity:1;fill-rule:nonzero;stroke:none;stroke-width:3.02851"
       id="path709" />
    <path
       d="m 14.4727,738.184 c 0,-199.871 80.9882,-380.743 211.9573,-511.735 v 0 C 357.438,95.4609 538.324,14.4805 738.199,14.4805 v 0 c 199.867,0 380.751,80.9804 511.741,211.9685 v 0 c 130.99,130.992 211.97,311.864 211.97,511.735 v 0 c 0,199.882 -80.98,380.766 -211.97,511.756 v 0 c -130.99,130.99 -311.874,211.98 -511.741,211.98 v 0 c -199.875,0 -380.761,-80.99 -511.769,-211.98 v 0 C 95.4609,1118.95 14.4727,938.066 14.4727,738.184 Z M 0,738.184 C 0.015625,1145.9 330.492,1476.38 738.199,1476.39 v 0 c 407.691,-0.01 738.181,-330.5 738.191,-738.206 v 0 C 1476.38,330.5 1145.89,0.0117188 738.199,0 V 0 C 330.492,0.0117188 0.015625,330.5 0,738.184 v 0"
       style="fill:#231f20;fill-opacity:1;fill-rule:nonzero;stroke:none;stroke-width:3.02851"
       id="path711" />
    <path
       d="m 36.5313,738.191 c 0,-193.769 78.5317,-369.171 205.5077,-496.152 v 0 C 369.031,115.059 544.43,36.5391 738.199,36.5391 v 0 c 193.77,0 369.151,78.5199 496.151,205.4999 v 0 c 126.97,126.981 205.5,302.383 205.5,496.152 v 0 c 0,193.77 -78.53,369.169 -205.5,496.159 v 0 c -127,126.98 -302.381,205.51 -496.151,205.51 v 0 c -193.769,0 -369.168,-78.53 -496.16,-205.51 v 0 C 115.063,1107.36 36.5313,931.961 36.5313,738.191 Z m -7.1602,0 c 0,391.469 317.3479,708.829 708.8279,708.829 v 0 c 391.471,0 708.811,-317.36 708.811,-708.829 v 0 c 0,-391.472 -317.34,-708.8121 -708.811,-708.8199 v 0 C 346.719,29.3789 29.3711,346.719 29.3711,738.191 v 0"
       style="fill:#231f20;fill-opacity:1;fill-rule:nonzero;stroke:none;stroke-width:3.02851"
       id="path713" />
  </g>
</svg>
