<?xml version="1.0" encoding="UTF-8" standalone="no"?>
<!-- Created with Inkscape (http://www.inkscape.org/) -->

<svg
   width="595"
   height="300"
   viewBox="0 0 595 300"
   version="1.1"
   id="svg427"
   xmlns="http://www.w3.org/2000/svg"
   xmlns:svg="http://www.w3.org/2000/svg">
  <defs
     id="defs424" />
  <path
     id="path7967"
     style="opacity:0.3;fill:#95e043;fill-opacity:1;stroke-width:2.14456;stroke-linecap:round;stroke-linejoin:round;stroke-dasharray:none"
     d="m 386.55293,-110.0309 -49.20142,30.247041 c 13.31662,19.279469 20.44999,42.154944 20.45238,65.58626 -0.0358,52.12426 -35.00626,97.754739 -85.32751,111.345413 l 43.14256,93.851646 C 384.43698,157.8697 428.21953,88.273606 428.292,11.896274 428.28962,-32.25101 413.60621,-75.144033 386.55293,-110.0309 Z" />
  <path
     id="path7969"
     style="opacity:0.3;fill:#389000;fill-opacity:1;stroke-width:1.91049;stroke-linecap:round;stroke-linejoin:round;stroke-dasharray:none"
     d="m 37.762185,-19.85837 c -0.09146,1.717467 -0.183023,3.437788 -0.227561,5.158118 0.0016,97.899418 79.364236,177.262012 177.263606,177.263542 19.61679,-0.0378 39.09157,-3.32533 57.63075,-9.73791 L 248.60103,100.988 c -2.07083,0.13342 -4.14495,0.21544 -6.22016,0.23641 C 183.13545,101.18664 133.54006,56.298638 127.61238,-2.6493515 Z" />
</svg>
