<?xml version="1.0" encoding="UTF-8" standalone="no"?>
<!-- Created with Inkscape (http://www.inkscape.org/) -->

<svg
   width="26"
   height="26"
   viewBox="0 0 26 26.000002"
   version="1.1"
   id="svg5"
   xmlns="http://www.w3.org/2000/svg"
   xmlns:svg="http://www.w3.org/2000/svg">
  <defs
     id="defs2" />
  <path
     d="M 13,3 C 7.4774999,3 3,7.4766665 3,13 c 0,4.236666 2.6358333,7.855 6.3558332,9.311666 -0.0875,-0.790833 -0.1666666,-2.004166 0.035,-2.8675 0.1816667,-0.780833 1.1724998,-4.970833 1.1724998,-4.970833 0,0 -0.299167,-0.599167 -0.299167,-1.485 0,-1.39 0.805834,-2.428333 1.809167,-2.428333 0.8525,0 1.265,0.640833 1.265,1.408333 0,0.8575 -0.545833,2.14 -0.828333,3.329167 -0.235834,0.995 0.499166,1.8075 1.480833,1.8075 1.7775,0 3.143333,-1.874167 3.143333,-4.579167 0,-2.394166 -1.72,-4.0683332 -4.176666,-4.0683332 -2.845,0 -4.5150001,2.1341672 -4.5150001,4.3391672 0,0.859166 0.3308333,1.781666 0.7441667,2.281666 0.081667,0.09917 0.093333,0.186667 0.069167,0.2875 l -0.2775,1.133333 c -0.044167,0.183334 -0.145,0.2225 -0.335,0.134167 -1.2491666,-0.581667 -2.0299999,-2.4075 -2.0299999,-3.874166 0,-3.1541672 2.2916666,-6.0516671 6.6074993,-6.0516671 3.469167,0 6.165,2.4724999 6.165,5.7758331 0,3.446667 -2.1725,6.22 -5.189167,6.22 -1.013333,0 -1.965833,-0.525833 -2.291665,-1.148333 l -0.623334,2.3775 c -0.225833,0.869166 -0.835,1.958333 -1.243333,2.621666 C 10.975001,22.843333 11.969166,23 13,23 18.5225,23 23,18.5225 23,13 23,7.4766665 18.5225,3 13,3 Z"
     id="path290"
     style="fill:#000000" />
</svg>
