<?xml version="1.0" encoding="UTF-8" standalone="no"?>
<!-- Created with Inkscape (http://www.inkscape.org/) -->

<svg
   width="26"
   height="26"
   viewBox="0 0 26 26.000002"
   version="1.1"
   id="svg5"
   xmlns="http://www.w3.org/2000/svg"
   xmlns:svg="http://www.w3.org/2000/svg">
  <defs
     id="defs2" />
  <path
     id="path4157"
     style="color:#000000;fill:#000000;stroke-linecap:round;stroke-linejoin:round"
     d="M 20 2 A 1 1 0 0 0 19.292969 2.2929688 A 1 1 0 0 0 19.292969 3.7070312 L 20.654297 5.0683594 C 18.004137 5.3304646 15.717483 6.3684537 14.042969 8.0429688 C 12.090942 9.9949953 11 12.777784 11 16 A 1 1 0 0 0 12 17 A 1 1 0 0 0 13 16 C 13 13.222228 13.909065 11.004997 15.457031 9.4570312 C 16.713138 8.2009242 18.410852 7.3660741 20.490234 7.0957031 L 19.292969 8.2929688 A 1 1 0 0 0 19.292969 9.7070312 A 1 1 0 0 0 20.707031 9.7070312 L 23.707031 6.7070312 A 1.0001 1.0001 0 0 0 23.707031 5.2929688 L 20.707031 2.2929688 A 1 1 0 0 0 20 2 z M 6 8 C 4.3553085 8 3 9.3553085 3 11 L 3 20 C 3 21.644689 4.3553085 23 6 23 L 20 23 C 21.644689 23 23 21.644689 23 20 L 23 11 C 23 10.767028 22.971282 10.540592 22.919922 10.322266 L 21 12.242188 L 21 20 C 21 20.571291 20.571291 21 20 21 L 6 21 C 5.4287069 21 5 20.571291 5 20 L 5 11 C 5 10.428709 5.4287069 10 6 10 L 10.101562 10 C 10.58318 9.2479987 11.073676 8.5582785 11.615234 8 L 6 8 z " />
</svg>
