<?xml version="1.0" encoding="UTF-8" standalone="no"?>
<!-- Created with Inkscape (http://www.inkscape.org/) -->

<svg
   width="26"
   height="26"
   viewBox="0 0 26 26.000002"
   version="1.1"
   id="svg5"
   xmlns="http://www.w3.org/2000/svg"
   xmlns:svg="http://www.w3.org/2000/svg">
  <defs
     id="defs2" />
  <path
     style="fill:#000000"
     d="M 22.242188 4.5019531 C 22.180693 4.5073944 22.120045 4.5208755 22.060547 4.5429688 C 18.391763 5.9009351 7.092745 10.140777 2.4746094 11.849609 C 2.1814916 11.958106 1.9903752 12.23996 2 12.548828 C 2.0105 12.858571 2.2194139 13.126674 2.5195312 13.216797 C 4.5906051 13.836281 7.3085937 14.699219 7.3085938 14.699219 C 7.3085938 14.699219 8.579829 18.535127 9.2421875 20.486328 C 9.3253103 20.731323 9.5166624 20.923736 9.7695312 20.990234 C 10.021525 21.055864 10.290395 20.988168 10.478516 20.810547 C 11.542489 19.806072 13.1875 18.251953 13.1875 18.251953 C 13.1875 18.251953 16.313231 20.544046 18.085938 21.806641 C 18.367679 22.006134 18.730945 22.056091 19.054688 21.933594 C 19.378429 21.810222 19.615751 21.534334 19.6875 21.199219 C 20.447855 17.625807 22.292268 8.5806227 22.984375 5.3300781 C 23.036875 5.0850842 22.950306 4.8296367 22.757812 4.6660156 C 22.613442 4.5432999 22.42667 4.4856293 22.242188 4.5019531 z M 19.011719 7.5292969 C 19.07872 7.5344267 19.1437 7.5664467 19.1875 7.6230469 C 19.266256 7.7236693 19.254656 7.8673771 19.160156 7.953125 C 15.924486 10.871178 10.248047 15.992188 10.248047 15.992188 L 9.921875 19.060547 L 8.453125 14.214844 C 8.453125 14.214844 15.109219 9.9631754 18.859375 7.5683594 C 18.886285 7.5512974 18.915513 7.5390131 18.945312 7.5332031 C 18.967666 7.5288454 18.989385 7.5275869 19.011719 7.5292969 z " />
</svg>
