<?xml version="1.0" encoding="UTF-8" standalone="no"?>
<!-- Created with Inkscape (http://www.inkscape.org/) -->

<svg
   width="26"
   height="26"
   viewBox="0 0 26 26.000002"
   version="1.1"
   id="svg5"
   xmlns="http://www.w3.org/2000/svg"
   xmlns:svg="http://www.w3.org/2000/svg">
  <defs
     id="defs2" />
  <path
     id="rect288"
     style="color:#000000;fill:#000000;stroke-linecap:round;stroke-linejoin:round"
     d="M 6.9996094,3.0507812 C 5.381745,3.0507812 4.0503906,4.3821356 4.0503906,6 v 14 c 0,1.617864 1.3313544,2.949219 2.9492188,2.949219 H 19.000391 c 1.617864,0 2.949218,-1.331355 2.949218,-2.949219 V 6 c 0,-1.6178644 -1.331354,-2.9492188 -2.949218,-2.9492188 z m 0,1.8984376 H 19.000391 c 0.59813,0 1.050781,0.45265 1.050781,1.0507812 V 9.0039062 C 20.03428,9.0021732 20.017348,9.0008707 20.000391,9 H 5.9996094 c -0.016991,0.00217 -0.033924,0.00477 -0.050781,0.00781 V 6 c 0,-0.5981312 0.45265,-1.0507812 1.0507812,-1.0507812 z m 1,1.0507812 c -0.5522847,0 -1,0.4477153 -1,1 0,0.5522847 0.4477153,1 1,1 0.5522847,0 1,-0.4477153 1,-1 0,-0.5522847 -0.4477153,-1 -1,-1 z m -2.0507812,4.992188 c 0.016857,0.003 0.03379,0.0056 0.050781,0.0078 H 20.000391 c 0.01699,-0.0022 0.03392,-0.0048 0.05078,-0.0078 v 4.011718 c -0.01689,-0.0017 -0.03382,-0.003 -0.05078,-0.0039 H 5.9996094 c -0.016991,0.0022 -0.033924,0.0048 -0.050781,0.0078 z M 7.9996094,12 c -0.5522847,0 -1,0.447715 -1,1 0,0.552285 0.4477153,1 1,1 0.5522847,0 1,-0.447715 1,-1 0,-0.552285 -0.4477153,-1 -1,-1 z m -2.0507812,4.992188 c 0.016857,0.003 0.03379,0.0056 0.050781,0.0078 H 20.000391 c 0.01699,-0.0022 0.03392,-0.0048 0.05078,-0.0078 V 20 c 0,0.598131 -0.452651,1.050781 -1.050781,1.050781 H 6.9996094 C 6.4014782,21.050781 5.9488282,20.598131 5.9488282,20 Z M 7.9996094,18 c -0.5522847,0 -1,0.447715 -1,1 0,0.552285 0.4477153,1 1,1 0.5522847,0 1,-0.447715 1,-1 0,-0.552285 -0.4477153,-1 -1,-1 z" />
</svg>
