<?xml version="1.0" encoding="UTF-8" standalone="no"?>
<!-- Created with Inkscape (http://www.inkscape.org/) -->

<svg
   width="26"
   height="26"
   viewBox="0 0 26 26.000002"
   version="1.1"
   id="svg5"
   xmlns="http://www.w3.org/2000/svg"
   xmlns:svg="http://www.w3.org/2000/svg">
  <defs
     id="defs2" />
  <path
     id="path300"
     style="color:#000000;fill:#000000;stroke-linecap:round;stroke-linejoin:round"
     d="M 13 3 C 9.145863 3 6 6.145863 6 10 C 6 12.376631 7.1938277 14.487726 9.0136719 15.751953 C 9.5581159 16.188284 9.7637696 16.522518 9.8730469 16.824219 C 9.9901071 17.147405 10 17.5 10 18 L 10 19 A 1.0001 1.0001 0 0 0 11 20 L 15 20 A 1.0001 1.0001 0 0 0 16 19 L 16 18 C 16 17.5 16.01092 17.149683 16.128906 16.828125 C 16.24689 16.506567 16.470616 16.146648 17.117188 15.662109 A 1 1 0 0 0 17.15625 15.628906 C 18.880262 14.353468 20 12.302083 20 10 C 20 6.1458629 16.854136 3 13 3 z M 13 5 C 15.773259 5 18 7.2267401 18 10 C 18 11.752641 17.105507 13.281063 15.75 14.175781 A 1 1 0 0 0 15.519531 14.386719 C 14.880541 14.947735 14.468915 15.54203 14.25 16.138672 C 13.98844 16.851539 14 17.5 14 18 L 12 18 C 12 17.5 12.0096 16.853815 11.751953 16.142578 C 11.53183 15.534849 11.113271 14.927496 10.458984 14.355469 A 1 1 0 0 0 10.263672 14.185547 C 10.245695 14.173766 10.228751 14.160439 10.210938 14.148438 C 10.176189 14.120988 10.141374 14.093663 10.105469 14.066406 A 1 1 0 0 0 10.046875 14.033203 C 8.8062024 13.123782 8 11.66328 8 10 C 8 7.22674 10.22674 5 13 5 z M 11.738281 6.2265625 A 0.5 0.5 0 0 0 11.585938 6.2578125 C 10.072846 6.8293674 9 8.2929691 9 10 C 9 10.704669 9.1843028 11.37106 9.5058594 11.947266 A 0.5 0.5 0 0 0 10.185547 12.140625 A 0.5 0.5 0 0 0 10.378906 11.458984 C 10.137862 11.027052 10 10.531816 10 10 C 10 8.7116969 10.807049 7.6211137 11.939453 7.1933594 A 0.5 0.5 0 0 0 12.230469 6.5488281 A 0.5 0.5 0 0 0 11.738281 6.2265625 z M 10.5 21 A 0.5 0.5 0 0 0 10 21.5 A 0.5 0.5 0 0 0 10.5 22 L 15.5 22 A 0.5 0.5 0 0 0 16 21.5 A 0.5 0.5 0 0 0 15.5 21 L 10.5 21 z M 10.5 23 A 0.5 0.5 0 0 0 10 23.5 A 0.5 0.5 0 0 0 10.5 24 L 15.5 24 A 0.5 0.5 0 0 0 16 23.5 A 0.5 0.5 0 0 0 15.5 23 L 10.5 23 z " />
</svg>
