<?xml version="1.0" encoding="UTF-8" standalone="no"?>
<!-- Created with Inkscape (http://www.inkscape.org/) -->

<svg
   width="26"
   height="26"
   viewBox="0 0 26 26.000002"
   version="1.1"
   id="svg5"
   xmlns="http://www.w3.org/2000/svg"
   xmlns:svg="http://www.w3.org/2000/svg">
  <defs
     id="defs2" />
  <path
     id="path937"
     style="color:#000000;fill:#000000;stroke-linecap:round;stroke-linejoin:round;-inkscape-stroke:none"
     d="m 19.999924,9.9999999 c -4e-5,-0.265201 -0.105423,-0.5195256 -0.292968,-0.7070312 l -6.000001,-6 C 13.621191,3.210161 13.521312,3.1433546 13.412033,3.095703 13.376917,3.0819685 13.341053,3.0702311 13.304612,3.060547 13.224956,3.0340053 13.142274,3.0176002 13.058518,3.011719 13.039109,3.0072299 13.01957,3.0033219 12.999928,3 c -0.01964,0.00332 -0.03918,0.00723 -0.05859,0.011719 -0.08376,0.00588 -0.166438,0.022286 -0.246094,0.048828 -0.03644,0.00968 -0.07231,0.021421 -0.107421,0.035156 -0.109279,0.047652 -0.209158,0.114458 -0.294922,0.1972657 l -5.9999997,6 c -0.3904235,0.390507 -0.3904235,1.0235553 0,1.4140623 0.3905069,0.390423 1.0235551,0.390423 1.414062,0 L 11.999924,6.4140624 V 22 c 0,0.552285 0.447715,1 1,1 0.552285,0 1,-0.447715 1,-1 V 6.4140624 l 4.292969,4.2929686 c 0.390507,0.390424 1.023556,0.390424 1.414063,0 0.187545,-0.187506 0.292928,-0.44183 0.292968,-0.7070311 z" />
</svg>
