<?xml version="1.0" encoding="UTF-8" standalone="no"?>
<!-- Created with Inkscape (http://www.inkscape.org/) -->

<svg
   width="26"
   height="26"
   viewBox="0 0 26 26.000002"
   version="1.1"
   id="svg5"
   xmlns="http://www.w3.org/2000/svg"
   xmlns:svg="http://www.w3.org/2000/svg">
  <defs
     id="defs2" />
  <path
     d="m 24,6.520375 c -0.772625,0.343 -1.603,0.574 -2.4745,0.678125 C 22.415375,6.665625 23.09875,5.82125 23.419875,4.815 22.58775,5.3085 21.6655,5.66725 20.68375,5.860625 19.898875,5.02325 18.778,4.5 17.539,4.5 14.757375,4.5 12.713375,7.09525 13.341625,9.789375 9.762,9.61 6.5875,7.895 4.462125,5.288375 3.333375,7.22475 3.87675,9.757875 5.79475,11.040625 5.0895,11.017875 4.4245,10.8245 3.844375,10.501625 3.797125,12.4975 5.22775,14.36475 7.29975,14.780375 c -0.606375,0.1645 -1.2705,0.203 -1.946,0.0735 0.54775,1.7115 2.1385,2.956625 4.025,2.991625 C 7.5675,19.265625 5.2855,19.9 3,19.6305 c 1.906625,1.222375 4.172,1.9355 6.6045,1.9355 7.99925,0 12.518625,-6.755875 12.245625,-12.81525 C 22.691875,8.142625 23.4225,7.384 24,6.520375 Z"
     id="path2"
     style="fill:#000000" />
</svg>
