<?xml version="1.0" encoding="UTF-8" standalone="no"?>
<!-- Created with Inkscape (http://www.inkscape.org/) -->

<svg
   width="26"
   height="26"
   viewBox="0 0 26 26.000002"
   version="1.1"
   id="svg5"
   xmlns="http://www.w3.org/2000/svg"
   xmlns:svg="http://www.w3.org/2000/svg">
  <defs
     id="defs2" />
  <path
     id="path342"
     style="fill:#000000;fill-opacity:1;stroke:none;stroke-width:2;stroke-linecap:round;stroke-linejoin:round;paint-order:stroke markers fill"
     d="M 8 3 C 6.9050937 3 5.8366398 3.1183465 4.8066406 3.3417969 A 1 1 0 0 0 4.0410156 4.53125 A 1 1 0 0 0 5.2304688 5.2949219 C 6.1223589 5.1014333 7.0481549 5 8 5 C 15.191532 5 21 10.808468 21 18 C 21 18.953951 20.897447 19.88168 20.703125 20.775391 A 1 1 0 0 0 21.46875 21.964844 A 1 1 0 0 0 22.658203 21.201172 C 22.882617 20.169068 23 19.097329 23 18 C 23 9.7275904 16.27241 3 8 3 z M 8 7 C 6.8645039 7 5.7654122 7.1732529 4.7324219 7.4941406 A 1 1 0 0 0 4.0742188 8.7460938 A 1 1 0 0 0 5.3261719 9.4042969 C 6.1699801 9.1421765 7.0669247 9 8 9 C 12.982397 9 17 13.017603 17 18 C 17 18.94757 16.853987 19.857659 16.583984 20.712891 A 1 1 0 0 0 17.236328 21.966797 A 1 1 0 0 0 18.492188 21.314453 C 18.822724 20.26748 19 19.153134 19 18 C 19 11.936725 14.063275 7 8 7 z M 8 11 C 6.7300589 11 5.5310805 11.340865 4.5019531 11.935547 A 1 1 0 0 0 4.1367188 13.300781 A 1 1 0 0 0 5.5019531 13.667969 C 6.2367747 13.243352 7.0862085 13 8 13 C 10.773262 13 13 15.226738 13 18 C 13 18.916052 12.75665 19.765892 12.330078 20.501953 A 1 1 0 0 0 12.693359 21.869141 A 1 1 0 0 0 14.060547 21.505859 C 14.657955 20.475016 15 19.273082 15 18 C 15 14.14586 11.85414 11 8 11 z M 8 15 A 3 3 0 0 0 5 18 A 3 3 0 0 0 8 21 A 3 3 0 0 0 11 18 A 3 3 0 0 0 8 15 z " />
</svg>
