<?xml version="1.0" encoding="UTF-8" standalone="no"?>
<!-- Created with Inkscape (http://www.inkscape.org/) -->

<svg
   width="26"
   height="26"
   viewBox="0 0 26 26.000002"
   version="1.1"
   id="svg5"
   xmlns="http://www.w3.org/2000/svg"
   xmlns:svg="http://www.w3.org/2000/svg">
  <defs
     id="defs2" />
  <path
     d="M 3,23.095453 4.4125429,17.935108 C 3.5409026,16.4246 3.0828937,14.7123 3.0837311,12.95646 3.086243,7.4670517 7.5532945,3 13.041866,3 15.705351,3.0008373 18.205559,4.0382651 20.086159,5.9205392 21.965921,7.8028132 23.000837,10.304697 23,12.96567 22.9975,18.455915 18.530436,22.922967 13.041866,22.922967 11.375618,22.92213 9.7336513,22.504312 8.2792427,21.710541 Z m 5.5237374,-3.187641 c 1.4033327,0.833124 2.7430286,1.332161 4.5147796,1.332998 4.561667,0 8.27765,-3.712635 8.280163,-8.276815 0.0017,-4.5733898 -3.696726,-8.2810008 -8.273465,-8.2826754 -4.5650178,0 -8.2784898,3.7126349 -8.2801644,8.2759774 -8.373e-4,1.863016 0.5450892,3.257975 1.461944,4.717407 l -0.836473,3.054509 z m 9.5344566,-4.575065 c -0.06196,-0.103827 -0.227751,-0.165788 -0.477268,-0.290547 -0.248681,-0.124759 -1.471993,-0.726785 -1.700577,-0.809679 -0.227748,-0.08289 -0.393536,-0.124759 -0.560162,0.124759 -0.165786,0.248681 -0.643053,0.809679 -0.787908,0.975467 -0.144855,0.165787 -0.290547,0.18672 -0.539228,0.06196 -0.248681,-0.124758 -1.050825,-0.386837 -2.001173,-1.235032 -0.739345,-0.659801 -1.239219,-1.474504 -1.384074,-1.724023 -0.144855,-0.24868 -0.01507,-0.383487 0.10885,-0.507409 0.1122,-0.111363 0.248682,-0.290548 0.373441,-0.43624 0.126434,-0.144017 0.167462,-0.247844 0.251193,-0.414468 0.08289,-0.165788 0.04187,-0.31148 -0.02093,-0.436239 C 11.257557,10.517374 10.760195,9.2923887 10.553379,8.7941889 10.35075,8.3093861 10.145609,8.3746963 9.9932176,8.3671605 l -0.477267,-0.00837 c -0.1657875,0 -0.4354015,0.061961 -0.6631502,0.3114796 -0.2277485,0.2495185 -0.870803,0.8507075 -0.870803,2.0756929 0,1.224986 0.8917358,2.408105 1.015658,2.573892 0.1247592,0.165788 1.7541656,2.679394 4.2501886,3.757013 0.593653,0.256217 1.057523,0.409445 1.418405,0.524156 0.596164,0.189232 1.138742,0.162438 1.567444,0.0988 0.478104,-0.07117 1.471993,-0.602026 1.679646,-1.18312 0.207653,-0.581931 0.207653,-1.080131 0.144855,-1.183957 z"
     id="path236"
     style="fill:#000000" />
</svg>
