<?xml version="1.0" encoding="UTF-8" standalone="no"?>
<!-- Created with Inkscape (http://www.inkscape.org/) -->

<svg
   width="26"
   height="26"
   viewBox="0 0 26 26.000002"
   version="1.1"
   id="svg5"
   xmlns="http://www.w3.org/2000/svg"
   xmlns:svg="http://www.w3.org/2000/svg">
  <defs
     id="defs2" />
  <path
     d="M 24,11.664082 C 24,10.326666 22.907333,9.2394992 21.564416,9.2394992 20.909,9.2394992 20.315,9.501666 19.87775,9.923332 18.218583,8.8315825 15.973666,8.1367495 13.487666,8.0478329 l 1.359417,-4.2799166 3.681333,0.8625833 -0.0055,0.053167 c 0,1.0935834 0.89375,1.98275 1.992834,1.98275 1.098166,0 1.991,-0.8891666 1.991,-1.98275 C 22.50675,3.5900833 21.613,2.7 20.51575,2.7 c -0.843334,0 -1.562,0.5261667 -1.852584,1.2640833 l -3.96825,-0.9304166 c -0.17325,-0.042167 -0.34925,0.05775 -0.403333,0.22825 L 12.775417,8.0349995 C 10.173917,8.0661662 7.8171665,8.7664992 6.0837499,9.891249 5.6492499,9.489749 5.0726666,9.2385825 4.4346666,9.2385825 3.09175,9.2385825 2,10.326666 2,11.664082 c 0,0.889167 0.4885833,1.660084 1.20725,2.08175 -0.047667,0.2585 -0.078833,0.51975 -0.078833,0.785584 0,3.585083 4.4073331,6.501916 9.82575,6.501916 5.418416,0 9.826666,-2.916833 9.826666,-6.501916 0,-0.251167 -0.02658,-0.498667 -0.06875,-0.7425 C 23.47475,13.379166 24,12.586249 24,11.664082 Z M 8.2113332,13.328749 c 0,-0.795667 0.6508333,-1.44375 1.4501666,-1.44375 0.7993342,0 1.4492502,0.648083 1.4492502,1.44375 0,0.795667 -0.649916,1.442833 -1.4492502,1.442833 -0.7993333,0 -1.4501666,-0.647166 -1.4501666,-1.442833 z m 8.3059168,4.279917 c -0.730584,0.726916 -1.877334,1.08075 -3.505333,1.08075 l -0.01192,-0.0027 -0.01192,0.0027 c -1.628916,0 -2.775666,-0.353834 -3.5053332,-1.08075 -0.1329167,-0.132 -0.1329167,-0.347417 0,-0.479417 0.1329167,-0.132917 0.34925,-0.132917 0.4821667,0 0.5958335,0.593083 1.5849165,0.880917 3.0231665,0.880917 l 0.01192,0.0027 0.01192,-0.0027 c 1.438249,0 2.427333,-0.28875 3.023166,-0.881834 0.132917,-0.132916 0.34925,-0.132 0.482167,0 0.132916,0.132917 0.132916,0.347417 0,0.480334 z M 16.344,14.771582 c -0.799334,0 -1.44925,-0.647166 -1.44925,-1.442833 0,-0.795667 0.649916,-1.44375 1.44925,-1.44375 0.799333,0 1.44925,0.648083 1.44925,1.44375 0,0.795667 -0.649917,1.442833 -1.44925,1.442833 z"
     id="path290"
     style="fill:#000000" />
</svg>
