<?xml version="1.0" encoding="UTF-8" standalone="no"?>
<!-- Created with Inkscape (http://www.inkscape.org/) -->

<svg
   width="26"
   height="26"
   viewBox="0 0 26 26.000002"
   version="1.1"
   id="svg5"
   xmlns="http://www.w3.org/2000/svg"
   xmlns:svg="http://www.w3.org/2000/svg">
  <defs
     id="defs2" />
  <path
     d="M 22.667804,11.285443 22.639715,11.21361 19.91736,4.1090815 A 0.70919411,0.70919411 0 0 0 19.637183,3.7715684 0.72902821,0.72902821 0 0 0 18.804067,3.8164872 0.72902821,0.72902821 0 0 0 18.562392,4.1830847 L 16.724407,9.8066346 H 9.2815348 L 7.4433801,4.1830817 A 0.71444432,0.71444432 0 0 0 7.2017041,3.8154008 0.72902821,0.72902821 0 0 0 6.3685885,3.770649 0.71544435,0.71544435 0 0 0 6.0884111,4.1080788 l -2.7273556,7.1013622 -0.027084,0.07184 a 5.0549457,5.0549457 0 0 0 1.6766481,5.84231 l 0.00942,0.0072 0.025001,0.01776 4.1468272,3.105452 2.0517462,1.552811 1.249632,0.943453 a 0.84044919,0.84044919 0 0 0 1.016456,0 l 1.249632,-0.943453 2.051663,-1.552811 4.171827,-3.124203 0.01045,-0.0083 a 5.057029,5.057029 0 0 0 1.674565,-5.836059 z"
     id="path4"
     style="stroke-width:0.999999;fill:#000000;fill-opacity:1;stroke:none" />
</svg>
