<?xml version="1.0" encoding="UTF-8" standalone="no"?>
<!-- Created with Inkscape (http://www.inkscape.org/) -->

<svg
   width="15"
   height="15"
   viewBox="0 0 15 15.000001"
   version="1.1"
   id="svg5"
   xml:space="preserve"
   xmlns="http://www.w3.org/2000/svg"
   xmlns:svg="http://www.w3.org/2000/svg"><defs
     id="defs2" /><path
     id="rect356"
     style="color:#000000;fill:#000000;stroke-linecap:round;stroke-linejoin:round;-inkscape-stroke:none;paint-order:stroke markers fill"
     d="M 9.5 2 A 0.5 0.5 0 0 0 9 2.5 L 9 5.1328125 L 6.71875 3.8164062 A 0.5 0.5 0 0 0 6.0351562 4 A 0.5 0.5 0 0 0 6.21875 4.6835938 L 8.5 6 L 6.21875 7.3164062 A 0.5 0.5 0 0 0 6.0351562 8 A 0.5 0.5 0 0 0 6.71875 8.1835938 L 9 6.8671875 L 9 9.5 A 0.5 0.5 0 0 0 9.5 10 A 0.5 0.5 0 0 0 10 9.5 L 10 6.8671875 L 12.28125 8.1835938 A 0.5 0.5 0 0 0 12.964844 8 A 0.5 0.5 0 0 0 12.78125 7.3164062 L 10.5 6 L 12.78125 4.6835938 A 0.5 0.5 0 0 0 12.964844 4 A 0.5 0.5 0 0 0 12.660156 3.7675781 A 0.5 0.5 0 0 0 12.28125 3.8164062 L 10 5.1328125 L 10 2.5 A 0.5 0.5 0 0 0 9.5 2 z M 2.5 9 A 0.50005 0.50005 0 0 0 2 9.5 L 2 12.5 A 0.50005 0.50005 0 0 0 2.5 13 L 5.5 13 A 0.50005 0.50005 0 0 0 6 12.5 L 6 9.5 A 0.50005 0.50005 0 0 0 5.5 9 L 2.5 9 z M 3 10 L 5 10 L 5 12 L 3 12 L 3 10 z " /></svg>
