<?xml version="1.0" encoding="UTF-8" standalone="no"?>
<!-- Created with Inkscape (http://www.inkscape.org/) -->

<svg
   width="15"
   height="15"
   viewBox="0 0 15 15.000001"
   version="1.1"
   id="svg5"
   xmlns="http://www.w3.org/2000/svg"
   xmlns:svg="http://www.w3.org/2000/svg">
  <defs
     id="defs2" />
  <path
     id="rect289"
     style="color:#000000;fill:#000000;stroke-linecap:round;stroke-linejoin:round;-inkscape-stroke:none"
     d="M 3.5 2 C 2.6776502 2 2 2.6776502 2 3.5 L 2 9.5 C 2 10.32235 2.6776502 11 3.5 11 L 9.5 11 C 10.32235 11 11 10.32235 11 9.5 L 11 3.5 C 11 2.6776502 10.32235 2 9.5 2 L 3.5 2 z M 3.5 3 L 9.5 3 C 9.785648 3 10 3.214352 10 3.5 L 10 9.5 C 10 9.785648 9.785648 10 9.5 10 L 3.5 10 C 3.214352 10 3 9.785648 3 9.5 L 3 3.5 C 3 3.214352 3.214352 3 3.5 3 z M 12 4.0898438 L 12 5.5 L 12 10.765625 L 12 11.5 C 12 11.785648 11.785648 12 11.5 12 L 10.412109 12 L 5.5 12 L 4.0898438 12 C 4.2980891 12.579491 4.8529234 13 5.5 13 L 11.5 13 C 12.322349 13 13 12.322349 13 11.5 L 13 5.5 C 13 4.8529234 12.579491 4.2980891 12 4.0898438 z " />
</svg>
