<svg width="26" height="26" viewBox="0 0 26 26" version="1.1" xmlns="http://www.w3.org/2000/svg">
    <symbol id="regularBack">
        <path d="M 9,6 A 1,1 0 0 0 8.2929688,6.2929688 l -6,6.0000002 A 1.0001,1.0001 0 0 0 2.0957031,12.587891 1,1 0 0 0 2.0605469,12.695312 1.0001,1.0001 0 0 0 2.0117188,12.941406 1,1 0 0 0 2,13 a 1,1 0 0 0 0.011719,0.05859 1.0001,1.0001 0 0 0 0.048828,0.246094 1,1 0 0 0 0.035156,0.107421 1.0001,1.0001 0 0 0 0.1972657,0.294922 l 6,6 a 1,1 0 0 0 1.4140624,0 1,1 0 0 0 0,-1.414062 L 5.4140625,14 H 23 a 1,1 0 0 0 1,-1 1,1 0 0 0 -1,-1 H 5.4140625 L 9.7070312,7.7070312 a 1,1 0 0 0 0,-1.4140624 A 1,1 0 0 0 9,6 Z" />
    </symbol>
    <symbol id="regularClose">
        <path d="m 4.9998496,4.0000757 a 1,1 0 0 0 -0.707032,0.2929688 1,1 0 0 0 0,1.4140624 l 7.2929704,7.2929681 -7.2929704,7.292969 a 1,1 0 0 0 0,1.414062 1,1 0 0 0 1.414063,0 l 7.2929694,-7.292969 7.292969,7.292969 a 1,1 0 0 0 1.414062,0 1,1 0 0 0 0,-1.414062 l -7.292969,-7.292969 7.292969,-7.2929681 a 1,1 0 0 0 0,-1.4140624 1,1 0 0 0 -1.414062,0 L 12.99985,11.586013 5.7068806,4.2930445 A 1,1 0 0 0 4.9998496,4.0000757 Z" />
    </symbol>
    <symbol id="regularData">
        <path d="M 6.999219,3.050781 C 5.381355,3.050781 4.05,4.3821354 4.05,5.9999998 V 20 c 0,1.617864 1.331355,2.949219 2.949219,2.949219 h 12.000782 c 1.617864,0 2.949218,-1.331355 2.949218,-2.949219 V 5.9999998 c 0,-1.6178644 -1.331354,-2.9492188 -2.949218,-2.9492188 z m 0,1.8984376 h 12.000782 c 0.59813,0 1.050781,0.45265 1.050781,1.0507812 v 3.0039063 c -0.01689,-0.0017 -0.03382,-0.003 -0.05078,-0.0039 H 5.999219 c -0.01699,0.0022 -0.03392,0.0048 -0.05078,0.0078 V 5.9999998 c 0,-0.5981312 0.45265,-1.0507812 1.05078,-1.0507812 z m 1,1.0507812 c -0.552285,0 -1,0.4477153 -1,1 0,0.5522846 0.447715,1 1,1 0.552285,0 1,-0.4477154 1,-1 0,-0.5522847 -0.447715,-1 -1,-1 z M 5.948438,10.992188 c 0.01686,0.003 0.03379,0.0056 0.05078,0.0078 h 14.000783 c 0.01699,-0.0022 0.03392,-0.0048 0.05078,-0.0078 v 4.011718 c -0.01689,-0.0017 -0.03382,-0.003 -0.05078,-0.0039 H 5.999219 c -0.01699,0.0022 -0.03392,0.0048 -0.05078,0.0078 z M 7.999219,12 c -0.552285,0 -1,0.447715 -1,1 0,0.552285 0.447715,1 1,1 0.552285,0 1,-0.447715 1,-1 0,-0.552285 -0.447715,-1 -1,-1 z m -2.050781,4.992188 c 0.01686,0.003 0.03379,0.0056 0.05078,0.0078 h 14.000783 c 0.01699,-0.0022 0.03392,-0.0048 0.05078,-0.0078 V 20 c 0,0.598131 -0.452651,1.050781 -1.050781,1.050781 H 6.999219 C 6.401088,21.050781 5.948438,20.598131 5.948438,20 Z M 7.999219,18 c -0.552285,0 -1,0.447715 -1,1 0,0.552285 0.447715,1 1,1 0.552285,0 1,-0.447715 1,-1 0,-0.552285 -0.447715,-1 -1,-1 z" />
    </symbol>
    <symbol id="regularDictionary">
        <path d="m 11,3 c -4.406421,0 -8,3.5935798 -8,8.000002 0,4.406421 3.593579,8 8,8 1.844033,0 3.544871,-0.63065 4.900391,-1.685547 l 5.392575,5.392578 a 1,1 0 0 0 1.414104,0 1,1 0 0 0 0,-1.414062 L 17.314453,15.900393 C 18.36935,14.544873 19,12.844035 19,11.000002 19,6.5935798 15.406421,3 11,3 Z m 0,2 c 3.325544,0 6,2.6744568 6,6.000002 0,3.325544 -2.674456,6 -6,6 -3.325544,0 -6,-2.674456 -6,-6 C 5,7.6744568 7.674456,5 11,5 Z M 9.46875,6.2617188 A 0.5,0.5 0 0 0 9.314453,6.2910158 C 7.381263,6.9834531 6,8.8349748 6,11.000002 c 0,0.73605 0.160357,1.437712 0.447265,2.068359 a 0.5,0.5 0 0 0 0.66211,0.248047 0.5,0.5 0 0 0 0.248046,-0.662109 C 7.128166,12.150376 7,11.591689 7,11.000002 7,9.259604 8.106494,7.7854208 9.65039,7.2324221 A 0.5,0.5 0 0 0 9.953125,6.59375 0.5,0.5 0 0 0 9.46875,6.2617188 Z" />
    </symbol>
    <symbol id="regularExplore">
        <path d="m 13,3 c -4.40643,0 -8,3.5935755 -8,8 0,2.27788 1.10527,4.641041 2.5332,6.865234 1.42793,2.224195 3.21522,4.297253 4.75977,5.841797 a 1.0001,1.0001 0 0 0 1.41406,0 c 1.54454,-1.544544 3.33183,-3.617602 4.75976,-5.841797 C 19.89472,15.641041 21,13.27788 21,11 21,6.5935754 17.40642,3 13,3 Z m 0,2 c 3.32554,0 6,2.6744536 6,6 0,1.588105 -0.89473,3.725858 -2.2168,5.785156 C 15.6693,18.520215 14.28109,20.066574 13,21.425781 11.71891,20.066574 10.3307,18.520215 9.21679,16.785156 7.89473,14.725858 7,12.588105 7,11 7,7.6744536 9.67445,5 13,5 Z m 0,3 c -1.65093,3e-7 -3,1.3490713 -3,3 0,1.650928 1.34907,3 3,3 1.65092,0 3,-1.349072 3,-3 0,-1.6509287 -1.34908,-2.9999997 -3,-3 z m 0,1 c 1.11049,2e-7 2,0.8895102 2,2 0,1.11049 -0.88951,2 -2,2 -1.11049,0 -2,-0.88951 -2,-2 0,-1.1104898 0.88951,-1.9999998 2,-2 z" />
    </symbol>
    <symbol id="regularLayers">
        <path d="m 12.834141,3.014364 a 1.0001,1.0001 0 0 0 -0.31837,0.1113281 l -9.0000004,5 a 1.0001,1.0001 0 0 0 0,1.75 l 9.0000004,5.0000009 a 1.0001,1.0001 0 0 0 0.97266,0 l 9,-5.0000009 a 1.0001,1.0001 0 0 0 0,-1.75 l -9,-5 A 1.0001,1.0001 0 0 0 12.834141,3.014364 Z m 0.16797,2.1308593 6.93944,3.8554688 -6.93944,3.8554689 -6.9394504,-3.8554689 z m -8.9980604,6.7089847 -0.48828,0.271484 c -0.68769,0.380652 -0.68769,1.369349 0,1.750001 l 9.0000004,5 c 0.30239,0.168279 0.67028,0.168279 0.97266,0 l 9,-5 c 0.68769,-0.380652 0.68769,-1.369349 0,-1.750001 l -0.48828,-0.271484 -2.06055,1.144531 0.002,0.0019 -6.93945,3.85547 -6.9394504,-3.85547 0.002,-0.002 z m 0,4.000001 -0.48828,0.271484 c -0.68769,0.380652 -0.68769,1.369348 0,1.75 l 9.0000004,5 c 0.30239,0.168279 0.67028,0.168279 0.97266,0 l 9,-5 c 0.68769,-0.380652 0.68769,-1.369348 0,-1.75 l -0.48828,-0.271484 -2.06055,1.144531 0.002,0.002 -6.93945,3.855469 -6.9394504,-3.855469 0.002,-0.002 z" />
    </symbol>
    <symbol id="regularOnomastics">
        <path d="m 11.49609,3 a 0.5,0.5 0 0 0 -0.1543,0.025391 0.5,0.5 0 0 0 -0.3164,0.6328125 L 12.13867,7 H 6 C 4.3553,7 3,8.3553022 3,10 v 10 c 0,1.644697 1.3553,3 3,3 h 14 c 1.64469,0 3,-1.355303 3,-3 V 10 C 23,8.3553022 21.64469,7 20,7 H 14.86133 L 15.97461,3.6582031 A 0.5,0.5 0 0 0 15.65821,3.0253906 0.5,0.5 0 0 0 15.02539,3.3417969 L 13.80664,7 H 13.19336 L 11.97461,3.3417969 A 0.5,0.5 0 0 0 11.49609,3 Z M 6,9.0000002 h 6.80664 l 0.21875,0.658203 a 0.50005,0.50005 0 0 0 0.94922,0 l 0.21875,-0.658203 H 20 c 0.57129,0 1,0.428704 1,0.9999998 v 10 c 0,0.571295 -0.42871,1 -1,1 H 6 C 5.4287,21 5,20.571295 5,20 V 10 C 5,9.4287042 5.4287,9.0000002 6,9.0000002 Z M 10,10 c -1.64501,0 -3,1.354996 -3,3 0,1.645004 1.35499,3 3,3 1.645,0 3,-1.354996 3,-3 0,-1.645004 -1.355,-3 -3,-3 z m 0,2 c 0.56412,0 1,0.435873 1,1 0,0.564127 -0.43588,1 -1,1 -0.56413,0 -1,-0.435873 -1,-1 0,-0.564127 0.43587,-1 1,-1 z m 5.5,0 A 0.5,0.5 0 0 0 15,12.5 0.5,0.5 0 0 0 15.5,13 h 4 A 0.5,0.5 0 0 0 20,12.5 0.5,0.5 0 0 0 19.5,12 Z m 0,3 A 0.5,0.5 0 0 0 15,15.5 0.5,0.5 0 0 0 15.5,16 h 4 A 0.5,0.5 0 0 0 20,15.5 0.5,0.5 0 0 0 19.5,15 Z m -7.56055,1.001953 a 1,1 0 0 0 -0.25586,0.04883 1,1 0 0 0 -0.57812,0.501953 l -1,2 A 1.0001,1.0001 0 0 0 7,20 h 6 a 1.0001,1.0001 0 0 0 0.89453,-1.447266 l -1,-2 a 1,1 0 0 0 -1.3418,-0.447265 1,1 0 0 0 -0.44726,1.341797 L 11.38281,18 H 8.61718 L 8.89453,17.447266 A 1,1 0 0 0 8.44726,16.105469 1,1 0 0 0 7.93945,16.001953 Z M 15.5,18 A 0.5,0.5 0 0 0 15,18.5 0.5,0.5 0 0 0 15.5,19 h 4 A 0.5,0.5 0 0 0 20,18.5 0.5,0.5 0 0 0 19.5,18 Z" />
    </symbol>
    <symbol id="regularProject">
        <path d="m 13,3 c -3.85414,0 -7,3.145863 -7,7 0,2.376631 1.19383,4.487726 3.01367,5.751953 0.54445,0.436331 0.7501,0.770565 0.85938,1.072266 C 9.99011,17.147405 10,17.5 10,18 v 1 a 1.0001,1.0001 0 0 0 1,1 h 4 a 1.0001,1.0001 0 0 0 1,-1 v -1 c 0,-0.5 0.0109,-0.850317 0.12891,-1.171875 0.11798,-0.321558 0.34171,-0.681477 0.98828,-1.166016 a 1,1 0 0 0 0.0391,-0.0332 C 18.8803,14.353468 20.00004,12.302083 20.00004,10 c 0,-3.8541371 -3.14586,-7 -7,-7 z m 0,2 c 2.77326,0 5,2.2267401 5,5 0,1.752641 -0.89449,3.281063 -2.25,4.175781 a 1,1 0 0 0 -0.23047,0.210938 C 14.88054,14.947735 14.46892,15.54203 14.25,16.138672 13.98844,16.851539 14,17.5 14,18 h -2 c 0,-0.5 0.01,-1.146185 -0.24805,-1.857422 -0.22012,-0.607729 -0.63868,-1.215082 -1.29296,-1.787109 a 1,1 0 0 0 -0.19532,-0.169922 c -0.018,-0.01178 -0.0349,-0.02511 -0.0527,-0.03711 -0.0348,-0.02745 -0.0696,-0.05478 -0.10547,-0.08203 a 1,1 0 0 0 -0.0586,-0.0332 C 8.80622,13.123782 8.00002,11.66328 8.00002,10 c 0,-2.77326 2.22674,-5 5,-5 z m -1.26172,1.2265625 a 0.5,0.5 0 0 0 -0.15234,0.03125 C 10.07285,6.8293674 9,8.2929691 9,10 c 0,0.704669 0.1843,1.37106 0.50586,1.947266 a 0.5,0.5 0 0 0 0.67969,0.193359 0.5,0.5 0 0 0 0.19336,-0.681641 C 10.13786,11.027052 10,10.531816 10,10 10,8.7116969 10.80705,7.6211137 11.93945,7.1933594 A 0.5,0.5 0 0 0 12.23047,6.5488281 0.5,0.5 0 0 0 11.73828,6.2265625 Z M 10.5,21 A 0.5,0.5 0 0 0 10,21.5 0.5,0.5 0 0 0 10.5,22 h 5 A 0.5,0.5 0 0 0 16,21.5 0.5,0.5 0 0 0 15.5,21 Z m 0,2 A 0.5,0.5 0 0 0 10,23.5 0.5,0.5 0 0 0 10.5,24 h 5 A 0.5,0.5 0 0 0 16,23.5 0.5,0.5 0 0 0 15.5,23 Z" />
    </symbol>
    <symbol id="regularSettings">
        <path d="m 12.989223,2 c -0.77665,0.00273 -1.54985,0.088105 -2.3086,0.2539062 A 1.0001,1.0001 0 0 0 9.9267225,3.4863281 c 0.0443,0.1674124 0.0666,0.3405102 0.0664,0.5136719 0,1.1148258 -0.88193,1.9955411 -1.99609,1.9980469 -0.54962,-0.00361 -1.0738,-0.2312556 -1.44922,-0.6328125 a 1.0001,1.0001 0 0 0 -1.44922,-0.011719 c -1.19897,1.2383038 -2.09002,2.740733 -2.60156,4.386719 a 1.0001,1.0001 0 0 0 0.80274,1.2851556 c 0.9814,0.151938 1.69276,0.98151 1.69335,1.974609 -5.9e-4,0.993099 -0.71195,1.822671 -1.69335,1.974609 a 1.0001,1.0001 0 0 0 -0.80274,1.285157 c 0.51154,1.645985 1.40259,3.148415 2.60156,4.386718 a 1.0001,1.0001 0 0 0 1.44922,-0.01172 c 0.37542,-0.401554 0.8996,-0.629206 1.44922,-0.632811 1.11416,0.0025 1.99609,0.883221 1.99609,1.998047 6e-5,0.172726 -0.0223,0.344728 -0.0664,0.511719 a 1.0001,1.0001 0 0 0 0.7519505,1.232422 c 0.75867,0.166522 1.53383,0.252418 2.31055,0.255859 a 1.0001,1.0001 0 0 0 0.008,0 c 0.77664,-0.0027 1.54985,-0.0881 2.30859,-0.253906 a 1.0001,1.0001 0 0 0 0.75391,-1.232422 c -0.0442,-0.167412 -0.0666,-0.340509 -0.0664,-0.513671 0,-1.115754 0.88257,-1.998959 1.99805,-2 0.55203,7.67e-4 1.07931,0.228292 1.45703,0.630859 a 1.0001,1.0001 0 0 0 1.44727,0.01172 c 1.203119,-1.243394 2.095429,-2.752951 2.605469,-4.40625 a 1.0001,1.0001 0 0 0 -0.80664,-1.283203 C 21.718493,14.806002 21.009903,13.985952 20.997233,13 c 0.0127,-0.985952 0.72126,-1.806003 1.697269,-1.953125 a 1.0001,1.0001 0 0 0 0.80664,-1.2812504 c -0.50913,-1.657339 -1.40208,-3.1717238 -2.607419,-4.4179684 a 1.0001,1.0001 0 0 0 -1.45118,0.013672 c -0.37567,0.4039893 -0.90155,0.6331736 -1.45312,0.6367187 -1.11417,-0.00251 -1.9961,-0.8832211 -1.9961,-1.9980469 -8e-5,-0.1745264 0.0233,-0.3489602 0.0684,-0.5175781 a 1.0001,1.0001 0 0 0 -0.75586,-1.234375 C 14.546193,2.0842616 13.770503,2.0004655 12.993363,2 a 1.0001,1.0001 0 0 0 -0.004,0 z m 0.004,2 h 0.004 c 0.34226,3.532e-4 0.67806,0.070153 1.01758,0.109375 0.0619,2.14459 1.81987,3.8906246 3.97852,3.8906246 a 1.0001,1.0001 0 0 0 0.006,0 c 0.67438,-0.0034 1.29943,-0.227752 1.87891,-0.546875 0.5037,0.628747 0.89976,1.321234 1.21875,2.060547 -1.2496,0.6782234 -2.09113,1.9921854 -2.10356,3.4785164 a 1.0001,1.0001 0 0 0 0,0.01562 c 0.0124,1.485694 0.85293,2.800034 2.10157,3.478516 -0.31907,0.736506 -0.71234,1.42823 -1.21485,2.054688 C 19.298563,18.222742 18.671173,18.000939 17.995383,18 a 1.0001,1.0001 0 0 0 -0.002,0 c -2.15718,0 -3.91242,1.74413 -3.97656,3.886719 -0.33985,0.04047 -0.67681,0.111778 -1.01953,0.113281 -0.34566,-0.0015 -0.68462,-0.07212 -1.02734,-0.113281 C 11.905853,19.74413 10.150573,18 7.9933825,18 a 1.0001,1.0001 0 0 0 -0.006,0 c -0.67199,0.0035 -1.29503,0.225845 -1.87304,0.542969 -0.50022,-0.623427 -0.8943,-1.310363 -1.21289,-2.042969 1.25231,-0.685379 2.0909,-2.007284 2.09179,-3.5 -8.9e-4,-1.492716 -0.83948,-2.814621 -2.09179,-3.5000004 0.31859,-0.732606 0.71267,-1.419542 1.21289,-2.042968 0.57801,0.317123 1.20105,0.539458 1.87305,0.542968 a 1.0001,1.0001 0 0 0 0.006,0 c 2.1571905,0 3.9124305,-1.7441293 3.9765705,-3.8867184 C 12.311093,4.0726602 12.649383,4.0013602 12.993393,4 Z m 0,4.9999996 c -2.19729,0 -4.0000005,1.8027104 -4.0000005,4.0000004 0,2.19729 1.8027105,4 4.0000005,4 2.19729,0 4,-1.80271 4,-4 0,-2.19729 -1.80271,-4.0000004 -4,-4.0000004 z m 0,2.0000004 c 1.11642,0 2,0.883588 2,2 0,1.116412 -0.88358,2 -2,2 -1.11641,0 -2,-0.883588 -2,-2 0,-1.116412 0.88359,-2 2,-2 z" />
    </symbol>
    <symbol id="regularShare">
        <path d="m 20,1.9999998 a 1,1 0 0 0 -0.70703,0.2929688 1,1 0 0 0 0,1.4140624 L 20.6543,5.0683592 C 18.00414,5.3304644 15.71749,6.3684535 14.04297,8.0429686 12.09094,9.994995 11,12.777784 11,16 a 1,1 0 0 0 1,1 1,1 0 0 0 1,-1 c 0,-2.777772 0.90907,-4.995003 2.45703,-6.542969 1.25611,-1.256107 2.95382,-2.0909571 5.03321,-2.3613281 l -1.19727,1.1972657 a 1,1 0 0 0 0,1.4140624 1,1 0 0 0 1.41406,0 l 3.000001,-3 a 1.0001,1.0001 0 0 0 0,-1.4140624 l -3.000001,-3 A 1,1 0 0 0 20,1.9999998 Z m -14,6 C 4.35531,7.9999998 3,9.3553083 3,11 v 9 c 0,1.644689 1.35531,3 3,3 h 14 c 1.64469,0 3.000001,-1.355311 3.000001,-3 v -9 c 0,-0.232972 -0.0287,-0.459408 -0.0801,-0.677734 L 20.99998,12.242188 V 20 c 0,0.571291 -0.42871,1 -1,1 h -14 c -0.57129,0 -1,-0.428709 -1,-1 v -9 c 0,-0.571291 0.42871,-1 1,-1 h 4.10156 c 0.48162,-0.7520015 0.97212,-1.4417217 1.51368,-2.0000002 z" />
    </symbol>
    <symbol id="regularUp">
        <path d="m 19.999855,9.999999 c -4e-5,-0.2652 -0.10542,-0.519525 -0.29297,-0.707031 l -6,-5.9999997 c -0.0858,-0.082808 -0.18564,-0.1496141 -0.29492,-0.1972657 -0.0351,-0.013734 -0.071,-0.025472 -0.10742,-0.035156 -0.0797,-0.026542 -0.16234,-0.042947 -0.24609,-0.048828 -0.0194,-0.00449 -0.0389,-0.0084 -0.0586,-0.011719 -0.0196,0.00332 -0.0392,0.00723 -0.0586,0.011719 -0.0838,0.00588 -0.16644,0.022286 -0.2461,0.048828 -0.0364,0.00968 -0.0723,0.021421 -0.10742,0.035156 -0.10928,0.047652 -0.20916,0.114458 -0.29492,0.1972657 l -6,5.9999997 c -0.39042,0.390507 -0.39042,1.023556 0,1.414063 0.39051,0.390423 1.02355,0.390423 1.41406,0 l 4.29296,-4.292969 V 22 c 0,0.552285 0.44772,1 1,1 0.55229,0 1,-0.447715 1,-1 V 6.414062 l 4.29297,4.292969 c 0.39051,0.390424 1.02356,0.390424 1.41406,0 0.18755,-0.187506 0.29293,-0.44183 0.29297,-0.707032 z" />
    </symbol>
</svg>