<?xml version="1.0" encoding="UTF-8" standalone="no"?>
<!-- Created with Inkscape (http://www.inkscape.org/) -->

<svg
   width="26"
   height="26"
   viewBox="0 0 26 26.000002"
   version="1.1"
   id="svg5"
   xmlns="http://www.w3.org/2000/svg"
   xmlns:svg="http://www.w3.org/2000/svg">
  <defs
     id="defs2" />
  <path
     id="path1642"
     style="color:#000000;fill:#000000;stroke-linecap:round;stroke-linejoin:round"
     d="M 12.832031 3.0136719 A 1.0001 1.0001 0 0 0 12.513672 3.125 L 3.5136719 8.125 A 1.0001 1.0001 0 0 0 3.5136719 9.875 L 12.513672 14.875 A 1.0001 1.0001 0 0 0 13.486328 14.875 L 22.486328 9.875 A 1.0001 1.0001 0 0 0 22.486328 8.125 L 13.486328 3.125 A 1.0001 1.0001 0 0 0 12.832031 3.0136719 z M 13 5.1445312 L 19.939453 9 L 13 12.855469 L 6.0605469 9 L 13 5.1445312 z M 4.0019531 11.853516 L 3.5136719 12.125 C 2.8259785 12.505652 2.8259785 13.494348 3.5136719 13.875 L 12.513672 18.875 C 12.816055 19.043279 13.183945 19.043279 13.486328 18.875 L 22.486328 13.875 C 23.174021 13.494348 23.174021 12.505652 22.486328 12.125 L 21.998047 11.853516 L 19.9375 12.998047 L 19.939453 13 L 13 16.855469 L 6.0605469 13 L 6.0625 12.998047 L 4.0019531 11.853516 z M 4.0019531 15.853516 L 3.5136719 16.125 C 2.8259785 16.505652 2.8259785 17.494348 3.5136719 17.875 L 12.513672 22.875 C 12.816055 23.043279 13.183945 23.043279 13.486328 22.875 L 22.486328 17.875 C 23.174021 17.494348 23.174021 16.505652 22.486328 16.125 L 21.998047 15.853516 L 19.9375 16.998047 L 19.939453 17 L 13 20.855469 L 6.0605469 17 L 6.0625 16.998047 L 4.0019531 15.853516 z " />
</svg>
