<?xml version="1.0" encoding="UTF-8" standalone="no"?>
<!-- Created with Inkscape (http://www.inkscape.org/) -->

<svg
   width="26"
   height="26"
   viewBox="0 0 26 26.000002"
   version="1.1"
   id="svg5"
   xml:space="preserve"
   xmlns="http://www.w3.org/2000/svg"
   xmlns:svg="http://www.w3.org/2000/svg"><defs
     id="defs2" /><path
     id="path4331"
     style="color:#000000;fill:#000000;stroke-linecap:round;stroke-linejoin:round;-inkscape-stroke:none;paint-order:fill markers stroke"
     d="M 13 3 C 8.5935755 3 5 6.5935755 5 11 C 5 13.27788 6.1052745 15.641041 7.5332031 17.865234 C 8.9611318 20.089429 10.748423 22.162487 12.292969 23.707031 A 1.0001 1.0001 0 0 0 13.707031 23.707031 C 15.251577 22.162487 17.038868 20.089429 18.466797 17.865234 C 19.894725 15.641041 21 13.27788 21 11 C 21 6.5935754 17.406425 3 13 3 z M 13 5 C 16.325547 5 19 7.6744536 19 11 C 19 12.588105 18.105269 14.725858 16.783203 16.785156 C 15.669299 18.520215 14.281091 20.066574 13 21.425781 C 11.718909 20.066574 10.330701 18.520215 9.2167969 16.785156 C 7.894731 14.725858 7 12.588105 7 11 C 7 7.6744536 9.6744536 5 13 5 z M 13 8 C 11.349072 8.0000003 9.9999999 9.3490713 10 11 C 10 12.650928 11.349072 14 13 14 C 14.650928 14 16 12.650928 16 11 C 16 9.3490713 14.650928 8.0000003 13 8 z M 13 9 C 14.11049 9.0000002 15 9.8895102 15 11 C 15 12.11049 14.11049 13 13 13 C 11.88951 13 11 12.11049 11 11 C 11 9.8895102 11.88951 9.0000002 13 9 z " /></svg>
