<?xml version="1.0" encoding="UTF-8" standalone="no"?>
<!-- Created with Inkscape (http://www.inkscape.org/) -->

<svg
   width="26"
   height="26"
   viewBox="0 0 26 26.000002"
   version="1.1"
   id="svg5"
   xmlns="http://www.w3.org/2000/svg"
   xmlns:svg="http://www.w3.org/2000/svg">
  <defs
     id="defs2" />
  <path
     id="path937"
     style="color:#000000;fill:#000000;stroke-linecap:round;stroke-linejoin:round;-inkscape-stroke:none"
     d="M 9 6 A 1 1 0 0 0 8.2929688 6.2929688 L 2.2929688 12.292969 A 1.0001 1.0001 0 0 0 2.0957031 12.587891 A 1 1 0 0 0 2.0605469 12.695312 A 1.0001 1.0001 0 0 0 2.0117188 12.941406 A 1 1 0 0 0 2 13 A 1 1 0 0 0 2.0117188 13.058594 A 1.0001 1.0001 0 0 0 2.0605469 13.304688 A 1 1 0 0 0 2.0957031 13.412109 A 1.0001 1.0001 0 0 0 2.2929688 13.707031 L 8.2929688 19.707031 A 1 1 0 0 0 9.7070312 19.707031 A 1 1 0 0 0 9.7070312 18.292969 L 5.4140625 14 L 23 14 A 1 1 0 0 0 24 13 A 1 1 0 0 0 23 12 L 5.4140625 12 L 9.7070312 7.7070312 A 1 1 0 0 0 9.7070312 6.2929688 A 1 1 0 0 0 9 6 z " />
</svg>
