<svg width="15" height="15" viewBox="0 0 15 15" version="1.1" xmlns="http://www.w3.org/2000/svg">
    <symbol id="smallCopy">
        <path d="m 3.5,2.0000002 c -0.8223498,0 -1.5,0.67765 -1.5,1.5 v 6 C 2,10.32235 2.6776502,11 3.5,11 h 6 C 10.32235,11 11,10.32235 11,9.5000002 v -6 c 0,-0.82235 -0.67765,-1.5 -1.5,-1.5 z m 0,1 h 6 c 0.285648,0 0.5,0.214352 0.5,0.5 v 6 C 10,9.7856482 9.785648,10 9.5,10 h -6 C 3.214352,10 3,9.7856482 3,9.5000002 v -6 c 0,-0.285648 0.214352,-0.5 0.5,-0.5 z M 12,4.0898442 V 5.5000002 10.765625 11.5 C 12,11.785648 11.785648,12 11.5,12 H 10.412109 5.5 4.0898438 C 4.2980891,12.579491 4.8529234,13 5.5,13 h 6 C 12.322349,13 13,12.322349 13,11.5 V 5.5000002 c 0,-0.647077 -0.420509,-1.201911 -1,-1.410156 z" />
    </symbol>
    <symbol id="smallDown">
        <path d="m 13.853441,4.1464092 a 0.5,0.5 0 0 0 -0.707031,0 l -5.6464853,5.646484 -5.646484,-5.646484 a 0.5,0.5 0 0 0 -0.707032,0 0.5,0.5 0 0 0 0,0.707031 l 6.000001,6.0000008 a 0.50005,0.50005 0 0 0 0.707031,0 L 13.853441,4.8534402 a 0.5,0.5 0 0 0 0,-0.707031 z" />
    </symbol>
    <symbol id="smallInfo">
        <path d="m 7.5,2.0000002 c -0.822503,0 -1.5,0.677497 -1.5,1.5 0,0.822503 0.677497,1.5 1.5,1.5 0.822503,0 1.5,-0.677497 1.5,-1.5 0,-0.822503 -0.677497,-1.5 -1.5,-1.5 z m 0,1 c 0.282064,0 0.5,0.217936 0.5,0.5 0,0.282064 -0.217936,0.5 -0.5,0.5 -0.282064,0 -0.5,-0.217936 -0.5,-0.5 0,-0.282064 0.217936,-0.5 0.5,-0.5 z m 0,3 c -0.82235,0 -1.5,0.67765 -1.5,1.5 V 11.5 C 6,12.32235 6.67765,13 7.5,13 8.32235,13 9,12.32235 9,11.5 V 7.5000002 c 0,-0.82235 -0.67765,-1.5 -1.5,-1.5 z m 0,1 c 0.285648,0 0.5,0.214352 0.5,0.5 V 11.5 C 8,11.785648 7.785648,12 7.5,12 7.214352,12 7,11.785648 7,11.5 V 7.5000002 c 0,-0.285648 0.214352,-0.5 0.5,-0.5 z" />
    </symbol>
    <symbol id="smallMore">
        <path d="m 4.1464092,1.1464092 a 0.5,0.5 0 0 0 0,0.707032 l 5.646485,5.646484 -5.646485,5.6464838 a 0.5,0.5 0 0 0 0,0.707032 0.5,0.5 0 0 0 0.707032,0 L 10.853441,7.8534412 a 0.50005,0.50005 0 0 0 0,-0.707032 l -5.9999998,-6 a 0.5,0.5 0 0 0 -0.707032,0 z" />
    </symbol>
    <symbol id="smallWeb">
        <path d="m 7.5,1.0000002 c -3.583921,0 -6.5,2.916079 -6.5,6.5 C 1,11.083921 3.916079,14 7.5,14 11.083921,14 14,11.083921 14,7.5000002 c 0,-3.583921 -2.916079,-6.5 -6.5,-6.5 z m 0,1 c 0.170281,0 0.337628,0.01034 0.503906,0.02539 a 0.5,0.5 0 0 0 0.05078,0.201172 c 0.386252,0.760988 0.665494,1.681906 0.841798,2.673828 -0.461775,-0.04168 -0.929355,-0.06445 -1.396485,-0.06445 -0.459237,0 -0.918897,0.02222 -1.373047,0.0625 0.176325,-0.991199 0.455791,-1.911371 0.841797,-2.671875 a 0.5,0.5 0 0 0 0.05273,-0.203125 c 0.158044,-0.01358 0.316882,-0.02344 0.478516,-0.02344 z m -1.646484,0.248047 c -0.367064,0.842494 -0.630935,1.789195 -0.794922,2.783203 -1.000266,0.16314 -1.952909,0.428546 -2.800781,0.796875 0.541039,-1.704881 1.887127,-3.047278 3.595703,-3.580078 z m 3.318359,0.0098 c 1.696185,0.538275 3.032033,1.874123 3.570313,3.570308 C 11.900936,5.4626722 10.956571,5.1986132 9.964844,5.0351562 9.801536,4.0434382 9.537274,3.0990532 9.171875,2.2578132 Z M 7.5,5.8789362 c 0.518123,0 1.035122,0.02727 1.542969,0.07813 0.101718,1.015694 0.101718,2.070244 0,3.085938 -1.007823,0.10093 -2.05405,0.103272 -3.0625,0.0039 -0.102235,-1.018166 -0.102235,-2.075584 0,-3.09375 0.500287,-0.0493 1.009438,-0.07422 1.519531,-0.07422 z m -2.578125,0.220704 c -0.08373,0.926086 -0.08373,1.874694 0,2.800781 C 3.921736,8.7243712 2.99305,8.4437602 2.226563,8.0547182 a 0.5,0.5 0 0 0 -0.201172,-0.05078 c -0.01505,-0.166278 -0.02539,-0.333625 -0.02539,-0.503906 0,-0.17028 0.01034,-0.337628 0.02539,-0.503906 a 0.5,0.5 0 0 0 0.201172,-0.05078 C 2.99305,6.5563032 3.921736,6.2756922 4.921875,6.0996432 Z m 5.177734,0.0039 c 0.991922,0.176303 1.91284,0.455545 2.673829,0.841796 a 0.5,0.5 0 0 0 0.201171,0.05078 c 0.01505,0.166275 0.02539,0.333623 0.02539,0.503903 0,0.170281 -0.01034,0.337628 -0.02539,0.503906 a 0.5,0.5 0 0 0 -0.201171,0.05078 c -0.760989,0.386252 -1.681907,0.665493 -2.673829,0.841797 0.08326,-0.923565 0.08326,-1.869404 0,-2.792969 z m -7.841796,3.068355 c 0.847861,0.368275 1.800523,0.633885 2.800781,0.796875 C 5.222581,10.962778 5.486452,11.909479 5.853516,12.751973 4.14494,12.219173 2.798852,10.876776 2.257813,9.1718952 Z m 10.484375,0 C 12.203908,10.86808 10.86806,12.203928 9.171875,12.742208 9.537274,11.900967 9.801536,10.956582 9.964844,9.9648642 c 0.991718,-0.163308 1.936103,-0.42757 2.777344,-0.792969 z M 8.896485,10.099629 c -0.176304,0.991922 -0.455546,1.91284 -0.841797,2.673829 a 0.5,0.5 0 0 0 -0.05078,0.201171 c -0.166279,0.01505 -0.333626,0.02539 -0.503907,0.02539 -0.161634,0 -0.320472,-0.0099 -0.478515,-0.02344 A 0.5,0.5 0 0 0 6.968756,12.773455 C 6.582744,12.012933 6.303278,11.092762 6.126953,10.101562 c 0.91612,0.08116 1.853769,0.08061 2.769532,-0.002 z" />
    </symbol>
    <symbol id="smallWildcard">
        <path d="m 9.5,2.0000002 a 0.5,0.5 0 0 0 -0.5,0.5 v 2.632813 L 6.71875,3.8164062 A 0.5,0.5 0 0 0 6.035156,4.0000002 0.5,0.5 0 0 0 6.21875,4.6835942 L 8.5,6.0000002 6.21875,7.3164062 A 0.5,0.5 0 0 0 6.035156,8.0000002 0.5,0.5 0 0 0 6.71875,8.1835942 L 9,6.8671882 v 2.632812 A 0.5,0.5 0 0 0 9.5,10 0.5,0.5 0 0 0 10,9.5000002 v -2.632812 l 2.28125,1.316406 A 0.5,0.5 0 0 0 12.964844,8.0000002 0.5,0.5 0 0 0 12.78125,7.3164062 L 10.5,6.0000002 12.78125,4.6835942 a 0.5,0.5 0 0 0 0.183594,-0.683594 0.5,0.5 0 0 0 -0.304688,-0.232422 0.5,0.5 0 0 0 -0.378906,0.04883 L 10,5.1328152 v -2.632813 a 0.5,0.5 0 0 0 -0.5,-0.5 z m -7,7 a 0.50005,0.50005 0 0 0 -0.5,0.5 V 12.5 A 0.50005,0.50005 0 0 0 2.5,13 h 3 A 0.50005,0.50005 0 0 0 6,12.5 V 9.5000002 a 0.50005,0.50005 0 0 0 -0.5,-0.5 z M 3,10 h 2 v 2 H 3 Z" />
    </symbol>
</svg>