<svg width="26" height="26" viewBox="0 0 26 26" version="1.1" xmlns="http://www.w3.org/2000/svg">
    <symbol id="socialFacebook">
        <path d="M 10.75,9.333333 H 8 V 13 h 2.75 v 11 h 4.583333 V 13 h 3.3385 L 19,9.333333 H 15.333333 V 7.80525 c 0,-0.875417 0.176,-1.221917 1.022084,-1.221917 H 19 V 2 H 15.509333 C 12.213,2 10.75,3.451083 10.75,6.230416 Z" />
    </symbol>
    <symbol id="socialFeed">
        <path d="m 7.9971111,3 c -1.094906,0 -2.16336,0.118346 -3.193359,0.341797 A 1,1 0 0 0 4.0381271,4.53125 1,1 0 0 0 5.2275801,5.294922 C 6.1194701,5.101433 7.0452661,5 7.9971111,5 15.188643,5 20.997111,10.808468 20.997111,18 c 0,0.953951 -0.102553,1.88168 -0.296875,2.775391 a 1,1 0 0 0 0.765625,1.189453 1,1 0 0 0 1.189453,-0.763672 C 22.879728,20.169068 22.997111,19.097329 22.997111,18 c 0,-8.27241 -6.72759,-15 -14.9999999,-15 z m 0,4 c -1.135496,0 -2.234587,0.173253 -3.267578,0.49414 a 1,1 0 0 0 -0.658203,1.251954 1,1 0 0 0 1.251953,0.658203 C 6.1670911,9.142176 7.0640361,9 7.9971111,9 c 4.9823969,0 8.9999999,4.017603 8.9999999,9 0,0.94757 -0.146013,1.857659 -0.416016,2.712891 a 1,1 0 0 0 0.652344,1.253906 1,1 0 0 0 1.25586,-0.652344 C 18.819835,20.26748 18.997111,19.153134 18.997111,18 c 0,-6.063275 -4.936725,-11 -10.9999999,-11 z m 0,4 c -1.269941,0 -2.468919,0.340865 -3.498047,0.935547 a 1,1 0 0 0 -0.365234,1.365234 1,1 0 0 0 1.365234,0.367188 C 6.2338861,13.243352 7.0833201,13 7.9971111,13 c 2.7732619,0 4.9999999,2.226738 4.9999999,5 0,0.916052 -0.24335,1.765892 -0.669922,2.501953 a 1,1 0 0 0 0.363281,1.367188 1,1 0 0 0 1.367188,-0.363282 C 14.655066,20.475016 14.997111,19.273082 14.997111,18 c 0,-3.85414 -3.14586,-7 -6.9999999,-7 z m 0,4 a 3,3 0 0 0 -3,3 3,3 0 0 0 3,3 3,3 0 0 0 2.9999999,-3 3,3 0 0 0 -2.9999999,-3 z" />
    </symbol>
    <symbol id="socialGitlab">
        <path d="M 22.6678,11.285421 22.63971,11.213591 19.917355,4.109063 A 0.70919411,0.70919411 0 0 0 19.637178,3.77155 0.72902821,0.72902821 0 0 0 18.804062,3.81647 0.72902821,0.72902821 0 0 0 18.562387,4.183067 l -1.837985,5.62355 H 9.2815305 L 7.4433765,4.183064 a 0.71444432,0.71444432 0 0 0 -0.241676,-0.367681 0.72902821,0.72902821 0 0 0 -0.833116,-0.04475 0.71544435,0.71544435 0 0 0 -0.280177,0.33743 l -2.727356,7.101362 -0.02708,0.07184 a 5.0549457,5.0549457 0 0 0 1.676648,5.84231 l 0.0094,0.0072 0.025,0.01776 4.146827,3.105452 2.0517455,1.552811 1.249632,0.943453 a 0.84044919,0.84044919 0 0 0 1.016456,0 l 1.249632,-0.943453 2.051663,-1.552811 4.171827,-3.124203 0.01045,-0.0083 a 5.057029,5.057029 0 0 0 1.674565,-5.836059 z" />
    </symbol>
    <symbol id="socialLinkedin">
        <path d="m 7.149997,4.888333 c 0,1.150833 -0.925,2.083333 -2.066666,2.083333 -1.141667,0 -2.066667,-0.9325 -2.066667,-2.083333 0,-1.15 0.925,-2.083333 2.066667,-2.083333 1.141666,0 2.066666,0.933333 2.066666,2.083333 z m 0.01667,3.75 H 3 v 13.333332 h 4.166667 z m 6.651666,0 H 9.678334 v 13.333332 h 4.140832 v -6.999166 c 0,-3.891667 5.024167,-4.21 5.024167,0 v 6.999166 H 23 v -8.442499 c 0,-6.566666 -7.435,-6.3275 -9.181667,-3.095 z" />
    </symbol>
    <symbol id="socialPinterest">
        <path d="M 13,3 C 7.4775,3 3,7.476667 3,13 c 0,4.236666 2.63583,7.855 6.35583,9.311666 -0.0875,-0.790833 -0.16666,-2.004166 0.035,-2.8675 0.18167,-0.780833 1.1725,-4.970833 1.1725,-4.970833 0,0 -0.29916,-0.599167 -0.29916,-1.485 0,-1.39 0.80583,-2.428333 1.80916,-2.428333 0.8525,0 1.265,0.640833 1.265,1.408333 0,0.8575 -0.54583,2.14 -0.82833,3.329167 -0.23583,0.995 0.49917,1.8075 1.48083,1.8075 1.7775,0 3.14334,-1.874167 3.14334,-4.579167 0,-2.394166 -1.72,-4.068333 -4.17667,-4.068333 -2.845,0 -4.515,2.134167 -4.515,4.339167 0,0.859166 0.33083,1.781666 0.74417,2.281666 0.0817,0.09917 0.0933,0.186667 0.0692,0.2875 l -0.2775,1.133333 c -0.0442,0.183334 -0.145,0.2225 -0.335,0.134167 -1.24916,-0.581667 -2.03,-2.4075 -2.03,-3.874166 0,-3.154167 2.29167,-6.051667 6.6075,-6.051667 3.46917,0 6.165,2.4725 6.165,5.775833 0,3.446667 -2.1725,6.22 -5.18916,6.22 -1.01334,0 -1.96584,-0.525833 -2.29167,-1.148333 l -0.62333,2.3775 c -0.22584,0.869166 -0.835,1.958333 -1.24334,2.621666 C 10.97504,22.843333 11.96921,23 13.00004,23 c 5.5225,0 10,-4.4775 10,-10 0,-5.523333 -4.4775,-10 -10,-10 z" />
    </symbol>
    <symbol id="socialPocket">
        <path d="M 4.77448,4 C 3.68475,4.07102 3.025,4.693107 3.025,5.799577 v 6.626299 c 0,5.382042 5.35282,9.611657 9.98331,9.578262 C 18.21497,21.966558 23.025,17.569904 23.025,12.425876 V 5.799577 C 23.025,4.688941 22.32354,4.062625 21.22545,4 Z m 4.21713,5.390396 4.01671,3.816272 4.02087,-3.816272 c 1.79956,-0.755729 2.58452,1.298548 1.84548,1.899802 l -5.23586,4.997866 c -0.17119,0.16287 -1.0856,0.16287 -1.25676,0 L 7.14613,11.290158 C 6.44046,10.62628 7.35904,8.538607 8.99161,9.390396 Z" />
    </symbol>
    <symbol id="socialReddit">
        <path d="m 23.9995,11.664079 c 0,-1.337416 -1.09266,-2.424583 -2.43558,-2.424583 -0.65542,0 -1.24942,0.262167 -1.68667,0.683833 C 18.21809,8.83158 15.97317,8.136747 13.48717,8.04783 l 1.35942,-4.279917 3.68133,0.862584 -0.005,0.05317 c 0,1.093583 0.89375,1.98275 1.99283,1.98275 1.09817,0 1.991,-0.889167 1.991,-1.98275 C 22.50675,3.590083 21.613,2.7 20.51575,2.7 c -0.84333,0 -1.562,0.526167 -1.85258,1.264083 L 14.69492,3.033667 c -0.17325,-0.04217 -0.34925,0.05775 -0.40333,0.22825 L 12.77542,8.035 C 10.17392,8.06617 7.81717,8.766499 6.08375,9.891249 5.64925,9.489749 5.07267,9.238583 4.43467,9.238583 3.09175,9.238583 2,10.326666 2,11.664082 c 0,0.889167 0.48859,1.660084 1.20725,2.08175 -0.0477,0.2585 -0.0788,0.51975 -0.0788,0.785584 0,3.585083 4.40733,6.501916 9.82575,6.501916 5.41842,0 9.82667,-2.916833 9.82667,-6.501916 0,-0.251167 -0.0266,-0.498667 -0.0687,-0.7425 0.76266,-0.40975 1.28791,-1.202667 1.28791,-2.124834 z M 8.21084,13.328746 c 0,-0.795667 0.65083,-1.44375 1.45016,-1.44375 0.79934,0 1.44925,0.648083 1.44925,1.44375 0,0.795667 -0.64991,1.442833 -1.44925,1.442833 -0.79933,0 -1.45016,-0.647166 -1.45016,-1.442833 z m 8.30591,4.279917 c -0.73058,0.726916 -1.87733,1.08075 -3.50533,1.08075 l -0.0119,-0.0027 -0.0119,0.0027 c -1.62892,0 -2.77567,-0.353834 -3.50533,-1.08075 -0.13292,-0.132 -0.13292,-0.347417 0,-0.479417 0.13291,-0.132917 0.34925,-0.132917 0.48216,0 0.59584,0.593083 1.58492,0.880917 3.02317,0.880917 l 0.0119,0.0027 0.0119,-0.0027 c 1.43825,0 2.42733,-0.28875 3.02317,-0.881834 0.13291,-0.132916 0.34925,-0.132 0.48216,0 0.13292,0.132917 0.13292,0.347417 0,0.480334 z M 16.3435,14.771579 c -0.79933,0 -1.44925,-0.647166 -1.44925,-1.442833 0,-0.795667 0.64992,-1.44375 1.44925,-1.44375 0.79934,0 1.44925,0.648083 1.44925,1.44375 0,0.795667 -0.64991,1.442833 -1.44925,1.442833 z" />
    </symbol>
    <symbol id="socialTelegram">
        <path d="m 22.242538,4.502709 c -0.0615,0.0054 -0.12215,0.01892 -0.18165,0.04102 -3.66878,1.357966 -14.9678002,5.597808 -19.5859302,7.30664 -0.29312,0.108497 -0.48424,0.390351 -0.47461,0.699219 0.0105,0.309743 0.21941,0.577846 0.51953,0.667969 2.07107,0.619484 4.78906,1.482422 4.78906,1.482422 0,0 1.27124,3.835908 1.93359,5.787109 0.0831,0.244995 0.27448,0.437408 0.52735,0.503906 0.2519902,0.06563 0.5208602,-0.0021 0.7089802,-0.179687 1.06398,-1.004475 2.70899,-2.558594 2.70899,-2.558594 0,0 3.12573,2.292093 4.89844,3.554688 0.28174,0.199493 0.645,0.24945 0.96875,0.126953 0.32374,-0.123372 0.56106,-0.39926 0.63281,-0.734375 0.76035,-3.573412 2.60477,-12.618596 3.29687,-15.869141 0.0525,-0.244994 -0.0341,-0.500441 -0.22656,-0.664062 -0.14437,-0.122716 -0.33114,-0.180386 -0.51562,-0.164063 z m -3.23047,3.027344 c 0.067,0.0051 0.13198,0.03715 0.17578,0.09375 0.0788,0.100623 0.0672,0.24433 -0.0273,0.330078 -3.23567,2.918053 -8.91211,8.039063 -8.91211,8.039063 L 9.9222678,19.061303 8.4535178,14.2156 c 0,0 6.6560902,-4.251668 10.4062502,-6.646484 0.0269,-0.01706 0.0561,-0.02935 0.0859,-0.03516 0.0223,-0.0044 0.0441,-0.0056 0.0664,-0.0039 z" />
    </symbol>
    <symbol id="socialTwitter">
        <path d="m 24.15,6.520375 c -0.77263,0.343 -1.603,0.574 -2.4745,0.678125 C 22.56537,6.665625 23.24875,5.82125 23.56987,4.815 22.73775,5.3085 21.8155,5.66725 20.83375,5.860625 20.04887,5.02325 18.928,4.5 17.689,4.5 14.90737,4.5 12.86337,7.09525 13.49162,9.789375 9.912,9.61 6.7375,7.895 4.61212,5.288375 3.48337,7.22475 4.02675,9.757875 5.94475,11.040625 5.2395,11.017875 4.5745,10.8245 3.99437,10.501625 c -0.0472,1.995875 1.38338,3.863125 3.45538,4.27875 -0.60638,0.1645 -1.2705,0.203 -1.946,0.0735 0.54775,1.7115 2.1385,2.956625 4.025,2.991625 C 7.7175,19.265625 5.4355,19.9 3.15,19.6305 c 1.90662,1.222375 4.172,1.9355 6.6045,1.9355 7.99925,0 12.51862,-6.755875 12.24562,-12.81525 C 22.84187,8.142625 23.5725,7.384 24.15,6.520375 Z" />
    </symbol>
    <symbol id="socialWhatsapp">
        <path d="M 3,23.095453 4.41255,17.935108 C 3.54091,16.4246 3.0829,14.7123 3.08373,12.95646 3.08673,7.467052 7.5533,3 13.04187,3 c 2.66348,8.38e-4 5.16369,1.038266 7.04429,2.92054 1.87976,1.882274 2.91468,4.384157 2.91384,7.04513 -0.002,5.490245 -4.46956,9.957297 -9.95813,9.957297 -1.66625,-8.37e-4 -3.30822,-0.418655 -4.76262,-1.212426 z m 5.52374,-3.187641 c 1.40333,0.833124 2.74303,1.332161 4.51478,1.332998 4.56167,0 8.27765,-3.712635 8.28016,-8.276815 0.002,-4.573389 -3.69672,-8.281 -8.27346,-8.282675 -4.56502,0 -8.27849,3.712635 -8.28017,8.275977 -8.3e-4,1.863016 0.54509,3.257975 1.46195,4.717407 l -0.83648,3.054509 z m 9.53446,-4.575065 c -0.062,-0.103827 -0.22775,-0.165788 -0.47727,-0.290547 -0.24868,-0.124759 -1.47199,-0.726785 -1.70058,-0.809679 -0.22775,-0.08289 -0.39353,-0.124759 -0.56016,0.124759 -0.16579,0.248681 -0.64305,0.809679 -0.78791,0.975467 -0.14485,0.165787 -0.29055,0.18672 -0.53923,0.06196 -0.24868,-0.124758 -1.05082,-0.386837 -2.00117,-1.235032 -0.73934,-0.659801 -1.23922,-1.474504 -1.38407,-1.724023 -0.14486,-0.24868 -0.0151,-0.383487 0.10885,-0.507409 0.1122,-0.111363 0.24868,-0.290548 0.37344,-0.43624 0.12643,-0.144017 0.16746,-0.247844 0.25119,-0.414468 0.0829,-0.165788 0.0419,-0.31148 -0.0209,-0.436239 C 11.25759,10.517374 10.76023,9.292389 10.55341,8.794189 10.35078,8.309387 10.14564,8.374697 9.99325,8.367161 l -0.47727,-0.0084 c -0.16578,0 -0.4354,0.06196 -0.66315,0.31148 -0.22775,0.249518 -0.8708,0.850707 -0.8708,2.075692 0,1.224986 0.89174,2.408105 1.01566,2.573892 0.12476,0.165788 1.75416,2.679394 4.25019,3.757013 0.59365,0.256217 1.05752,0.409445 1.4184,0.524156 0.59617,0.189232 1.13874,0.162438 1.56745,0.0988 0.4781,-0.07117 1.47199,-0.602026 1.67964,-1.18312 0.20765,-0.581931 0.20765,-1.080131 0.14486,-1.183957 z" />
    </symbol>
</svg>