<?xml version="1.0" encoding="UTF-8" standalone="no"?>
<!-- Created with Inkscape (http://www.inkscape.org/) -->

<svg
   width="26"
   height="26"
   viewBox="0 0 26 26.000002"
   version="1.1"
   id="svg5"
   xmlns="http://www.w3.org/2000/svg"
   xmlns:svg="http://www.w3.org/2000/svg">
  <defs
     id="defs2" />
  <path
     id="path427"
     style="color:#000000;fill:#000000;stroke-linecap:round;stroke-linejoin:round;-inkscape-stroke:none;paint-order:stroke markers fill"
     d="M 12.996094 2 C 12.219448 2.00273 11.446246 2.0881051 10.6875 2.2539062 A 1.0001 1.0001 0 0 0 9.9335938 3.4863281 C 9.9778448 3.6537405 10.000167 3.8268383 10 4 C 10 5.1148258 9.11807 5.9955411 8.0039062 5.9980469 C 7.4542876 5.9944418 6.9301025 5.7667913 6.5546875 5.3652344 A 1.0001 1.0001 0 0 0 5.1054688 5.3535156 C 3.9064921 6.5918194 3.015446 8.0942489 2.5039062 9.7402344 A 1.0001 1.0001 0 0 0 3.3066406 11.025391 C 4.2880484 11.177329 4.9994074 12.006901 5 13 C 4.9994074 13.993099 4.2880484 14.822671 3.3066406 14.974609 A 1.0001 1.0001 0 0 0 2.5039062 16.259766 C 3.015446 17.905751 3.9064921 19.408181 5.1054688 20.646484 A 1.0001 1.0001 0 0 0 6.5546875 20.634766 C 6.9301025 20.23321 7.4542876 20.005558 8.0039062 20.001953 C 9.11807 20.004459 10 20.885174 10 22 C 10.000054 22.172726 9.9777327 22.344728 9.9335938 22.511719 A 1.0001 1.0001 0 0 0 10.685547 23.744141 C 11.444216 23.910663 12.219372 23.996559 12.996094 24 A 1.0001 1.0001 0 0 0 13.003906 24 C 13.780552 23.9973 14.553754 23.9119 15.3125 23.746094 A 1.0001 1.0001 0 0 0 16.066406 22.513672 C 16.022167 22.346259 15.999833 22.173162 16 22 C 16 20.884246 16.882567 20.001041 17.998047 20 C 18.550073 20.000767 19.077358 20.228292 19.455078 20.630859 A 1.0001 1.0001 0 0 0 20.902344 20.642578 C 22.105467 19.399184 22.997778 17.889627 23.507812 16.236328 A 1.0001 1.0001 0 0 0 22.701172 14.953125 C 21.725162 14.806002 21.016575 13.985952 21.003906 13 C 21.016576 12.014048 21.725162 11.193997 22.701172 11.046875 A 1.0001 1.0001 0 0 0 23.507812 9.765625 C 22.998688 8.108286 22.105734 6.5939008 20.900391 5.3476562 A 1.0001 1.0001 0 0 0 19.449219 5.3613281 C 19.073545 5.7653175 18.547667 5.9945018 17.996094 5.9980469 C 16.88193 5.9955411 16 5.1148258 16 4 C 15.999918 3.8254736 16.023329 3.6510398 16.068359 3.4824219 A 1.0001 1.0001 0 0 0 15.3125 2.2480469 C 14.552821 2.0842616 13.777135 2.0004655 13 2 A 1.0001 1.0001 0 0 0 12.996094 2 z M 13 4 L 13.003906 4 C 13.346164 4.0003532 13.681957 4.070153 14.021484 4.109375 C 14.083348 6.253965 15.841349 8 18 8 A 1.0001 1.0001 0 0 0 18.005859 8 C 18.680238 7.99657 19.305281 7.7722478 19.884766 7.453125 C 20.388465 8.0818713 20.78452 8.7743586 21.103516 9.5136719 C 19.853951 10.191895 19.012427 11.505857 19 12.992188 A 1.0001 1.0001 0 0 0 19 13.007812 C 19.01242 14.493506 19.852927 15.807846 21.101562 16.486328 C 20.782499 17.222834 20.389223 17.914558 19.886719 18.541016 C 19.305137 18.222742 18.677749 18.000939 18.001953 18 A 1.0001 1.0001 0 0 0 18 18 C 15.842811 18 14.087574 19.74413 14.023438 21.886719 C 13.683588 21.927186 13.346621 21.998497 13.003906 22 C 12.658241 21.998469 12.319288 21.927885 11.976562 21.886719 C 11.912425 19.74413 10.157189 18 8 18 A 1.0001 1.0001 0 0 0 7.9941406 18 C 7.3221473 18.003511 6.6991043 18.225845 6.1210938 18.542969 C 5.6208726 17.919542 5.226795 17.232606 4.9082031 16.5 C 6.16052 15.814621 6.9991093 14.492716 7 13 C 6.9991093 11.507284 6.16052 10.185379 4.9082031 9.5 C 5.226795 8.7673938 5.6208726 8.0804575 6.1210938 7.4570312 C 6.6991043 7.7741549 7.3221467 7.9964892 7.9941406 8 A 1.0001 1.0001 0 0 0 8 8 C 10.157189 8 11.912425 6.2558703 11.976562 4.1132812 C 12.317697 4.0726607 12.655983 4.0013602 13 4 z M 13 9 C 10.80271 9 9 10.80271 9 13 C 9 15.19729 10.80271 17 13 17 C 15.19729 17 17 15.19729 17 13 C 17 10.80271 15.19729 9 13 9 z M 13 11 C 14.116412 11 15 11.883588 15 13 C 15 14.116412 14.116412 15 13 15 C 11.883588 15 11 14.116412 11 13 C 11 11.883588 11.883588 11 13 11 z " />
</svg>
