<?xml version="1.0" encoding="UTF-8" standalone="no"?>
<!-- Created with Inkscape (http://www.inkscape.org/) -->

<svg
   width="15"
   height="15"
   viewBox="0 0 15 15.000001"
   version="1.1"
   id="svg5"
   xmlns="http://www.w3.org/2000/svg"
   xmlns:svg="http://www.w3.org/2000/svg">
  <defs
     id="defs2" />
  <path
     id="path291"
     style="color:#000000;fill:#000000;stroke-linecap:round;stroke-linejoin:round;-inkscape-stroke:none"
     d="M 7.5 2 C 6.6774968 2 6 2.6774968 6 3.5 C 6 4.3225032 6.6774968 5 7.5 5 C 8.3225032 5 9 4.3225032 9 3.5 C 9 2.6774968 8.3225032 2 7.5 2 z M 7.5 3 C 7.7820641 3 8 3.2179359 8 3.5 C 8 3.7820641 7.7820641 4 7.5 4 C 7.2179359 4 7 3.7820641 7 3.5 C 7 3.2179359 7.2179359 3 7.5 3 z M 7.5 6 C 6.6776502 6 6 6.6776502 6 7.5 L 6 11.5 C 6 12.32235 6.6776502 13 7.5 13 C 8.3223498 13 9 12.32235 9 11.5 L 9 7.5 C 9 6.6776502 8.3223498 6 7.5 6 z M 7.5 7 C 7.785648 7 8 7.214352 8 7.5 L 8 11.5 C 8 11.785648 7.785648 12 7.5 12 C 7.214352 12 7 11.785648 7 11.5 L 7 7.5 C 7 7.214352 7.214352 7 7.5 7 z " />
</svg>
