<?xml version="1.0" encoding="UTF-8" standalone="no"?>
<!-- Created with Inkscape (http://www.inkscape.org/) -->

<svg
   width="15"
   height="15"
   viewBox="0 0 15 15.000001"
   version="1.1"
   id="svg5"
   xmlns="http://www.w3.org/2000/svg"
   xmlns:svg="http://www.w3.org/2000/svg">
  <defs
     id="defs2" />
  <path
     id="path1173"
     style="color:#000000;fill:#000000;stroke-linecap:round;stroke-linejoin:round;-inkscape-stroke:none"
     d="M 7.5 1 C 3.9160786 1 1 3.9160786 1 7.5 C 1 11.083921 3.9160786 14 7.5 14 C 11.083921 14 14 11.083921 14 7.5 C 14 3.9160786 11.083921 1 7.5 1 z M 7.5 2 C 7.6702804 2 7.8376281 2.0103388 8.0039062 2.0253906 A 0.5 0.5 0 0 0 8.0546875 2.2265625 C 8.440939 2.9875507 8.7201806 3.9084688 8.8964844 4.9003906 C 8.4347095 4.8587112 7.9671299 4.8359375 7.5 4.8359375 C 7.0407625 4.8359375 6.5811029 4.8581543 6.1269531 4.8984375 C 6.3032781 3.9072384 6.5827442 2.9870669 6.96875 2.2265625 A 0.5 0.5 0 0 0 7.0214844 2.0234375 C 7.1795274 2.0098604 7.3383659 2 7.5 2 z M 5.8535156 2.2480469 C 5.4864514 3.0905407 5.2225805 4.0372419 5.0585938 5.03125 C 4.0583282 5.1943895 3.1056846 5.4597954 2.2578125 5.828125 C 2.7988515 4.1232439 4.1449403 2.780847 5.8535156 2.2480469 z M 9.171875 2.2578125 C 10.86806 2.7960919 12.203908 4.1319396 12.742188 5.828125 C 11.900936 5.4626716 10.956571 5.1986129 9.9648438 5.0351562 C 9.8015354 4.0434377 9.5372739 3.0990525 9.171875 2.2578125 z M 7.5 5.8789062 C 8.0181229 5.8789062 8.5351217 5.9061721 9.0429688 5.9570312 C 9.1446871 6.9727253 9.1446871 8.0272747 9.0429688 9.0429688 C 8.0351455 9.1438988 6.9889191 9.1462408 5.9804688 9.046875 C 5.8782338 8.0287092 5.8782338 6.9712908 5.9804688 5.953125 C 6.4807561 5.9038301 6.9899072 5.8789062 7.5 5.8789062 z M 4.921875 6.0996094 C 4.8381478 7.0256957 4.8381478 7.9743042 4.921875 8.9003906 C 3.9217363 8.724341 2.9930498 8.4437301 2.2265625 8.0546875 A 0.5 0.5 0 0 0 2.0253906 8.0039062 C 2.0103388 7.8376281 2 7.6702804 2 7.5 C 2 7.3297196 2.0103388 7.1623719 2.0253906 6.9960938 A 0.5 0.5 0 0 0 2.2265625 6.9453125 C 2.9930498 6.55627 3.9217363 6.275659 4.921875 6.0996094 z M 10.099609 6.1035156 C 11.091531 6.2798193 12.012449 6.5590611 12.773438 6.9453125 A 0.5 0.5 0 0 0 12.974609 6.9960938 C 12.989661 7.1623719 13 7.3297196 13 7.5 C 13 7.6702804 12.989661 7.8376281 12.974609 8.0039062 A 0.5 0.5 0 0 0 12.773438 8.0546875 C 12.012449 8.440939 11.091531 8.7201806 10.099609 8.8964844 C 10.18287 7.9729196 10.18287 7.0270803 10.099609 6.1035156 z M 2.2578125 9.171875 C 3.1056734 9.5401497 4.0583362 9.8057594 5.0585938 9.96875 C 5.2225805 10.962758 5.4864514 11.909459 5.8535156 12.751953 C 4.1449403 12.219153 2.7988515 10.876756 2.2578125 9.171875 z M 12.742188 9.171875 C 12.203908 10.86806 10.86806 12.203908 9.171875 12.742188 C 9.5372739 11.900947 9.8015354 10.956562 9.9648438 9.9648438 C 10.956562 9.8015354 11.900947 9.5372739 12.742188 9.171875 z M 8.8964844 10.099609 C 8.7201806 11.091531 8.440939 12.012449 8.0546875 12.773438 A 0.5 0.5 0 0 0 8.0039062 12.974609 C 7.8376281 12.989661 7.6702804 13 7.5 13 C 7.3383659 13 7.1795274 12.99014 7.0214844 12.976562 A 0.5 0.5 0 0 0 6.96875 12.773438 C 6.5827442 12.012933 6.3032781 11.092762 6.1269531 10.101562 C 7.0430731 10.182725 7.9807217 10.182167 8.8964844 10.099609 z " />
</svg>
