<?xml version="1.0" encoding="UTF-8" standalone="no"?>
<!-- Created with Inkscape (http://www.inkscape.org/) -->

<svg
   width="26"
   height="26"
   viewBox="0 0 26 26.000002"
   version="1.1"
   id="svg5"
   xmlns="http://www.w3.org/2000/svg"
   xmlns:svg="http://www.w3.org/2000/svg">
  <defs
     id="defs2" />
  <path
     id="path299"
     style="color:#000000;fill:#000000;stroke-linecap:round;stroke-linejoin:round"
     d="M 5 4 A 1 1 0 0 0 4.2929688 4.2929688 A 1 1 0 0 0 4.2929688 5.7070312 L 11.585938 13 L 4.2929688 20.292969 A 1 1 0 0 0 4.2929688 21.707031 A 1 1 0 0 0 5.7070312 21.707031 L 13 14.414062 L 20.292969 21.707031 A 1 1 0 0 0 21.707031 21.707031 A 1 1 0 0 0 21.707031 20.292969 L 14.414062 13 L 21.707031 5.7070312 A 1 1 0 0 0 21.707031 4.2929688 A 1 1 0 0 0 20.292969 4.2929688 L 13 11.585938 L 5.7070312 4.2929688 A 1 1 0 0 0 5 4 z " />
</svg>
