<?xml version="1.0" encoding="UTF-8" standalone="no"?>
<!-- Created with Inkscape (http://www.inkscape.org/) -->

<svg
   width="26"
   height="26"
   viewBox="0 0 26 26.000002"
   version="1.1"
   id="svg5"
   xmlns="http://www.w3.org/2000/svg"
   xmlns:svg="http://www.w3.org/2000/svg">
  <defs
     id="defs2" />
  <path
     id="rect288"
     style="color:#000000;fill:#000000;stroke-linecap:round;stroke-linejoin:round"
     d="M 11.496094 3 A 0.5 0.5 0 0 0 11.341797 3.0253906 A 0.5 0.5 0 0 0 11.025391 3.6582031 L 12.138672 7 L 6 7 C 4.3553021 7 3 8.3553021 3 10 L 3 20 C 3 21.644697 4.3553021 23 6 23 L 20 23 C 21.644697 23 23 21.644697 23 20 L 23 10 C 23 8.3553021 21.644697 7 20 7 L 14.861328 7 L 15.974609 3.6582031 A 0.5 0.5 0 0 0 15.658203 3.0253906 A 0.5 0.5 0 0 0 15.025391 3.3417969 L 13.806641 7 L 13.193359 7 L 11.974609 3.3417969 A 0.5 0.5 0 0 0 11.496094 3 z M 6 9 L 12.806641 9 L 13.025391 9.6582031 A 0.50005 0.50005 0 0 0 13.974609 9.6582031 L 14.193359 9 L 20 9 C 20.571295 9 21 9.4287045 21 10 L 21 20 C 21 20.571295 20.571295 21 20 21 L 6 21 C 5.4287045 21 5 20.571295 5 20 L 5 10 C 5 9.4287045 5.4287045 9 6 9 z M 10 10 C 8.3549952 10 7 11.354996 7 13 C 7 14.645004 8.3549952 16 10 16 C 11.645004 16 13 14.645004 13 13 C 13 11.354996 11.645004 10 10 10 z M 10 12 C 10.564127 12 11 12.435873 11 13 C 11 13.564127 10.564127 14 10 14 C 9.4358724 14 9 13.564127 9 13 C 9 12.435873 9.4358724 12 10 12 z M 15.5 12 A 0.5 0.5 0 0 0 15 12.5 A 0.5 0.5 0 0 0 15.5 13 L 19.5 13 A 0.5 0.5 0 0 0 20 12.5 A 0.5 0.5 0 0 0 19.5 12 L 15.5 12 z M 15.5 15 A 0.5 0.5 0 0 0 15 15.5 A 0.5 0.5 0 0 0 15.5 16 L 19.5 16 A 0.5 0.5 0 0 0 20 15.5 A 0.5 0.5 0 0 0 19.5 15 L 15.5 15 z M 7.9394531 16.001953 A 1 1 0 0 0 7.6835938 16.050781 A 1 1 0 0 0 7.1054688 16.552734 L 6.1054688 18.552734 A 1.0001 1.0001 0 0 0 7 20 L 13 20 A 1.0001 1.0001 0 0 0 13.894531 18.552734 L 12.894531 16.552734 A 1 1 0 0 0 11.552734 16.105469 A 1 1 0 0 0 11.105469 17.447266 L 11.382812 18 L 8.6171875 18 L 8.8945312 17.447266 A 1 1 0 0 0 8.4472656 16.105469 A 1 1 0 0 0 7.9394531 16.001953 z M 15.5 18 A 0.5 0.5 0 0 0 15 18.5 A 0.5 0.5 0 0 0 15.5 19 L 19.5 19 A 0.5 0.5 0 0 0 20 18.5 A 0.5 0.5 0 0 0 19.5 18 L 15.5 18 z " />
</svg>
