<?xml version="1.0" encoding="UTF-8" standalone="no"?>
<!-- Created with Inkscape (http://www.inkscape.org/) -->

<svg
   width="26"
   height="26"
   viewBox="0 0 26 26.000002"
   version="1.1"
   id="svg5"
   xmlns="http://www.w3.org/2000/svg"
   xmlns:svg="http://www.w3.org/2000/svg">
  <defs
     id="defs2" />
  <path
     id="path908"
     style="color:#000000;fill:#000000;stroke-linecap:round;stroke-linejoin:round"
     d="M 11 3 C 6.5935798 3 3 6.5935798 3 11 C 3 15.406421 6.5935798 19 11 19 C 12.844033 19 14.544871 18.36935 15.900391 17.314453 L 21.292969 22.707031 A 1 1 0 0 0 22.707031 22.707031 A 1 1 0 0 0 22.707031 21.292969 L 17.314453 15.900391 C 18.36935 14.544871 19 12.844033 19 11 C 19 6.5935798 15.406421 3 11 3 z M 11 5 C 14.325544 5 17 7.6744568 17 11 C 17 14.325544 14.325544 17 11 17 C 7.6744568 17 5 14.325544 5 11 C 5 7.6744568 7.6744568 5 11 5 z M 9.46875 6.2617188 A 0.5 0.5 0 0 0 9.3144531 6.2910156 C 7.3812639 6.9834529 6 8.8349746 6 11 C 6 11.73605 6.1603573 12.437712 6.4472656 13.068359 A 0.5 0.5 0 0 0 7.109375 13.316406 A 0.5 0.5 0 0 0 7.3574219 12.654297 C 7.1281664 12.150374 7 11.591687 7 11 C 7 9.2596038 8.1064945 7.7854206 9.6503906 7.2324219 A 0.5 0.5 0 0 0 9.953125 6.59375 A 0.5 0.5 0 0 0 9.46875 6.2617188 z " />
</svg>
