<?xml version="1.0" encoding="UTF-8" standalone="no"?>
<!-- Created with Inkscape (http://www.inkscape.org/) -->

<svg
   width="68"
   height="32"
   viewBox="0 0 68 32"
   version="1.1"
   id="svg427"
   xml:space="preserve"
   xmlns="http://www.w3.org/2000/svg"
   xmlns:svg="http://www.w3.org/2000/svg"><defs
     id="defs424" /><g
     id="g613"
     transform="matrix(0.29635306,0,0,0.29635306,-13.836258,-16.229684)"
     style="fill:#ffffff;stroke-width:3.37435"><g
       id="g482"
       style="fill:#ffffff;stroke-width:0.83119"
       transform="matrix(4.0596619,0,0,4.0596619,18.471308,59.514772)"><path
         id="path476"
         style="fill:#ffffff;fill-opacity:1;stroke-width:3.48;stroke-linecap:round;stroke-linejoin:round;stroke-dasharray:none"
         d="M 54.314068,6.6037194e-7 C 50.221502,0.00192171 46.621085,2.704133 45.47586,6.6332115 l 5.972846,1.1442194 c 0.234035,-2.206474 2.094524,-3.8812017 4.313378,-3.8826532 1.115596,1.281e-4 2.188309,0.4298027 2.995515,1.1998445 L 61.477488,3.4219863 C 59.729029,1.2579888 57.096139,2.781452e-4 54.314068,6.6037194e-7 Z" /><path
         id="path478"
         style="fill:#ffffff;fill-opacity:1;stroke-width:2.82722;stroke-linecap:round;stroke-linejoin:round;stroke-dasharray:none"
         d="m 61.183681,4.6314359 -1.85022,1.1374531 c 0.500771,0.7250038 0.769022,1.5852281 0.769111,2.4663705 -0.0014,1.9601315 -1.316413,3.6760765 -3.208747,4.1871605 l 1.622379,3.529287 c 2.587907,-1.245843 4.234353,-3.863037 4.237078,-6.7351757 -8.9e-5,-1.6601704 -0.552261,-3.2731684 -1.569601,-4.5850954 z" /><path
         id="path480"
         style="fill:#ffffff;fill-opacity:1;stroke-width:2.51863;stroke-linecap:round;stroke-linejoin:round;stroke-dasharray:none"
         d="m 48.067385,8.0224073 c -0.0034,0.064675 -0.0068,0.1291372 -0.0085,0.1940259 6.2e-5,3.6815198 2.984499,6.6659538 6.666007,6.6660178 0.737692,-10e-4 1.47004,-0.125081 2.16721,-0.366216 L 55.99605,12.566904 c -0.07787,0.0043 -0.155861,0.0085 -0.233909,0.01067 -2.22793,-10e-4 -4.092967,-1.689434 -4.315875,-3.9061754 z" /></g><g
       aria-label="DFD"
       id="text496"
       style="font-size:78.9229px;line-height:1.25;font-family:'Noto Color Emoji';-inkscape-font-specification:'Noto Color Emoji';letter-spacing:-3.57802px;fill:#ffffff;stroke-width:2.87142"
       transform="matrix(1.1751496,0,0,1.1751496,-47.85585,-10.42399)"><path
         d="m 80.452971,131.27983 h 15.153196 c 15.074273,0 25.176403,-8.2869 25.176403,-25.96563 0,-17.678731 -10.10213,-25.492098 -25.807786,-25.492098 H 80.452971 Z m 11.601666,-9.39182 V 89.213927 h 2.209841 c 8.760442,0 14.600732,3.788299 14.600732,16.100273 0,12.31197 -5.84029,16.57381 -14.600732,16.57381 z"
         style="font-weight:bold;font-family:'Source Sans 3';-inkscape-font-specification:'Source Sans 3 Bold';fill:#ffffff;stroke-width:2.87142"
         id="path598" /><path
         d="m 126.99086,131.27983 h 11.60166 V 111.31234 H 156.4291 V 101.5259 H 138.59252 V 89.608541 h 20.83565 v -9.786439 h -32.43731 z"
         style="font-weight:bold;font-family:'Source Sans 3';-inkscape-font-specification:'Source Sans 3 Bold';fill:#ffffff;stroke-width:2.87142"
         id="path600" /><path
         d="m 164.76829,131.27983 h 15.1532 c 15.07427,0 25.1764,-8.2869 25.1764,-25.96563 0,-17.678731 -10.10213,-25.492098 -25.80778,-25.492098 h -14.52182 z m 11.60167,-9.39182 V 89.213927 h 2.20984 c 8.76044,0 14.60074,3.788299 14.60074,16.100273 0,12.31197 -5.8403,16.57381 -14.60074,16.57381 z"
         style="font-weight:bold;font-family:'Source Sans 3';-inkscape-font-specification:'Source Sans 3 Bold';fill:#ffffff;stroke-width:2.87142"
         id="path602" /></g></g></svg>
