<?xml version="1.0" encoding="UTF-8" standalone="no"?>
<!-- Created with Inkscape (http://www.inkscape.org/) -->

<svg
   width="60"
   height="60"
   viewBox="0 0 60 60"
   version="1.1"
   id="svg951"
   xmlns="http://www.w3.org/2000/svg"
   xmlns:svg="http://www.w3.org/2000/svg">
  <defs
     id="defs948" />
  <path
     id="DK-84"
     style="fill:#ffffff;fill-opacity:1;stroke:none;stroke-width:0.030615;stroke-opacity:1"
     class="land"
     d="m 21.47212,5.753135 -0.44631,0.14327 -1.98149,1.68634 -0.66312,0.39728 -0.72245,0.28043 -0.6233,0.0747 -0.71156,-0.0392 -0.21179,-0.0863 -0.19721,0.0802 -0.16228,0.13406 -0.60309,1.05993 -0.5848,0.61721 -0.66241,1.52034 -0.65523,1.14747 -0.84371,1.26502 -1.18729,0.96868 -0.27243,0.11074 -0.39249,0.0306 -0.56578,0.19481 -0.57248,0.0636 -0.70606,-0.082 -0.61959,-0.24181 -0.21742,0.0489 -0.1984,-0.0361 -0.98817,0.6294 -0.92395,0.28116 -0.12797,-7.2e-4 -1.00969,-0.4249 -0.1892,0.10344 -0.0753,-0.0342 -0.49725,0.88724 -0.24301,0.28594 -0.22471,0.041 -0.0771,0.0808 -0.48003,0.83701 -0.25114,0.31955 -0.16156,0.0924 -0.75809,1.55096 -0.29634,0.83833 -0.14147,1.25031 0.0625,0.004 0.0911,0.16348 -6.1e-4,0.16838 0.0759,0.01 0.0771,-1.18849 0.21622,0.12988 0.14506,0.17388 0.15009,0.65571 0.26322,0.34968 0.0661,0.23823 0.41211,0.10583 0.01,-0.0844 -0.0471,-0.004 0.0355,-0.10595 0.11756,0.0153 0.0673,-0.11695 0.23392,-0.11876 0.52045,0.27805 -0.0166,-0.16539 0.12928,-0.16289 -0.0453,-0.0342 -0.10536,0.0593 0.0814,-0.16838 -0.0367,-0.0697 -0.27243,-0.0331 -0.2082,0.0581 0.16587,-0.15427 0.0883,-0.37779 0.0942,-0.11636 -0.26453,-0.4084 0.15559,-0.2265 0.27123,-0.16348 0.13167,0.0116 -0.005,-0.17939 0.34346,-0.019 0.29874,-0.35817 0.19541,-0.35148 -0.0759,-0.0532 0.0581,-0.12987 -0.0489,-0.18548 0.12486,-0.17508 0.002,-0.1892 0.188,-0.1856 -0.0434,-0.16228 0.0887,-0.24851 0.33007,-0.0398 0.47023,0.10046 0.20139,-0.0869 0.0539,-0.12186 0.46724,-0.20091 -0.006,-0.10285 -0.15056,-0.10835 0.007,-0.10416 0.1935,-0.0391 0.10775,0.01 0.20701,0.0587 0.0673,0.14948 0.12557,6.2e-4 0.12114,-0.29766 0.15738,-0.0881 0.17939,0.0453 0.15379,-0.2149 0.14387,-0.0582 0.21371,-0.0202 0.0569,0.0582 0.002,0.15427 0.0863,0.01 0.15188,-0.22722 0.6056,-0.26023 0.64782,0.61792 0.10835,0.0734 0.29204,0.0459 0.43662,-0.31105 1.0262,-0.3864 0.49905,-0.13777 0.0679,0.0625 0.4157,-0.0453 0.25472,0.0606 0.10907,-0.14758 0.19768,0.0116 0.10656,-0.18429 0.15247,-0.10535 -0.15977,-0.009 -0.10165,-0.0967 0.22842,-0.20809 0.2375,-0.10416 0.12988,-0.0116 -0.004,0.0441 -0.0936,0.11935 -0.1593,0.0422 -0.003,0.1752 0.12737,-0.0496 0.30495,0.18608 0.36248,-0.0587 0.11816,-0.0863 0.18668,-0.45193 -0.0251,-0.11756 0.50515,0.26824 0.30555,0.33187 0.52417,0.25353 0.17017,-0.0643 -0.002,-0.19649 0.2155,-0.22052 0.1935,-0.0795 0.11696,0.0379 0.51495,0.49654 0.26393,0.13107 0.60429,0.6184 0.35208,0.27063 0.30376,0.0508 0.35566,-0.11876 0.25903,0.082 0.1856,-0.34956 0.19649,-0.5848 0.22232,-1.10824 0.34095,-0.78008 0.43291,-0.54246 0.16049,-0.0661 0.29515,-0.27864 -0.0135,-0.71945 -0.15487,-0.79839 0.0642,-0.12497 -0.10596,-0.19098 -0.063,-0.6013 0.11325,-0.53337 -0.0183,-0.18118 0.10584,-0.11947 0.0349,-0.063 0.10715,-6.1e-4 0.0465,-0.12246 -0.12545,-0.0465 -0.0944,-0.29395 -0.74326,-1.0268 -0.1905,-0.69135 0.15499,-0.65261 0.38627,-0.66563 0.52668,-0.65882 0.22279,-0.18979 0.0435,-0.019 0.0514,-0.0428 0.0612,0.0434 0.0673,-0.0624 0.37049,-0.37467 z m 4.55674,6.67408 -0.23571,0.12976 -0.75808,0.0184 -0.16408,0.19039 -0.53206,0.0618 -0.22291,0.13298 -0.13287,0.2283 -0.28163,0.22662 -0.004,0.11696 0.33258,0.2106 0.10225,-0.0459 0.15798,0.0349 0.0434,0.13286 0.17448,0.041 0.0797,0.27362 0.10955,-0.0581 0.12616,0.0306 0.46174,-0.25903 0.0679,-0.093 -0.0116,-0.0257 0.16706,-0.18548 0.0667,-0.3901 -0.15057,-0.0232 0.0196,-0.12498 0.32266,-0.15857 0.46042,-0.002 0.0967,-0.0447 0.0851,0.0453 0.0649,-0.34107 -0.016,-0.0477 z m -0.95517,1.80019 -0.25843,0.0263 -0.0918,0.14207 0.0325,0.0428 0.31345,-0.0765 z m -8.77982,2.10323 -0.19469,0.15068 -0.13406,0.24492 -0.12126,0.0495 -0.12426,0.009 -0.18429,-0.12856 -0.12306,-0.008 -0.2131,0.0551 -0.21371,0.17209 -0.55107,-0.13968 -0.67844,0.1752 -0.2082,0.17628 -0.0226,0.28785 -0.25783,0.34406 -0.0808,0.0245 -0.0962,0.27434 -0.32504,0.1984 -0.0312,0.12246 -0.0857,0.36368 -0.25162,-0.47083 0.10153,-0.15307 0.0588,0.01 0.0704,0.15116 0.0606,-0.074 -0.0612,-0.16109 0.15487,-0.27302 -0.61959,-0.38951 -0.69996,-0.0642 -1.11614,0.29443 -0.15798,0.39441 -0.29574,0.0919 -0.11816,0.26513 -0.25413,0.2161 -0.0147,0.10225 -0.15857,0.18369 -0.10775,0.38579 0.0189,0.10464 0.27063,0.18549 0.0956,0.18931 -0.0214,0.29993 -0.33987,0.55538 0.16658,0.29766 -0.03,0.31093 0.12557,-0.014 0.27733,0.0997 0.0979,0.24193 -0.0551,0.23021 -0.14877,0.25102 -0.23452,0.20139 -0.14446,0.22232 -0.12557,0.063 -0.005,0.0736 0.13849,0.19708 0.0514,-0.0128 0.45552,-0.35088 0.13837,-0.007 0.25472,-0.15008 0.199,0.0975 0.12127,0.31285 0.29204,0.0122 0.0956,0.13478 0.25963,-0.0423 -0.01,0.18309 0.30364,0.21622 0.20701,0.0379 -6.1e-4,0.002 -0.21012,-0.0385 -0.30364,-0.21622 0.01,-0.18297 -0.25963,0.0422 -0.0956,-0.13478 -0.29204,-0.0122 0.0453,0.30674 -0.11026,0.27554 -0.008,0.27673 -0.16108,0.16348 0.0465,0.15248 -0.0887,0.48494 0.082,0.1691 0.10536,0.0183 0.24982,-0.0887 0.16288,-0.13048 0.14327,-0.007 -0.0753,0.2314 0.0343,0.25043 -0.28115,-0.0844 -0.30914,0.31045 0.0716,-0.199 -0.10894,-0.003 -0.17951,-0.16228 -0.11875,-0.17508 -0.0447,-0.24373 -0.0832,-0.0373 0.0967,-0.29335 0.28164,-0.14327 0.003,-0.10775 0.0416,0.003 -0.0913,-0.19661 -0.10596,-0.0514 -0.0808,0.0373 -0.0373,-0.0599 0.0508,-0.0221 -0.45181,-0.0251 -0.21071,0.13777 -0.12677,-0.01 -0.17388,-0.21179 0.0484,-0.15368 -0.038,-0.15068 -0.11756,0.32887 -0.2314,0.20749 0.13717,0.0655 0.21311,-0.0428 -10e-4,0.13777 -0.13645,0.15487 -0.0974,-0.0196 -0.0753,-0.10584 -0.16838,0.0765 -0.0269,0.52045 -0.13358,0.18979 -0.15667,0.001 -0.0655,-0.0777 0.0563,-0.022 -0.0141,-0.11146 -0.10536,-0.35028 0.10225,-0.52416 0.24492,-0.23942 0.18369,-0.011 -0.0679,-0.37659 0.17448,0.0147 0.0233,-0.16647 0.11815,-0.1929 0.34418,-0.27434 -0.37108,-0.49654 -0.17329,-0.44703 -0.0306,-0.13956 0.0459,-0.11325 -0.38939,-0.26453 -0.35279,0.044 0.12796,0.16108 -0.0709,0.0845 -0.57559,-0.27003 -0.68214,0.57188 -0.17699,0.0104 0.0716,0.15738 -0.14686,0.16289 -0.24492,0.56016 0.21849,-0.006 0.10166,-0.0697 0.11337,0.10285 0.0703,-0.1819 0.0423,0.14148 0.10584,-0.0435 0.11397,0.0453 0.0281,0.13597 -0.22591,0.0985 -0.0956,-0.14818 -0.10284,0.0618 0.002,0.10225 -0.14447,-0.0312 -0.12796,0.0985 -0.12796,-0.12055 -0.0722,0.007 -0.24253,0.30615 -0.0856,0.30436 -0.14147,0.2265 -0.25843,0.25413 -0.3919,-0.0337 -0.0514,0.23452 0.13477,0.0551 0.0759,0.28235 0.44201,0.35698 0.0857,0.19218 -0.23571,0.32397 0.0808,0.48303 -0.0527,0.27804 -0.66983,0.22471 -0.30555,-0.11026 -0.0893,-0.16647 -6.2e-4,-0.22602 -0.11086,0.11516 -0.35207,-0.0863 -0.0742,0.2265 -0.0532,-0.044 0.0753,-0.25042 0.24002,-0.0172 0.033,0.0551 0.1764,-0.28164 -0.15738,-0.30794 -0.0985,-0.0736 0.022,-0.17137 -0.0753,-0.12067 -0.0116,-0.28534 -0.0967,0.28654 -0.17939,0.23021 -0.15929,0.0906 -0.2271,-0.17077 -0.848,-0.40661 -0.30495,0.0563 -0.19661,-0.0404 -0.17508,0.0942 v 0.31846 l -0.0967,-0.0367 0.0245,-0.17879 -0.13896,-0.29825 0.19158,-0.0496 -0.0355,-0.11505 -0.48362,-0.10345 -0.11696,-0.0698 0.003,-0.29455 -0.26752,-0.12856 -0.10225,0.0294 0.0728,-0.35948 0.0869,0.0527 0.0993,-0.0447 -0.11337,-0.16109 0.21861,-0.26932 -0.0691,-0.0932 0.002,-0.27613 -0.0783,-0.03 -0.0846,0.10106 -0.28905,0.64961 -0.38448,1.55898 -0.0704,0.51985 0.0826,0.78248 -0.085,1.54307 0.12856,-0.0257 0.006,-0.0643 -0.0765,-0.0226 0.0832,-0.0808 -0.0612,-0.082 0.0944,0.0159 -0.0367,-0.15068 -0.002,-0.0746 -0.0654,-0.1984 0.0746,-0.0686 -0.0655,-0.19158 0.049,0.0122 0.0128,-0.0875 0.13167,0.10955 0.14638,-0.0526 0.0428,0.28474 -0.0581,0.0606 0.20139,0.50873 0.42622,0.33067 0.13657,0.17328 0.0544,0.1874 -0.0856,0.0716 0.36056,0.19289 0.0919,-0.0839 -0.001,0.0484 -0.20701,0.33425 -0.22219,0.14458 -0.0618,-0.0263 -0.0875,-0.13537 0.0893,-0.0477 -0.0753,-0.1911 0.0227,-0.10955 -0.25783,0.0202 -0.13717,-0.10225 -0.19338,0.0563 -0.0294,-0.2094 -0.29335,0.13406 -0.0238,-0.31165 0.10165,-0.23823 -0.0435,-0.0551 0.01,-0.0177 -0.0275,-0.0343 -0.13598,-0.004 0.13227,1.85962 -0.0141,0.608 -0.20761,1.59078 -0.0483,0.93125 0.13334,0.66588 -0.001,3.7e-4 0.199,0.65021 0.26633,2.11901 -0.001,2.5e-4 0.0459,0.64411 -0.13717,0.91235 -0.71886,2.30401 0.99439,0.47334 0.86512,0.75007 0.10787,-0.0643 -0.004,-0.22591 -0.31297,-0.29204 -0.0746,-0.12007 0.082,-0.14697 -0.15009,-0.0624 -0.12975,-0.25413 -0.002,-0.17568 0.0991,-0.21191 0.17018,-0.2222 0.1813,0.0153 0.21741,0.17329 -0.003,0.0563 -0.15738,0.0777 -0.0288,0.11265 0.20091,0.30436 0.84562,0.94416 0.16647,0.25162 -0.0465,0.0851 0.14937,0.004 0.0111,0.0391 -0.0698,0.006 0.2118,0.0932 0.0502,-0.10357 0.4023,0.0981 0.27434,-0.0453 0.59819,0.4261 0.28774,1.14747 0.11576,0.24181 -0.009,0.13537 -0.0826,0.22471 -0.14697,-0.0459 -0.43591,0.26262 -0.25042,-0.0367 -0.11875,0.0404 -0.12988,0.17149 -0.003,0.12856 0.10524,0.11265 0.21622,-0.0318 0.14196,-0.31536 0.47824,-0.28773 0.13346,0.0446 -0.0446,0.16778 0.0501,0.25293 -0.074,-0.0325 -0.0655,0.13477 0.16898,0.12797 -0.0765,0.0269 0.0918,0.0826 -0.06,0.0606 -0.003,0.1758 0.0655,0.033 -0.0797,0.26824 0.0539,0.0165 0.0299,-0.082 0.16108,0.88234 0.0508,0.0459 -0.0251,0.0795 -0.13956,-0.0489 -0.0582,0.098 -0.28773,0.0428 -0.53146,-0.0832 0.0385,-0.27434 0.11636,-0.10955 0.0453,-0.15798 -0.14937,-0.12915 -0.44643,-0.0386 0.0386,-0.11875 -0.17819,0.0287 -0.0906,0.0888 -0.0581,0.23942 -0.0643,0.11015 -0.13036,1.12175 v 0.1752 l 0.29144,0.4188 0.0624,0.0526 0.17508,-0.0545 0.0889,-0.0422 -0.0999,-0.16719 0.18799,0.0208 0.1886,-0.15117 -0.15738,-0.23941 0.071,-0.31166 -0.0753,-0.29024 0.049,-0.11325 0.44273,0.0716 0.54485,-0.0429 0.11337,0.0527 -0.0698,0.12545 0.0373,0.0747 -0.30615,0.6074 -0.12306,0.73105 0.23141,0.7899 -0.01,0.34166 -0.18931,0.75988 0.3858,0.0171 0.3968,0.25903 0.22961,-0.0606 0.18668,0.0618 0.1868,-0.17628 0.21311,-0.0313 0.30005,0.14817 0.27673,-0.11995 0.47513,0.0349 0.56028,0.23452 0.28283,0.21311 0.89155,0.0122 0.73847,0.31225 0.0391,0.09 -0.0765,0.18548 0.12067,0.31656 0.17269,-0.0367 0.11636,0.0367 0.0795,0.0104 0.30376,0.0484 0.12054,0.0783 0.10847,-0.22041 0.14997,-0.0869 0.0747,-0.26453 0.21849,-0.0484 0.079,0.0655 -6.1e-4,0.0858 0.11935,6.1e-4 0.45133,-0.23631 0.20319,-0.33988 0.0883,-0.008 0.0349,-0.0724 0.10285,0.004 0.0226,-0.0728 0.15368,0.0797 0.079,-0.0472 0.0973,-0.15547 -0.0294,-0.15798 0.23392,-0.12987 -0.0367,-0.0685 -0.071,0.002 0.0477,-0.0593 0.14087,0.0367 0.0858,-0.28103 0.27422,0.11756 0.1746,0.1978 -0.15798,0.0691 -0.062,-0.0974 -0.0948,-0.007 -0.32887,0.14267 0.32277,0.18058 0.0453,0.12366 0.12425,0.0618 -0.0526,0.12377 -0.12067,0.085 0.0208,0.0869 0.16288,0.0846 0.18979,-0.0306 0.22041,0.0704 -0.0153,0.0832 0.19051,0.17149 0.2161,-0.0772 0.0734,-0.14877 -0.0238,-0.16587 -0.13418,-0.11517 -0.0226,-0.17269 -0.12676,-0.11385 -0.18549,-0.0226 -0.0135,-0.0779 0.0716,-0.11206 0.3937,0.0938 0.1807,-0.093 0.0361,-0.10608 0.006,0.0582 0.10894,0.12737 0.30376,0.12305 0.33485,-0.16096 0.071,0.0159 0.10165,-0.13167 0.14817,0.0312 0.5946,0.39369 0.15308,0.27685 -0.0661,0.0618 -0.15738,-0.17029 -0.14267,-0.0104 -0.0196,-0.0857 -0.29574,-0.14447 -0.14686,-0.18608 -0.26095,0.24612 0.18501,0.21921 0.15308,0.01 0.28342,0.15607 0.3925,0.0184 0.27733,-0.29323 0.36558,-0.0141 0.0575,-0.0533 -0.044,-0.24432 -0.14267,-0.22961 -0.0441,-0.32936 -0.4035,-0.77889 -0.4011,-0.42251 -0.1947,-0.0856 -0.2424,-0.019 -0.48315,-0.43232 -0.20019,-0.2192 -0.41151,-0.23883 -0.2033,-0.0459 -0.37839,0.0932 -0.27242,0.17197 -0.23883,0.21682 -0.004,0.0985 0.0453,0.0808 0.30496,0.0575 0.0704,-0.0214 -0.0159,-0.0251 0.0856,-0.0881 0.0822,-0.007 -0.0704,0.0795 0.0991,0.01 0.0741,0.10966 -0.11755,-0.006 0.006,-0.074 -0.0704,-0.0227 -0.0936,0.0858 -0.21311,0.0557 0.007,0.10835 0.32637,0.21502 0.793,-0.0472 -0.0166,0.0979 -0.13095,0.0539 0.03,0.0944 0.0361,0.0244 0.002,0.12928 0.32146,0.0489 0.28044,0.1874 -0.10955,0.01 -0.0863,0.13406 0.2027,0.0588 -0.17759,0.0667 0.15368,0.0948 -0.20271,0.0612 -0.30914,-0.4322 -0.16778,-0.0508 -0.11577,-0.177 -0.0734,0.0722 0.0691,0.0956 0.0869,0.77399 0.10344,0.0459 0.007,0.0708 -0.12425,-0.0708 -0.0299,-0.14267 -0.0765,-0.049 -0.0245,-0.54737 -0.10596,-0.11815 -0.0135,-0.19661 -0.37588,-0.007 -0.34047,-0.26632 -0.19589,-0.0632 -0.20031,-0.37168 -0.2045,-0.12545 -0.0716,0.0245 -0.005,0.11684 -0.2161,0.0417 -0.47095,0.24731 -0.32636,-0.022 -0.10643,-0.13347 -0.0582,0.0538 -0.0777,-0.0477 -0.03,-0.12796 0.009,-0.0667 0.006,-0.0331 0.0281,-0.0948 0.019,0.0599 0.11326,0.0306 0.20641,-0.11206 0.28833,0.0447 0.42442,-0.44452 0.004,-0.21 -0.0991,-0.0337 -0.16408,-0.26083 -0.10966,-0.0214 -0.13466,-0.12617 -0.0765,0.0698 -0.0337,-0.0563 -0.17568,0.063 0.0483,-0.0875 0.007,-0.0655 0.0869,-0.10033 0.38018,0.0636 -0.11995,-0.12426 -0.0551,-0.31535 0.53325,-0.30926 0.23823,-0.23261 0.33557,0.0581 0.0765,0.17209 0.46784,-0.25233 -0.0202,-0.36678 0.20809,-0.26693 -0.0312,-0.0814 0.0576,-0.11505 -0.0551,-0.16838 -0.46173,-0.31297 -0.0997,0.0398 -0.0889,-0.0704 -0.20509,0.21072 -0.18609,0.0403 v 0.16288 l -0.21801,0.13597 0.0679,-0.14267 0.093,-0.009 0.009,-0.17018 0.23021,-0.06 0.14638,-0.22961 0.36917,0.0624 -0.24851,-0.40709 -0.0888,0.005 0.15248,-0.22053 -0.0269,-0.21669 -0.1929,-0.21682 -0.4139,-0.0869 -0.0956,-0.14566 0.079,-0.0337 0.14877,0.0508 0.0924,0.14877 0.17209,-0.38269 -0.24743,-0.47944 0.0484,-0.11265 0.46592,-0.15248 0.33796,-0.36487 -0.57367,-0.56267 -0.18919,0.0275 -0.14207,0.16599 -0.14578,-0.10297 -0.46772,0.13538 -0.27003,-0.0956 0.27433,-0.16468 0.2277,0.0679 0.35758,-0.009 -0.0551,-0.2106 0.0999,-0.0858 -0.15187,-0.008 -0.06,-0.0987 0.0404,-0.0514 0.30807,0.11576 0.0257,0.13956 0.15487,-0.0483 0.11636,0.0685 0.27984,-0.27792 0.42801,0.14207 0.14136,-0.007 -0.0905,-0.36247 0.0306,-0.21981 0.18788,-0.0233 0.10416,0.0478 0.0165,-0.19039 0.17149,-0.20641 0.0422,-0.1819 0.54928,-0.45492 -0.45014,-0.0495 -0.40098,0.0814 -0.10907,-0.15128 -0.074,-0.38209 -0.2161,-0.12007 -0.0667,0.0209 -0.31476,-0.44523 -0.10165,0.0735 -0.0857,-0.0643 -0.48614,0.0624 -0.26764,-0.13585 0.0147,-0.17329 0.18309,0.0936 0.78188,-0.11756 0.10596,-0.35638 -0.0251,-0.19959 0.011,0.007 0.0251,0.20391 -0.10584,0.35637 0.2332,0.13598 0.13478,0.006 0.26202,0.33186 0.31417,-0.0165 0.21059,0.0538 0.0913,0.13597 0.22591,-0.0673 0.30734,-0.199 0.33318,-0.0936 0.45983,-0.0343 0.31404,-0.093 0.14518,0.0716 -0.0894,-0.28415 -0.16468,-0.0484 0.0122,-0.13585 0.29694,-0.0993 0.14949,-0.16779 0.24002,0.004 -0.0441,-0.11015 -0.43902,-0.0875 -0.0661,-0.10476 0.0202,-0.22531 0.3913,-0.4145 -0.10775,-0.2021 -0.1923,-0.03 -0.14016,0.093 0.0605,-0.11325 -0.0428,-0.0275 0.0294,-0.12186 -0.16779,0.14447 -0.91175,-0.25832 -0.12055,-0.0772 -0.027,-0.13897 0.0508,-0.0844 0.12617,-0.0349 -0.0175,-0.0694 0.19134,0.17161 0.14028,-0.0545 0.28714,0.0386 -0.0392,-0.12306 0.0545,-0.1825 0.0514,-0.0123 0.52655,0.0643 0.29635,-0.12557 0.32755,0.0233 0.0612,0.17089 -0.0312,0.10584 -0.46772,-0.0826 -0.18249,0.27063 0.0122,0.13406 0.36307,-0.0936 0.1935,-0.19098 0.12736,0.0263 -0.003,-0.16539 0.11876,-0.15176 0.0967,0.11624 -0.0184,0.23822 0.14458,0.16779 0.28343,0.13525 0.0484,-0.0624 -0.0514,-0.16348 0.10464,-0.10405 -0.0887,-0.17149 -0.0172,-0.23081 0.12987,-0.0141 0.25712,-0.31536 0.16659,-0.0495 0.0722,-0.70965 -0.11385,-0.32767 0.006,-0.20139 0.23751,-0.41582 -0.0544,-0.0452 -0.14315,0.0226 0.0776,-0.0398 0.0312,-0.24552 -0.19409,-0.79719 -0.33007,-0.64172 0.35398,-0.21119 -0.003,-0.068 -0.0367,-0.0642 -0.0392,0.14267 -0.19158,0.10954 0.0734,-0.243 -0.11266,0.085 0.004,-0.10596 0.14506,-0.0966 -0.0453,-0.0441 0.12987,-0.27984 0.32445,-0.20079 0.21251,-0.3907 0.26573,-0.13777 0.0147,-0.17209 0.0392,0.0404 0.0795,-0.0691 -0.0618,-0.22722 0.13418,-0.13777 0.12115,0.0318 0.11397,-0.12916 -0.0563,-0.16898 0.0648,-0.0502 0.2204,0.0453 0.0999,-0.0901 0.15069,0.0669 0.0612,-0.0612 0.007,0.18668 0.17388,0.0422 0.0539,-0.0379 0.20689,0.11994 0.0172,0.20271 -0.18931,0.0184 -0.0832,0.23942 -0.23823,0.24922 0.0147,0.0618 0.079,-0.0907 0.11014,0.0704 -0.0244,0.0697 0.10583,0.20641 -0.12545,0.11995 -0.26704,-0.0342 -0.0789,-0.11887 0.12617,-0.15308 -0.10967,-0.0189 -0.14996,0.0489 -0.0245,0.15188 -0.39548,0.12915 -0.0926,-0.0349 -0.0214,0.11086 0.2155,0.12067 0.0527,0.26394 0.13717,0.0973 0.21371,-0.001 0.15367,-0.2308 0.13227,-0.0636 0.4432,0.21 0.12736,-0.0716 0.068,0.0704 -0.10046,0.34836 -0.21861,-0.0171 -0.0826,0.0974 0.26633,0.68393 0.27613,-0.11205 0.10046,-0.17209 -0.041,-0.52106 -0.16037,-0.24982 0.082,-0.26573 0.28833,-0.32265 0.0759,-0.25664 0.24313,-0.12856 0.34465,0.0355 0.0728,0.0551 0.11206,0.27434 -0.0667,0.21789 -0.11995,0.0999 -0.15068,-0.0618 0.002,0.12306 0.0636,0.14566 0.27673,0.21921 0.0196,0.13848 0.0765,0.0709 0.21251,-0.01 0.2173,-0.57929 -0.0483,-0.4017 0.0435,-0.19709 0.10033,-0.1819 0.13837,-0.12915 0.2033,-0.0632 0.16659,-0.1984 0.17448,-0.4298 0.26824,-0.2222 0.4322,-0.66683 0.002,-0.53637 0.0489,-0.39249 0.06,-0.0447 -0.0202,-0.19648 0.0846,-0.18621 0.16898,-0.0667 0.0263,-0.12557 -0.0693,-0.17256 -0.21119,-0.20821 -0.40541,-0.26274 -0.13406,-0.46772 -0.20941,-0.19959 -0.58838,-0.11278 -0.21801,0.079 -0.59699,0.0471 -0.94237,0.23392 -0.44452,0.0226 -0.67903,-0.18608 -0.1825,-0.12366 -0.4432,-0.53887 -0.0894,-0.42 -0.2094,-0.082 -0.0661,-0.0863 -0.0698,-0.0104 0.002,0.24373 -0.25042,0.2283 -0.1697,0.26513 -0.003,0.12186 -0.0913,0.0478 -0.098,0.4243 0.022,0.619 0.0539,0.0857 0.46593,0.0759 -0.37719,0.0257 -0.25652,-0.10716 -0.28355,0.0838 -0.45863,0.20019 -0.35877,-0.12605 -0.45803,0.14387 -0.003,-0.0184 0.44511,-0.18058 0.24492,0.0275 0.0214,0.0901 0.0802,0.0294 0.71515,-0.27434 0.12306,-0.4145 -0.10775,-0.60501 0.0514,-0.18429 0.12366,-0.0557 0.0918,-0.29695 0.15368,-0.15618 0.15128,-0.0483 0.13286,-0.27434 0.38389,-0.2137 0.13286,-0.24373 -0.0783,-0.29323 0.11206,-0.0563 -0.0857,-0.47884 -0.12246,-0.13286 -0.24492,0.006 -0.21491,0.11815 -0.27613,-0.074 -0.39488,0.25042 -0.0893,-0.0378 -7.2e-4,-0.003 -0.25472,-0.33437 -0.0924,0.0239 -0.26693,-0.0557 -0.0828,0.17818 -0.21179,0.2106 -0.0881,0.008 -0.15068,-0.14087 -0.071,0.0135 -0.16168,0.27673 -0.17748,0.0202 -0.0747,0.0931 -0.0747,0.002 -0.0864,0.18859 -0.12365,-0.0368 -0.16719,0.12007 -0.0722,-0.0355 -0.12306,0.0661 -0.55346,0.0177 -0.10847,0.11146 -0.4035,-0.022 0.1874,-0.11756 0.7985,-0.0747 0.27183,-0.13837 0.007,-0.10284 0.12305,0.0165 0.1886,-0.20019 0.24862,-0.0392 -0.0147,-0.0807 0.0961,-0.12186 0.30926,-0.11637 0.17687,0.12486 0.15499,-0.10165 0.0385,-0.14686 0.32516,-0.16229 0.16288,0.0159 0.0257,0.17448 0.15607,0.0803 0.13227,-0.0422 0.0337,-0.0926 0.1984,-0.12665 0.221,0.11074 0.3974,0.0288 0.20821,0.10404 0.0691,-0.0636 0.004,-0.23452 -0.30124,-0.47824 -0.18178,-0.75437 -0.12186,-1.39418 0.0863,-0.68633 0.16408,-0.26023 -0.0747,-0.0667 0.06,-0.10357 0.0777,-6.1e-4 0.0184,-0.26633 -0.59089,0.0587 -0.33928,-0.12856 -0.45851,-0.33485 -0.37288,-0.40912 -0.23332,-0.20689 -0.24002,-0.19038 -0.10775,-0.24253 z m -1.18537,0.0783 -0.37659,0.0196 0.0863,0.20701 0.16049,0.0734 0.12306,-0.0245 0.15056,-0.13957 z m -7.94222,1.52836 -0.0201,0.16468 -0.1801,0.2094 -0.24923,0.005 -0.0722,-0.0905 -0.071,0.18668 -0.17508,0.2051 -0.11325,0.42131 -0.51065,0.0881 -0.17388,0.14088 -0.0869,-0.0398 -0.32146,0.0612 -0.15439,-0.0459 -0.27362,0.0887 0.0655,0.0845 0.0263,0.37838 -0.14578,0.24181 0.14267,-0.001 -0.005,0.0924 -0.063,0.0404 -0.15427,-0.0508 -0.10476,0.1837 0.44763,0.0779 0.0238,0.17687 -0.37779,0.21431 -0.28594,-0.0704 -0.10093,0.0172 -0.10165,0.14207 -0.0944,-0.082 -0.0979,0.0624 0.15546,0.44272 -0.4084,0.18058 -0.0605,0.37408 0.31404,-0.27422 0.25042,0.25102 -0.12736,0.0489 0.0661,0.27865 0.23153,-0.0906 -0.0765,-0.13167 0.0807,-0.0722 -0.11445,-0.0147 0.011,-0.12545 0.11146,-0.004 0.0502,0.11816 -0.0331,0.0894 0.0747,0.0336 0.0942,0.009 -0.0116,0.13466 0.19601,0.20821 -0.038,0.14817 0.10165,0.22292 0.52165,-0.21192 0.22112,0.0368 0.38449,-0.21861 -0.0643,-0.15069 0.26333,-0.35327 0.26884,-0.19038 -0.01,-0.12007 0.0962,-0.0453 -0.007,-0.31105 0.2106,-0.18429 -0.0918,-0.0838 0.009,-0.0753 0.13657,-0.0404 0.0275,-0.18058 -0.18668,-0.20271 -0.0869,-0.21251 -0.11457,-0.56506 0.12856,-0.23942 0.13287,-0.0227 0.0956,0.11266 0.13227,-0.0251 -0.0165,0.31596 0.0612,-0.0765 0.14566,-0.65511 0.11637,-0.15858 -0.12797,-0.43052 0.0257,-0.15057 0.12497,-0.14207 0.014,-0.14506 z m 1.36309,1.08133 -0.11827,0.17688 0.2033,0.17029 0.0465,0.0202 0.0349,-0.13227 z m -0.37109,0.90004 -0.69625,0.14267 -0.0459,0.0679 0.11277,0.0692 0.12605,0.26693 0.26393,0.23702 -0.002,-0.0901 0.10835,-0.0287 0.0612,-0.23822 0.14638,-0.0214 0.0673,0.0465 0.19219,-0.17329 -0.13466,-0.0184 -0.0214,-0.10165 0.13466,-0.11206 z m 22.13098,1.68012 -0.72317,0.22842 -0.27123,-0.0508 -0.20629,0.14949 0.26083,0.42119 0.30615,-0.002 0.35386,-0.43842 0.3913,-0.27924 z m -26.01849,0.72017 -0.0447,0.0919 -0.14506,-0.0472 -0.0471,0.0814 -0.10356,-0.006 -0.27363,0.25102 -0.1984,-0.0759 -0.0557,-0.16707 -0.0612,-0.0337 -0.21621,0.0716 -0.15607,0.15069 -0.17328,-0.0808 -0.01,0.0838 0.18859,0.0937 0.48063,0.46473 0.27004,0.68752 0.11576,0.13048 0.2106,0.0447 -0.0281,-0.0692 -0.16049,-0.063 -0.007,-0.10225 0.16467,-0.10835 0.31967,-0.0104 0.0703,-0.54928 0.12808,0.0141 0.2381,0.2332 -0.0679,-0.12736 0.0447,-0.17449 -0.0618,-0.0985 0.10405,-0.23021 -0.0901,0.0434 -0.15978,-0.0752 -0.17209,0.014 -0.0551,0.14519 0.11337,0.0465 -0.0239,0.16838 -0.095,-0.0398 -0.12306,-0.19648 0.0956,-0.30866 0.0838,-0.0808 -0.0673,-0.13167 z m 7.76522,0.13466 0.25221,0.0269 -0.0214,0.13836 0.0869,0.009 0.0722,0.11816 -0.11014,0.10416 0.0238,0.0887 0.31237,0.0373 -0.0343,0.20581 0.28044,0.0954 0.24301,-0.0471 0.3785,0.0539 0.0465,0.2167 -0.003,0.001 -0.0464,-0.21598 -0.37839,-0.0538 -0.24312,0.0471 -0.28044,-0.0956 0.0343,-0.2057 -0.31225,-0.0374 -0.0239,-0.0887 0.11026,-0.10405 -0.0722,-0.11827 -0.0871,-0.008 0.0215,-0.13837 -0.24971,-0.0267 z m 5.93896,0.061 3.7e-4,0.001 -0.33725,0.21467 -1.2e-4,-9.6e-4 z m -5.96814,0.0495 -2.5e-4,9.6e-4 -0.12652,0.01 3.7e-4,-9.5e-4 z m 5.64381,0.3571 1.2e-4,0.001 -0.29718,0.0885 2.5e-4,-0.002 z m -0.3602,0.43578 -2.5e-4,0.002 -0.24133,0.071 -0.38508,0.26765 -0.53576,0.16407 -0.16253,-0.0871 8.4e-4,-0.002 0.16348,0.0877 0.53576,-0.1642 0.38461,-0.26752 z m -3.99252,0.23583 -0.008,0.43627 0.28594,-0.15619 0.30244,0.0765 0.31967,0.45624 0.38137,-0.0956 0.31356,0.17138 0.38987,-0.0859 -4.9e-4,0.001 -0.3913,0.0863 -0.31345,-0.17149 -0.38209,0.0956 -0.31966,-0.45612 -0.30244,-0.0765 -0.28594,0.15606 0.008,-0.43722 z m -8.37931,0.40625 -0.14267,0.0135 -0.23081,0.41569 0.15056,0.44511 -0.085,0.15738 0.14016,-0.15738 -0.0257,-0.4353 0.15188,-0.26203 -0.0962,-0.11636 0.093,0.007 z m 10.95708,0.013 -6.2e-4,0.002 -0.51112,0.10441 4.9e-4,-0.002 z m 19.99964,6.89125 -0.19171,0.004 -0.91163,0.32014 -0.992,0.73966 -0.45373,0.42742 -1.29803,0.8229 -0.10165,0.14638 0.0838,0.31595 0.10477,0.0661 0.0447,-0.0508 0.16528,0.049 0.36068,-0.12306 0.36917,-0.25604 0.35028,0.10787 0.25593,0.68262 -0.0141,0.21861 0.17269,0.33928 -0.0214,0.26382 -0.15009,0.0312 -0.0391,0.21012 0.0722,0.0281 0.0594,0.21682 0.0471,-0.01 0.044,0.29694 0.0851,0.14016 -0.041,0.19051 0.13406,0.0858 0.65822,0.51065 0.35339,-0.0557 0.15666,0.15738 -9.5e-4,0.002 -0.15391,-0.15487 -0.35327,0.0556 -0.65823,-0.51065 -0.0343,0.22603 0.12976,0.14817 -0.0459,0.18728 0.11457,0.15989 0.0893,0.0612 -0.14818,0.14387 v 0.12856 l 0.10166,0.0208 -0.0361,0.0938 -0.0907,0.10644 -0.13095,0.0215 -0.0104,0.0459 0.11074,-0.0233 -0.0275,0.12676 -0.0563,-0.0808 -0.0539,0.0178 -0.0722,0.12856 0.0973,0.15606 0.0753,-0.007 -0.0899,0.30244 -0.2039,-0.11014 0.0202,-0.24432 -0.11026,0.014 -0.0269,0.0661 -0.0576,-0.0501 -0.24062,0.0532 0.0416,-0.0863 -0.0563,-0.17568 -0.0759,-0.002 0.0172,-0.0612 0.21669,0.13167 0.11146,-0.0281 0.11325,0.0679 0.0196,-0.0502 -0.0991,-0.0532 0.0238,-0.0796 -0.10715,-0.0716 -0.0997,0.0269 -0.0478,-0.0465 -0.0673,0.0771 -0.052,-0.0226 0.0698,-0.1868 -0.11146,0.0386 -0.0312,-0.0612 0.003,0.13167 -0.0942,0.0691 0.0863,0.0496 0.0557,0.177 -0.3852,0.0391 0.008,0.17939 -0.0943,0.0429 -0.0765,0.2033 -0.022,-0.2149 0.42802,-0.81991 0.005,-0.20569 -0.41701,-0.22782 -0.22829,0.2094 -0.24803,-0.0974 -0.15679,0.0974 -0.14207,0.37049 -0.0312,0.34585 -0.2002,0.14818 -0.0826,0.20031 -0.0374,-0.0398 -0.23751,0.0679 0.0465,-0.15128 0.11146,-0.0403 v -0.15738 l 0.14937,-0.0826 -0.0312,-0.16168 -0.0961,-0.0202 0.007,-0.196 -0.17879,-0.27733 -0.0686,-0.0159 0.093,0.0845 -0.0452,0.0838 -0.47824,-0.0208 -0.41521,0.0918 -0.006,-0.0557 -0.0942,-0.022 0.0404,-0.0588 -0.0441,-0.0887 0.0875,-0.0478 0.50144,-0.0275 0.41091,-0.12736 -0.002,-0.0999 -0.1862,-0.0887 -0.0557,-0.0991 0.0692,-0.10656 0.0294,0.11816 0.0661,-0.0398 -0.0975,-0.12916 -0.044,-0.22781 -0.10105,-0.10955 -0.68705,0.35506 -0.16898,0.0184 -0.17938,-0.12366 0.0104,-0.071 0.30065,-0.14698 0.003,-0.10966 0.074,-0.0312 -0.06,-0.0722 0.12378,-0.14566 0.40039,0.11565 0.0349,0.0661 0.15797,-0.221 -0.0196,-0.23512 -0.18859,-0.37348 -0.14638,-0.1984 -0.19649,-0.10476 -0.022,-0.21 0.11445,-0.29945 0.0765,0.0508 0.16037,-0.0177 0.0319,0.13717 0.19409,0.0728 0.15248,-0.0924 -0.027,-0.28845 0.0514,-0.24612 0.21132,-0.1978 0.10775,0.0698 -0.13167,-0.42119 -0.65212,0.4359 -0.57487,0.13526 -0.1984,-0.10153 -0.14387,-0.24074 -0.58719,0.15738 -0.33676,-0.13776 -0.53708,-0.0208 -0.30974,-0.0814 -0.28044,-0.16958 -0.3797,-0.15188 -0.21861,-0.32385 0.1746,0.53445 0.32075,0.0894 0.34537,0.24253 0.71826,0.0612 0.46843,0.26023 0.0808,0.232 -0.0111,0.49355 -0.0777,0.28163 -0.20139,0.27434 -0.37659,-0.009 -0.45683,0.25294 -0.26083,-0.22543 -0.0471,0.0294 -0.0233,0.0453 0.0834,-0.0159 0.0728,0.12485 0.0251,0.53337 0.0557,0.13466 -0.10225,0.31165 -0.17998,0.16169 -0.33677,0.0533 -0.0502,0.16839 -0.0606,-0.1715 -0.0435,0.011 -0.0471,0.20701 -0.24671,0.14996 -0.28965,-0.27003 -0.0643,0.0453 0.0349,0.0753 -0.0551,0.10775 -0.13406,0.009 -0.17077,-0.23093 0.0116,-0.10834 -0.15188,0.0508 -0.27374,-0.0165 -0.39489,0.25532 -0.29575,0.0508 -0.50574,-0.221 -0.35028,-0.0747 -0.64782,0.12677 0.34227,0.21179 0.63562,0.0257 0.0875,0.0465 0.25102,0.38891 0.31296,0.23141 0.0881,0.0343 0.25844,0.0606 -0.10417,0.0863 0.11888,0.0238 -0.0153,0.049 -0.12378,0.0667 -0.0238,-0.0624 -0.23033,0.0581 -0.49534,-0.11325 -0.28953,0.0141 -0.2021,-0.082 -0.071,0.052 0.009,0.10165 0.0869,0.0679 0.80939,0.14208 0.605,0.38448 0.16229,0.16958 0.17448,0.40541 0.0612,0.4243 -0.14578,0.30615 -0.37958,0.005 -0.12796,0.31476 0.11875,0.063 0.15559,-0.0226 0.0948,-0.16658 -0.0526,0.0171 -0.0214,-0.0905 0.0661,-0.0637 0.15367,0.25723 0.27494,0.27554 0.0324,0.31344 0.22662,0.47705 -0.0791,0.38269 0.17018,0.30734 -0.11074,0.2228 -0.21,0.0453 -0.22411,0.17878 -0.26083,0.0417 -0.0533,-0.0803 -0.17939,0.34717 0.14148,-0.0214 0.27242,0.19959 0.18549,-0.0478 -0.0563,-0.17819 0.0724,-0.063 0.13035,0.004 0.20211,0.13466 0.008,0.12868 -0.12605,0.0703 -0.0215,0.0759 -0.28594,-0.0202 -0.15977,-0.10583 -0.0545,0.0336 0.0104,0.0962 0.17269,0.0826 0.2033,0.21861 0.51065,0.29084 0.0851,0.34717 -0.0502,0.19589 0.16168,0.041 0.0759,0.12186 0.055,-0.12054 0.15068,-0.10106 -0.0637,-0.0484 0.0288,-0.24851 0.12186,-0.0808 0.041,0.17388 -0.21431,0.46724 -0.28904,-0.0681 -0.0648,-0.085 -0.0484,0.0354 0.14937,0.31417 -0.11815,0.0612 0.0576,0.15738 0.11325,0.0985 0.20139,0.0135 0.11816,0.11385 0.17818,-0.0428 -0.0397,-0.0692 0.0397,-0.13347 0.11816,-0.003 0.0545,0.13849 0.13048,-0.14208 0.13836,0.17449 0.24241,-0.16289 0.13358,0.0379 0.0765,0.24134 -0.22842,-0.09 -0.0686,0.10045 0.39991,0.0532 0.18608,-0.0367 -0.10105,-0.24492 -0.14327,-0.0263 -0.0838,0.0532 -0.0233,-0.0495 0.13107,-0.18931 0.14997,0.0796 0.0747,-0.0416 0.0961,0.0991 -0.008,0.0779 0.1801,-0.005 0.0379,0.10894 0.0881,-0.0324 0.65273,0.17317 0.13968,-0.0293 0.35936,0.20199 0.14016,-0.074 -0.01,-0.0979 0.26513,-0.27554 0.22889,-0.0331 0.1941,0.17579 0.0785,-0.0111 -0.17699,0.20271 0.0269,0.0404 0.0938,-0.0471 0.0385,0.0636 -0.2381,0.1648 0.0147,0.19218 0.14135,0.0588 0.0649,-0.0582 0.26944,-0.002 -0.0172,0.0948 0.0686,0.0466 0.13777,-0.10417 0.12545,0.0569 0.0655,0.22052 -0.0869,0.0919 -0.24612,-0.0557 -0.15738,0.20569 -0.26884,-0.0208 0.0276,-0.0796 -0.0588,-0.0495 -0.0373,0.23081 0.1972,0.29383 0.16528,-0.0128 -0.0526,0.0961 -0.0698,-0.002 0.10595,0.16229 0.15308,0.0123 -0.098,-0.11516 0.0612,-0.0428 0.29324,0.21669 0.20151,0.37229 -0.0649,0.0771 -0.66372,-0.33856 -1.07584,-0.27745 0.049,0.0453 0.4585,0.12306 0.42371,0.24922 0.67425,0.25413 0.16647,0.20151 0.5781,0.43591 0.18058,-0.011 -0.009,-0.0802 -0.082,-0.0361 0.038,-0.0275 0.35136,0.12246 0.20461,0.29443 0.40099,0.20521 0.2259,0.002 0.21311,-0.11935 0.3748,-0.35829 0.4029,0.0166 0.0171,-0.14817 -0.27063,-0.50826 0.041,-0.11146 -0.13897,-0.0275 0.0263,-0.11947 -0.0747,-0.18238 -0.0575,-0.003 0.0949,-0.0832 -0.0883,-0.0214 0.004,-0.12127 -0.10895,-0.011 -0.03,-0.0967 0.17508,0.0985 0.0227,0.0808 0.10225,-0.0569 0.16216,0.0968 0.13538,-0.16778 0.0912,-0.398 -0.13597,-0.14578 -0.29575,-0.10715 -0.14016,0.10966 -0.0826,-0.0398 -0.0221,0.0532 -0.13035,0.009 -6.1e-4,-0.10895 -0.15439,-0.004 -0.10166,0.14446 -0.0703,-0.0814 -0.10225,0.0472 0.0404,-0.16659 -0.0392,-0.10225 -0.14638,-0.0361 -0.063,-0.0785 0.16037,-0.26381 0.26633,-0.12988 0.25353,-0.0287 0.0404,0.0373 -0.10225,0.17567 -0.0526,0.36188 0.0691,0.0704 0.10656,-0.0116 0.11756,-0.0944 -0.0349,-0.51065 0.44212,-0.57618 0.052,0.0294 0.22292,-0.17879 0.68214,-0.26393 0.68513,0.0894 0.13346,-0.26824 0.21801,0.007 0.15428,-0.0987 0.32636,-0.36247 0.022,-0.13155 -0.0844,-0.31237 0.0795,-0.24181 -0.0618,-0.0594 -0.0202,-0.1929 -0.23942,-0.31715 -0.43531,-0.4157 -0.52655,-0.0539 -0.64053,-0.33425 -0.22901,-0.26884 -0.0428,-0.14817 0.0337,-0.0913 -0.049,-0.16528 0.39488,-1.10405 0.47274,-0.47944 0.47334,-0.24551 0.0287,-0.11206 -0.15307,-0.14327 -0.51675,-0.21371 -0.28044,0.12318 -0.0679,-0.10715 -0.16838,0.0507 -0.0484,0.19661 -0.4218,-0.12366 8.4e-4,-0.005 0.41857,0.1227 0.0483,-0.19661 0.16779,-0.0508 0.068,0.10715 0.28032,-0.12366 0.51687,0.21371 0.15307,0.14327 0.0679,0.0637 0.30866,-0.18369 -0.079,-0.0661 0.0392,-0.0551 0.0593,-0.0282 0.33927,0.0147 0.019,0.0453 0.0324,0.11947 0.36188,0.0544 0.10894,-0.21179 -0.0832,-0.0747 0.10715,-0.24312 0.21251,-0.0306 -0.003,0.0913 0.12485,-0.11074 0.0612,-0.12437 0.079,-0.23512 0.26633,-0.23691 0.0569,-0.17699 -0.074,-0.22782 0.0875,-0.0165 -0.0508,-0.0802 0.13048,0.0435 0.0856,-0.0704 0.0123,-0.0508 -0.1764,-0.11875 -0.0997,0.19409 -0.0527,-0.0459 0.0294,-0.17149 -0.0636,-0.074 0.17628,-0.41211 -0.0747,-0.22471 0.03,-0.20569 -0.15797,-0.35458 -0.041,-0.54617 -0.46652,-1.11434 0.39548,-1.10824 0.27805,-0.26454 0.15977,-0.29084 -0.009,-0.082 0.0802,-0.0251 -0.15247,-0.0704 -0.56267,-0.54437 -0.35208,-0.17449 -0.53636,-0.0281 -0.42072,-0.12318 -0.30543,-0.27972 -0.33258,-0.0863 z m -35.42162,0.17999 0.28654,0.20581 0.59389,0.18238 0.6221,0.52595 -0.0146,0.29766 0.0893,0.63742 0.53576,0.76597 0.002,0.34526 -0.0557,0.0698 0.11636,0.1917 -0.47753,0.54677 -0.43722,0.29945 -0.0477,0.11074 -0.10046,-0.0734 0.0214,-0.29395 0.16049,-0.18548 -0.1758,-0.084 -0.0899,0.0239 -0.0404,0.0826 -0.17209,-0.21299 0.0802,0.008 -0.004,-0.0685 -0.1758,-0.0325 -0.0508,0.14889 0.0619,0.10404 -0.15068,0.0355 0.11026,0.10045 0.0104,0.13777 -0.10045,0.15367 -0.0999,0.0226 -0.0448,0.29251 -0.0212,-0.003 0.083,0.19684 -0.11612,-0.11791 -0.0135,-0.28893 0.18919,-0.29216 -0.14746,-0.15056 0.0373,-0.13048 -0.11206,-0.28833 0.0453,-0.14877 -0.006,-0.1972 -0.0606,-0.0526 0.03,-0.32768 -0.12318,-0.0954 -0.19828,-0.69314 -0.13681,0.0422 0.048,-0.082 0.068,0.0294 0.12976,-0.0569 -0.0814,-0.027 -0.0901,-0.43041 0.0625,-0.71024 0.12665,-0.22041 z m 18.02186,1.38939 0.0106,0.0715 -0.0431,0.007 -0.10787,0.17449 -0.2039,0.005 0.11457,-0.0471 0.14506,-0.18429 z m 2.59307,0.35136 -0.33557,0.35518 0.0569,0.54868 0.0582,0.0954 0.17759,-0.0245 0.18489,0.11767 0.13346,0.17449 0.0508,0.18177 -0.14327,0.57128 -0.0575,0.0551 -0.23822,0.0202 -0.15917,0.18249 -0.0141,0.85662 0.079,0.25102 0.11995,0.13406 0.24253,-0.0141 0.34526,0.0814 0.18488,-0.48852 -0.0122,-0.60991 0.15069,-0.33737 0.17197,-0.16527 -0.0153,-0.19051 -0.28283,0.14148 -0.0993,-0.0575 -0.0587,-0.10716 0.0398,-0.0661 -0.10596,-0.0343 -0.0679,-0.23763 0.17197,-0.0997 0.11577,0.0532 0.0698,-0.0881 -0.39441,-0.18799 -0.19589,-0.25341 -0.0924,-0.22053 z m -1.34766,0.64782 0.22412,0.22602 0.0783,0.0196 0.13346,-0.0741 0.0729,-0.0557 z m -9.70078,0.10607 0.007,4.9e-4 0.19015,0.21873 -0.008,-7.3e-4 z m 0.782,0.2173 0.28379,0.18345 -0.31118,-0.14614 z m -0.32756,0.001 0.20857,0.0944 -0.0274,0.0373 -0.0526,-0.0539 -0.0858,0.0227 -0.0324,-0.0716 -0.0488,-0.006 z m 21.98041,0.007 -0.0313,0.29515 0.24683,0.39919 0.0208,0.26154 0.0974,0.0514 0.12736,0.29443 -0.16169,0.45073 -0.16647,0.0746 -0.0704,-0.0581 -0.29946,0.0973 0.007,0.188 -0.12127,0.0777 -0.0526,0.51185 -0.0453,0.10165 -0.0588,-0.009 0.0392,0.0777 0.0477,-0.019 0.005,0.23631 0.16049,-0.0202 0.24791,0.0975 0.22782,-0.2094 0.41701,0.2277 0.0807,-0.15798 0.0466,0.13287 0.087,-0.0422 0.006,0.17699 0.33856,-0.15618 0.12916,0.049 0.009,-0.34226 -0.0685,-0.0594 0.0997,-0.15068 -0.12246,-0.26872 0.049,-0.1929 -0.12617,0.0184 -0.0251,-0.0441 0.005,-0.11027 0.0962,-0.052 -0.11995,-0.0844 -0.0723,-0.53887 -0.24121,-0.10835 -0.033,-0.0729 0.0293,-0.28104 0.21311,-0.27733 -0.0196,-0.10595 -0.16958,-0.11935 -0.15798,0.0269 -0.17388,-0.2424 z m -21.68287,0.033 0.0294,0.016 -0.0484,7.2e-4 0.0196,-0.0117 -10e-4,-0.004 z m 0.3339,0.15558 0.0133,0.009 0.003,0.0974 0.6245,0.86272 -0.16456,0.11828 -0.0185,-0.008 0.16958,-0.12187 -0.6245,-0.86332 z m 14.34171,0.0883 0.049,0.2228 0.26513,0.12066 0.23691,0.30986 0.52177,0.221 0.0948,0.10106 -0.0287,-0.14028 -0.1886,-0.10464 -0.21131,-0.24313 -0.36619,-0.24552 -0.0599,-0.12856 z m -17.90705,0.53026 0.0181,0.004 -0.0651,0.58958 -0.0176,-0.009 z m 7.54206,0.0777 0.3809,0.0336 0.0269,0.0337 -0.0728,0.007 -0.008,0.0556 -0.0158,-0.0629 -0.14997,0.0349 -0.14889,-0.041 z m -6.73531,0.4414 0.0862,0.079 -10e-4,0.002 -0.0863,-0.079 z m 3.3453,0.003 0.0151,0.007 -0.0673,0.22076 -0.016,-0.002 z m -7.48562,0.0421 0.18165,0.1783 -0.004,0.001 -0.18118,-0.17843 z m 1.1532,0.13884 0.0169,0.01 0.11947,0.35303 -0.0154,-0.006 z m 11.57524,0.0399 -0.14147,0.0643 0.0539,0.12605 0.16037,0.0718 0.16229,-0.11516 -0.10835,-0.0685 z m -5.00604,0.0452 0.0134,10e-4 -0.003,0.0696 -0.0134,-3.7e-4 z m 0.17568,0.0862 0.0103,2.5e-4 0.13752,0.6117 -0.0108,-0.002 z m -10.84203,0.006 0.0202,0.003 -0.007,0.12916 0.38186,0.2973 -3.7e-4,2.4e-4 -0.40111,-0.31225 z m 1.08863,0.0664 0.23631,0.29838 -0.008,-8.4e-4 -0.232,-0.29276 z m 29.43385,0.18429 -0.0905,0.39991 -0.15129,-0.14698 -0.0685,0.10225 -0.12988,0.0465 0.14877,0.36428 0.0834,0.007 0.10464,0.11445 0.18249,-0.0991 0.0808,-0.38891 -0.0343,-0.21179 z m -28.84774,0.16193 0.0348,0.003 -0.0719,0.051 -0.0231,-0.0118 z m 24.25369,0.0328 -0.0398,0.15439 0.10656,0.23261 0.11516,0.0759 -0.0343,-0.0612 0.0184,-0.0974 -0.12006,-0.13597 0.0422,-0.0795 z m -8.24405,0.0343 -0.12055,0.36188 0.0269,0.0991 -0.22101,0.0612 -0.21562,-0.0379 -0.11755,0.14817 0.10296,0.0741 0.28714,-0.019 0.22411,0.0991 0.12617,-0.0887 0.0495,-0.33497 z m -15.85071,0.0926 0.0166,0.008 0.0676,0.16085 -0.013,1.2e-4 z m 9.31977,0.0722 0.0136,0.002 -0.013,0.14303 -0.0133,8.3e-4 z m 0.39262,0.0367 0.0932,0.12604 -0.10046,0.13347 0.13622,0.16862 -0.002,10e-4 -0.14626,-0.1813 0.10034,-0.13347 -0.0823,-0.11169 z m 22.26384,0.81022 0.30495,0.2735 -0.002,0.002 -0.30448,-0.2729 z m 3.47612,0.43758 -0.14148,0.003 -0.0306,0.199 -0.30854,0.34226 -0.13418,0.30855 -0.36858,0.47943 0.0276,0.2155 0.13525,0.26334 0.10775,0.0612 0.13598,-0.03 0.0581,0.21371 0.23762,0.0802 0.34048,-0.32888 0.27182,-0.0808 0.15188,-0.15116 -0.0606,-0.0221 -0.0429,-0.15917 0.0981,-0.13717 -0.004,-0.22889 -0.0441,-0.0583 -0.17998,-0.019 0.022,-0.0563 -0.2106,-0.39309 -0.0135,-0.0979 0.0686,0.0349 0.0844,-0.11027 -0.0349,-0.0557 -0.0477,-0.0165 -0.0306,-0.0691 -0.0901,0.0679 0.0484,0.14087 -0.0832,-0.14948 0.12796,-0.10034 -0.0257,-0.0417 -0.0349,-0.0532 z m 1.21169,0.37049 -0.21921,0.13167 -0.0299,0.35075 -0.0453,0.0227 0.0471,0.16288 0.0312,0.12796 0.0936,-0.0263 0.0845,0.22339 0.25652,-0.0581 -0.0814,-0.0832 0.0416,-0.0681 -0.0556,-0.0391 -0.0325,-0.56519 z m -22.08135,0.38759 0.15487,0.27553 0.0202,0.35148 0.0429,-0.0625 -0.0502,-0.31595 0.0838,-0.10285 -0.0159,-0.0893 -0.17268,-0.0533 z m 16.98705,0.18979 -10e-4,0.006 -0.0786,0.004 -6.1e-4,-0.006 z m -15.70923,0.17938 -0.16647,0.0294 0.10405,0.17138 -0.004,0.21562 0.10476,0.0962 -0.0184,0.0569 -0.28834,0.0147 0.0477,-0.16659 -0.0526,-0.15307 0.0251,-0.0471 -0.61301,0.11624 -0.0703,0.13167 -0.0693,0.0423 -0.12915,-0.009 -0.34418,0.18058 -0.27303,0.041 -0.27183,0.1886 -0.31787,0.0704 -0.10655,0.16168 -0.70965,0.51244 -0.19589,0.0386 -0.43112,-0.0655 -0.13836,-0.17209 -0.008,-0.3815 -0.11815,-0.0624 -0.23703,0.0398 -0.19409,0.13897 h -0.22962 l 0.11027,0.18249 -0.20211,0.36068 -0.1929,-0.0257 -0.2167,-0.14757 -0.16348,0.0355 0.0281,0.13154 0.17149,0.18501 0.23511,0.0251 0.10476,0.29085 0.14076,0.0918 0.15977,-0.0368 0.0539,0.0797 0.0545,-0.0116 0.0557,0.0973 -0.13717,-0.0594 -0.0294,0.068 0.16169,0.11876 0.0667,-0.0135 0.0232,0.0956 0.15738,0.13466 -0.10345,0.0374 -0.24312,-0.10655 -0.47513,-0.3968 -0.0496,-0.10895 -0.0471,0.0734 0.25293,0.34227 -0.0245,0.16228 0.4041,0.0404 0.29024,0.13167 -0.0116,0.15057 -0.22112,-0.0336 -0.0844,0.0691 0.29874,0.12366 0.14327,0.16719 -0.005,0.10344 -0.17879,0.11828 -0.2485,0.0232 -0.0251,0.17017 0.45181,0.19721 0.1868,-0.009 0.11146,-0.0893 0.0483,0.20079 0.14948,0.0551 -0.0343,0.0679 -0.13717,-0.0655 -0.009,0.10907 0.13287,0.39369 -0.0293,0.54306 -0.0735,0.0435 0.15128,0.2137 -0.0606,0.11015 0.13896,0.11576 0.16838,0.25843 0.32027,0.008 0.16467,0.17209 -0.0287,0.58969 0.0783,0.29384 -0.10596,0.21801 0.3907,0.18118 0.16408,-0.1941 -0.27063,-0.39369 -0.12366,-0.0838 -0.019,-0.2051 -0.0797,0.0599 0.027,-0.15666 0.055,0.0361 0.0594,-0.0967 -0.11206,-0.12987 0.0392,-0.0434 0.20139,0.0948 0.0104,0.20641 0.24432,0.0636 0.31775,0.0165 0.0742,-0.12366 0.0508,0.0233 0.0569,-0.10416 0.049,0.007 0.17389,0.34346 0.0128,0.1813 0.0771,0.008 0.16228,0.31416 0.10046,0.0587 -0.14638,0.0956 -0.0991,0.022 -0.24683,0.0625 -0.10776,0.14327 -0.17567,6.1e-4 -0.11326,0.29695 0.0422,0.15487 0.47334,-0.2118 0.25281,0.15427 0.21,0.0122 0.14327,0.18369 0.0919,0.009 0.13776,-0.17077 -0.052,-0.16169 -0.12306,-0.0832 0.16779,-0.10357 0.0869,0.12007 0.38209,0.18919 0.11815,0.20139 0.17879,0.0576 0.011,0.12677 0.29145,0.0495 0.16539,-0.21431 0.12365,0.1648 -0.0214,0.0746 0.24671,0.14028 0.47023,-0.0423 0.15439,0.16419 0.2326,0.0685 0.69004,-0.30735 0.13286,-0.0943 0.0105,-0.12605 0.18117,0.0379 0.0502,0.0698 0.35578,-0.0441 0.0446,-0.082 0.14458,0.0379 -0.011,0.0625 0.32445,-0.1764 0.11026,-0.40589 0.15977,-0.0753 -0.0379,-0.12856 0.17329,-0.79419 0.13035,-0.25162 0.0716,-0.74768 -0.23392,-0.62091 0.006,-0.27302 0.004,-0.10345 -0.0232,-0.11756 0.0936,0.01 0.15068,0.15056 0.0312,-0.052 0.0661,0.0434 0.0391,0.10357 -0.0495,0.0593 0.21,-0.0581 -0.0575,-0.12365 -0.0264,-0.0423 -0.17807,-0.15427 -0.23583,-0.72376 -0.2387,-0.4298 -0.81381,-0.92455 -0.23631,0.17759 -0.43412,-0.28475 -0.10906,0.10106 0.0686,0.33425 -0.0569,0.0869 -0.27195,-0.28474 -0.008,-0.0642 0.0973,0.008 0.0275,-0.0618 -0.0349,-0.0722 0.22602,-0.0667 0.005,-0.0538 0.21921,0.0856 0.16587,0.15367 0.0759,-0.0159 -0.0177,-0.0789 0.16097,0.0826 0.10835,-0.0575 0.0661,-0.1978 0.33378,-0.17448 0.20629,0.0251 0.10165,-0.11397 -0.0844,-0.199 -0.21801,-0.232 -0.0907,-0.25353 0.0202,-0.16707 -0.19409,-0.22543 -0.49355,-0.90984 -0.0544,-0.0728 -0.0215,0.13586 -0.13095,-0.0367 -0.0655,-0.10894 -0.022,0.11145 0.15917,0.12246 0.0783,-0.0496 0.10345,0.27732 0.0325,0.22053 -0.0814,0.022 0.10894,0.0893 -0.074,0.14637 -0.24684,-0.4011 -0.0122,0.007 0.0802,0.37839 0.12605,0.1978 -0.0202,0.2277 0.0877,0.16049 -0.11828,0.0367 -0.2222,-0.22351 -0.17699,0.11756 -0.007,0.0661 0.44942,0.22961 0.0355,0.25724 -0.10655,0.12856 -0.11577,-0.0875 -0.14996,0.0263 -0.0508,0.082 -0.13047,0.0269 -10e-4,0.0533 -0.16096,-0.068 -0.14088,0.16049 -0.33988,-0.11457 0.0704,0.1801 0.0606,0.12055 -0.21311,0.21921 -0.13585,-0.0832 -0.11337,0.10405 -0.15858,-0.0275 0.0924,-0.1996 0.0111,-0.1905 0.0134,-0.0722 0.0435,-0.15057 0.0919,0.019 0.0269,-0.15499 0.26764,0.0649 -0.0883,-0.10966 0.0471,-0.0807 0.071,0.0348 0.0943,-0.0624 -0.16778,-0.18608 -0.003,-0.13167 -0.11134,-0.0888 0.007,-0.0728 0.0956,-0.0477 0.0465,-0.0502 0.0722,-0.0165 -0.0514,-0.0999 0.0385,-0.0355 0.24432,0.17269 0.25042,0.33928 0.0655,-0.0374 -0.19289,-0.22531 -0.74637,-0.55897 -0.29813,-0.30256 z m 17.31532,0.37229 -0.0202,0.0961 0.0765,-0.0465 z m -22.68144,1.44752 -0.0325,0.13716 0.11086,0.22412 0.10895,0.0226 0.12556,-0.0594 -0.0104,-0.0991 -0.093,-0.0165 -0.10105,-0.1697 z m -11.1904,0.45312 -0.25724,0.18118 0.0269,0.25533 0.37228,0.37348 0.42861,0.94356 0.21431,0.16659 0.1984,0.03 -0.0263,-0.0539 0.0956,-0.19959 -0.0826,0.0116 -0.049,-0.32326 -0.16778,-0.25843 0.15917,-0.17018 -0.0997,-0.3907 -0.12365,-0.0844 -0.1642,0.19159 -0.0832,-0.0648 -0.0447,-0.0858 0.0331,-0.44152 -0.12438,-0.0563 -0.19708,-0.0134 -0.14028,0.11206 -0.0373,0.12425 -0.0477,-0.0765 z m 11.44441,1.57177 -0.10034,0.0153 -0.0883,0.0985 0.11086,0.0875 0.11517,-0.06 0.0636,-0.0324 z m 0.93746,0.55897 -0.12126,0.0551 -0.0838,-0.0392 -0.049,0.14638 0.073,0.30735 0.24552,-0.082 0.0208,-0.14207 z m 41.96462,0.4145 -0.18237,0.17579 0.0483,0.14507 -0.041,0.13776 -0.34657,0.67354 -0.0948,0.58419 0.055,0.78308 -0.0691,0.12736 0.005,0.21981 -0.0459,0.10596 0.0373,0.0655 -0.0587,0.0649 0.28104,0.17388 0.17137,0.23201 0.27064,0.16348 0.15188,-0.0214 0.31787,0.19039 0.0979,-0.0196 0.35327,0.15559 0.32756,0.25102 0.0906,-0.005 0.2424,0.16468 1.00791,0.22722 0.31966,-0.38149 0.008,-0.1825 -0.0967,-0.18369 0.12006,-0.10835 0.0336,-0.14207 0.0888,-0.0104 -0.005,-0.17209 0.16348,-0.21551 -0.11696,-0.44272 0.10285,-0.14996 -0.011,-0.15308 -0.0722,-0.0116 -0.0679,-0.14698 -0.16229,0.011 -0.25353,-0.10656 -0.39429,-0.31404 -0.17938,-0.0729 -0.26884,-0.25592 -0.16778,-0.31225 -0.21802,0.0802 -0.0679,-0.0294 -0.11637,-0.11576 -0.31954,-0.12856 -0.0753,-0.13657 -0.42921,-0.2271 -0.15559,-0.35877 -0.23631,-0.19051 0.008,-0.0832 z m -42.59031,0.37168 -0.1691,0.0637 0.0514,0.11696 -0.063,0.0446 0.11755,0.14267 0.1703,-0.005 0.14506,-0.19098 0.0245,-0.10417 -0.13418,0.0588 0.0582,0.0777 -0.0698,0.0679 -0.041,-0.24551 z m 12.08864,0.34418 -0.0331,0.0361 0.0514,0.0979 -0.006,0.64172 0.18799,0.0691 0.0851,-0.0636 -0.11206,-0.36068 -0.13968,-0.13466 0.009,-0.11516 0.0367,0.0337 0.0649,-0.052 -0.0514,-0.0975 z m 4.4845,0.72065 -0.10595,0.44452 0.12975,-0.0373 0.0863,0.0397 0.0471,-0.17448 0.0981,-0.17448 z m -0.1929,0.33246 -0.13166,0.0838 -0.14208,-0.0281 0.11756,0.19039 0.17699,0.0569 z m -4.24138,0.0465 -0.38639,0.24803 0.14566,0.29264 0.10416,-0.27063 0.14076,-0.12366 -0.0208,-0.0588 z m -2.02621,0.1764 -0.32385,0.38627 -0.0233,0.19171 -0.18919,0.34657 -0.25281,0.99929 -0.16408,0.2045 -0.15499,0.38209 -0.17759,0.19218 -0.15427,-0.0171 -0.11445,0.10285 -0.59819,0.76849 -0.0901,0.19588 0.0416,0.17999 0.0526,-0.0422 0.0967,0.0557 0.0765,-0.14937 0.003,0.14937 0.17508,0.28474 -0.18608,0.0147 -0.0318,0.093 -0.13597,-0.0643 -0.03,-0.11565 -0.093,0.0122 -0.0686,0.44511 0.0551,0.0539 -0.0838,0.0233 -0.10655,0.2332 -0.43782,-0.12306 0.0588,0.12366 0.27852,0.18309 0.1941,0.30125 0.0135,0.25963 0.13406,0.31595 -0.0771,0.13538 0.008,0.13035 0.2253,0.26454 0.18979,-0.0808 0.16229,-0.2369 0.34286,-1.25582 0.32577,-0.82912 0.0245,-0.33915 0.0777,-0.11947 0.0306,-0.22471 0.232,-0.51986 0.31357,-0.40099 0.34585,-1.29564 0.1691,-0.94237 -0.027,-0.18668 z m 6.60735,0.25652 -0.0624,0.16528 0.038,0.1856 0.0936,-0.2027 z m -18.38792,0.24923 -0.0374,0.0893 0.0661,0.20211 0.15917,-0.0373 v -0.11696 l -0.0832,-0.12126 z m 5.81745,0.87061 0.0349,0.12318 0.22101,0.10835 z m -0.8107,0.15798 -0.13167,0.0944 0.009,0.13717 0.17759,0.19469 0.19709,-0.0606 0.0833,-0.09 -0.0459,-0.0795 -0.12497,-0.0306 -0.17138,-0.0478 z m 17.97534,10e-4 -0.22722,0.17568 -0.0232,0.0979 0.0348,0.0741 0.14578,-0.0318 0.071,0.0636 0.17567,0.28773 -0.10165,0.24624 0.0773,0.2045 0.0477,0.0532 0.12366,-0.0918 0.43543,0.0453 -0.33438,0.087 -0.17759,0.2021 -0.14697,0.0575 -0.0581,-0.03 0.14757,-0.25042 -0.0612,-0.052 -0.5964,0.25042 -0.0802,-0.20701 -0.25341,-0.0881 0.12054,0.27984 -0.15427,-0.0588 -0.35386,0.19721 0.0722,0.16778 0.13896,0.0575 -0.23081,0.15188 -0.0846,0.23021 0.10967,0.11816 -0.15308,0.0594 -0.24312,-0.0692 0.10835,-0.24241 -0.16157,-0.17878 -0.31596,-10e-4 -0.0961,0.0838 -0.10105,-0.0208 -0.13346,-0.33928 -0.0826,0.11457 0.10835,0.11205 -0.019,0.12055 0.0765,0.16778 0.89394,0.29025 0.33497,0.0251 -0.0483,0.0728 -0.14638,-0.0532 0.14327,0.26202 0.32696,0.0441 0.22531,-0.0447 0.63993,-0.82661 0.28402,-0.23081 0.36679,-0.16168 0.50156,0.0325 0.76776,0.27613 0.27004,-0.0416 0.0979,-0.27745 -0.0459,-0.22961 -0.21371,-0.39859 -0.50574,-0.22292 -1.23561,-0.0703 -0.22782,-0.11026 -0.0844,-0.11875 z m -0.38089,0.0232 -0.16348,0.15499 -0.14877,0.0293 0.0575,0.0906 0.26214,0.10476 0.15858,-0.3693 z m -12.84613,0.0471 -0.25891,0.0871 -0.14578,-0.027 -0.0508,0.0441 0.0257,0.14566 0.17448,0.0221 -0.0232,0.10715 0.28905,-0.0496 0.12916,0.0575 -0.0791,-0.34836 z m -0.59137,0.009 -0.0478,0.038 -0.23883,0.2259 -0.4469,0.28965 -0.10106,0.14267 -0.14757,-10e-4 0.0135,0.11887 0.10405,0.0514 -0.041,0.0575 0.0477,0.30556 0.1752,0.14638 -0.007,0.14745 0.12437,0.0111 -0.0845,0.12186 0.14327,-0.0821 0.14817,0.0196 -0.10596,-0.11014 0.0643,-0.0104 0.30735,0.10895 0.27434,-0.34717 0.30735,-0.0337 0.0282,-0.33616 -0.17759,0.0319 -0.03,0.13896 -0.10165,0.10165 -0.18178,-0.0416 -0.0918,-0.12856 0.0459,-0.10106 0.0446,0.0336 0.0392,-0.0557 0.0869,-0.32206 0.0887,-0.0673 -0.0214,-0.13525 -0.15486,-0.0435 0.0379,-0.12797 z m -3.20968,0.23153 -0.11145,0.033 -0.0282,0.0918 0.1813,0.19469 0.32577,-0.002 0.29203,0.19959 0.0844,-0.0208 -0.0232,-0.15738 -0.17029,0.0685 -0.15057,-0.11074 -0.2155,-0.052 z m 1.79577,0.36666 -0.0893,0.12617 0.0196,0.0985 0.10284,0.0123 0.0673,-0.0785 0.13048,0.0282 -0.21802,-0.14327 z m 8.92799,0.34298 -0.17077,0.16408 0.14697,0.13035 0.1947,0.36738 0.24982,-0.38017 -0.15559,-0.23213 z m 5.19966,0.044 -0.17269,0.0582 0.0325,0.0624 -0.11206,0.11504 0.0153,0.0735 0.0287,-0.0698 0.0753,0.0239 z m -14.48092,0.0637 -0.004,0.14387 -0.30363,-0.0569 -0.0392,-0.0551 -0.17568,0.0771 0.0979,0.0887 0.13226,-0.096 0.32325,0.22101 0.12067,-0.11445 z m -1.83631,0.18549 0.0508,0.2027 0.23332,0.24122 0.0618,0.33305 0.35147,0.44703 0.27494,0.17819 0.44452,0.57858 0.4072,0.30555 0.11636,-0.0887 0.0734,-0.1752 0.12007,-0.0722 0.53086,-0.0801 0.009,-0.1935 -0.42,-0.42993 -0.0887,0.0166 0.21299,0.29574 -0.0361,0.0251 -0.17389,-0.16599 -0.11325,0.1923 -0.10105,-0.0626 -0.13837,-0.15547 -0.12485,-0.29024 0.071,-0.082 -0.15619,-0.17269 -0.0386,0.0465 0.13909,0.11266 -0.19721,0.24492 -0.10775,0.0288 -0.0575,-0.14997 -0.23452,-0.0779 -0.10225,-0.2167 -0.35458,-0.36559 -0.24552,-0.0495 -0.24492,-0.24982 -0.0214,-0.13286 z m 10.21263,0.0453 0.002,0.23081 -0.0593,0.0777 -0.20031,-0.11624 -0.0856,0.093 -0.0368,-0.21609 -0.13586,-0.0638 0.0373,0.15738 0.0722,-6.1e-4 0.0759,0.32576 0.24253,0.20259 0.27792,-0.33736 0.30245,0.0239 0.016,-0.0735 -0.1758,-0.24181 -0.2039,0.0257 z m 3.49132,0.0159 0.052,0.12306 -0.0569,0.22231 -0.18309,0.11326 -0.14997,-0.27123 -0.13896,-0.0857 h -0.19601 l -0.11086,0.16168 0.0802,0.0434 -0.0294,0.0686 -0.13287,-0.0337 -0.13776,0.17878 0.34418,0.0398 0.0857,0.14637 -0.12557,0.34036 0.0545,0.16228 0.0844,0.0612 -0.063,0.15248 0.0753,0.14697 -0.0263,0.0801 0.24062,0.0239 0.19469,0.15128 -0.019,0.10225 0.0875,0.12055 -0.15607,0.29706 0.13346,0.13406 0.15978,0.0343 0.0484,0.14136 0.2155,0.19349 0.0477,0.2039 0.14147,0.18369 -0.0796,0.0858 -0.0428,0.21311 0.34598,0.15188 -0.27374,0.39668 -0.10405,0.47214 0.45923,0.90984 0.0226,0.2155 -0.044,0.0784 0.4487,0.22041 0.0282,-0.23332 -0.10835,-1.08743 0.0832,-0.59449 0.13897,-0.25604 0.23822,-0.20809 0.2094,-0.50215 0.34406,-0.46222 0.29886,-0.17209 0.15678,-0.32875 0.2112,-0.0871 0.0514,-0.0838 -0.082,-0.19648 -0.24241,-0.29216 -0.057,-0.28654 -0.40469,-0.0948 -0.12306,0.0697 -0.46353,-0.10596 -0.15918,-0.12605 -0.0324,-0.4182 -0.11827,-0.0906 -0.28403,0.0453 -0.068,-0.0643 -0.0507,0.32947 -0.12988,0.007 -0.12066,-0.0704 -0.011,-0.14566 -0.12545,-0.10345 0.0349,-0.0667 -0.32888,-0.23703 z m -11.412,0.008 0.0746,0.12545 0.10345,-0.11815 z m 13.79076,0.082 -0.37097,0.12114 0.13526,0.0736 0.13107,-0.0783 0.0379,-0.0227 z m -12.18419,0.0116 0.21431,0.17388 0.0967,-6.1e-4 -0.0318,-0.12186 z m 4.37377,0.004 -0.32768,0.16898 -0.11014,-0.0337 -0.10716,0.0343 -0.049,0.0373 -0.0422,0.0857 -0.2002,-0.0214 -0.46664,0.42622 -0.10284,0.35877 0.0178,0.12617 0.10716,0.14387 0.12664,0.0453 0.0889,0.0936 0.0979,0.0777 0.0141,0.11577 h 0.0795 v 0.1978 l 0.11266,0.0538 0.28295,-0.0551 0.0214,0.0478 -0.15367,0.006 0.0208,0.0912 -0.10775,0.0434 -0.0502,0.13477 -0.0667,0.0177 -0.13657,-0.15797 -0.0134,0.12066 0.10285,0.10464 -0.0826,0.10417 -0.2137,0.0104 -0.0649,-0.17149 -0.44452,-0.15667 0.24181,0.19828 -0.12975,0.14698 -0.1758,0.019 -0.11935,-0.14088 -0.005,0.027 0.33987,0.58599 0.4273,0.22961 0.50885,0.15116 1.26993,0.52847 0.29024,0.23691 0.3925,0.44762 1.31214,0.87313 0.23882,-0.002 -0.004,-0.0571 -0.14028,0.0368 -0.41259,-0.21252 0.30304,-0.34956 0.39309,-0.0675 0.0643,-0.16706 0.15368,-0.009 0.16647,-0.0851 -0.0501,-0.0716 0.0673,-0.0312 0.14267,0.079 0.28283,-0.0423 0.14578,0.0742 0.0991,-0.0673 0.15188,-0.0392 0.13896,0.0649 0.0606,0.12055 0.10345,-0.0544 -0.0275,-0.11278 0.0465,-0.0379 0.0673,0.11517 -0.0447,0.0642 0.63622,0.12928 0.10966,-0.0288 0.14877,-0.0704 -0.14387,-0.11027 0.26083,-0.10153 0.10165,-0.3736 -0.3736,-0.18309 -0.0734,-0.15176 0.13347,-0.0625 -0.0691,-0.0636 0.006,-0.17209 0.15248,0.12557 0.11205,-0.005 0.15607,-0.14817 -0.0648,-0.47155 -0.30316,-0.30615 -0.18608,-0.0648 -0.15188,-0.18309 -0.011,-0.20019 0.0746,-0.1697 -0.33856,-0.11074 -0.10596,-0.29634 0.0883,-0.18011 -0.0459,-0.0489 -0.25114,0.008 -0.44571,-0.39058 -0.1923,-0.0398 0.0962,0.2259 -0.0471,0.27434 0.0759,0.16528 -0.36308,0.14458 -0.21251,-0.12796 -0.16527,0.0771 -0.0264,0.0936 0.12676,0.17449 0.14267,0.0514 -0.0257,0.0563 -0.2106,0.0453 -0.0869,-0.0808 -0.52536,-0.0355 -0.003,-0.0997 -0.21119,-0.0196 0.009,-0.28594 -0.0459,-0.0612 -0.14387,-0.0355 -0.11576,0.0687 -0.0533,-0.0392 0.0361,-0.10105 -0.40038,-0.18919 -0.18608,-0.20701 -0.0141,-0.27793 -0.34597,-0.11086 -0.21682,-0.31955 -0.24851,-0.16539 z m -5.77345,0.32086 -0.0441,0.0642 0.0264,0.11026 0.11014,-0.011 -0.0746,-0.11325 z m -0.16468,0.2057 -0.0545,0.11325 0.14327,0.0392 -0.019,-0.0588 z m 1.15417,0.0901 -0.22232,0.0557 0.12557,0.35506 0.13777,-0.0679 0.0269,-0.11265 z m 7.24907,0.0783 0.14996,0.1935 -0.12246,0.0386 0.0361,0.17688 0.22471,-0.0575 0.0973,0.0483 -0.28342,-0.32564 0.17388,-0.0655 z" />
</svg>
