<?xml version="1.0" encoding="UTF-8" standalone="no"?>
<!-- Created with Inkscape (http://www.inkscape.org/) -->

<svg
   width="60"
   height="60"
   viewBox="0 0 60 60"
   version="1.1"
   id="svg951"
   xmlns="http://www.w3.org/2000/svg"
   xmlns:svg="http://www.w3.org/2000/svg">
  <defs
     id="defs948" />
  <path
     id="CZ-JC"
     style="fill:#ffffff;fill-opacity:1;stroke:none;stroke-width:0.0490301;stroke-opacity:1"
     class="land"
     d="m 19.711625,12.84873 -0.36485,0.22753 -0.12449,0.72071 0.58242,0.0442 -0.12736,0.4225 0.76476,0.26085 -0.0902,0.53263 -0.73928,0.19899 -0.32866,-0.15494 -0.29514,0.10783 -0.0833,0.38152 -1.30313,0.67167 -0.41771,0.11185 -0.357,-0.21968 -0.46387,0.40986 -0.32942,-0.0402 -0.0176,0.68049 -0.37079,0.23729 -1.14627,-0.0862 -0.17352,0.2304 -0.37865,-0.2011 -1.22575,0.36485 -0.0155,0.92277 -0.51386,0.50102 -0.84041,-0.65003 0.0412,0.31563 -0.45602,0.27963 -0.0226,0.38324 -0.66976,-0.17257 -0.4608,1.23265 -0.56289,-0.20972 -0.40891,0.26181 -0.47555,-0.14134 -0.099,0.85228 -0.64332,0.60885 -0.49816,-0.3658 -0.64716,-0.39703 -0.0804,0.39511 -0.1333,-0.25013 -0.53052,0.23538 -0.25492,0.48839 -0.29916,-0.27158 -1.42187,0.27656 -0.2011,0.65788 -0.80019,0.38247 -0.34991,1.10606 -0.25894,0.005 0.0538,0.95321 -0.41676,-0.0559 0.0335,-0.60905 -0.47958,-0.34704 0.23539,-0.0628 -0.099,-0.28135 -0.47958,-0.0245 -0.14517,-0.68949 -0.73929,0.0569 0.34705,0.58549 -0.4294,0.3637 0.51865,0.18942 0.58146,0.92851 -0.14307,0.81781 0.66881,0.45314 -0.12373,0.24898 0.50026,0.0766 0.0931,0.27943 0.91587,0.4137 0.009,0.24515 0.25109,-0.14499 0.26182,0.19114 -0.16376,0.51578 0.70692,0.52362 -0.67761,0.95609 -0.0205,0.67378 -0.62762,0.35298 0.0157,0.24898 0.33938,0.53359 0.70692,0.23423 0.0559,0.93061 0.28633,-0.0205 0.26086,1.11294 0.48149,0.19613 0.11759,1.21387 0.88657,0.53933 0.21182,0.6531 1.69058,0.17371 0.50486,0.40584 0.0421,0.53646 1.22575,1.24625 0.0609,0.48053 0.50409,0.31276 0.47651,-0.0626 0.92277,0.87565 0.0892,0.90303 0.82068,0.61288 0.10687,-0.37539 0.38151,0.0195 0.26277,-0.0343 0.24917,0.43821 0.18827,-0.14805 0.3706,0.92468 0.5874,-0.0814 0.66,1.49944 0.54507,0.0912 1.64653,1.24836 -0.43648,0.46866 0.50122,0.58932 1.81507,0.18635 0.55101,0.39128 0.21087,-0.30203 0.27848,0.0324 -0.0176,-0.2804 0.38247,0.0626 0.12066,-0.7276 0.2304,-0.0695 0.29016,0.4158 0.52075,0.1695 0.44319,-0.3254 0.47268,0.62647 0.32559,-0.007 0.22753,-1.4031 0.71975,-0.62571 0.0117,-0.60598 1.4778,0.13828 -0.20206,-0.39129 0.2756,-0.59908 0.104,-2.32414 1.42092,0.29628 0.0402,0.68336 0.89518,-0.14996 0.15303,-0.556 1.68081,0.58051 0.64026,0.58836 0.40105,-0.54622 0.23347,-0.13541 0.32157,0.27752 0.11281,-0.34609 0.39703,-0.054 0.20493,0.28346 0.78448,-0.86282 0.50409,0.0234 -9.8e-4,0.004 -0.50409,-0.0226 -0.78353,0.86205 -0.20493,-0.2825 -0.39703,0.054 -0.1128,0.34609 -0.32157,-0.27752 -0.23347,0.13426 -0.40201,0.54622 0.67953,0.15992 0.66095,0.54815 0.53148,0.0519 0.23729,-0.3118 0.53646,-0.0362 0.47939,0.57266 0.56691,0.15398 -0.06,0.24113 0.38152,0.35604 0.97083,0.44913 2.02881,0.18328 0.0883,-0.20397 0.33632,0.2373 0.61881,-0.94824 0.809,-0.18826 0.47268,0.42652 0.61958,0.0147 0.16184,0.70902 0.38056,-0.13139 0.66784,0.42844 0.90208,-0.15973 0.14613,1.27268 0.19899,0.0835 0.91683,-1.97691 1.33856,-1.47186 1.11601,0.42346 0.38343,0.41484 0.78544,-0.4315 0.83447,0.3953 0.89728,-0.51194 -0.41292,-0.76686 -0.55408,-0.16375 0.002,-0.006 0.55235,0.16318 0.41293,0.77376 0.4903,-0.0795 0.70002,-0.86185 0.89039,-0.0471 0.42078,-1.26789 1.23839,-0.21278 0.41101,-0.7659 0.27062,-2.0788 0.34015,-0.54125 1.60344,-0.51003 0.33727,-0.36466 0.009,-0.61785 0.62858,-0.17659 0.79827,-1.34526 1.68656,0.24515 0.75116,-0.42078 0.15592,-0.39913 -0.4315,-1.68656 -0.60694,-0.0333 -0.29131,-0.38936 -0.7412,-0.24611 -0.48647,-1.44045 0.30587,-0.461 -0.34896,-0.25683 0.0617,-0.56481 -0.7412,0.2373 -0.52362,-0.46674 -0.8542,-0.14518 0.16567,0.19517 -0.29514,0.26564 -0.36964,-0.67953 -0.55504,-0.10189 -0.0726,-0.35891 -0.46579,0.21565 -0.33823,-0.16758 -0.23634,-0.6757 -0.49337,-0.30395 -0.2597,0.37558 0.35585,0.0305 0.006,0.43036 -0.35987,-0.18425 -0.7502,0.55504 -0.44817,0.0735 -0.36772,-0.52477 -0.44913,-0.12143 -0.41867,-1.07674 -0.29226,-0.26182 -0.41867,0.0755 -0.50792,-0.67071 1.46803,-0.6462 0.0567,-0.40891 -0.35202,-0.29035 0.11587,-0.60694 -0.44242,-0.37366 0.002,0.37654 -0.64735,0.47574 -1.06181,-0.12066 -0.56385,0.28824 -0.35796,-0.39607 -0.36083,0.24515 -0.005,-0.87373 -0.51194,0.14116 -0.38918,-0.20206 -0.42365,-0.44319 0.0255,-0.29514 -0.5355,0.0666 -0.29609,-0.33344 -1.20028,-0.18425 -0.50888,-0.36083 -0.30893,0.0245 -0.19803,0.48915 0.44912,0.25396 0.3344,1.02389 0.49624,0.18233 0.22063,0.99918 -0.25798,0.18731 -0.20589,-0.39224 -0.98366,0.63739 -0.0136,-0.002 -0.44319,0.0931 -0.26085,0.64333 -0.69236,0.66688 -1.10031,-0.63643 -0.21086,-1.07771 -1.08843,-1.37782 -0.46771,-0.10879 -0.19516,-0.69906 -0.49911,-0.0481 -0.22351,0.21853 -0.74426,-0.91089 1.03538,-1.02676 0.42365,0.0707 0.35508,-0.3706 0.0333,-0.56385 0.35202,-0.1423 -0.90323,-1.16102 -0.95895,-0.12851 -0.14212,0.51692 -0.27751,0.094 -0.74829,-0.49509 -0.70404,0.89518 -0.32367,-0.20205 0.31295,-0.23232 -0.27963,-0.75499 -1.14435,0.13713 -0.40699,-1.12769 -0.97064,0.25511 -1.28666,-0.5581 -0.2373,-0.0402 -0.85611,-0.3932 -0.57055,0.41982 -0.0471,-0.79827 -0.80114,-0.76686 -0.0814,-0.58836 0.21183,-0.30587 -0.4541,-0.62762 -0.45392,0.25683 -0.18041,-0.55982 -0.24132,0.39607 -0.32846,0.0305 9.8e-4,-0.30203 -0.7502,-0.18444 -0.45985,0.47364 0.47364,0.32751 -0.28729,0.61881 0.10974,0.7864 -1.50614,-0.0912 -0.29724,0.71783 -0.26182,0.0393 -1.32477,-0.54622 0.26967,-1.02963 -0.74714,0.18233 0.30893,-0.86378 -0.32176,-0.41579 -0.58434,-0.17467 0.0176,-0.34609 -0.0697,0.32751 -0.33823,-0.17639 -0.31966,0.24304 -0.49125,-0.36868 -0.24327,0.0745 z m 5.39925,6.11018 5.9e-4,5.9e-4 -1.22537,1.50653 z m 0.7186,0.19995 0.30107,0.55121 0.22658,-0.0843 0.31869,0.53627 -0.31869,-0.53531 -0.22658,0.0833 -0.30107,-0.55006 -0.33325,0.1764 z m -4.62434,1.37687 -0.24515,0.12162 0.14594,0.65999 -0.003,-3.9e-4 -0.14575,-0.65865 z m -0.54048,0.72951 0.002,2e-4 -0.0147,0.43035 -0.003,-5.8e-4 z m -0.56385,0.3344 0.002,4e-4 0.0578,1.07732 -0.002,-2e-4 z m -0.74905,1.03749 h 10e-4 l -0.23558,0.35394 -0.001,-2e-4 z m -2.36436,0.11089 h 7.8e-4 l -0.17409,0.13637 z m -0.22447,0.17659 0.0843,0.41752 -0.001,-2e-4 -0.0839,-0.41656 z m 10.94042,0.19784 1.9e-4,2e-4 -0.0833,0.32444 z m -11.20721,0.1718 0.002,3.9e-4 0.032,0.2124 -0.002,9.8e-4 z m -0.66018,0.51098 -0.11051,0.37041 -0.001,-5.9e-4 0.10994,-0.36906 z m 13.46374,1.02791 1.9e-4,0.002 -0.42441,0.68566 -0.001,-2e-4 z m -16.91902,0.40603 0.0215,0.53684 -0.002,-7.8e-4 -0.0214,-0.53454 z m 9.52697,0.13445 5.8e-4,3.9e-4 -0.14172,0.14173 -0.002,3.9e-4 z m 0.2777,0.0916 0.0473,0.27522 -9.8e-4,-5.9e-4 z m -2.02191,0.0195 -0.042,0.43839 h -7.8e-4 l 0.0419,-0.4382 z m -7.93981,0.22561 0.002,5.9e-4 -0.0691,0.35642 -0.002,-1.9e-4 z m -0.3999,0.32463 0.002,2e-4 -0.13713,0.25568 0.18444,0.37654 -0.27752,0.41484 1.02274,-0.12947 0.18922,0.1402 -0.003,7.8e-4 -0.18789,-0.14 -1.02369,0.12947 0.27752,-0.41484 -0.18425,-0.37558 z m 17.88411,0.0352 9.8e-4,0.002 -0.30817,0.01 -0.002,-0.002 z m -10.81995,0.0511 0.62858,0.33919 -0.002,9.8e-4 -0.62878,-0.33919 z m 4.26543,0.13924 h 1.9e-4 l -0.0431,0.27943 -0.5265,0.21068 -0.001,-9.8e-4 0.52765,-0.21068 z m 6.42753,0.0471 0.002,0.002 -0.21527,0.0146 -5.9e-4,-0.002 z m -0.16394,0.20512 0.0398,0.14882 -0.29035,0.037 -0.002,-0.002 0.29112,-0.0374 z m -10.30704,0.19402 0.49394,0.41177 0.0371,0.46771 0.31084,0.0667 -3.9e-4,9.8e-4 -0.31045,-0.0657 -0.0371,-0.4677 -0.49529,-0.41293 z m 10.24556,0.17103 0.001,10e-4 -0.29686,0.11836 -0.002,-0.002 z m -16.84777,0.27733 0.59564,0.44586 0.8699,-0.0305 0.29207,0.44817 0.4158,-0.0128 -0.0352,0.34513 0.78161,0.17467 0.0224,0.81379 h -0.002 l -0.0226,-0.81283 -0.78046,-0.17467 0.0352,-0.34417 -0.41579,0.0119 -0.29323,-0.44816 -0.86971,0.0305 -0.59621,-0.44625 z m 10.32007,0.12238 1.9e-4,7.8e-4 -0.24419,0.34513 -0.51271,-0.30778 -0.47479,0.0755 0.001,-9.8e-4 0.47459,-0.0755 0.51176,0.30778 z m -1.82657,0.63816 -0.001,9.8e-4 -0.53551,0.0412 2e-4,-9.8e-4 z m 9.49594,0.12947 10e-4,9.8e-4 -0.30395,1.38663 -0.67971,0.39703 0.01,0.54718 -0.34819,-0.10093 -0.30892,0.41867 -1.11678,0.22753 -0.38439,0.88254 0.0532,0.21336 -0.0544,-0.21432 0.38439,-0.88349 1.11697,-0.22753 0.30893,-0.41868 0.34819,0.10094 -0.01,-0.54623 0.67952,-0.39818 z m -10.70962,0.0531 0.63509,0.23921 v 9.8e-4 l -0.63548,-0.23921 z m -4.57187,1.24529 h 0.002 l -0.22236,1.46209 0.32061,0.0971 -1.30026,0.7864 0.0755,0.27847 0.4158,-0.0412 -0.003,0.002 -0.41446,0.041 -0.0756,-0.27943 1.30044,-0.7864 -0.3208,-0.0971 z m -1.06755,2.81271 0.26641,0.22907 -0.0835,0.22561 0.40699,0.11377 -0.14709,1.02657 0.23826,-0.006 0.0157,0.43457 0.94728,-0.14709 0.53244,0.32157 0.57686,-0.23845 -1.9e-4,2e-4 -0.57859,0.23921 -0.53244,-0.32061 -0.94728,0.14709 -0.0157,-0.43437 -0.23826,0.005 0.14709,-1.02657 -0.40699,-0.11281 0.0833,-0.22561 -0.2666,-0.22945 z m 25.43053,0.43017 2.20827,0.42844 -0.001,0.006 -2.20693,-0.42863 -0.1333,0.55408 -0.8768,-0.12852 -0.3187,0.36198 -0.13234,-0.11778 -0.15877,0.40699 -9.8e-4,-9.8e-4 0.15973,-0.41178 0.13234,0.11759 0.31985,-0.36178 0.8766,0.12832 z m -11.64675,0.10783 1.9e-4,9.8e-4 -0.63356,0.12449 -0.0245,0.10284 0.0245,-0.1038 z m -4.20663,0.0126 0.6914,0.62762 0.28039,-0.15303 0.12545,0.45698 0.36427,0.0423 -3.9e-4,0.002 -0.36485,-0.0421 -0.12545,-0.45602 -0.28058,0.15188 -0.69121,-0.62743 -0.33612,0.33306 -2e-4,-0.002 z m 3.0977,0.15111 0.39684,0.29284 -5.9e-4,0.002 -0.39722,-0.29418 -0.54718,0.22849 -0.67321,-0.16241 -3.9e-4,-0.002 0.67454,0.1628 z m -1.16331,0.41771 3.9e-4,0.002 -0.40948,0.0119 5.9e-4,-0.003 z m -6.30497,0.19114 0.51003,0.53933 0.72722,-0.14096 3.9e-4,0.002 -0.72971,0.14134 -0.50888,-0.53933 -0.42135,0.0479 7.9e-4,-0.002 z m -2.08569,0.0845 0.30107,0.0431 -0.006,0.38151 0.46675,0.0176 0.7479,-0.0586 -5.9e-4,0.002 -0.74924,0.0578 -0.46675,-0.0176 0.007,-0.38151 -0.30089,-0.0429 z m 3.25858,0.0205 0.51578,0.36964 0.0963,-0.16663 -0.0973,0.16874 -0.51405,-0.36869 z m 2.91615,0.13177 1.9e-4,0.002 -0.47076,0.1402 -0.31774,0.47459 -0.11185,-0.21776 -0.45985,0.0167 0.0523,-0.28632 -0.0513,0.28537 0.45889,-0.0167 0.11185,0.21777 0.31869,-0.47575 z m -2.28756,0.0429 0.73545,0.19497 0.25587,-0.17256 -1.9e-4,10e-4 -0.25684,0.17352 -0.73545,-0.19516 z m 20.02975,0.0373 0.854,0.15667 -0.006,0.005 -0.84865,-0.15571 z m -2.82613,0.27082 0.002,0.002 -0.29015,0.41675 -0.2735,-0.0843 -0.009,-0.009 0.28345,0.0873 z m 3.27966,0.19076 0.0808,0.71017 0.27656,0.28326 -0.003,0.004 -0.27426,-0.2802 -0.0814,-0.71572 z m 1.34392,0.27273 0.53052,1.29834 0.36562,0.10304 0.0923,-0.24726 -0.005,0.0172 -0.0879,0.23576 -0.36581,-0.10285 -0.53033,-1.29834 -0.51731,0.1243 -0.002,-0.006 z m -4.87984,0.18501 10e-4,10e-4 -0.21796,0.44357 -7.8e-4,-0.004 z m 10.95267,0.35834 0.22849,0.45889 -0.24323,-0.45697 z m -6.3243,0.21048 0.001,0.003 -0.46081,0.71285 -0.55905,-0.41867 0.004,-0.004 0.55619,0.41714 z m 1.06679,0.96299 0.95168,0.515 0.17352,0.68049 -0.002,0.003 -0.1718,-0.67722 -0.95321,-0.51578 z m -5.7212,0.0513 7.8e-4,0.005 -0.86281,0.4677 -0.26565,0.45046 -10e-4,-0.002 0.26775,-0.45391 z m -0.87967,1.37917 0.003,0.005 -0.3118,0.0676 -0.13311,0.53895 -10e-4,-5.9e-4 0.13445,-0.54431 z m 7.46636,0.16777 0.3254,0.73584 -0.003,0.003 -0.32482,-0.73565 z m -7.59143,0.60752 0.003,0.002 -0.42652,0.48437 -0.001,-0.005 z m 7.74235,0.3344 0.49509,0.0136 -0.004,0.007 -0.497,-0.0136 z m -7.77644,0.6257 10e-4,0.003 -0.19708,0.39129 -1.4326,0.93061 -0.47268,-0.22657 -0.32559,0.28441 -0.31467,-0.39818 -0.38248,0.3639 -0.28728,-0.12947 9.8e-4,-0.004 0.28729,0.12947 0.38151,-0.36371 0.31467,0.39799 0.32559,-0.28537 0.47268,0.22657 1.4326,-0.93061 z m 8.38434,0.49586 0.0666,0.80708 1.22384,0.35796 -10e-4,0.007 -1.22269,-0.35853 -0.0676,-0.80708 -0.9218,0.2011 0.005,-0.008 z m 1.59443,1.48278 0.34226,0.43035 0.57476,-0.2373 0.45487,0.28844 -0.002,0.006 -0.45334,-0.28728 -0.57476,0.2373 -0.34225,-0.4294 -0.36083,0.0569 10e-4,-0.008 z" />
</svg>
