<?xml version="1.0" encoding="UTF-8" standalone="no"?>
<!-- Created with Inkscape (http://www.inkscape.org/) -->

<svg
   width="60"
   height="60"
   viewBox="0 0 60 60"
   version="1.1"
   id="svg951"
   xmlns="http://www.w3.org/2000/svg"
   xmlns:svg="http://www.w3.org/2000/svg">
  <defs
     id="defs948" />
  <path
     id="BE-VAN"
     style="fill:#ffffff;fill-opacity:1;stroke:none;stroke-width:0.0399138;stroke-opacity:1"
     class="land"
     d="m 34.785265,5.62526 -2.24873,1.91742 -1.61651,-0.01 0.0391,-1.45607 -1.01063,0.10212 -1.47198,0.77832 0.82774,2.04278 -3.34309,-0.24822 0.32555,0.52356 1.3092,1.71006 -3.2e-4,4.8e-4 -1.30888,-1.7096 -2.72677,2.68779 -2.70307,1.08002 0.007,-0.56114 -1.4935,0.21314 -0.21157,-1.19991 -2.89531,-1.05772 -1.1759,0.46868 0.18039,1.01936 -1.53263,0.0295 -0.73045,-0.73997 -0.20035,-2.31173 -2.18887,0.65687 -0.46306,-0.57548 -0.005,0.86844 -0.18757,-0.84848 -0.0407,0.81106 -9.91937,5.99019 1.3683,3.4909 -0.6458,0.68088 0.1436,1.72035 0.55489,0.9124 1.36019,0.0511 1.02981,2.05229 1.13193,0.47429 0.73607,0.3416 0.46462,-1.25728 1.2339,-0.70707 1.6e-4,6.4e-4 2.02921,-0.40631 0.42237,0.8293 1.99476,0.0153 h 9.3e-4 l 0.83788,1.12024 -6.4e-4,4.8e-4 -0.83819,-1.12071 -1.99569,-0.0143 1.29081,1.3354 -0.33194,1.06582 0.81012,3.2561 1.31248,0.80872 1.53263,-1.02264 0.68493,0.23387 -0.28252,0.88372 1.67716,-0.21391 0.80857,0.95871 -0.0248,2.10655 0.77364,1.56474 0.61461,-1.11836 2.40045,0.58748 1.90386,-0.77676 1.7562,2.44908 0.38324,-0.75586 0.71767,0.41426 -1.24216,3.35354 1.11525,0.0168 0.4693,1.53746 -1.0889,0.50921 -0.28096,1.65799 4.50948,0.89338 -1.09123,-5.4579 1.5e-4,-3.2e-4 1.09109,5.45743 4.01929,-1.29486 0.0136,-2.15051 2.06679,-2.01253 1.07923,0.76631 -1.18307,1.7308 0.32742,0.64891 -0.80077,1.66921 1.53278,1.42489 -0.63862,1.02825 0.0686,1.76728 1.82248,-0.20191 1.94938,0.9308 1.12071,1.66438 1.70522,0.0192 0.86205,0.92129 -0.27223,1.02326 0.54367,-0.47086 1.25012,0.83414 0.67058,2.34135 1.30281,-0.76554 0.85098,0.54118 0.59621,-1.0521 2.96797,-0.0335 1.07767,-2.6446 -0.70473,-0.30419 0.31931,-0.77754 -0.91412,-0.32336 -0.58591,-1.745 -0.52605,0.1029 -0.21469,-1.08484 0.67775,-1.0281 -0.7568,-0.49019 0.62739,-1.48398 0.9492,-0.48458 -0.27066,-0.76554 1.21098,-2.39795 1.97901,-1.72034 0.56518,0.72967 0.81496,-0.31619 0.40397,0.87966 0.10057,-1.1048 0.69444,-0.17634 -0.22499,-1.27007 1.60685,-0.76787 0.42237,-1.25105 0.83819,0.36172 0.71751,-0.75681 -1.02497,-1.08718 0.54694,-1.3683 -0.39758,-1.28441 -1.93192,-0.16044 -0.73919,-1.14003 1.40587,-2.05385 -1.42255,0.002 -0.93798,-2.34619 -1.19897,0.0862 -0.30419,-0.89556 -1.99257,-0.008 -1.6e-4,9.3e-4 -1.6873,-0.31853 -1.57191,0.25695 0.16137,-1.31311 -0.0872,-0.002 -3.26654,2.15691 -0.91319,0.11725 -0.47818,-0.70879 -1.28114,0.76788 -2.01736,-0.18834 2.01736,0.18678 1.28114,-0.76787 0.47819,0.70956 0.91318,-0.11725 3.26748,-2.15706 -0.67058,-1.45685 1.74654,-1.92772 -0.56831,-0.30263 2.0763,-4.48391 -4.54378,-1.92459 -0.40709,-1.37313 -0.76632,-0.55708 -1.06488,0.94343 -2.7893,0.0448 -0.35828,1.0086 -1.6e-4,-3.2e-4 0.35844,-1.00907 0.0496,-1.0744 -1.6413,-0.27472 -0.97711,-1.94455 0.5061,-0.95637 -0.40709,-0.97384 -0.77193,-0.37045 -1.68917,2.27353 -0.49814,-0.58842 -1.77772,0.0695 1.14783,-0.18834 -0.10368,-1.44423 z m -7.52516,5.85938 -0.1623,0.24104 0.6539,2.43709 -0.16886,0.45651 0.16808,-0.45573 -0.6539,-2.43709 z m 14.95522,2.81876 3.2e-4,6.4e-4 -3.8757,1.84804 -0.48614,0.99551 -2.54731,0.58031 -0.40382,-0.68415 -1.4673,0.98506 -8e-4,-0.002 1.46731,-0.98506 0.40381,0.68415 2.54809,-0.57875 0.48614,-0.99551 z m -16.88963,1.19804 h 1.6e-4 l 0.24338,1.49755 0.76865,0.0815 2.18014,0.16994 6.4e-4,0.002 -2.17999,-0.17011 -0.11335,0.87655 -1.36658,0.81901 0.28579,0.88528 -1.0546,-0.01 -0.83226,2.31157 -3.2e-4,-10e-4 0.83258,-2.31267 1.05382,0.0104 -0.28579,-0.88528 1.36658,-0.81901 0.11335,-0.87655 -0.76866,-0.0814 z m 7.90371,1.88234 8e-4,0.002 -1.56537,0.83414 -2.91605,-0.10852 -6.3e-4,-0.002 2.91589,0.10867 z m -4.04486,3.00243 0.11008,0.15591 -0.0605,-0.0451 z m 0,0 -0.69132,0.11334 -1.10277,0.32633 0.11849,-0.20425 z m 0.75353,1.94236 0.27706,0.77006 -3.2e-4,1.6e-4 z m -3.49854,0.13534 2.13913,1.30608 -2.14895,-1.28909 z m 6.16482,0.4615 h 8e-4 l -0.13004,1.38342 -7.9e-4,-6.4e-4 z m -26.50388,0.13721 0.36749,0.48473 -0.36796,-0.48458 z m 17.4821,0.10087 4.8e-4,0.001 -1.75465,0.34004 v -0.002 z m -4.71653,0.21781 -1.26524,0.21547 -0.73607,1.25807 -6.3e-4,-3.2e-4 0.73591,-1.25775 z m 13.00396,0.40631 3.2e-4,3.2e-4 -1.09405,0.88575 -3.2e-4,-4.8e-4 z m -1.58861,0.20596 1.6e-4,3.2e-4 -1.06831,0.54695 z m -9.2784,0.58437 h 0.86859 v 0.002 h -0.86828 z m 4.42653,1.71863 3.2e-4,3.2e-4 -0.44529,0.27238 z m 3.58414,2.3677 0.89728,0.1581 v 8e-4 z m 2.57616,0.58031 -1.72674,0.32181 v -8e-4 z m -0.10867,2.44114 0.71127,0.40802 -1.6e-4,8e-4 z m -4.39848,4.48734 1.75232,0.56176 -3.2e-4,6.4e-4 -1.75278,-0.56176 z" />
</svg>
