<?xml version="1.0" encoding="UTF-8" standalone="no"?>
<!-- Created with Inkscape (http://www.inkscape.org/) -->

<svg
   width="60"
   height="60"
   viewBox="0 0 60 60"
   version="1.1"
   id="svg951"
   xmlns="http://www.w3.org/2000/svg"
   xmlns:svg="http://www.w3.org/2000/svg">
  <defs
     id="defs948" />
  <g
     id="layer1">
    <path
       id="AT-1"
       style="fill:#ffffff;fill-opacity:1;stroke:none;stroke-width:0.0490196;stroke-opacity:1"
       class="land"
       d="m 43.02674,14.66423 -0.13614,0.41571 0.01,2.47242 -1.3333,-0.0842 -0.92122,2.29129 -0.62788,-0.51088 -0.3912,0.28818 -0.45974,-0.14993 -0.25487,-0.36765 -0.31173,0.70389 -0.33835,-0.0559 -0.40786,0.48541 -0.49498,-0.34429 -1.60501,-0.16467 -0.44214,-0.52045 0.38527,-0.4138 -1.65978,-1.13434 -0.41858,0.652 0.33529,0.19991 -0.11183,0.99418 -0.71653,1.17551 -1.74421,-0.88733 -0.54803,0.37167 v 1.50486 l -0.81954,1.23142 -2.45098,0.79906 -2.05097,1.52938 -0.01,0.57847 0.80097,0.93711 1.12362,1.72756 -0.74908,1.46274 h 0.85401 l 0.49805,0.42356 -0.26176,2.25088 -0.34715,0.33433 -1.61076,-1.06561 -0.12638,-0.29813 0.34314,-0.35884 -0.51279,-0.44807 0.18631,-0.2587 -1.39514,0.009 -0.2382,0.46856 v 0.35098 l 0.71269,0.29604 -0.27611,0.34275 -4e-4,-5.9e-4 0.27555,-0.34218 -0.7127,-0.29603 9.8e-4,-0.35099 -0.60298,0.0854 -0.45975,-0.80882 -1.41181,0.19608 -0.1,-0.38144 0.0695,-0.37071 -0.72649,0.49805 0.31078,1.08628 -1.51559,-0.22154 -1.28331,0.49996 -1.62856,-0.14706 -0.50188,0.91873 -1.09509,0.0195 -0.38622,0.47258 0.29412,0.32054 -0.65985,-0.0529 -0.54324,0.60298 -0.34888,0.0236 0.22844,-0.37952 -0.37264,-0.0666 -0.70581,0.43141 -1.08934,-0.0207 -0.32438,-0.9509 -0.51872,-0.0176 0.37952,-0.35596 -0.23438,-0.2765 -0.85497,0.26386 -1.39993,-0.63055 -0.20489,0.40498 -0.38047,-0.0147 -0.53233,-0.23725 0.2001,-0.34218 -0.33432,0.009 0.29296,1.74613 -0.31077,0.59417 -0.8274,0.87641 -1.17877,0.40001 -0.002,-9.8e-4 L 5.75792,33.7959 5.3334,33.67335 4.67068,34.10783 4.60288,32.9147 3.90091,32.63417 3.66366,31.90194 2.91381,32.11162 2.45598,31.89007 2.35296,31.35087 1.80589,32.05285 2e-5,31.7392 l 0.73912,1.10199 0.4902,0.1235 0.11776,0.73032 -1.11577,1.38231 0.29508,1.12171 0.4923,0.49307 -0.18344,0.79599 2.12546,0.46186 -0.0136,0.98537 1.10486,0.3822 0.67651,0.68627 0.31345,-0.10934 0.001,0.002 0.67555,-0.17731 0.0795,-0.74027 0.58325,0.0607 0.56564,-0.86167 0.79121,0.70791 -0.1461,0.95875 0.5913,0.21772 0.93137,-0.43448 0.7598,0.59226 -0.26769,0.40384 2.28229,0.24031 0.49326,-0.6206 0.10186,-1.04702 0.53922,-0.60394 1.21381,-0.30408 0.65966,0.3148 0.59034,-0.5373 0.44692,0.32361 0.64223,-0.34123 1.00586,0.50303 3.0373,-1.28447 -0.42356,-1.30878 0.42356,1.30782 0.79695,0.14017 -0.91471,0.68627 0.37263,0.81974 -0.19896,0.29316 0.5666,0.4205 0.48139,-0.0971 0.23916,0.48924 -0.18229,0.63629 0.55779,0.10302 0.47354,0.85669 1.16574,0.54707 0.98921,-0.0578 0.19205,-0.92046 1.68831,-0.2853 0.27784,-0.33682 5.9e-4,5.9e-4 -0.27746,0.3372 -1.68811,0.28531 -0.19225,0.92045 1.21859,0.58939 2.5157,0.21274 0.55894,0.42049 1.0499,-0.31077 3.30595,0.81169 0.91759,-0.17635 1.61075,0.50494 0.31767,0.4833 2.1314,-0.13634 0.12446,0.2765 0.59609,-0.0285 0.32054,0.58441 0.18152,-0.63821 0.89021,-0.39503 0.11068,-0.42758 0.80786,-0.0814 0.38718,-1.06867 0.68723,-0.29297 0.18248,0.29297 0.69317,-0.55779 2.73227,-0.0402 0.69317,0.46569 0.73338,-0.8588 1.91866,-0.37244 1.51271,0.76555 -0.37454,-0.96278 0.0902,-1.08034 1.05296,-0.46952 1.10869,-0.9913 0.1394,-0.58518 1.73024,0.13328 -0.57943,-0.31576 0.6384,-0.31748 -0.45496,-0.41781 0.52543,-0.3755 -0.58824,-0.18134 -0.30292,-0.72437 0.57847,-0.86378 -0.43429,-0.83238 0.10187,-0.63534 1.01773,0.007 0.65985,-0.56372 -0.0735,-0.50782 0.49499,-0.46089 -0.49499,-0.96469 -1.78826,-0.49211 1.4411,-1.10984 0.88236,0.32744 0.23035,0.59512 0.61581,-0.0147 0.30197,-0.44213 0.1371,0.3776 1.62454,-0.2315 -0.12944,-1.16364 -0.49594,-0.58345 0.5911,-0.19397 0.0707,-1.11079 0.51758,-0.42663 -0.71461,-0.28722 0.008,-0.9735 -0.0322,-0.0389 9.9e-4,-0.001 -0.72075,-0.6294 -0.1371,-1.08628 -0.96775,-1.36566 0.13442,-0.81476 0.79312,-1.12936 -0.39908,-2.02743 -1.72258,-0.12159 -0.1461,-0.62941 -0.96278,-0.38718 -0.71461,0.16564 -0.54707,0.83716 -2.23633,-0.2068 -1.99697,-1.55101 -1.16479,0.25888 -1.73618,-1.14219 -1.48724,-0.51375 -0.13538,0.49115 -0.79121,0.13251 -0.0333,-0.60107 -0.95875,-0.25486 z m -0.25084,7.40004 -3.9e-4,0.002 -0.36822,0.01 5.9e-4,-0.001 z m -0.16831,0.77589 0.33203,0.0525 v 0.002 l -0.33241,-0.0525 z m 11.37121,0.0641 0.0597,0.0216 1.13932,0.64702 0.18038,1.4658 h -2e-4 l -0.18018,-1.46484 -1.14028,-0.64703 -0.0333,-0.008 -0.0255,-0.0126 -0.30982,0.41456 -0.16869,-9.6e-4 0.11967,-0.0726 0.049,0.0726 z m 4.5569,2.50594 0.47297,0.21982 -4e-4,7.8e-4 -0.47104,-0.21886 z m -0.65697,0.3529 0.69872,0.59493 -5.9e-4,0.001 -0.6993,-0.59474 z m -0.91185,0.62787 -0.52542,0.0961 v -3.9e-4 z m -17.89521,0.17674 0.0944,0.14648 1.7716,0.68034 9.8e-4,0.002 -1.77162,-0.67995 z m 15.89345,0.73165 0.47354,0.65488 -0.002,0.002 -0.47449,-0.65602 -0.55243,0.10168 5.9e-4,-0.002 z m -9.55192,1.45393 -0.0873,0.34123 -0.5599,-0.054 -0.14112,0.47947 -1.77256,0.098 -0.35003,0.38143 -1.48035,-0.42949 -0.0841,-0.44884 0.0841,0.44692 1.48035,0.4295 0.34908,-0.38048 1.77351,-0.099 0.14112,-0.47852 0.55894,0.054 z m 7.72441,0.0883 0.30561,0.25678 -0.002,0.002 -0.30484,-0.25735 z m -5.27746,0.70197 0.51184,0.60107 0.33031,-0.12255 -0.33031,0.12351 z m 3.90491,2.65395 0.46052,1.13607 -0.003,0.001 z m -26.90908,0.23227 0.17962,0.27057 -0.51069,0.1304 -0.44118,0.85688 -0.56276,-0.0136 -0.27938,0.80289 0.27842,-0.80404 0.56277,0.0138 0.44117,-0.85689 0.51069,-0.1304 z m -19.23234,2.86363 2e-4,1.9e-4 -0.0735,1.20003 -0.61332,0.76708 -3.9e-4,-0.002 0.6137,-0.76766 z m 19.982,2.43049 h 5.9e-4 l -0.37818,0.51834 -2e-4,-5.8e-4 z m -20.46128,0.66713 2e-4,0.002 -0.49154,0.65467 -7.8e-4,-0.002 z" />
  </g>
</svg>
