<?xml version="1.0" encoding="UTF-8" standalone="no"?>
<!-- Created with Inkscape (http://www.inkscape.org/) -->

<svg
   width="60"
   height="60"
   viewBox="0 0 60 60"
   version="1.1"
   id="svg951"
   xmlns="http://www.w3.org/2000/svg"
   xmlns:svg="http://www.w3.org/2000/svg">
  <defs
     id="defs948" />
  <g
     id="layer1"
     transform="translate(0,1.803993)">
    <path
       id="CH-AG"
       style="fill:#ffffff;fill-opacity:1;stroke:none;stroke-width:0.0490356;stroke-opacity:1"
       class="land"
       d="m 34.503479,9.020152 -0.04426,0.2685456 0.158984,0.07662 0.01759,0.1804344 L 34.490611,9.61834 34.323971,9.4712356 33.97976,9.592864 33.911,9.7438072 l -0.125462,-0.098064 -0.495337,0.251118 -0.317773,0.4472558 0.06378,0.345163 -0.145188,-0.0018 -0.49227,0.4804 0.200166,0.282526 -0.201125,0.196145 0.08639,0.15304 0.154958,-0.0042 0.280423,0.235411 0.302066,-0.04903 -0.05593,0.192124 0.155923,0.154958 -0.01571,-0.211656 0.254948,0.16473 v -0.104052 l 0.4689,0.02737 -0.04118,-0.29019 0.08831,-0.05688 0.09806,0.115692 v -0.147104 l 0.241157,-0.107832 0.25399,0.153045 0.356083,-0.202085 0.140011,0.219898 1.94e-4,9.25e-4 0.175461,0.222575 -0.174501,0.239244 -0.112812,-0.03715 0.09616,-0.08447 -0.07164,-0.161663 -0.169708,0.179475 0.118764,0.540354 -0.114732,0.188287 -0.03832,-0.0042 -0.235408,0.217788 -0.186184,-0.104016 -0.336162,0.332141 -3.92e-4,-4.64e-4 0.336546,-0.33252 0.1676,-0.21664 -0.06857,-0.109944 -0.404162,-0.265674 -0.276593,-0.04522 -0.132359,0.30111 -0.37945,0.05287 -0.149021,0.226596 -0.147106,0.0314 0.143091,0.340372 0.282528,-0.08926 0.0636,0.149988 -0.784574,0.283487 -0.187137,-0.05497 -1.95e-4,0.0014 -0.276403,-0.155342 -0.207059,0.218743 -0.745304,-0.113784 -0.387305,-0.336353 -0.01092,-0.328502 -0.174495,-0.09808 -0.24901,0.03331 -0.109944,-0.121629 -0.411826,0.203038 -0.101136,-0.24728 -0.222576,-0.04693 -0.482502,0.502999 -0.224492,-0.02548 -0.16377,0.230427 -0.358956,0.05306 -0.239434,0.458942 -0.298042,-0.129478 -0.621761,0.271609 -0.817896,-0.141158 -0.203997,0.27372 -0.412015,-0.127576 -0.04118,-0.412968 -0.232345,-0.310878 -0.662938,0.102096 -0.25801,-0.113784 -0.34421,0.594366 -1.057329,0.336738 -0.0068,-0.0023 -0.256861,0.147105 -0.268736,-0.01571 -0.541503,-0.555101 0.562952,-0.05306 0.07164,-0.108804 0.04309,0.08141 0.03044,-0.130443 -0.215681,-0.267782 0.08524,-0.105912 0.185415,-0.174499 -0.246137,0.176412 -0.350142,-0.0724 -0.379643,0.349955 -0.379449,-0.259736 -0.08734,0.295172 -0.227555,-0.03331 -0.125463,0.234258 -0.761011,0.504148 0.0343,0.213764 0.226596,-0.125463 0.151896,0.109752 -0.102852,0.286359 -0.253985,-0.0078 -0.07758,-0.106884 0.154959,0.357042 0.312984,0.07643 0.06263,0.126609 -0.123546,0.336354 0.04021,0.245178 -0.04118,-0.246135 0.124496,-0.335397 -0.06378,-0.126609 -0.311835,-0.07643 0.007,0.109752 -0.409906,0.317776 -0.580572,-0.341144 -0.186373,0.337313 0.120678,-0.04712 0.344209,0.177561 -0.165689,0.23426 1.95e-4,1.96e-4 -0.186563,0.0567 -0.106884,0.25016 -0.529623,0.27659 -0.697226,-0.185414 -0.621757,0.136374 -0.508168,0.253989 -0.144041,-0.351102 -0.473692,0.06953 -0.350147,-0.159749 0.219701,-0.761008 0.200935,-0.217788 -0.4078,0.09521 -0.565061,-0.281573 -0.169519,0.158983 -0.523683,0.144041 -0.527706,-0.212807 -0.208978,-0.103824 -0.494186,0.201888 0.250158,0.787636 -0.399183,0.145188 -0.166832,0.247093 -0.253036,0.01358 -0.03331,0.528665 -0.315666,0.03143 -9.26e-4,0.307046 -0.384432,0.279464 -0.07355,0.413738 0.326391,-0.132359 0.258011,0.07451 0.940489,-0.146154 0.293253,-0.185225 0.429638,0.204954 0.02146,0.284444 0.146146,0.08926 -0.204951,0.317583 -0.473692,0.04234 0.07355,0.221618 -0.254945,0.36183 -0.706231,0.148071 0.161857,0.866934 -0.994309,0.829773 -0.08448,0.299962 -0.429444,0.247284 0.232418,0.119424 -0.702206,0.698373 -0.84529,0.408951 -0.0019,0.33348 -0.209931,-0.0078 -0.3060908,0.186182 0.049033,0.13734 -0.1940315,0.151128 0.3618273,0.315669 -0.7776738,0.443426 -0.3589554,0.57272 -1.6995817,0.621758 -0.1078428,-0.155919 -0.8590817,0.89241 0.4225509,0.725766 -0.053819,0.72768 -0.2325345,0.377536 -0.03429,0.33348 -0.1206778,0.06762 0.059946,0.207827 0.3039813,0.241346 -0.2570563,0.497252 -0.5874689,0.292299 -0.09404,0.273525 -0.2344526,0.07164 0.00875,0.124512 -0.2392385,0.171624 -0.923826,0.463923 -1.3710816,1.439657 -0.9071567,0.74626 0.613903,0.602218 -0.1402073,0.297086 -0.106884,-0.02834 -0.3216061,0.400139 -0.227554,0.554141 -0.3158619,0.357808 0.1746902,0.363934 -0.2853997,0.507022 0.4099065,0.149022 0.7315127,0.611987 0.1315896,-0.02453 0.1264131,0.225639 -0.5903424,0.941447 0.00498,0.0056 -0.06781,0.428871 -0.2382846,0.189247 0.2951704,0.650297 -0.2735251,0.238281 -0.231576,-0.17354 L 1.5094476,39.317371 1.369044,39.252621 1.1807527,39.513504 1.0012737,39.38211 0.56206397,39.747771 0.43448886,39.698741 0.45709706,39.834164 0.29814509,39.801804 0.0941532,40.185278 0.49141693,40.472596 0.39621483,40.70111 0.33261593,40.63043 0,41.483714 l 0.4815436,-0.309921 0.45607384,0.07451 0.10477066,0.112812 0.2080185,-0.321795 0.5374771,0.0041 0.029324,0.171626 0.4443834,0.05497 0.7991291,-0.525792 -0.019544,-0.242114 0.594363,-0.491313 0.2108951,0.01552 0.6255827,-0.383289 0.190205,-0.359914 -0.00271,-0.228514 -0.1656877,0.0205 -0.01571,-0.167601 -0.2275555,0.23426 -0.2373248,0.0019 -0.3058965,-0.494189 0.1961409,-0.250156 -0.059962,-0.249966 -0.3627868,-0.160899 -0.2815724,0.524641 -0.00498,-0.0025 0.2806155,-0.52311 0.1637694,-0.354933 -0.4727328,-0.22564 -0.3363513,-0.309921 0.128526,-0.124512 0.00317,0.0017 -0.1258394,0.121824 0.3363558,0.309919 0.4727327,0.22545 0.1195152,-0.24901 -0.00422,-0.0022 L 3.9639049,37.012583 6.2038388,35.97 7.426857,35.211864 l 2.1594816,0.04616 1.8260014,0.526558 0.0046,0.0048 -0.233873,0.699523 0.04424,0.202845 -0.174685,0.23158 -0.218553,0.06072 -0.06972,0.171625 0.182352,0.396309 0.187328,0.08716 0.01093,0.166836 0.341142,0.186373 0.03831,0.179479 0.241346,0.217595 0.16473,-0.0019 0.07547,0.191162 -0.128507,0.476757 -0.442276,0.450132 -0.232345,0.533452 0.108796,0.406077 -0.256862,0.359915 0.05689,0.49323 0.24901,0.159938 0.25801,-0.06666 0.833585,0.15381 -0.197292,0.554141 0.09616,0.412971 -0.235412,0.417761 0.227555,0.170667 0.418719,-0.393242 0.197294,0.0019 0.0018,0.17354 0.180434,0.05306 0.152087,0.389221 0.242115,0.218744 0.05593,0.282337 0.337311,0.152087 0.01283,0.178521 0.181393,0.174496 -0.193273,0.193271 0.359916,0.256861 0.08256,0.591494 0.640334,0.865975 0.105924,0.344208 0.219706,0.0059 0.499167,-0.384624 0.241154,0.299195 0.222768,0.09308 0.334244,-0.54916 0.435577,-0.100932 0.114732,0.08734 0.473693,-0.624821 0.377532,0.205912 0.299197,-0.06762 0.569656,0.325628 0.199207,-0.268739 0.236366,-0.0037 0.379451,-0.379642 0.304941,-0.06072 -0.0098,-0.253988 0.347272,-0.270846 0.573677,0.108036 0.01358,-0.423699 0.119712,-0.148071 0.317775,-0.02069 0.182353,0.324669 0.646273,0.01164 0.339419,-0.149971 0.236365,0.381556 0.341332,0.140207 0.0037,0.297088 0.185415,0.20706 0.170669,-0.0078 0.217595,-0.295363 0.226599,0.03737 0.409907,0.377536 0.291341,-0.168559 0.552036,0.191161 0.115884,-0.06761 0.08524,-1.037601 0.180434,-0.07451 0.203038,-0.343249 0.910033,-0.0452 0.159945,0.07546 0.14404,-0.298046 0.144237,-0.0059 0.09214,-0.252074 -0.06263,-0.139256 0.302233,-0.214767 -0.17469,-0.543414 0.13829,-0.514874 0.961176,-0.222576 0.145187,-0.370639 0.493229,-0.257054 -0.0314,-0.38539 0.203039,-0.295172 -0.352063,-0.845288 -0.331565,-0.248244 -0.04999,-0.219703 -0.443235,-0.201888 0.826707,-0.821921 0.373706,0.113784 0.565825,-0.224491 0.192312,-0.499168 0.49323,-0.219703 0.0088,-0.34727 h 0.291339 l 0.439214,-0.400139 -0.0037,-0.25782 -0.364893,-0.165877 0.20112,-0.31969 0.256861,-0.02146 0.512959,-0.493422 0.308004,-0.0362 0.105912,-0.771926 0.666774,-0.06168 0.45894,-0.614861 0.551267,-0.224301 9.27e-4,0.0046 -0.552226,0.224492 -0.458942,0.61486 -0.666768,0.06186 -0.105936,0.771737 0.746256,-0.233303 0.353016,0.40397 -0.163768,0.185416 0.194226,0.71389 -0.127576,0.173731 0.109944,0.468713 -0.09712,0.171623 0.02548,0.391328 -0.507974,0.675772 0.387304,0.643209 -0.17354,0.175648 0.01283,0.139256 0.243068,0.07835 0.112812,0.238473 0.787635,0.258779 0.095,0.343248 0.338459,0.299194 0.135228,0.386346 0.382518,0.163773 -0.08045,0.274676 0.208018,0.363744 0.455873,-0.02261 0.133506,0.186376 0.458943,0.214914 0.351106,-0.03641 0.310876,-0.342293 0.218744,0.362022 0.323523,0.167602 0.313944,-0.133311 0.608918,0.498209 0.007,0.287317 -0.122594,0.204955 -0.148071,-0.04214 0.03832,0.15975 -0.470821,0.492462 -0.208016,0.493229 0.624817,0.03428 0.500126,0.5256 0.364896,0.08542 0.01068,0.43251 0.342291,0.540349 -0.03331,0.20687 0.122594,0.09998 0.06858,0.390369 0.135424,0.02069 -0.412969,0.418717 -0.03526,0.2628 0.596278,-0.227554 0.08333,0.154959 0.276593,-0.05095 0.181393,0.09616 -0.08716,0.258779 0.606048,0.01478 -0.05996,-0.154958 0.25399,-0.52656 -0.0078,-0.258011 0.526747,-0.560845 -0.04903,-0.08351 -0.141174,0.05688 -0.0031,-0.248052 -0.09904,0.02261 -0.110712,-0.187331 -0.530581,-0.138291 -0.0657,-0.58249 -0.314903,-0.180436 0.06091,-0.212807 0.144041,0.0037 0.06761,-0.157832 0.214918,-0.07949 -0.292299,-0.843375 0.140207,-0.269696 0.413929,-0.230429 0.362787,-0.04426 0.158984,-0.42753 -0.206105,-0.619842 0.625777,-0.311835 0.578658,-0.647231 -0.309917,-0.194227 -0.268741,-0.418718 -0.389411,-0.232537 -0.136193,-0.890493 -0.303027,-0.572721 9.26e-4,-0.0013 0.30226,0.570231 0.136177,0.890494 0.388453,0.232344 0.268741,0.419868 0.309922,0.194037 0.239238,0.0022 0.17852,-0.211851 0.08926,-0.493419 0.236367,-0.184269 0.02548,-0.326582 0.371598,-0.02644 0.04903,-0.627695 0.424657,-0.581531 -0.02452,-0.286359 0.203993,-0.259929 -0.08141,-0.166834 0.05305,-0.362789 -0.279657,-0.310877 0.120678,-0.302068 -0.09118,-0.134276 0.03929,-0.398224 -0.35704,-0.286359 -0.07164,-0.251116 0.01188,-0.122594 0.333478,-0.171624 0.05593,-0.751241 1.12667,-0.24901 0.155917,0.106884 -0.08026,0.16377 0.08333,0.191164 0.485381,0.339416 0.324667,-0.620797 0.368726,-0.188289 -0.05688,0.379452 -0.178521,0.06666 0.253029,0.152086 -0.135227,1.106175 0.176414,0.516789 -0.06666,0.366809 0.481545,0.147106 0.255901,0.770011 0.3875,0.471586 0.125462,-0.09308 0.330607,0.226598 0.3285,0.0078 0.340183,0.167603 0.553186,-0.312795 0.193267,0.16473 0.327545,0.007 0.157831,-0.399178 -0.100932,-0.181395 0.09406,-0.360871 0.155916,-0.139256 0.120678,-0.02663 0.423694,0.308961 0.790507,-0.517747 0.467756,-0.02261 0.45109,-0.330415 0.248051,0.284253 0.102096,-0.156876 0.308961,-0.08141 0.107856,0.274676 0.422739,0.235408 -0.200166,0.553952 0.268737,0.171625 -0.09712,0.447258 0.08735,0.141173 0.721743,0.339418 0.06876,0.303024 -0.201124,0.366809 0.331565,0.230429 0.272574,-0.198058 0.578657,0.0431 0.552992,-0.579618 -0.280425,-0.67558 -0.513914,-0.419866 -0.14807,-0.351104 0.03428,-0.388263 0.279461,-0.177561 -0.0068,-0.311836 0.161665,-0.159941 0.29134,-0.05382 0.04022,-0.416804 -0.07643,-0.09904 -0.147105,0.07835 -0.07451,-0.304941 -0.180624,-0.06283 -0.409907,0.195184 -0.233304,-0.0059 -0.05306,-0.131393 -0.201883,0.01858 -0.06091,-0.245179 -0.229473,-0.09692 0.18446,-0.383474 -0.147104,-0.269697 0.07451,-0.383473 -0.07662,-0.160898 0.15802,-0.231387 -0.130442,-0.383474 0.492274,-0.441319 -0.0098,-0.232536 0.259928,-0.130443 0.02048,-0.556056 0.366808,0.09424 0.7817,-0.400137 0.337312,0.165686 0.33137,-0.316817 0.258971,0.453197 -0.235411,0.373705 0.06475,0.284254 0.09806,0.09232 0.192312,-0.109944 0.247092,0.121628 0.12451,0.400139 0.202079,0.06762 0.210891,-0.07643 0.164728,0.160898 0.170669,-0.260884 0.574636,0.226598 0.283488,-0.124693 0.483462,0.383475 0.100932,-0.180435 0.167796,-0.05 L 60,32.231667 l -0.586514,-0.528666 -0.589384,0.08141 -0.215875,-0.942403 0.396309,-0.493421 0.02144,-0.159749 -0.21568,-0.292298 0.564865,-0.449175 -0.05287,-0.300151 -0.261843,-0.355891 0.265674,-0.09329 0.210892,-0.36183 0.0018,-0.285401 0.187327,-0.379452 -0.07355,-0.704122 0.139257,-0.143271 0.180434,-0.894325 -0.450133,-0.29134 -0.375619,-0.08734 v -0.34708 l -0.375621,-0.40512 -0.170667,-0.06168 -0.183308,0.180437 -0.325626,0.0205 -0.262802,0.698375 -0.254948,0.12163 0.106884,0.430402 -0.2492,0.106884 -0.72366,-0.224492 -0.216829,0.675773 0.118764,0.237324 -0.04807,0.353019 -0.490356,-0.003 -0.330607,0.30992 -0.60701,0.04426 -0.227556,0.135226 -0.249968,-0.383475 -0.424653,-0.01358 -0.04426,-0.269698 -0.440363,-0.494378 -0.373512,-0.01571 -0.17469,-0.264717 -0.507976,0.0519 -0.821728,-0.428485 0.03239,-0.438447 -0.103044,-0.111672 0.281379,-0.497254 -0.04504,-0.208975 -0.230427,-0.189247 0.09998,-0.206868 -0.246137,-0.04808 -0.315856,0.197098 -0.712931,-0.491312 -0.412974,0.03026 -0.437295,-0.135228 -0.135424,-0.193268 -0.254949,-0.03332 -0.117612,-0.141173 -0.46986,0.05976 -0.150936,0.156876 -0.3875,-0.204954 -0.591301,0.249201 -0.07854,-0.149022 -0.19614,-0.16377 -0.607005,0.162622 -0.09118,0.141355 -0.05401,-0.138291 -0.07949,0.06704 -0.04002,-0.224876 0.531541,-0.393434 0.09022,-0.214723 -0.128526,-0.808129 -0.311835,-0.860997 0.590346,-1.730996 0.208972,-0.174497 0.147104,-0.385388 0.342292,-0.257054 0.28138,-0.759096 0.251115,-0.284445 0.394198,-0.03907 0.252077,-0.27276 V 17.13759 l -0.285406,-0.298236 -0.08639,-0.514875 0.178518,-0.394201 -0.507022,-0.138291 -0.128526,-0.187332 -0.09214,0.142321 -0.100932,-0.02548 -0.709099,-1.165167 -1.008104,0.768859 -3.89e-4,-3.92e-4 1.007526,-0.768476 -0.372362,-0.483848 4.63e-4,-4.63e-4 -0.108804,-0.149218 -1.140461,1.197541 -0.0018,3.94e-4 1.139312,-1.195817 -0.556053,-0.146154 -3.687441,-1.814318 -0.212998,0.02353 -0.193077,-0.203997 -0.457028,-0.02951 -0.413933,-0.2333 -0.88743,-0.129491 -1.576993,0.736493 -0.351102,-0.119712 -0.346313,0.06666 v -1.94e-4 l 0.345359,-0.06647 -0.118764,-0.416801 -0.220661,-0.145188 0.109944,-0.172582 -0.09806,-0.07048 0.294216,0.03906 -0.01974,-0.190203 -0.295171,0.0018 -0.07949,-0.170475 -0.329458,-0.02567 -0.181394,-0.225445 0.07835,-0.05688 -0.04504,-0.195194 -0.140208,0.0588 0.02359,0.149022 -0.110904,-0.02933 -0.265674,0.199969 -0.0078,0.225642 0.30207,0.03526 0.226406,0.219701 -0.154005,0.08831 -0.03906,0.293641 -0.487498,-0.282024 -0.412778,-0.0881 0.122398,-0.442465 -0.311835,-0.235222 0.122594,-0.321794 0.251117,-0.07259 L 36.66071,9.9204276 36.479316,9.8340396 36.210576,10.026354 36.078035,9.4653144 35.831898,9.3927264 35.684794,9.165168 35.554352,9.3986628 35.659316,9.6909612 35.352456,9.9732984 35.219901,9.8066556 35.200351,9.1877712 34.64621,9.1661352 Z m 1.327791,1.831942 0.260884,0.09998 0.235414,-0.09424 0.189819,0.432508 -0.161472,0.0314 -0.183311,-0.113784 -0.358957,0.199206 -0.06761,-0.151126 0.222577,-0.162816 -0.15592,-0.103824 z m -0.25782,0.37255 0.201506,0.158601 -0.20227,-0.158405 z m 2.121173,0.322755 9.28e-4,1.99e-4 -0.143861,0.07432 -3.89e-4,-1.99e-4 z m -0.212804,0.246138 0.0028,1.94e-4 -0.0929,0.265485 -0.0018,9.26e-4 z m -0.541307,0.844332 0.740323,0.418143 -9.26e-4,0.0028 -0.740323,-0.418334 z m 1.09832,0.963089 3.94e-4,1.99e-4 -0.30628,0.04291 v -1.95e-4 z m -16.03369,0.650299 v 9.25e-4 l -0.355889,0.400138 z m 2.822806,0.122399 -0.0404,0.363934 -0.0037,0.0042 0.04081,-0.367958 z m 19.67688,0.04711 h 0.0023 l -0.07471,0.173731 -0.0018,-9.27e-4 z m -0.480585,0.211656 -0.02548,0.202272 -0.0028,-4.64e-4 0.02512,-0.200548 z m 0.283291,0.0973 0.17469,0.122594 -0.117792,0.220657 0.117792,-0.05498 0.05382,0.189441 -0.296124,0.265674 -4.64e-4,-1.97e-4 0.293827,-0.263567 -0.05401,-0.189247 -0.117612,0.05478 0.117612,-0.220661 -0.173927,-0.122202 z m -0.46373,0.07355 0.02395,0.0054 0.27238,0.09252 -0.0023,0.0023 z m -1.359394,0.156877 9.26e-4,0.0023 -0.14232,0.313752 -0.0023,7.88e-4 z m -10.70911,0.02413 0.07835,0.407419 0.134277,0.0078 v 9.72e-4 l -0.134277,-0.0078 -0.07854,-0.407993 z m 13.889146,0.178331 -0.117216,0.339992 -0.0014,-0.0017 0.116268,-0.337694 z m -23.276213,0.01763 0.09463,0.08599 -0.0028,0.0013 -0.09443,-0.08467 z m -0.550693,0.04386 9.26e-4,1.98e-4 -0.03911,0.372364 0.260888,0.132359 -0.110712,0.593409 -0.0018,3.92e-4 0.11052,-0.590728 -0.260886,-0.13331 z m 18.619744,0.0031 -0.115704,0.174117 0.06475,0.155916 0.254948,0.09616 -0.01955,0.150168 0.458946,0.282337 -0.0047,9.75e-4 -0.457601,-0.281381 0.01974,-0.150168 -0.254949,-0.09595 -0.06475,-0.155918 0.116652,-0.175648 z m 6.885673,0.40263 0.815024,0.195184 0.447067,0.271612 -9.26e-4,9.72e-4 -0.445148,-0.270653 -0.815025,-0.194994 -0.09712,0.126413 0.0521,0.12833 -0.05401,-0.130246 z M 20.291003,15.8348 h 9.26e-4 l -0.434424,0.177561 z m 6.162972,0.05593 -0.117996,0.246135 0.116844,-0.245177 1.95e-4,-1.96e-4 z m -3.400312,0.0084 -0.0018,0.0043 -0.165303,0.08983 3.93e-4,-0.0025 z m 24.254815,0.01128 9.28e-4,0.0029 -1.031854,0.442278 -0.230426,-0.0588 -0.04693,0.407992 -0.290386,0.208782 -0.235407,0.03641 -0.293257,-0.126609 -0.919799,0.2492 -0.476755,-0.120678 -0.465839,0.08236 -0.234262,0.632675 -0.284442,0.04903 0.05957,0.176224 -9.26e-4,1.94e-4 -0.06072,-0.179477 0.284445,-0.04903 0.234261,-0.633439 0.465837,-0.08141 0.47676,0.120678 0.919799,-0.249202 0.294211,0.12661 0.235413,-0.03736 0.289231,-0.208975 0.04808,-0.406843 0.230428,0.0588 z m -15.226518,0.170666 0.04808,0.196142 h -1.94e-4 z m 8.706694,0.07854 -0.0165,0.125462 -0.0028,-0.0016 0.01625,-0.123169 z m -0.212612,0.0086 9.26e-4,3.92e-4 -0.137143,0.153621 -0.0014,3.92e-4 z m -19.255289,0.08236 0.0018,0.0016 0.0028,0.295746 0.154958,0.128329 -0.0049,3.93e-4 -0.151896,-0.12584 z m 18.056407,0.0295 h 3.9e-4 l -0.135228,0.05497 -0.161662,-0.0041 -1.95e-4,-9.73e-4 0.16377,0.0041 z m -7.386949,0.05076 0.167412,0.09137 0.02933,0.186373 -1.96e-4,1.97e-4 -0.0291,-0.186565 -0.16779,-0.09118 z m 15.437027,0.01092 0.212998,0.11052 -1.99e-4,3.92e-4 z m -29.31832,0.0059 0.196144,0.05688 0.220662,0.276592 -0.221621,-0.276592 z m 22.0327,0.04444 9.26e-4,0.320454 -0.0031,9.72e-4 -9.26e-4,-0.320646 z m -13.33769,0.02221 0.04309,0.104592 -0.0018,0.01128 -0.04522,-0.108996 -0.255332,0.110712 -0.0065,-0.0029 z m -4.000998,0.175456 -3.93e-4,0.0022 -0.236367,0.177562 -0.388263,-0.0019 v -0.005 l 0.391135,0.0019 z m -2.04398,0.155916 0.07145,0.163006 -0.06666,0.119532 0.06455,-0.116652 -0.07241,-0.165686 z m 19.209892,0.01705 -0.06953,0.381366 -0.37064,0.303982 0.219702,0.43251 0.150938,0.0274 0.175453,0.634589 -0.137143,0.254949 -0.219701,0.04118 -0.12163,0.25303 -0.197103,0.07356 0.190204,0.155918 -0.08734,0.27755 -0.116652,0.136374 -0.795297,0.130442 -0.08044,0.15879 -9.27e-4,-6.01e-4 0.08026,-0.158217 0.795298,-0.130443 0.116652,-0.136374 0.08736,-0.277549 -0.191165,-0.155916 0.197099,-0.07356 0.122594,-0.253033 0.219704,-0.04118 0.137143,-0.254947 -0.176413,-0.633633 -0.150168,-0.0274 -0.219512,-0.432511 -3.94e-4,-6.01e-4 0.36911,-0.302452 0.06953,-0.382515 z M 19.657373,16.94412 h 0.0014 l -0.0975,0.433465 0.374659,0.181394 0.800278,-0.03524 -0.02548,0.142125 0.228513,0.08926 -0.0088,0.239432 0.178521,0.0431 0.25878,0.308004 -0.0018,0.0016 -0.25782,-0.305706 -0.11934,0.167027 0.11934,-0.167985 -0.178522,-0.04214 0.0088,-0.239238 -0.228514,-0.09022 0.02548,-0.14232 -0.801236,0.03544 -0.373702,-0.181392 z m 12.341651,0.03562 0.244792,0.192886 0.0314,0.2492 0.149021,0.142124 v 9.73e-4 L 32.27522,17.42281 32.243816,17.173608 31.998638,16.98053 Z m -6.686468,0.06684 0.11934,0.234835 -0.0042,0.0016 -0.118368,-0.232919 z m -6.034635,0.04961 -0.03642,0.265671 h -9.27e-4 z M 45.2894,17.238321 v 0.0022 l -0.377727,0.06953 0.193267,0.488441 -0.276594,0.114732 0.01686,0.117612 -0.0178,-0.11856 0.276588,-0.114732 -0.193266,-0.488428 z m 0.0037,0.115704 0.207828,0.0078 9.27e-4,9.72e-4 -0.208816,-0.0078 z m 0.672708,0.182543 0.103056,0.282337 0.365849,0.197101 0.487678,-0.01744 -1.99e-4,9.72e-4 -0.486525,0.01744 -0.366807,-0.197101 -0.103056,-0.282337 -0.239238,0.04502 -9.27e-4,-9.75e-4 z m -18.578558,0.05708 v 0.0036 l -0.209935,0.227364 9.25e-4,-0.0048 z m -2.945393,0.119904 -0.123168,0.376962 -0.0014,3.92e-4 0.122021,-0.376962 z m 18.570132,0.128904 -0.09998,0.165687 0.08352,0.151128 h -1.94e-4 l -0.08639,-0.154003 0.09846,-0.161089 z m -10.633832,0.185607 0.162811,0.184074 -3.94e-4,0.0017 -0.162427,-0.185031 z m 12.469599,0.02261 2e-4,7.89e-4 -0.473691,0.458942 z m -1.634836,0.04482 0.146154,0.205912 -0.313752,0.224683 0.188286,0.561802 -0.244409,0.304173 -0.0037,-0.0022 0.245178,-0.304939 -0.188286,-0.561995 0.313747,-0.223531 -0.143664,-0.203806 z m -17.407642,0.0041 0.167792,0.173541 0.368726,0.0293 0.02646,0.298237 0.735723,-0.386539 -9.26e-4,0.0059 -0.737447,0.387496 -0.02646,-0.298236 -0.368725,-0.0314 -0.167028,-0.172773 z m 7.247501,0.181393 -0.346122,0.639378 -0.0014,7.89e-4 0.346507,-0.639186 -0.258971,0.157832 -0.289236,-0.01374 3.94e-4,-0.0019 0.29,0.01373 z m -11.869876,0.212426 v 1.96e-4 l -0.827282,0.412013 -1.509377,-0.253031 -0.568891,0.190204 -0.288279,0.350146 -0.430592,0.05785 -0.965965,-0.08141 -0.0054,-0.01092 0.957727,0.0816 0.429444,-0.0588 0.288466,-0.350146 0.569658,-0.190204 1.50938,0.253032 z m 4.37892,0.221425 -0.0018,0.0043 -0.355124,0.08524 0.0023,-0.0048 z m 18.926025,0.03678 -0.06455,0.332522 0.346316,0.748368 -0.347465,-0.748368 z m -27.9708,0.279656 0.0059,0.01207 -0.54437,0.02911 0.06186,0.373513 -0.247286,0.09904 -0.0881,0.196143 0.159748,0.229471 -0.688413,0.09521 -0.175649,0.120678 -0.0096,-0.01448 0.171432,-0.117792 0.688414,-0.09521 -0.159749,-0.22947 0.08831,-0.196142 0.247095,-0.09904 -0.06188,-0.373703 z m 6.342258,0.01267 0.637466,0.674814 0.315857,0.0098 0.237326,-0.172581 0.148071,0.22947 0.220659,-0.23924 0.162811,0.13811 0.163775,-0.09692 0.187902,-0.145188 -0.0014,0.0037 -0.18944,0.146154 1.99e-4,0.0023 -0.159943,0.09481 -0.162811,-0.138291 -0.220661,0.239239 -0.148071,-0.22947 -0.237325,0.172582 -0.316815,-0.0098 -0.637462,-0.674622 -0.419678,0.213763 -0.959068,0.141551 -0.0042,-0.0042 0.963092,-0.14232 z m 9.313896,0.09214 0.0018,6.03e-4 0.263948,0.78112 -0.18925,0.464882 0.142125,0.584406 -0.04903,0.353209 0.176607,0.253988 -0.04216,0.463732 -9.26e-4,1.95e-4 0.04216,-0.462964 -0.177562,-0.253989 0.04903,-0.353017 -0.141174,-0.584597 0.18925,-0.463923 z m -1.82811,0.07566 h 9.26e-4 l -0.109572,0.266631 h -3.95e-4 z m -3.971501,0.224299 0.14481,0.408184 -0.0042,0.0037 -0.145188,-0.411821 z m 3.671349,0.02874 9.27e-4,1.96e-4 -0.106116,0.406654 -0.0014,0.0013 z m 14.306717,0.270653 0.177177,0.245754 -9.27e-4,3.93e-4 -0.177177,-0.245944 z m -16.568101,0.07145 0.0034,1.98e-4 0.05747,0.181393 -0.0034,7.88e-4 z m -8.465729,0.03524 -0.01552,0.252265 -9.26e-4,3.93e-4 0.01552,-0.252456 z m -4.469905,0.120859 0.0088,0.01343 -0.252072,0.09348 -0.01474,0.225449 -0.150937,0.07949 -0.309922,0.602219 -0.364895,0.0431 -0.216634,0.370639 -0.01247,-0.01328 0.21645,-0.370257 0.3647,-0.04213 0.309922,-0.602219 0.151126,-0.0793 0.01454,-0.225641 z m 22.83087,0.0077 h 3.94e-4 l -0.106308,0.149218 0.165878,0.366809 0.214722,0.188291 0.284636,0.05076 -9.26e-4,1.98e-4 -0.285406,-0.04999 -0.214911,-0.18829 -0.164729,-0.367768 z m -7.939747,0.09252 -0.0042,0.325436 -0.0018,6.01e-4 0.0042,-0.324286 z m -0.389796,0.03812 3.95e-4,0.0029 -0.25878,0.04942 -0.0023,-0.0023 z m -4.541352,0.02336 0.0018,6.03e-4 0.511046,1.054649 4.63e-4,0.0042 z m 15.071751,0.424656 0.469667,0.83667 0.826711,0.862912 h -0.0018 L 40.347534,21.38598 39.877868,20.549502 Z m -21.578738,7.88e-4 0.18446,0.500508 0.143091,-0.07949 0.17373,0.166645 0.175454,0.394393 -0.0023,3.92e-4 -0.174495,-0.391711 -0.17354,-0.166835 -0.14309,0.07949 -0.185419,-0.503188 z m 1.79076,0.514107 0.03832,0.312985 0.243259,0.08333 -0.0028,0.0031 -0.241539,-0.08275 -0.03832,-0.312793 -0.35455,0.02356 4.63e-4,-0.0041 z m -6.918812,0.05995 0.0054,0.01494 -0.139829,0.05651 -0.150937,0.289425 -0.611032,0.368724 -0.0055,-0.01686 0.602795,-0.363744 0.151127,-0.289234 z m 6.341302,0.07451 0.200547,0.05957 -4.63e-4,0.0042 -0.199972,-0.05976 z m -6.113748,0.04022 0.01128,0.01188 -0.180054,0.0095 -0.0047,-0.01223 z m 6.112791,0.109752 v 0.0029 l -0.258011,0.267781 -0.378498,0.04213 -0.01478,-0.102852 0.0014,-1.96e-4 0.01434,0.100188 0.378492,-0.0431 z m -7.406487,0.02165 0.0067,0.0205 -0.12623,0.158026 0.353021,0.666769 -0.282339,0.870766 -0.02164,0.01373 0.290192,-0.895284 -0.353017,-0.667917 z m 10.600313,0.111672 1.95e-4,0.0041 -0.182348,0.0019 -0.182352,0.378493 -0.389412,-0.141172 -0.402054,0.16875 -0.08238,-0.24422 -0.224683,-0.147104 -0.218553,0.147104 -0.302832,-0.0078 -0.0014,-0.0041 0.304176,0.0078 0.218554,-0.147104 0.224682,0.147104 0.08236,0.244221 0.402056,-0.168559 0.389412,0.141172 0.182352,-0.378493 z m 0.238665,0.04808 2e-4,1.98e-4 -0.15822,0.05765 -0.0519,0.18829 H 22.7348 l 0.0519,-0.188377 z m 0.0074,0.01188 0.03887,0.0613 -0.01008,-0.0094 z m 2.45657,0.244986 0.165113,0.243263 -3.93e-4,0.0022 -0.164346,-0.242306 z m -4.608774,0.10056 9.26e-4,0.0025 -0.245176,0.426761 -0.649725,0.352253 -0.0014,-0.0031 0.651064,-0.353017 z m -1.419732,0.250541 0.226981,0.233494 -0.0042,9.74e-4 -0.224491,-0.231388 z m 22.678399,0.0816 0.723851,0.13331 -0.0078,1.094488 -0.186373,0.28234 -0.0018,0.0012 0.186373,-0.28253 0.0088,-1.09449 -0.72385,-0.13331 -0.827862,0.02642 z m -8.68122,0.09118 0.176603,0.246136 -0.0098,0.255904 0.0088,-0.255904 z m -19.054167,0.03372 0.01668,0.0065 -0.216831,0.246136 0.06226,0.147496 -0.0062,0.0043 -0.06858,-0.162621 z m 4.37911,0.06724 0.256667,0.56889 0.56985,-0.166836 0.110712,0.506063 0.441898,-0.208209 0.0014,0.0031 -0.443237,0.208976 -0.110712,-0.506063 -0.570805,0.166643 -0.258011,-0.571762 z m -3.889524,0.48691 0.0086,0.0043 0.137146,0.203037 -0.131401,0.188291 0.129487,0.329456 -0.704123,0.538434 -0.110904,0.483654 0.20649,0.50951 -0.0083,-0.0025 -0.495531,-0.143091 1.99e-4,-1.95e-4 0.496291,0.14327 -0.21089,-0.517938 0.110904,-0.483462 0.704122,-0.538433 -0.129487,-0.329459 0.131401,-0.18733 z m 10.489793,0.947383 0.317391,0.355508 3.92e-4,0.0012 -0.318157,-0.355126 z m 16.815957,0.152853 0.550503,0.251498 -0.0023,0.0012 -0.551268,-0.250925 z m 0.915973,0.06244 0.432511,0.350146 0.110712,0.407992 -0.192119,0.960984 0.188286,0.245178 -0.02548,0.336544 0.240966,0.252648 -0.0018,1.96e-4 -0.240198,-0.251881 0.0245,-0.336546 -0.187328,-0.245177 0.191161,-0.960984 -0.110892,-0.40799 -0.432316,-0.350146 z m -17.002715,0.48059 0.109944,0.125461 0.297084,0.0059 -3.89e-4,0.0037 -0.294792,-0.0058 -0.109752,-0.125658 -0.304172,0.07949 -9.27e-4,-0.0042 z m -9.356995,0.09308 0.257057,0.429636 -0.284446,0.342291 -0.247476,0.05746 -0.01253,-0.0084 0.249204,-0.05785 0.284441,-0.342291 -0.250537,-0.418719 z m -2.201812,0.563143 0.173731,0.126413 -0.07834,0.612944 0.443042,0.689563 -0.03007,0.04022 0.02933,-0.03946 -0.444384,-0.691478 0.07853,-0.612947 z m 14.566835,0.373897 0.169514,0.389986 -9.26e-4,7.87e-4 -0.169709,-0.390177 z m -12.446812,0.02624 0.01128,0.0077 -0.104964,0.364894 0.126413,0.181394 -0.09998,0.131393 0.03526,0.24326 -0.235791,0.157451 -0.03179,0.0054 0.256861,-0.171625 -0.03526,-0.243262 0.100932,-0.131394 -0.127379,-0.181393 z m -3.722301,0.06953 -0.431551,0.524645 0.444194,0.503955 -0.06512,0.126413 -0.0023,-7.88e-4 0.0657,-0.127575 -0.44285,-0.502424 z m 18.108318,0.214148 -0.122399,0.155919 -4.63e-4,-3.93e-4 z m -14.082418,0.240773 v 9.73e-4 l -0.205145,0.100188 v -0.0012 z m 11.929067,0.130821 -0.311646,0.588043 -1.99e-4,-0.0013 0.31107,-0.586129 z m -3.544936,0.12202 0.199016,0.230621 -9.27e-4,9.73e-4 -0.1994,-0.230428 z m -13.248618,0.122973 0.397265,0.504913 0.329458,0.231388 -0.0018,9.73e-4 -0.327735,-0.230429 -0.398223,-0.506063 -1.136629,1.083765 -0.50204,0.488438 -9.27e-4,-9.72e-4 0.502615,-0.489016 3.93e-4,6.03e-4 1.13663,-1.082806 z m 32.31064,0.05862 0.109752,0.09616 1.228956,0.163771 0.517367,0.371788 -4.63e-4,0.0019 -0.517751,-0.372748 -1.229911,-0.163771 -0.109572,-0.09692 z m -27.483502,0.07356 0.07279,0.110904 h -0.0052 l -0.07106,-0.1086 z m -1.683303,0.05899 0.0023,9.72e-4 -0.173536,0.157833 -0.09904,-0.07738 -0.285401,0.235218 0.120671,0.217787 -0.455109,0.511043 -9.27e-4,-9.72e-4 0.454156,-0.510086 -0.120677,-0.217786 0.2854,-0.235218 0.0014,-0.0017 0.09865,0.0772 z m 12.810362,0.05708 -0.05574,0.665619 -0.325627,0.495338 0.287318,0.545137 -0.203996,0.399181 0.535561,0.01374 0.173538,0.261844 0.25878,0.06168 0.315856,0.292298 0.576744,-0.288276 0.563911,0.165686 0.09712,-0.175455 0.262801,0.117612 0.124497,0.200165 0.185414,0.01952 0.707956,-0.53154 0.427146,-0.135996 4.63e-4,6.02e-4 0.348995,0.303216 v 6.02e-4 l -0.344277,-0.297946 -0.428485,0.136374 -0.708145,0.531538 -0.185413,-0.01973 -0.124497,-0.199972 -0.263761,-0.117612 -0.09712,0.175455 -0.56391,-0.165686 -0.576744,0.288276 -0.315667,-0.292299 -0.259924,-0.06168 -0.17354,-0.261841 -0.535564,-0.01373 -0.359915,-0.02834 -0.484416,0.271612 -0.14807,-0.06378 -0.367765,-0.517747 -1.011168,-0.765033 v -0.0037 l 1.008104,0.763884 0.367767,0.517747 0.148251,0.06378 0.483463,-0.271611 0.359909,0.02834 0.203999,-0.398031 -0.28732,-0.545329 0.0018,-0.0029 0.32352,-0.493419 0.05593,-0.665812 z m -14.997617,0.128903 4.64e-4,1.96e-4 0.35378,0.460091 3.94e-4,9.75e-4 z m 33.466425,0.0095 v 6.02e-4 l -0.183502,0.05324 1.95e-4,-3.92e-4 z m -28.004893,0.04253 0.0096,0.003 0.105912,0.490356 -0.112812,0.159939 -0.336356,0.0519 0.0056,-0.01128 0.320073,-0.04942 0.112632,-0.159941 z m -4.997037,0.0022 0.09118,0.105912 0.112824,0.163771 -0.197099,0.391328 0.04826,0.138683 -9.26e-4,6.02e-4 -0.04903,-0.141174 0.197099,-0.391326 -0.112812,-0.163771 -0.08946,-0.103824 z m 0.569851,0.13236 0.0014,7.87e-4 -0.106308,0.144419 -0.0018,-3.93e-4 z m 17.950098,0.153044 -0.02664,0.0059 0.03526,1.097365 0.188286,0.07164 -0.04118,0.154003 0.16971,0.165687 0.2854,0.117612 -0.28636,-0.117612 -0.16875,-0.165687 0.04022,-0.154003 -0.187328,-0.07164 -0.03622,-1.097365 z m -6.819207,0.02203 0.155149,0.142697 v 0.0023 L 25.15516,27.239786 Z m -12.496993,0.103428 0.222574,0.254946 -9.26e-4,0.0012 -0.22181,-0.253989 -0.253035,0.07547 0.009,-0.0046 z m 5.323238,0.07662 0.189245,0.07739 -0.0018,0.0036 -0.176797,-0.07222 -0.181392,0.199973 0.386538,0.379643 -0.141369,0.223534 -0.01068,0.09214 -0.246137,0.439406 0.04309,0.190206 -0.184266,0.198247 0.170474,0.271613 -0.09406,0.598195 0.142124,0.193079 -0.0048,-7.89e-4 -0.147106,-0.200166 0.09406,-0.598196 -0.170664,-0.271612 0.184457,-0.198247 -0.04426,-0.190207 0.246327,-0.439404 0.01068,-0.09214 0.141174,-0.223535 -0.386345,-0.379642 z m -4.307284,0.239242 -0.09118,0.205911 -0.0018,-0.0019 0.08964,-0.202463 z m 20.068403,0.08333 -0.241542,0.206101 1.96e-4,-0.0012 z m -20.036223,0.238473 0.0023,0.0019 -0.100944,0.213762 -0.281573,-0.109944 -0.09808,0.245178 0.137339,0.235409 -0.129488,0.28732 -0.196138,0.06973 -0.295172,0.465837 -0.07835,-0.06186 -0.0793,0.105732 -0.0023,-0.0017 0.0793,-0.105912 0.07853,0.06168 0.295175,-0.465839 0.19614,-0.06953 0.129487,-0.287317 -0.13734,-0.23541 0.09808,-0.245177 0.28157,0.109752 z m 17.765832,0.106488 v 1.97e-4 l -0.176028,0.141928 -4.64e-4,-6.03e-4 z m -18.943068,0.01343 0.09175,0.274294 -3.89e-4,7.87e-4 -0.09175,-0.274484 z m 0.219318,0.303599 0.144043,0.104016 -9.27e-4,0.0013 -0.143278,-0.103428 -0.110904,0.14807 -0.09214,-0.04789 9.26e-4,-0.0016 0.09118,0.0475 z m 20.683449,0.128723 -1.94e-4,0.0017 -0.240003,0.06512 -0.0014,-0.0013 z m -22.479186,0.01448 -0.09635,0.262992 -0.0019,0.0028 0.09712,-0.265099 z m 0.852184,0.547245 0.05689,0.0058 0.04614,0.119712 0.05785,0.09998 0.280425,0.263759 -0.197104,0.40416 -0.04405,0.05785 h -1.94e-4 l 0.04327,-0.05688 0.197098,-0.403969 -0.280419,-0.263947 -0.05785,-0.09998 -0.04614,-0.119712 -0.03526,-0.0037 -0.02126,-0.0017 z m 20.736126,0.01267 0.300156,0.04214 0.124692,0.02854 3.93e-4,0.0062 -0.121054,-0.02777 -0.313942,-0.04405 -0.238285,0.179477 -0.0014,-0.0088 0.227748,-0.171432 z m 0.996801,0.02719 9.28e-4,0.0013 -0.562379,0.172199 v -0.0017 z m -20.656057,0.365086 0.136378,0.194227 -0.07662,0.213765 -0.523685,0.509893 -0.04903,0.194227 -0.379451,0.282529 0.114736,0.146154 -0.05191,0.248052 -0.188302,0.09806 -0.26395,-0.136374 -0.198058,0.278506 -0.261842,-0.0245 0.06474,0.775758 -0.116264,0.625205 -0.0023,6.01e-4 0.11684,-0.627694 -0.06474,-0.775759 0.261842,0.02453 0.198058,-0.278507 0.26376,0.136374 0.188302,-0.09806 0.0521,-0.248244 -0.114736,-0.145957 0.379451,-0.282529 0.04904,-0.194227 0.523685,-0.509894 0.07662,-0.213765 -0.134847,-0.192119 z m -1.503057,0.292681 -3.94e-4,6.01e-4 -0.08045,0.02165 -0.22679,0.02642 3.93e-4,-9.72e-4 0.227365,-0.02645 z m -0.901222,0.124511 0.181009,0.273336 0.117608,-0.06781 0.07892,-0.0975 -3.94e-4,0.0016 -0.07949,0.09806 -0.117609,0.06761 -0.181393,-0.273718 z m 22.494133,0.357233 0.08831,0.07106 -0.08831,-0.07068 z m -14.550939,0.03773 0.01092,0.0019 -0.04751,0.253607 -0.01128,3.92e-4 z m 0.406081,0.420443 0.01,0.0071 -0.13983,0.642253 -0.01128,-9.75e-4 z m -0.0523,0.662748 0.01516,0.0013 -0.258017,0.320646 -0.0059,-0.01237 z m -0.401671,0.0013 0.0037,0.008 -0.318732,0.01164 0.107076,0.251882 -0.212805,0.109944 -0.0148,0.236366 0.113784,0.605093 -0.249199,0.232345 -0.271613,-0.09214 -0.337311,0.473692 -0.25303,0.118764 0.159749,0.701056 -0.07048,0.335395 -0.149218,0.100188 0.04614,0.128329 -0.158791,0.02854 0.106884,0.629608 -0.140404,0.23541 -0.354934,0.01763 -0.03044,0.122594 0.226594,0.350146 -0.210315,0.706228 -0.01418,-1.96e-4 0.212809,-0.714848 -0.226601,-0.350144 0.03044,-0.122594 0.354933,-0.01763 0.140208,-0.235409 -0.106884,-0.629609 0.158985,-0.02854 -0.04614,-0.128329 0.149022,-0.100188 0.07068,-0.335394 -0.159175,-0.698758 9.26e-4,-0.0013 0.253036,-0.118764 0.337502,-0.473693 0.271613,0.09214 0.249009,-0.232344 -0.11358,-0.605092 0.01448,-0.236367 0.212809,-0.109752 -0.106884,-0.252074 z m 21.266708,0.442278 0.12163,0.56391 0.562951,-0.166646 0.386351,0.220662 0.124496,0.24422 -0.306856,0.74243 0.04614,0.733428 0.345162,0.598386 0.467758,0.07643 0.139258,0.287318 -3.95e-4,0.0023 -0.138864,-0.286743 -0.468715,-0.07643 -0.345354,-0.598195 -0.04596,-0.734577 0.306854,-0.74243 -0.124496,-0.244221 -0.386349,-0.220659 -0.561993,0.166835 -0.121629,-0.565059 -0.08238,0.146154 z m -0.396115,0.170666 0.249584,0.09002 -4.63e-4,0.0012 -0.249968,-0.09022 -0.222384,0.157068 -3.94e-4,-0.0012 z m -0.129869,0.594366 -0.03488,0.07451 -0.872875,0.465839 -0.161855,0.02645 0.161855,-0.0274 0.872875,-0.465839 z m -4.942446,0.08141 0.116652,0.09998 0.342292,-0.0383 0.221614,0.185414 0.402244,-0.06475 0.207829,0.251118 0.546288,-0.272569 -0.547248,0.2764 -0.208017,-0.250925 -0.402056,0.0657 -0.220654,-0.186373 -0.342292,0.0383 -0.116652,-0.100188 -0.231386,0.184458 -0.110328,0.364703 -4.64e-4,-0.0029 0.110904,-0.365853 z m -22.152991,0.184075 0.0018,0.0013 0.109944,0.243647 -9.27e-4,-6.04e-4 z m 24.641166,0.02089 0.151896,0.09023 0.163771,-0.06858 0.09539,0.03409 -0.25916,0.03544 -0.151896,-0.09022 -0.158026,0.110904 z m -24.212867,0.118764 0.05287,0.18235 -0.110712,0.02644 -0.427721,0.56391 -9.26e-4,-0.0029 0.426951,-0.562954 0.110712,-0.02645 -0.05191,-0.179477 z m 3.901204,0.476565 0.206104,0.266439 -1.99e-4,1.96e-4 -0.2061,-0.26644 z m 12.219062,0.01056 4.63e-4,1.95e-4 0.160707,0.178711 -9.27e-4,-1.94e-4 z m -17.085272,0.03449 0.0014,0.0028 -0.188862,0.348422 0.483653,0.605092 h -2.03e-4 L 11.291666,33.87727 Z m 0.398028,0.04234 9.27e-4,0.0022 -0.32716,0.0703 -0.0014,-0.0022 z m 17.472964,0.213764 0.0054,9.73e-4 0.07738,0.20706 -0.0048,7.89e-4 z m -16.917864,0.186184 -0.02126,0.244028 -0.0023,0.0012 0.02108,-0.242495 z m 0.980907,0.563334 0.0018,0.0017 0.122588,0.311834 -0.02353,0.293256 0.167602,0.22545 -0.106884,0.197674 -0.0037,0.0016 0.108792,-0.201122 -0.167602,-0.22564 0.02335,-0.293064 z m 28.035918,1.13912 0.181013,0.403202 -9.27e-4,7.89e-4 -0.180434,-0.401862 z m 0.0059,0.526559 0.07508,0.613135 -1.95e-4,0.0012 -0.07528,-0.614094 z m -20.661426,0.09252 0.350339,0.212805 -9.28e-4,7.89e-4 -0.350339,-0.211657 z m -0.648957,0.297085 0.1086,0.271804 -0.0037,7.87e-4 -0.108408,-0.270271 z M 16.55088,36.71536 h 0.0092 l 0.09002,0.304172 -0.0095,-0.0012 z m 1.359589,0.07164 -0.02646,0.455111 0.08754,0.127952 -0.0023,6.03e-4 -0.09118,-0.134472 0.02567,-0.442278 z m -1.099085,0.260117 0.02243,0.0028 -0.136389,0.07854 0.03391,0.524451 -0.0054,1.96e-4 -0.430593,0.483462 0.104004,0.282529 -0.135423,0.106884 0.02737,0.244221 -0.138306,0.0343 -0.495142,0.590342 -0.215876,0.02951 -0.03024,0.244219 -0.185415,0.214723 -0.993549,0.47465 -0.0023,-0.003 0.988949,-0.472541 0.185415,-0.215873 0.03044,-0.244028 0.215681,-0.02854 0.495337,-0.591299 0.139257,-0.0343 -0.02756,-0.244221 0.135423,-0.106884 -0.103044,-0.282529 0.429634,-0.483459 -0.03427,-0.531539 z m 24.308256,0.659874 0.145581,0.250925 -9.28e-4,0.0012 -0.145383,-0.249201 z m -1.3412,6.495113 0.129476,0.04234 -0.02452,0.39018 -0.20591,-0.06475 z" />
  </g>
</svg>
