<?xml version="1.0" encoding="UTF-8" standalone="no"?>
<!-- Created with Inkscape (http://www.inkscape.org/) -->

<svg
   width="60"
   height="60"
   viewBox="0 0 60 60"
   version="1.1"
   id="svg951"
   xmlns="http://www.w3.org/2000/svg"
   xmlns:svg="http://www.w3.org/2000/svg">
  <defs
     id="defs948" />
  <path
     id="NL-DR"
     style="fill:#ffffff;fill-opacity:1;stroke:none;stroke-width:0.0414932;stroke-opacity:1"
     class="land"
     d="m 45.16164,-2.1e-4 -0.0647,0.3702 0.20909,0.19158 0.029,0.1744 0.059,0.0481 0.11524,0.0331 0.0648,-0.0439 -0.0407,-0.10535 0.0705,-0.0481 0.19579,0.0215 0.0274,-0.1718 0.0838,0.0814 0.26647,0.0399 L 45.95576,0.3725 45.74327,0.3244 45.26772,0.1983 45.21132,0.00656 Z m 1.72359,0.25723 -0.0838,0.0242 -0.083,0.12772 0.0316,0.0415 0.21232,-0.0199 0.2689,0.12789 -0.0655,-0.16095 0.1851,0.024 0.009,-0.0439 -0.19093,-0.0896 z m 0.01,0.45642 -0.0997,0.0465 0.21168,0.112 0.0548,-0.10373 -0.0921,-0.0157 z m -2.45555,0.13777 -0.0971,0.0441 0.33762,0.0506 0.007,-0.0548 -0.0613,-0.0107 z m -3.63649,0.23907 -0.0905,0.20909 -0.009,0.0797 0.0856,0.0133 0.0971,-0.24653 0.51364,0.14522 -0.32189,0.25561 -0.118,0.17181 -0.13761,0.33437 -0.0548,0.27717 0.0564,0.0399 0.13696,-0.13194 0.26631,0.0224 -0.0473,-0.16759 0.14701,-0.0133 -0.034,-0.0465 0.0588,-0.0729 0.0896,-0.0175 0.0133,0.0838 0.0266,-0.0879 h 0.35107 l 0.0929,0.0921 -0.0614,-0.10374 0.64898,-0.0947 0.32871,-0.15431 0.0879,-0.11038 0.71948,-0.24895 0.23,-0.16273 -0.0241,-0.0373 -0.47961,0.0199 -1.49553,0.18251 -0.37425,-0.0399 -0.12853,-0.12107 -0.11784,-0.0224 z m -6.33939,0.8887 -0.19839,0.17343 -0.0522,0.40926 0.21492,0.29872 0.4514,0.23486 0.0407,-0.10374 0.47393,-0.12788 0.27457,-0.27457 0.6365,0.0679 0.002,0.14117 0.034,-0.10535 0.38494,0.002 1.10703,-0.30375 0.24572,-0.13614 0.70117,0.0175 0.13274,-0.0282 0.0747,-0.0789 -0.14441,-0.0705 -1.60738,-0.004 -1.58922,0.12934 -0.31622,-0.0232 z m 14.71097,0.0971 -0.7344,0.0731 -1.81744,0.66632 -2.18406,0.27895 -0.77103,0.3253 -0.34021,0.2522 -0.1958,-0.20909 -0.54119,-0.27473 -0.62645,0.15609 -0.0524,-0.003 -0.004,-0.0838 -0.1141,0.0329 0.002,-0.003 -0.10114,-0.0888 -0.088,0.007 -0.5211,0.24636 -0.57685,-0.12107 -0.0556,0.0854 -0.0266,-0.0572 -0.0232,0.0572 -0.21168,-0.0572 -0.69372,0.0904 -0.34929,0.112 -0.19596,0.0349 -0.0357,-0.0373 -0.71447,0.24653 -0.37846,0.002 -0.0814,-0.18915 -0.029,0.0306 -0.0365,-0.0506 0.13275,0.224 -0.27473,0.15852 -1.34351,0.61899 -0.96261,0.5835 -0.98513,0.30958 -0.37004,0.19077 -0.36517,0.36842 -0.0798,0.22335 -0.36679,0.37668 -0.59241,0.37019 -0.45562,0.46794 -0.13355,0.21411 -0.2159,0.66065 -0.15754,0.14603 0.0878,0.0872 0.004,0.0921 -0.15187,0.94105 -0.112,0.14604 -0.21249,0.12869 -0.0423,0.28543 -0.3668,0.35512 -0.17181,0.0614 0.0763,0.12627 0.49208,-0.40586 0.14198,0.27052 0.0248,0.25982 0.14701,0.28542 -0.0606,0.008 -0.0407,-0.0655 -0.0556,0.004 v 0.0564 l -0.0681,-0.0588 -0.1013,0.0173 0.0207,0.12869 0.12869,0.14182 0.0904,0.20925 0.0498,-0.0348 0.0457,-0.31623 0.0173,0.32692 -0.0357,-0.0258 -0.009,0.0914 -0.0606,0.024 0.0207,0.11946 0.11541,0.0324 -0.004,0.22399 -0.11443,0.19337 0.0473,0.36777 0.14263,0.44799 -0.0133,0.10049 -0.0971,0.024 0.0631,-0.002 0.0457,0.1154 -0.0357,0.16257 -0.0896,-0.002 0.0498,0.0349 -0.14847,0.0713 0.0721,0.0872 0.0697,0.34361 -0.0133,0.22157 -0.0721,0.10195 -0.37603,0.17602 -0.23146,0.28219 0.20747,0.30196 0.37003,0.34021 0.36112,0.18267 0.45059,-0.13696 1.23313,0.47295 0.34442,-0.13015 0.088,-0.22999 0.23485,-0.0538 0.18332,0.0256 0.35107,-0.20406 0.14685,0.1086 -0.025,0.17359 0.0606,0.0697 0.13939,0.024 0.0763,-0.14101 -0.009,0.0822 0.33114,0.0173 0.058,0.12367 0.12124,-0.0473 -0.009,0.093 0.13113,0.0256 0.10373,0.10211 0.0885,-0.0361 9.7e-4,0.003 -0.0895,0.0366 -0.10373,-0.10212 -0.13113,-0.0258 -0.654,0.14766 -0.87719,1.42746 -0.0224,2.21649 0.083,-0.0149 0.0614,0.0797 -0.0431,0.0365 0.23486,0.17262 0.41493,0.66891 -0.29142,0.23972 -0.87882,0.2548 -0.37165,0.3817 -0.0433,-0.0713 -0.0455,0.0457 0.0397,0.0796 -0.44475,0.42498 -0.4548,0.0472 -0.20245,0.38349 -0.13777,0.10795 -0.0614,-0.0191 -0.0115,0.11443 0.0812,-0.0173 0.0499,0.17424 -0.025,0.0822 -0.50781,0.45642 -0.21411,0.0663 -1.96185,1.35858 -0.12124,0.16922 -0.21492,0.0366 -0.59581,0.35188 -0.0673,0.1543 -0.44881,0.27052 -0.003,0.12691 0.13533,0.25739 0.0224,0.41574 -0.0548,0.10292 0.17586,0.11605 -0.0854,0.13956 0.1851,0.17164 0.91285,-0.15592 0.8075,0.20325 0.38575,0.25479 0.31461,0.3112 -0.002,0.001 -0.31508,-0.31169 -0.38592,-0.25479 -0.80734,-0.20325 -0.91285,0.15592 -0.1851,-0.17165 -0.34442,-0.088 -0.24815,-0.18672 -0.18915,-0.0282 -0.10633,0.0772 -0.33357,0.0175 -0.11783,-0.0449 0.0133,0.058 -0.0614,0.007 -0.0365,-0.0796 0.0814,-0.11378 -0.093,-0.0904 -0.18088,0.0856 -0.19418,-0.0391 -0.20082,-0.24231 -0.27311,-0.17586 0.0707,-0.0598 0.0389,0.088 0.1013,-0.11621 -0.21168,-0.10957 -0.0389,-0.10292 0.0588,-0.0689 0.21913,0.19758 0.23486,-0.0989 0.15106,0.10552 0.0522,-0.15447 -0.0357,-0.0556 0.17764,-0.0945 0.10114,-0.28299 0.18267,-0.12205 0.10114,-0.14847 0.1718,0.008 0.12448,-0.36096 0.0955,-0.0864 0.007,0.0755 0.058,-0.0282 0.0888,-0.13777 0.0391,-0.26631 h 0.0971 l 0.0905,-0.0947 0.31119,-0.13356 -0.31119,-0.0233 -0.11281,-0.13777 -0.15107,-0.43649 0.10536,0.64071 -0.12108,0.15933 -0.025,0.27052 -0.13696,0.034 -0.39661,-0.0755 -0.002,-0.30537 0.0671,-0.13777 -0.0896,-0.0216 -0.0655,0.0879 -0.10876,-0.17164 0.0582,0.034 0.15835,-0.0797 0.22578,0.0109 0.008,-0.0922 -0.0963,-0.112 -0.007,-0.22578 0.0391,-0.0514 0.0921,0.007 0.19417,-0.29288 -0.0546,-0.18267 -0.0896,-0.0729 0.0141,-0.0838 -0.0582,-0.003 -0.20746,-0.42823 0.009,-0.12691 -0.15852,-0.3535 -0.15852,-0.14863 0.0207,-0.13777 -0.16014,-0.44638 0.0357,-0.0838 -0.0673,-0.5976 0.0365,-0.0838 0.22822,-0.10373 0.0963,-0.10374 0.0772,-0.002 0.0896,0.16176 -0.009,-0.0796 0.11281,-0.0175 0.0175,0.0564 0.0971,-0.0995 0.18251,-0.054 0.21832,0.23064 0.17846,-0.0131 0.0971,0.27635 0.41899,-0.0731 0.19336,-0.20503 0.3253,-0.0838 0.12448,-0.17926 0.30634,-0.17084 0.0655,-0.0971 0.13696,-0.60667 0.48041,-0.12286 -0.0423,-0.10795 0.24394,-0.13858 0.0183,-0.11443 0.0995,0.008 -0.25723,-0.15771 -0.0564,-0.59241 -0.15349,-0.10211 -0.17846,0.0107 0.1287,-0.0455 -0.0357,-0.0415 -0.29386,0.058 -0.28137,-0.14685 -0.37004,-0.0215 -0.20908,0.30698 -0.11703,0.078 -0.14701,-0.002 -0.0971,-0.0324 -0.3676,-0.37425 -0.0721,-0.30115 -0.0556,-0.0971 -0.1013,-0.007 0.1261,-1.5171 -0.85888,-1.68047 -0.12188,0.0217 0.0314,-0.20666 0.17764,-0.1436 1.47706,-1.28548 -0.0538,-0.0721 -1.65227,1.46377 -0.11038,-0.078 -0.20503,0.0673 -0.15269,-0.0433 -0.45059,0.13031 -0.12448,0.11119 -0.0564,0.19337 -0.20082,0.25398 -0.4125,0.20828 -0.4266,0.11281 -0.89535,-0.54266 -0.21573,-0.46064 0.16419,-0.45464 -0.0331,-0.16937 -0.12788,0.0258 0.0805,0.0713 -0.0457,0.10633 -0.0963,0.0256 -0.0987,-0.15187 0.0655,-0.0548 -0.083,0.004 0.0109,-0.0481 -0.57929,0.0523 -0.11783,0.1086 -0.13939,0.37182 -0.058,1.17348 -0.0681,0.31444 -0.30456,1.21659 -0.22156,0.7519 -0.18932,0.41818 -0.11783,0.5561 -0.38576,3.24393 -0.33616,1.87384 -0.25479,0.64557 0.0498,0.14199 -0.0671,0.0921 -0.0707,0.50035 -0.87703,2.27889 0.001,4.9e-4 -0.62937,1.37787 -0.87476,1.56767 -0.97833,1.32778 -0.57507,0.57588 0.0315,0.0622 0.0681,-0.0532 -0.0614,0.0914 -0.088,-0.0383 -1.29861,1.56766 -0.31298,0.47718 -0.71949,0.60829 -0.33194,-0.18931 -0.12108,0.0191 -0.12204,-0.0556 -0.12854,0.15106 -0.14944,0.0274 -0.0806,0.18672 v 0.1146 l 0.0656,-0.008 -0.004,0.1744 -0.20245,0.77751 0.0705,0.0655 0.2415,-0.087 0.18915,0.087 0.0457,-0.17164 0.17343,0.11864 0.009,0.0655 -0.25723,0.44573 -0.0207,0.16095 0.4232,0.65724 0.0524,0.21412 -0.20083,0.12529 -0.12366,0.19919 h -0.12367 l 0.025,0.11038 -0.31947,-0.2308 0.0182,-0.0929 0.11783,0.0232 -0.0564,-0.053 -0.13112,-0.0614 -0.27052,-0.004 -0.92614,0.36857 -0.57507,0.13096 -0.21832,0.24815 0.13777,0.45724 -0.0266,0.15446 -0.11946,0.3112 -0.24069,0.15431 0.10875,0.10616 0.37458,0.11848 -0.002,3.4e-4 -0.37587,-0.11881 -0.10876,-0.10616 -0.15268,0.13533 -0.0564,0.26225 -0.68561,-0.0681 -0.81657,0.26468 -0.15268,0.11621 -0.2099,0.43147 0.0141,0.27311 0.18429,0.34848 0.1509,0.12448 0.19434,0.0614 -0.003,0.23907 -0.0647,0.019 0.0423,0.0532 -0.0797,0.17505 -0.0647,0.0167 0.0199,0.0397 -0.31363,0.35026 -0.0947,0.0167 0.0705,0.0862 -0.0806,0.42823 -0.64476,0.23145 -0.34929,-0.12853 -0.39419,-0.004 -0.96018,0.54606 -0.77508,0.5245 -0.0772,0.33276 0.27717,0.31784 0.56842,0.40829 0.37587,0.61834 0.33194,0.28381 0.0772,-0.007 0.14863,0.18915 0.3569,-0.007 -0.13534,-0.1005 0.0173,-0.0522 0.0274,0.0739 0.0274,-0.0566 v 0.0689 l 0.0656,0.0191 0.008,-0.17424 0.0457,-0.007 0.007,0.16095 0.0971,0.0781 0.34686,-0.034 0.15852,-0.17846 0.40326,0.0165 0.29385,0.21249 0.19823,0.2663 0.0657,-0.006 0.0697,0.24393 0.0763,0.063 0.16679,0.0191 0.12366,-0.0689 0.14183,0.0921 0.16192,0.0109 -0.0224,0.0904 0.53179,0.43649 0.566,-0.13615 0.17764,-0.12773 0.29288,0.0879 0.0922,-0.0439 0.32935,-0.82743 -0.058,-0.20407 0.0588,-0.0125 -0.0141,-0.10697 0.12204,0.0397 0.5386,-0.28121 0.37668,0.37587 0.32952,0.16597 0.0481,-0.025 0.0133,0.0904 0.21151,0.0657 -0.0455,0.0713 0.0647,0.12626 0.35853,0.27052 0.93781,0.26047 0.6472,-0.23308 0.0856,0.13437 0.0862,-0.0165 0.23908,0.1094 0.16175,0.2689 -0.0332,0.15933 0.47312,-0.0208 -6.7e-4,-0.002 0.75985,-0.023 0.1013,0.39419 0.46064,0.063 0.22481,-0.0207 0.36274,-0.18251 0.11945,0.0232 -0.0681,-0.14279 0.0723,-0.0862 -0.51461,-0.67799 -0.112,-0.27473 0.14603,-0.14102 -0.029,-0.10049 0.0763,-0.0465 -0.083,-0.22237 -0.18753,-0.0232 0.0606,-0.0755 0.76925,-0.40748 0.28381,-0.0506 0.13112,-0.13696 0.83813,-0.0987 0.13939,0.20407 -0.22562,0.49386 0.0705,0.5459 0.52353,-0.19499 0.69874,0.13032 0.14441,0.0739 0.15771,-0.0822 0.0971,0.0357 0.13534,-0.0439 -0.0316,-0.3676 0.34021,-0.15528 0.13534,-0.31946 0.16014,-0.0383 0.18088,-0.31947 0.21168,-0.11119 0.0929,-0.20989 0.26306,-0.0989 0.57426,0.19174 0.0707,0.23745 0.26128,0.063 -0.0705,0.37425 0.13031,0.0987 -0.0721,0.0656 -0.0697,-0.0548 -0.13956,0.2415 0.0856,0.49533 h 0.22481 l -0.083,0.0713 0.0423,0.0465 -0.10616,0.003 -0.10212,-0.0922 -0.52271,-0.16841 -0.034,-0.0673 -0.1428,0.0125 -0.0771,0.078 0.0564,0.27716 0.22983,0.12626 0.61997,-0.12367 0.0971,0.0439 0.0673,-0.0564 0.20909,0.12367 0.11702,-0.16192 0.11443,0.0292 0.0499,-0.0399 -0.0159,0.0506 0.10633,0.0713 0.0772,-0.0464 0.13031,0.23485 0.17748,0.12189 -0.13274,0.0357 0.0947,0.0274 0.0838,-0.0381 -0.025,-0.0822 0.0449,0.0689 0.46048,-0.57928 0.51624,-0.4373 0.0747,-0.57183 0.33113,-0.31947 0.0588,0.025 -0.007,0.13858 0.093,0.16014 0.43308,0.0274 0.34443,0.81577 -0.42822,0.81657 0.79096,0.95678 0.034,0.68544 0.37003,0.11298 0.14685,-0.11541 0.3428,-0.11281 0.51364,0.33276 -0.17748,0.78918 0.11946,0.1154 0.36598,-0.0838 0.39662,0.10033 0.55854,-0.029 0.13031,-0.2556 0.93846,0.25139 0.21589,-0.28705 0.0737,-0.008 0.0407,-0.12366 0.31946,-0.0606 0.23745,-0.31461 0.0788,0.007 0.33616,0.0947 0.14604,0.2556 0.38333,0.35772 -0.0115,0.47879 0.0588,0.40829 0.0491,0.0434 -0.002,4.9e-4 1.15355,0.48722 0.002,0.13113 0.083,0.13356 0.17603,-0.01 0.0679,0.0622 0.16192,-0.0473 0.26387,0.0913 0.10211,-0.0788 0.28786,-0.0151 0.064,-0.0729 0.27879,0.10033 0.12204,0.12545 -0.0332,0.11281 0.0647,0.0141 -0.0971,0.0822 0.0141,0.0622 0.10373,0.0439 -0.0522,0.15025 0.0315,0.0772 0.35431,-0.22578 0.12707,0.0715 0.13275,-0.18185 0.171,0.23404 -0.0175,0.0731 0.24475,0.18996 -0.12853,0.0896 -0.0606,0.19013 -0.21914,0.0439 -0.18672,0.22903 -0.002,0.15689 0.25982,0.0622 0.0538,0.0796 -0.0181,0.11881 -0.10374,0.11281 -0.19336,-0.0772 -0.17683,0.0995 0.12205,0.24653 -0.10957,0.14603 0.0439,0.23486 -0.112,0.0588 -0.23064,-0.0838 -0.0308,0.23826 -0.17586,0.35594 0.2381,0.22237 -0.12934,0.27717 -8.3e-4,0.25155 -0.595,0.73861 0.0115,0.10616 0.0896,0.0481 0.20503,-0.11702 0.0921,0.0165 0.0822,0.20179 -0.1428,0.0713 -0.0737,0.23226 -0.15771,0.1992 -0.0788,0.34524 -0.0681,0.0349 -0.13696,-0.0788 -0.0997,0.0207 -0.0697,0.29953 -0.16095,0.17019 -0.0473,0.13939 h -0.11038 l -0.2971,0.15771 -0.034,0.0455 0.0499,0.0622 -0.0947,0.0806 -0.0165,0.37587 0.14425,0.27975 -0.0248,0.10957 0.0838,0.0481 0.0109,0.0953 0.28867,0.0763 0.0207,0.083 0.17602,0.0151 0.0747,0.11783 -0.0864,0.20487 0.11945,0.28802 -0.24053,0.50376 0.1958,0.053 0.22076,-0.0945 0.0697,-0.0872 0.11038,0.0763 h 0.14928 l 0.33859,-0.43892 0.13193,-0.0225 0.11136,0.29386 0.11443,-0.0473 0.21411,0.30212 0.30455,-0.064 0.17343,-0.112 0.0797,0.20666 0.13777,-0.14263 0.31282,-0.16112 0.0481,0.25642 0.16014,0.11621 0.058,-0.0705 0.11297,-0.0125 0.0365,0.0913 0.58512,-0.24475 0.1402,0.0332 0.11281,0.15933 0.52126,-0.0349 -0.0566,-0.13453 0.13031,-0.24231 -0.36517,-0.224 -0.15592,-0.19677 -0.16857,-0.0498 0.0109,-0.12448 0.1295,-0.15106 0.24556,0.15528 0.0631,-0.0167 0.22335,-0.25058 -0.0225,-0.0639 0.0699,-0.0373 -0.13372,-0.24896 0.009,-0.28802 0.48284,-0.2099 0.0266,0.087 0.21411,0.10795 0.0391,-0.27976 0.15771,-0.27213 -0.18267,-0.4091 0.0896,-0.34021 0.16938,-0.25317 -0.0773,0.0846 -0.18672,-0.11621 -0.26792,0.0191 0.0149,-0.10212 -0.0572,-0.0538 -0.0707,0.0248 -0.34686,-0.12448 -0.0381,-0.38252 -0.15106,-0.0938 0.13032,-0.12853 0.13112,-0.42498 -0.5694,0.0191 -0.19077,0.0814 -0.17602,-0.1851 -0.25885,0.058 -0.3817,0.21995 -0.0947,-0.006 -0.0614,-0.12027 0.13534,-0.15025 0.0182,-0.29531 -0.12189,-0.054 0.003,-0.12286 -0.21654,-0.16273 -0.0838,-0.21233 0.0737,-0.14522 -0.15673,-0.19175 -0.0233,-0.1295 0.34702,-0.0481 0.29207,-0.27052 0.30374,0.64979 0.29289,-0.0125 -0.025,-0.11702 0.147,-0.0679 0.0266,-0.33778 0.14182,-0.17262 -0.0216,-0.0673 0.12205,-0.0439 0.0788,-0.15771 0.20747,-0.19839 0.0788,-0.0588 0.0582,0.0357 0.14604,-0.0439 0.15187,-0.11621 0.16257,-0.18834 0.0175,-0.10633 0.20504,-0.0854 0.10114,-0.15025 0.0681,0.0399 0.0731,-0.22319 0.19985,-0.0358 0.28137,-0.18332 0.44897,-0.0673 0.007,-0.087 0.16095,-0.11135 -0.46226,-0.31525 0.5561,-0.27554 -0.21832,-0.16922 -0.56178,0.27133 -0.29953,0.23405 -0.22335,-0.0332 -0.11686,-0.2274 -0.083,-0.7652 0.23648,-0.0862 -0.18591,-0.39678 0.17424,-0.10698 0.49873,-0.55027 0.083,-0.24312 0.32692,-0.45222 0.19012,-0.51785 0.31785,-0.0689 -0.0324,-0.12367 0.46647,-0.42985 -0.15527,-0.5352 0.15527,-0.28964 -0.26063,0.0125 0.0987,-0.57766 0.005,-0.38008 0.0689,-0.0298 0.0572,-0.52693 -0.13355,-0.41088 0.002,-0.43892 -0.18753,-0.3287 -0.28138,-0.22076 -0.30941,-0.61575 -0.35529,-0.34362 -0.0822,-0.15754 -0.39419,-0.30796 0.0358,-0.33357 0.0498,0.0232 0.0995,-0.2381 0.14863,-0.51542 -0.38511,-0.0671 -0.0298,-0.059 -0.0789,0.0274 -0.61154,-0.27878 -0.054,-0.29386 0.059,-0.15009 -0.084,-0.26646 0.0814,-0.1013 h 0.13372 l 0.0173,-0.0945 -0.11865,-0.0423 -0.11783,-0.17764 -0.42823,-0.22903 -0.50035,-0.0125 -0.0233,-0.11864 0.0282,-0.14118 0.44573,-0.3112 0.007,-0.0613 -0.0904,-0.10374 0.0141,-0.11216 0.0862,-0.087 -0.19499,-0.0465 -0.0423,-0.0872 0.0614,-0.18834 -0.18348,-0.19078 -0.22319,-0.12042 0.0157,-0.0697 0.10454,0.025 0.0423,-0.0548 -0.17424,-0.13534 0.21249,-0.26306 0.33195,0.12286 0.19093,-0.0216 0.15431,-0.078 0.0673,-0.13372 0.15511,-0.0572 0.0431,0.0447 0.26646,-0.18915 -0.0183,-0.11622 0.0856,-0.0365 0.0721,-0.13356 0.46388,0.33114 0.395,0.0298 0.47798,0.1436 -0.024,-0.41914 -0.2556,-0.20585 -0.0806,-0.31865 -0.23064,-0.14183 -0.20341,-0.004 0.17602,-0.20163 0.0971,0.0763 0.0888,-0.0681 0.29953,-0.0514 0.15608,0.0979 0.0174,-0.0399 0.28137,0.21411 0.0282,0.083 -0.10049,0.0191 0.009,0.0846 0.34605,0.28381 0.57426,0.009 0.22075,-0.13193 0.0995,0.0149 0.25237,0.12124 0.0854,0.38754 0.63407,0.0282 0.0945,0.0846 0.0316,0.18267 0.28705,0.0439 0.22076,0.14604 0.054,-0.0481 -0.0431,-0.14685 0.0564,-0.002 -0.058,-0.20341 0.10033,-0.1402 -0.30537,-0.22076 0.0606,-0.2415 0.45967,0.17845 0.0656,0.15268 0.23227,-0.13858 0.26144,0.25317 0.37927,-0.13777 0.0963,-0.17683 0.50035,-0.33697 0.0997,-0.0405 0.0963,0.0763 0.25464,-0.20179 0.60748,-0.20325 0.112,0.0191 0.084,-0.0872 0.52272,-0.24815 0.19255,0.0207 0.1569,0.23826 0.21735,0.17181 0.12367,-0.0598 0.0631,-0.11621 0.19418,-0.0681 0.029,-0.10195 0.24069,-0.0997 0.31623,-0.42903 0.034,-0.45302 0.20245,-0.11038 0.17423,-0.007 0.0383,-0.0673 -0.0473,-0.54687 -0.23729,-0.0365 -0.025,-0.10633 -0.53601,-0.40164 -0.171,-0.20082 -0.5104,-0.24474 h -0.35852 l -0.0182,-0.2723 0.13275,-0.27457 -0.0216,-0.11962 0.55838,-0.0937 0.16273,-0.20244 -0.0763,-0.17521 0.0763,-0.0721 0.0447,0.0423 0.0457,-0.0723 0.0564,-0.44135 1.24641,-0.0489 0.22076,-0.2133 0.12448,-0.55692 0.29467,-0.27375 0.0373,-0.14118 0.57021,-0.11038 0.3219,-0.54929 0.0515,-0.2971 0.0729,-0.10049 0.23907,-0.058 0.19839,0.0788 0.25885,-0.0463 0.28461,-0.18429 0.0582,-0.13437 -0.26306,-0.29385 -0.21006,-0.38916 -0.0199,-0.35108 0.25237,-0.52952 0.0224,-0.2099 0.11702,-0.28462 0.22076,-0.30876 0.009,-0.45724 -0.1966,-0.56016 -0.30132,-0.034 -0.18509,-0.46794 -0.14685,-0.13372 -0.10779,-0.44897 -0.18104,-0.39742 -0.14604,0.10292 -0.19336,0.40829 -0.27376,0.2133 -1.02582,-0.33373 -0.13518,0.0282 8.3e-4,-0.20163 -1.00411,0.002 -0.2167,-0.0648 -0.82565,-0.5352 0.0929,-0.74201 -0.32692,-0.68286 0.45724,0.0929 0.13858,-0.30861 0.28883,0.0647 0.25479,-0.0713 -0.62239,-0.54947 0.0896,-0.5775 -0.18251,-0.24409 0.40408,-0.41899 0.21573,-0.0648 0.11945,0.0433 0.0433,-0.0689 0.17343,-0.0606 0.48868,0.10779 0.1885,-0.0945 0.19498,0.0729 0.14928,-0.0149 0.14037,-0.0862 0.0937,0.078 0.20747,-0.0216 0.24312,0.0838 0.0374,0.13194 0.24475,0.0731 0.22157,-0.0216 0.28137,-0.17262 0.224,0.11443 0.15933,-0.0107 0.1013,0.0971 0.38997,0.0971 0.18267,-0.2159 0.21994,-3.6099 0.27457,-0.6224 -0.002,1.6e-4 -0.065,-0.24328 0.029,-0.0631 0.21817,-0.2796 1.0075,-1.67058 0.34524,-1.26636 0.10616,-0.13274 -0.0671,-0.17181 -0.171,-1.44059 0.0274,-0.72613 -0.23648,-0.1744 -0.0524,-0.3642 0.1287,-0.18348 0.005,-0.2099 0.17845,-0.38916 0.3138,-0.0963 L 55.1455,8.15051 55.26917,7.93397 55.15798,6.96876 55.11228,7.13717 54.66331,6.9994 54.54143,6.9073 54.45093,6.9422 54.29566,6.9007 54.1621,6.802 53.70811,6.7688 53.50486,6.63103 l -0.0987,-0.21249 0.10535,-0.29126 0.004,-0.35091 0.19337,-0.17764 -0.002,-0.0572 -0.23404,0.083 -0.0548,0.0788 -0.38835,0.009 L 52.52675,5.57213 52.34262,5.43436 51.5019,5.11813 51.5791,4.96464 51.10857,4.62443 50.96416,3.96799 l 0.0175,-0.23064 -0.0647,-0.059 0.0357,-0.0572 -0.19012,-0.27473 0.0141,-0.30779 0.11038,-0.39597 -0.29046,-0.27716 -0.25722,-0.0812 -0.0556,0.2107 0.12789,0.0439 -0.009,0.0441 -0.36096,-0.0574 0.11946,-0.0157 0.0141,-0.0596 -0.20488,-0.0507 0.009,-0.0415 0.22821,0.0465 0.0332,-0.10795 -0.0274,-0.0772 -0.22821,-0.0921 -0.21168,0.17181 -0.11524,-0.0282 z m -9.08442,0.14944 -0.21412,0.003 -0.0763,0.112 0.0274,0.1227 0.0721,0.035 0.18008,-0.15447 0.0332,0.0572 z m -6.97589,0.12205 -0.25884,0.0481 -1.11124,0.45302 -1.27803,0.41574 -0.10373,-0.0224 -1.64968,0.32287 -0.0548,0.18413 -0.0233,-0.0639 -0.18089,0.32287 -0.28218,0.27635 0.0366,0.27214 0.22059,0.16013 0.15528,0.0374 0.28624,-0.27473 0.14944,0.0332 -0.007,-0.1577 0.0548,-0.0747 0.21654,-0.0266 0.0614,0.0465 0.20504,-0.18007 0.48543,0.0481 0.0498,-0.10536 0.1535,-0.0407 0.0316,-0.0614 0.15512,0.0572 0.27311,-0.12529 0.5078,-0.40408 0.20504,-0.0532 0.83894,-0.0216 0.0407,-0.0789 0.0995,-0.0131 -0.20325,-0.0773 -0.16841,-0.16014 0.30456,0.12124 -0.0242,-0.18672 0.19174,0.0814 0.38333,-0.23745 0.1718,0.0109 0.26387,-0.13453 0.009,-0.21071 -0.42579,0.0157 0.16678,-0.0399 0.25156,-0.034 0.0274,-0.0788 z m -6.02235,3.19157 -0.53941,0.15852 -0.77168,0.52612 -0.59095,0.58917 -0.74347,0.47053 0.063,0.18591 0.10859,0.0308 0.2407,-0.13112 0.36938,-0.0441 0.17829,-0.19239 0.32044,-0.13113 -0.004,-0.21249 0.12204,-0.0723 -0.0614,-0.25803 0.93782,-0.38754 0.26306,-0.21492 0.19579,-0.0548 0.15852,0.0266 -0.025,-0.0457 0.059,0.0266 0.10114,-0.0945 -0.034,-0.10956 z m 1.03895,0.003 -0.1235,0.0331 -0.33535,0.34199 0.0904,0.0788 -0.0763,0.0814 0.16273,0.004 0.16678,-0.1603 0.14523,-0.23486 z m 14.9998,0.001 9.7e-4,5e-4 -0.18915,0.12934 6.6e-4,-0.002 z m -0.41153,0.39305 0.11994,0.0154 -10e-4,0.004 -0.12205,-0.0157 -0.0937,0.0551 v -10e-4 z m -0.2099,0.507 0.0588,0.0415 0.0647,-0.0316 v 0.002 l -0.0679,0.0331 -0.0575,-0.0405 z M 42.401,6.6714 42.4,6.6734 l -0.0752,0.029 -0.001,-0.002 z m -0.0968,0.33502 1.6e-4,0.003 -0.22287,0.0365 -0.001,-0.002 z m -0.27684,0.91577 -0.004,0.004 -0.11411,0.0337 5e-4,-0.003 z m 3.14554,0.10357 -0.007,0.0738 -0.003,0.003 0.007,-0.0762 z m -20.91225,0.23891 -0.12124,0.0457 -0.33778,0.35853 -0.95597,1.50623 -0.37587,0.77589 -0.15106,0.65563 -0.0207,0.40488 0.0457,0.23729 0.22319,0.33292 0.13356,-0.0914 0.24069,-0.0256 -0.0357,-0.0481 0.14182,-0.083 0.12627,0.0389 -0.11962,-0.12853 -0.15268,-0.0606 -0.0498,-0.083 0.034,-0.0282 0.536,0.17003 0.0383,-0.0546 -0.059,-0.0739 0.35366,-0.45983 0.3219,-0.078 0.10616,-0.15689 0.13956,-0.0721 0.1402,-0.25317 0.0117,-0.22481 0.31946,-0.28138 0.0514,-0.15689 0.0109,-1.03393 0.0266,0.0721 0.0671,-0.1394 -0.2522,-0.43227 -0.10633,-0.0216 -0.0415,-0.25074 -0.20569,-0.3253 z m 20.37089,0.1757 -0.04,0.20941 -0.002,0.003 0.0405,-0.21104 z m -0.3206,0.51559 -0.22318,0.68139 -0.0308,0.27959 -0.002,6.7e-4 0.0295,-0.277 0.22335,-0.68123 z m -0.35253,0.9947 -0.16532,0.43519 -9.7e-4,-3.3e-4 0.16532,-0.43454 z m -13.55758,0.67588 -0.39678,0.13777 -1.22729,1.08288 0.0407,-0.0697 -0.0606,0.0324 0.007,0.0481 -0.45724,0.40083 0.054,0.0721 0.46632,-0.40489 0.13112,-0.0175 -0.11702,0.003 0.13777,-0.0657 0.007,-0.0564 1.07802,-0.95013 0.47636,-0.10471 -0.005,-0.0913 z m 0.59582,0.003 -0.0705,0.0199 0.029,0.19418 0.11443,0.2026 0.25317,0.0173 -0.11459,-0.29467 z m -9.2854,2.09719 -0.34265,0.20244 -0.0747,0.13939 0.0721,0.11119 0.1154,0.008 0.0456,-0.0455 -0.0671,-0.0673 0.1402,-0.0763 0.68382,-0.0846 -0.009,-0.0465 -0.28381,-0.10211 z m 20.9317,1.14349 0.6224,0.0455 0.41217,0.4232 -0.001,9.7e-4 -0.41234,-0.4232 -0.62175,-0.0457 z m -1.21125,1.17786 -0.56712,0.40132 -0.50635,0.33356 -0.22983,-0.008 -0.1475,0.0603 -1.7e-4,-10e-4 0.14847,-0.0606 0.23,0.008 0.50699,-0.33356 z m -5.69818,0.62369 0.26306,0.0806 0.47555,0.48138 0.0812,0.31445 0.049,-0.0282 0.3138,-0.21913 0.18007,0.12367 0.029,0.0888 0.083,-0.0473 0.48706,0.13031 0.27473,-0.13031 0.34767,-0.32773 v 8.3e-4 l -0.34929,0.32951 -0.27473,0.12934 -0.48706,-0.12934 -0.083,0.0472 -0.029,-0.0887 -0.17926,-0.12367 -0.31461,0.21897 9.7e-4,0.001 -0.0483,0.0279 -0.0812,-0.31461 -0.47555,-0.48122 -0.26177,-0.0802 z m 3.20162,0.0383 0.17829,0.44637 0.17359,0.0822 0.34265,-0.0929 0.059,0.11946 0.3078,-0.16581 v 6.6e-4 l -0.30958,0.16678 -0.0588,-0.11945 -0.34281,0.0938 -0.17343,-0.083 -0.17845,-0.44654 -0.23308,0.0773 v -9.7e-4 z m -0.35853,0.14279 0.12027,0.0491 v 0.003 l -0.12189,-0.0498 -0.20001,0.0431 -0.0574,0.0694 v -5e-4 l 0.059,-0.0713 z m -1.67788,1.07461 h 0.23972 l 0.29791,0.10373 5e-4,5e-4 -0.29677,-0.10341 h -0.2407 z m -6.78171,2.01242 -0.22156,0.0481 h 0.23064 l 0.68302,0.29791 0.58171,0.61575 0.72857,1.17348 0.15106,0.4655 -0.025,0.0929 -0.31947,0.20666 -0.22983,0.60749 0.0564,0.0622 0.0258,-0.22238 0.17424,-0.42401 0.32449,-0.2026 0.0332,-0.10536 -0.15528,-0.50197 -0.73439,-1.17348 -0.58836,-0.6224 z m 8.29103,0.46939 0.48057,0.13145 6.7e-4,5e-4 -0.48123,-0.13161 z m 0.69063,0.31509 0.21233,0.0579 1.7e-4,1.7e-4 -0.21185,-0.0575 z m -1.07931,0.80134 h 3.4e-4 l 0.1697,0.11119 h -3.4e-4 z m -1.61013,0.82532 0.37814,0.0146 6.7e-4,8.3e-4 z m -1.80933,4.52568 0.10892,0.0804 -1.6e-4,1.7e-4 -0.10909,-0.0804 z m -0.45172,0.19888 0.0355,0.0276 -3.3e-4,1.7e-4 z m -13.6712,0.94688 -0.0819,0.1522 -9.7e-4,-5e-4 0.0814,-0.15138 z m 6.44084,0.69647 0.0994,0.0772 9.7e-4,0.003 -0.0995,-0.0772 -0.10616,0.0556 -0.0141,0.0947 -0.33616,0.10033 0.12367,0.38673 -0.12529,-0.38917 0.33599,-0.1013 0.0151,-0.0938 z m -0.21832,0.59501 0.0468,0.23518 -3.3e-4,-3.3e-4 -0.0468,-0.23469 z m 2.38002,0.26647 -0.0405,0.65724 -8.3e-4,10e-4 0.0405,-0.65789 z m -2.15375,0.14652 0.002,0.002 -0.27457,0.12367 0.0206,0.0716 -0.0214,-0.0733 z m -3.7271,0.17326 -0.075,0.10925 -0.001,6.6e-4 0.0752,-0.10942 z m -0.4715,0.33114 -0.10065,0.12659 -1.7e-4,-1.7e-4 0.0998,-0.12594 z m 0.9417,0.25447 1.7e-4,1.7e-4 -0.0872,0.004 z m 4.39763,0.0485 6.7e-4,10e-4 -0.0697,0.12367 -0.24263,0.1624 -5e-4,-0.002 0.24312,-0.16257 z m -4.09972,1.12664 0.03,0.1261 0.0737,0.0572 0.34881,0.019 -1.7e-4,1.7e-4 -0.35107,-0.0191 -0.0731,-0.058 -0.0305,-0.12464 z m 0.43681,1.79426 -3.3e-4,6.6e-4 -0.27457,0.10049 -0.21622,0.16403 3.4e-4,-5e-4 0.2167,-0.16435 z m -0.7331,0.75919 -0.11443,0.0823 v -1.6e-4 z m 0.54574,0.40359 3.3e-4,6.6e-4 -0.52515,0.12983 -9.7e-4,-10e-4 z m 2.46349,0.62305 -0.10211,0.19579 h -5e-4 l 0.10163,-0.19498 z m 1.21903,1.38499 0.0606,0.0293 v 10e-4 l -0.0616,-0.0287 z m -0.54103,0.53942 0.3039,0.0357 -3.3e-4,0.002 -0.30407,-0.0365 z m -0.1394,0.26354 -1.6e-4,3.3e-4 -0.35675,0.10568 v -3.3e-4 z m -1.10378,0.28738 0.14928,0.13112 h -0.002 l -0.14847,-0.13031 z m 0.84786,0.019 1.6e-4,1.7e-4 -0.0624,0.04 z m -0.36745,0.10389 h 8.3e-4 l 0.12659,0.0506 -3.3e-4,1.7e-4 z m -0.41606,0.31558 0.28089,0.0379 -1.7e-4,6.6e-4 -0.2804,-0.0379 z m -12.17712,0.002 0.19676,0.24814 0.31282,0.11038 0.0498,0.0639 0.0266,-0.087 0.0904,0.1227 0.39759,-0.0423 0.35431,0.3984 0.23405,0.002 0.18753,0.10373 0.20001,0.22238 -0.005,0.19515 0.2415,0.27716 0.90037,0.27295 1.10541,0.60246 -0.14863,0.39921 -0.13113,0.0465 -0.65384,-0.0574 -0.56762,-0.2663 -0.35188,-0.23907 -0.25722,-0.34686 -0.33114,-0.25804 -0.2864,-0.31282 -0.40991,-0.14603 -1.48873,-0.85402 -0.083,0.0572 0.034,-0.22903 0.13032,-0.15673 z m 18.48684,0.29012 -0.0802,0.18932 0.0794,-0.18899 z m -5.01808,0.86666 1.6e-4,1.7e-4 -0.15544,0.0206 -0.12772,0.13534 0.12691,-0.13534 z m -15.24876,0.29467 0.24313,0.034 0.18672,0.16922 0.50132,0.11216 0.0895,0.28121 0.2167,0.30715 0.0199,0.40991 0.15754,0.3702 0.67232,0.0846 0.24815,0.0888 0.43973,0.0149 1.02988,0.7519 0.24166,0.0791 -0.003,-3.3e-4 -3.3e-4,5e-4 -0.24199,-0.0793 -1.02987,-0.7519 -0.4399,-0.0149 -0.24814,-0.0888 -0.67216,-0.0846 -0.15771,-0.3702 -0.0199,-0.40991 -0.21654,-0.30715 -0.0896,-0.28121 -0.50116,-0.11216 -0.18672,-0.16922 -0.24069,-0.0337 z m 25.09918,0.3005 -0.90945,0.14847 -0.26144,-0.0199 0.26063,0.0191 z m -6.49612,0.0423 -0.74445,0.42061 -6.6e-4,-1.7e-4 z m -14.36913,0.0721 -0.0655,0.093 0.64882,0.43974 0.37603,0.0489 0.30374,-0.11864 -0.0789,-0.10535 -0.64477,-0.26469 -0.43973,-0.0848 z m 12.32332,0.265 -0.0703,0.0156 h -5e-4 z m 0.91723,0.0113 6.6e-4,1.7e-4 -0.14425,0.0744 z m -1.74742,0.0311 -0.13469,0.0345 v -3.3e-4 z m -10.4109,0.36063 -0.15852,0.0822 0.0904,0.0995 0.32936,0.0125 z m 1.04884,0.28543 0.98124,0.3279 -0.002,-1.7e-4 -0.97979,-0.32725 z m -8.08859,0.25318 0.14183,0.0439 0.0681,0.1013 -0.009,0.12691 0.32449,0.16679 0.14183,-0.0165 0.22983,0.21736 -0.007,0.093 0.11541,0.14182 0.0838,0.28057 -0.007,0.20082 0.36274,-0.28721 0.10859,-0.0274 -0.37911,0.33113 0.3676,0.0904 0.16841,-0.13275 0.11281,0.19661 0.29969,0.22578 0.51121,-0.0721 0.52353,-0.27894 0.12367,0.0548 0.15608,-0.0763 0.15511,-0.20504 0.18008,-0.112 0.0498,-0.19158 h 0.0614 l 0.0225,-0.0632 -0.14199,-0.17083 0.18008,-0.12448 0.54103,-0.12043 0.12626,0.23907 -0.0391,0.0532 -0.059,-0.03 -0.20487,0.0822 0.21654,-0.0423 0.0647,0.0862 -0.27295,-0.006 0.009,0.0613 0.17602,0.0614 0.0896,-0.0822 -0.0133,0.11621 0.40084,0.17764 0.0655,0.20909 -0.56843,-0.32287 -0.37263,-0.0737 -0.1966,0.17343 v 0.0673 l -0.0763,0.008 0.0107,0.21898 0.20585,0.13112 0.12691,0.25561 0.38851,0.0109 0.23065,-0.0572 0.005,0.0763 -0.0864,0.0481 0.0614,0.0165 -0.007,0.0465 -0.15268,0.0232 -0.0224,0.0614 -0.16938,-0.0423 -0.37003,0.0439 0.0173,0.059 -0.14263,-0.0806 -0.0814,-0.15592 -0.33616,-0.0574 -0.28883,0.0888 -0.40164,0.25982 -0.42644,0.0822 -0.0896,0.2381 0.0721,0.0971 0.18008,0.0274 0.27311,0.17261 0.0838,0.12448 -0.0357,0.0987 0.30618,0.0888 0.007,0.0987 0.13696,0.0864 0.0473,0.21249 0.0971,0.0439 0.0141,0.0796 0.36598,0.0673 0.42822,-0.0298 0.10196,0.0929 0.0971,-0.0614 0.19839,0.034 0.1261,0.14523 -0.0737,0.15187 0.0522,0.13032 0.56437,0.25479 0.0854,1.08044 -0.14442,0.0109 -0.12853,-0.0797 -0.25318,-0.0439 -0.37181,0.21655 -0.20082,0.034 -0.5908,-0.30293 -0.11783,-0.25641 -0.0681,-0.002 -0.30958,-0.46469 0.0498,-0.14117 -0.10779,-0.33438 -0.0971,0.0298 -0.28461,-0.21898 -0.0548,-0.11135 -0.16273,-0.0671 0.0141,0.1684 h -0.0407 l -0.0133,-0.17002 -0.44897,-0.16192 -0.15268,-0.0274 -0.20325,0.0888 -0.19661,-0.38511 -0.18672,-0.0315 -0.15852,0.0945 -0.18429,-0.0357 -0.20746,0.0574 -0.049,-0.0699 -0.0771,0.10714 -0.15609,-0.0316 -0.0697,-0.11362 -0.16517,-0.0673 -0.30196,0.0524 -0.17099,0.10114 -0.5835,-0.0298 -0.0564,0.0614 0.0357,-0.0846 -0.0631,-0.004 -0.14684,0.0947 -0.0995,0.2522 0.0447,0.0864 -0.2971,0.14928 0.0383,0.0507 0.15512,0.004 -0.2099,0.034 0.029,0.0755 -0.0447,-0.0822 -0.0207,0.0383 -0.2274,-0.35188 -0.19596,-0.47798 -0.30941,-0.18348 -0.21833,-0.31201 -0.0232,-0.1958 0.2522,-0.10535 -0.024,0.10941 0.10374,0.26306 0.10195,0.0167 0.32951,0.26549 0.20001,-0.18995 -0.1577,0.20665 0.24571,0.45886 -0.004,0.0564 -0.083,-0.1577 -0.0365,0.12626 0.0655,0.14766 0.40165,-0.40667 0.35107,-0.20406 0.57766,0.15187 0.15511,-0.12626 0.22822,-0.0522 0.28802,0.26549 0.10535,-0.034 0.14685,-0.19823 0.3112,-0.11783 0.0159,-0.0656 -0.13696,-0.2125 0.0407,-0.0588 -0.0433,0.0381 -0.21655,-0.37749 -0.1402,-0.14944 -0.25317,-0.0465 -0.0514,-0.0655 -0.21411,0.0506 -0.24313,-0.0464 -0.2979,0.0713 -0.084,0.0796 -0.15755,-0.0339 -0.46485,0.16013 -0.15268,-0.003 -0.21898,-0.15851 -0.13031,0.0274 -0.003,-0.0423 -0.0697,0.0507 -0.0199,-0.0399 0.1013,-0.50213 0.12124,-0.10535 0.0737,0.12691 0.0515,-0.18332 0.13112,0.0381 -0.12124,-0.063 0.11946,-0.13112 -0.0746,0.0149 0.1086,-0.26387 0.0723,-0.002 0.0248,-0.0888 -0.0655,-0.008 0.004,-0.23405 0.45723,-0.17926 0.38835,-0.26387 0.0274,-0.14604 0.0588,-0.0423 0.0606,-0.0109 0.0353,0.0357 -0.005,-0.0357 z m -0.0793,0.0463 0.002,0.0149 0.0441,0.0316 z m 28.93357,2.6332 0.32206,0.33032 -9.7e-4,8.3e-4 -0.3227,-0.33032 -0.22335,0.0827 z m -2.21405,0.0524 0.69712,0.1368 0.22076,0.17521 0.34053,-0.0347 -0.34231,0.0355 -0.22076,-0.17505 -0.69517,-0.13663 z m -28.45769,0.11703 -0.0489,0.029 0.083,0.0149 z m 0.19336,0.20568 -0.0357,0.0515 0.10374,0.25885 0.0655,-0.17505 z m 1.10946,0.0191 -0.16435,0.0191 0.17845,0.0506 z m 0.0366,0.002 0.0771,0.0574 0.0182,-0.0407 z m -0.25658,0.0797 -0.0224,0.0796 0.31282,-0.019 -0.1509,-0.034 z m -0.75838,0.1577 -0.0449,0.0838 0.0564,-0.029 z m 16.49517,1.80075 0.029,0.0481 -0.0814,0.0963 -0.0182,-0.0439 -0.12448,0.0631 0.0514,0.0921 -0.0804,-0.008 0.0157,0.0671 0.11784,0.0316 -0.0814,0.0564 0.0316,0.0523 -0.0457,0.0647 -0.29791,-0.13031 0.0747,-0.0381 0.0224,-0.12788 -0.0489,-0.0588 0.0721,-0.0441 v 0.0781 l 0.0425,-0.0357 0.0115,0.1368 0.112,-0.16338 -0.10697,-0.0715 0.24312,-0.004 z m -0.0489,0.15511 0.0588,0.0481 -0.0929,-0.0123 z m -0.6955,0.44897 0.003,0.0358 -0.0357,0.008 z m 0.55854,0.30715 0.0141,0.10778 -0.15268,0.025 0.0548,-0.0465 -0.0489,-0.0481 z m -18.76239,0.0631 -0.29045,0.19077 -0.38511,0.0906 -0.23729,0.14264 -0.0747,-0.0838 -0.10859,0.0165 -0.55027,0.28138 -0.025,-0.0315 -0.17829,0.17424 0.10859,0.2099 -0.008,0.21995 0.11282,0.14684 0.0241,0.18834 -0.33113,0.37522 0.22821,0.29872 -0.11783,0.063 0.0514,0.13032 0.13955,0.11702 0.002,0.11946 -0.0788,0.0647 0.16257,0.088 0.2689,0.34945 0.0947,-0.0606 0.0945,0.0896 0.059,0.224 0.31947,0.0755 0.99,-0.0979 -0.15933,-0.86049 0.1287,-0.025 0.0987,0.0987 0.0721,-0.0107 0.0673,-0.1428 0.14863,0.0191 0.10114,-0.10049 0.25982,0.16516 0.0514,-0.13194 -0.0631,-0.11281 0.13031,-0.15527 0.64979,0.36274 0.2274,-0.0415 0.27717,0.1992 0.13939,0.002 0.0771,0.10875 0.29045,0.0838 0.0838,-0.0332 0.37684,0.0506 0.18915,0.21574 0.0789,-0.0772 0.0588,0.025 0.23729,0.16354 -0.0804,0.22156 0.0207,0.62986 0.16679,0.12934 0.007,-0.0963 0.23486,0.0856 0.18088,-0.0921 0.0763,0.0314 0.12367,-0.0457 0.0921,0.0566 0.3809,-0.24896 0.0773,0.12935 -0.19012,0.19255 0.10211,0.15268 0.31282,-0.10616 0.088,-0.0731 0.024,-0.16095 0.0763,-0.004 0.0399,-0.0671 0.10212,0.16338 0.2979,-0.0854 0.0588,-0.16095 0.18769,-0.0332 0.11703,-0.19418 0.0248,0.0315 0.35432,-0.24637 0.0864,-0.003 0.0473,0.0797 0.15268,-0.0838 0.0788,0.088 0.2415,-0.0566 0.0449,-0.0796 1.35518,-0.97185 0.85887,-1.15257 -0.22075,-0.28964 -0.054,-0.17845 -0.0929,-0.0713 -0.23745,-0.0357 -0.0671,0.23891 -0.0499,-0.1154 -0.0274,0.13031 0.2548,0.20747 -0.28219,-0.12772 -0.0357,-0.25561 -0.13031,0.0796 -0.1402,0.008 -0.007,0.0961 0.10876,0.18672 0.3676,0.0374 0.0548,0.0548 -0.39759,-0.008 0.2441,0.0987 -0.20584,-0.0109 0.0854,0.11378 -0.034,0.0522 -0.0896,-0.14442 -0.13274,-0.0415 -0.0812,-0.11362 -0.22498,0.0588 0.21412,0.34199 -0.67216,-0.61818 -0.54525,-0.0523 -0.17764,-0.30877 h -0.054 l -0.0472,-0.26047 -0.16273,-0.11962 0.0266,-0.0439 -0.57264,-0.11362 -0.13696,0.19336 0.0423,0.25545 -0.0721,0.0781 -0.0564,0.336 -0.0648,-0.0506 -0.53439,0.17586 -0.29126,0.23486 -0.1958,0.059 -0.11702,0.19094 -0.33535,0.008 -0.23648,-0.13858 -0.0681,0.0987 -0.0498,-0.10292 -0.007,0.25398 -0.0963,-0.18672 0.0407,-0.0797 -0.12611,-0.019 -0.14279,-0.11135 -0.25301,-0.006 0.0141,0.25544 -0.0556,0.0208 -0.13778,-0.0729 0.0473,-0.16176 -0.32205,-0.0648 -0.22822,0.0207 L 8.8906,47.07069 7.96867,46.88138 7.85165,46.78105 7.5612,46.72875 7.43088,46.57526 7.309,46.57126 l 0.002,-0.0606 -0.24393,-0.078 -0.0904,-0.0839 z m 9.97264,0.51656 0.0804,0.0104 5e-4,10e-4 -0.0802,-0.0104 z m -1.86493,0.38138 -0.0987,0.0647 0.20245,0.11783 0.15284,-0.029 -0.0606,-0.13032 -0.0515,0.0207 z m 22.95045,0.23015 -5e-4,5e-4 -2.66562,0.83181 1.7e-4,-3.3e-4 z m -3.66097,2.65849 -0.003,0.0444 -0.002,10e-4 0.002,-0.0449 z" />
</svg>
