<?xml version="1.0" encoding="UTF-8" standalone="no"?>
<!-- Created with Inkscape (http://www.inkscape.org/) -->

<svg
   width="84"
   height="84"
   viewBox="0 0 84 83.999998"
   version="1.1"
   id="svg5"
   sodipodi:docname="Backend.svg"
   inkscape:version="1.3.2 (091e20ef0f, 2023-11-25)"
   xmlns:inkscape="http://www.inkscape.org/namespaces/inkscape"
   xmlns:sodipodi="http://sodipodi.sourceforge.net/DTD/sodipodi-0.dtd"
   xmlns="http://www.w3.org/2000/svg"
   xmlns:svg="http://www.w3.org/2000/svg">
  <sodipodi:namedview
     id="namedview9"
     pagecolor="#ffffff"
     bordercolor="#666666"
     borderopacity="1.0"
     inkscape:showpageshadow="2"
     inkscape:pageopacity="0.0"
     inkscape:pagecheckerboard="0"
     inkscape:deskcolor="#d1d1d1"
     showgrid="false"
     inkscape:zoom="5.2149125"
     inkscape:cx="72.29268"
     inkscape:cy="65.101763"
     inkscape:window-width="1920"
     inkscape:window-height="1163"
     inkscape:window-x="0"
     inkscape:window-y="0"
     inkscape:window-maximized="1"
     inkscape:current-layer="svg5" />
  <defs
     id="defs2" />
  <path
     id="circle4"
     style="fill:#ca1428;stroke-width:6.01514;stroke-linecap:round;stroke-linejoin:round;paint-order:fill markers stroke;fill-opacity:1"
     d="m 9.4286419,60.36213 1.5445001,1.29646 h 50.141334 v -1.29646 z"
     sodipodi:nodetypes="ccccc" />
  <path
     id="circle5"
     style="fill:#ca1428;stroke-width:5.10335;stroke-linecap:round;stroke-linejoin:round;paint-order:fill markers stroke;fill-opacity:1"
     d="M 0.15933334,52.5845 1.7049803,53.88096 H 64.110464 V 52.5845 Z"
     sodipodi:nodetypes="ccccc" />
  <path
     id="circle6"
     style="fill:#ca1428;stroke-width:6.01514;stroke-linecap:round;stroke-linejoin:round;paint-order:fill markers stroke;fill-opacity:1"
     d="m 4.7939879,56.47274 1.5445,1.29646 H 61.114476 v -1.29646 z"
     sodipodi:nodetypes="ccccc" />
  <path
     id="path4"
     style="fill:#ca1428;stroke-width:6.01514;stroke-linecap:round;stroke-linejoin:round;paint-order:fill markers stroke;fill-opacity:1"
     d="m 72.016711,52.15388 v 1.72708 h 11.722258 l -2.057808,-1.72708 z"
     sodipodi:nodetypes="ccccc" />
  <path
     style="font-weight:900;font-size:36.2612px;line-height:1.15;font-family:'Source Serif 4 Display';-inkscape-font-specification:'Source Serif 4 Display Heavy';text-align:center;letter-spacing:-1.43235px;text-anchor:middle;fill:#ca1428;stroke-width:0.281335;fill-opacity:1"
     d="m 27.381442,53.87926 h 13.612153 v -1.29638 l -2.214663,-0.48617 c -0.162008,-2.80884 -0.162008,-6.481964 -0.162008,-9.452888 v -8.264511 c 1.242368,-0.918299 2.592794,-1.458461 3.781147,-1.458461 1.728521,0 2.700829,0.972313 2.700829,3.673118 v 6.049854 c 0,2.970924 0,6.644048 -0.162008,9.452888 l -2.214681,0.48617 v 1.29638 H 56.118318 V 52.58288 L 53.903637,52.09671 C 53.741629,49.28787 53.741629,45.614746 53.741629,42.643822 V 36.32389 c 0,-5.563682 -2.808863,-8.156482 -6.914132,-8.156482 -3.18697,0 -5.725749,1.296388 -8.210496,4.699428 v -6.211897 l 0.216069,-11.289438 -0.864284,-0.648215 -10.80329,2.808863 v 1.080342 l 2.808863,0.864238 v 23.173093 c 0,2.970924 0,6.644048 -0.162008,9.452888 l -2.43075,0.48617 z"
     id="text29-3"
     aria-label="chf"
     sodipodi:nodetypes="ccccscsssccccccssscccccccsccc" />
  <path
     style="font-weight:900;font-size:36.2612px;line-height:1.15;font-family:'Source Serif 4 Display';-inkscape-font-specification:'Source Serif 4 Display Heavy';text-align:center;letter-spacing:-1.43235px;text-anchor:middle;fill:#ca1428;stroke-width:0.281335;fill-opacity:1"
     d="m 17.172346,31.576121 c 4.429368,0 7.778387,-1.782529 9.885039,-5.941818 L 26.247145,24.8781 c -1.404441,1.296365 -3.024945,2.160643 -4.96953,2.160643 -4.321332,0 -6.914126,-3.34902 -6.914126,-9.831018 0,-8.372552 2.91691,-10.695267 5.023544,-10.695267 h 0.162008 l 0.10807,2.91688 c 0.10807,4.105269 2.052637,5.293622 3.997217,5.293622 1.836567,0 2.916909,-0.81024 3.511092,-2.700817 C 27.16542,8.240979 24.086478,5 18.522772,5 10.636351,5 5.2887146,9.753448 5.2887146,18.612183 c 0,8.42656 5.2936214,12.963938 11.8836314,12.963938 z"
     id="path1"
     aria-label="chf"
     sodipodi:nodetypes="sccsssccscssss" />
  <path
     style="font-weight:900;font-size:36.2612px;line-height:1.15;font-family:'Source Serif 4 Display';-inkscape-font-specification:'Source Serif 4 Display Heavy';text-align:center;letter-spacing:-1.43235px;text-anchor:middle;fill:#ca1428;stroke-width:0.281335;fill-opacity:1"
     d="M 56.327926,77 H 71.668613 V 75.70359 L 67.725417,75.05542 C 67.563408,72.24654 67.563408,68.68145 67.563408,65.76456 V 53.88093 h 5.185588 v -1.72854 h -5.239602 c -0.324098,-6.427963 -0.21607,-10.101081 1.728533,-13.180022 l 0.810246,1.620481 c 1.404417,2.754848 2.916892,3.83519 4.861489,3.83519 1.782536,0 3.349025,-0.972313 3.457054,-2.970912 -0.594176,-2.970907 -3.72715,-4.15926 -6.698062,-4.15926 -3.240991,0 -5.995834,0.918275 -8.264511,3.024903 -2.268701,2.106652 -3.94322,5.995834 -4.267318,10.96536 l -0.05391,0.64819 -2.970912,0.64822 v 1.29639 h 2.808863 v 11.88363 c 0,2.97091 0,6.64403 -0.162008,9.45289 l -2.430727,0.48614 z"
     id="path2"
     aria-label="chf"
     sodipodi:nodetypes="ccccsccccccscsscccccsccc" />
  <circle
     style="fill:#ca1428;stroke:none;stroke-width:9.79874;stroke-linecap:round;stroke-linejoin:round;paint-order:fill markers stroke;fill-opacity:1"
     id="path7"
     cx="72.755836"
     cy="59.064842"
     r="2.5927885" />
</svg>
