<?xml version="1.0" encoding="UTF-8" standalone="no"?>
<!-- Created with Inkscape (http://www.inkscape.org/) -->

<svg
   width="84"
   height="84"
   viewBox="0 0 84 83.999998"
   version="1.1"
   id="svg5"
   sodipodi:docname="Backend.svg"
   inkscape:version="1.2.2 (b0a8486541, 2022-12-01)"
   xmlns:inkscape="http://www.inkscape.org/namespaces/inkscape"
   xmlns:sodipodi="http://sodipodi.sourceforge.net/DTD/sodipodi-0.dtd"
   xmlns="http://www.w3.org/2000/svg"
   xmlns:svg="http://www.w3.org/2000/svg">
  <sodipodi:namedview
     id="namedview9"
     pagecolor="#ffffff"
     bordercolor="#666666"
     borderopacity="1.0"
     inkscape:showpageshadow="2"
     inkscape:pageopacity="0.0"
     inkscape:pagecheckerboard="0"
     inkscape:deskcolor="#d1d1d1"
     showgrid="false"
     inkscape:zoom="3.6875"
     inkscape:cx="37.966102"
     inkscape:cy="48.542373"
     inkscape:window-width="1440"
     inkscape:window-height="831"
     inkscape:window-x="0"
     inkscape:window-y="0"
     inkscape:window-maximized="1"
     inkscape:current-layer="svg5" />
  <defs
     id="defs2" />
  <g
     id="layer1"
     transform="matrix(0.15625,0,0,0.15625,2.0000001,-2.4123961e-4)"
     style="stroke-width:6.4">
    <g
       id="g713"
       transform="matrix(5.6203506,0,0,5.6203506,-48.662637,-1041.3196)"
       style="stroke-width:1.13872">
      <path
         id="circle6078"
         style="fill:#5ac918;fill-opacity:1;stroke-width:11.3609;stroke-linecap:round;stroke-linejoin:round;stroke-dasharray:none"
         d="m 55.258919,188.77163 c -21.578597,0.0113 -40.56228,14.25793 -46.600627,34.97442 l 31.492623,6.03307 c 1.233974,-11.63391 11.043658,-20.46406 22.742865,-20.47181 5.882128,7.2e-4 11.538149,2.26625 15.79426,6.3264 l 14.340983,-8.8193 C 83.810026,195.40455 69.927768,188.77303 55.258919,188.77163 Z" />
      <path
         id="circle6080"
         style="fill:#95e043;fill-opacity:1;stroke-width:9.22983;stroke-linecap:round;stroke-linejoin:round;stroke-dasharray:none"
         d="m 91.479882,213.19153 -9.755547,5.99732 c 2.640389,3.82269 4.054779,8.35839 4.055252,13.0043 -0.0072,10.33508 -6.940963,19.38259 -16.918545,22.07731 l 8.554208,18.6087 c 13.645085,-6.5689 22.326191,-20.36826 22.340561,-35.51218 -4.72e-4,-8.75342 -2.911865,-17.25815 -8.275929,-24.17545 z" />
      <path
         id="circle6082"
         style="fill:#389000;fill-opacity:1;stroke-width:8.2224;stroke-linecap:round;stroke-linejoin:round;stroke-dasharray:none"
         d="m 22.322441,231.07074 c -0.01814,0.34054 -0.03628,0.68164 -0.04513,1.02274 3.29e-4,19.41128 15.736162,35.14711 35.14743,35.14742 3.889572,-0.008 7.750987,-0.65934 11.426895,-1.93081 l -4.724553,-10.2782 c -0.4106,0.0264 -0.821851,0.0427 -1.23332,0.0469 -11.747048,-0.008 -21.58071,-8.90778 -22.756037,-20.59585 z" />
    </g>
  </g>
</svg>
