<?xml version="1.0" encoding="UTF-8" standalone="no"?>
<svg
   viewBox="0 0 64 64"
   version="1.1"
   id="svg334"
   sodipodi:docname="Extension.svg"
   inkscape:version="1.2.2 (b0a8486541, 2022-12-01)"
   xml:space="preserve"
   inkscape:export-filename="Extension.png"
   inkscape:export-xdpi="1500"
   inkscape:export-ydpi="1500"
   xmlns:inkscape="http://www.inkscape.org/namespaces/inkscape"
   xmlns:sodipodi="http://sodipodi.sourceforge.net/DTD/sodipodi-0.dtd"
   xmlns:xlink="http://www.w3.org/1999/xlink"
   xmlns="http://www.w3.org/2000/svg"
   xmlns:svg="http://www.w3.org/2000/svg"><defs
     id="defs338"><radialGradient
       xlink:href="#linearGradient443-6"
       id="radialGradient991-3"
       cx="59.934898"
       cy="-3.5980241"
       fx="59.934898"
       fy="-3.5980241"
       r="49"
       gradientUnits="userSpaceOnUse"
       gradientTransform="matrix(2.2073905,-4.5455097e-7,0,1.5310235,-84.331512,78.198308)" /><linearGradient
       id="linearGradient443-6"><stop
         style="stop-color:#95e043;stop-opacity:1"
         offset="0"
         id="stop439-7" /><stop
         style="stop-color:#5ac918;stop-opacity:1"
         offset="0.38555849"
         id="stop7158-5" /><stop
         style="stop-color:#389000;stop-opacity:1"
         offset="1"
         id="stop441-3" /></linearGradient><radialGradient
       inkscape:collect="always"
       xlink:href="#linearGradient443-6"
       id="radialGradient1227"
       cx="30.999744"
       cy="53.376324"
       fx="30.999744"
       fy="53.376324"
       r="32"
       gradientUnits="userSpaceOnUse"
       gradientTransform="matrix(2.4380291,0,0,1.7305102,-44.578535,-38.991947)" /></defs><sodipodi:namedview
     id="namedview336"
     pagecolor="#ffffff"
     bordercolor="#666666"
     borderopacity="1.0"
     inkscape:showpageshadow="2"
     inkscape:pageopacity="0.0"
     inkscape:pagecheckerboard="0"
     inkscape:deskcolor="#d1d1d1"
     showgrid="false"
     showguides="true"
     inkscape:zoom="5.2149126"
     inkscape:cx="34.420519"
     inkscape:cy="42.570224"
     inkscape:window-width="1440"
     inkscape:window-height="831"
     inkscape:window-x="0"
     inkscape:window-y="0"
     inkscape:window-maximized="1"
     inkscape:current-layer="svg334" /><path
     fill="#FF8700"
     d="M0 0h64v64H0z"
     id="path330"
     style="fill:url(#radialGradient1227);fill-opacity:1" /><g
     id="layer1"
     transform="matrix(0.08617406,0,0,0.08617406,9.2614749,10.990286)"
     style="fill:#ffffff;stroke-width:11.6045"><g
       id="g713"
       transform="matrix(5.6203506,0,0,5.6203506,-48.662637,-1041.3196)"
       style="fill:#ffffff;stroke-width:2.06473"><path
         id="circle6078"
         style="fill:#ffffff;fill-opacity:1;stroke-width:20.5995;stroke-linecap:round;stroke-linejoin:round;stroke-dasharray:none"
         d="m 55.258919,188.77163 c -21.578597,0.0113 -40.56228,14.25793 -46.600627,34.97442 l 31.492623,6.03307 c 1.233974,-11.63391 11.043658,-20.46406 22.742865,-20.47181 5.882128,7.2e-4 11.538149,2.26625 15.79426,6.3264 l 14.340983,-8.8193 C 83.810026,195.40455 69.927768,188.77303 55.258919,188.77163 Z" /><path
         id="circle6080"
         style="fill:#ffffff;fill-opacity:1;stroke-width:16.7353;stroke-linecap:round;stroke-linejoin:round;stroke-dasharray:none"
         d="m 91.479882,213.19153 -9.755547,5.99732 c 2.640389,3.82269 4.054779,8.35839 4.055252,13.0043 -0.0072,10.33508 -6.940963,19.38259 -16.918545,22.07731 l 8.554208,18.6087 c 13.645085,-6.5689 22.326191,-20.36826 22.340561,-35.51218 -4.72e-4,-8.75342 -2.911865,-17.25815 -8.275929,-24.17545 z" /><path
         id="circle6082"
         style="fill:#ffffff;fill-opacity:1;stroke-width:14.9088;stroke-linecap:round;stroke-linejoin:round;stroke-dasharray:none"
         d="m 22.322441,231.07074 c -0.01814,0.34054 -0.03628,0.68164 -0.04513,1.02274 3.29e-4,19.41128 15.736162,35.14711 35.14743,35.14742 3.889572,-0.008 7.750987,-0.65934 11.426895,-1.93081 l -4.724553,-10.2782 c -0.4106,0.0264 -0.821851,0.0427 -1.23332,0.0469 -11.747048,-0.008 -21.58071,-8.90778 -22.756037,-20.59585 z" /></g></g></svg>
