<?xml version="1.0" encoding="UTF-8" standalone="no"?>
<!-- Created with Inkscape (http://www.inkscape.org/) -->

<svg
   width="120"
   height="77"
   viewBox="0 0 120 77"
   version="1.1"
   id="svg427"
   sodipodi:docname="Login.svg"
   inkscape:version="1.3.2 (091e20ef0f, 2023-11-25)"
   xmlns:inkscape="http://www.inkscape.org/namespaces/inkscape"
   xmlns:sodipodi="http://sodipodi.sourceforge.net/DTD/sodipodi-0.dtd"
   xmlns="http://www.w3.org/2000/svg"
   xmlns:svg="http://www.w3.org/2000/svg">
  <sodipodi:namedview
     id="namedview361"
     pagecolor="#ffffff"
     bordercolor="#666666"
     borderopacity="1.0"
     inkscape:showpageshadow="2"
     inkscape:pageopacity="0.0"
     inkscape:pagecheckerboard="0"
     inkscape:deskcolor="#d1d1d1"
     showgrid="false"
     inkscape:zoom="2.8284271"
     inkscape:cx="88.388348"
     inkscape:cy="58.86664"
     inkscape:window-width="1440"
     inkscape:window-height="831"
     inkscape:window-x="0"
     inkscape:window-y="0"
     inkscape:window-maximized="1"
     inkscape:current-layer="svg427" />
  <defs
     id="defs424" />
  <path
     id="circle4"
     style="fill:#9b1526;fill-opacity:1;stroke-width:6.41644;stroke-linecap:round;stroke-linejoin:round;paint-order:fill markers stroke"
     d="m 9.887711,59.153874 1.647542,1.382958 h 67.986613 v -1.382958 z"
     sodipodi:nodetypes="ccccc" />
  <path
     id="circle5"
     style="fill:#9b1526;fill-opacity:1;stroke-width:5.44382;stroke-linecap:round;stroke-linejoin:round;paint-order:fill markers stroke"
     d="M -2.639352e-7,50.85736 1.6487648,52.240318 H 82.717732 V 50.85736 Z"
     sodipodi:nodetypes="ccccc" />
  <path
     id="circle6"
     style="fill:#9b1526;fill-opacity:1;stroke-width:6.41644;stroke-linecap:round;stroke-linejoin:round;paint-order:fill markers stroke"
     d="m 4.9438554,55.005005 1.6475421,1.382959 H 79.521866 v -1.382959 z"
     sodipodi:nodetypes="ccccc" />
  <path
     id="path4"
     style="fill:#9b1526;fill-opacity:1;stroke-width:6.41644;stroke-linecap:round;stroke-linejoin:round;paint-order:fill markers stroke"
     d="m 91.151445,50.398009 v 1.842309 H 120 l -2.19509,-1.842309 z" />
  <path
     style="font-weight:900;font-size:36.2612px;line-height:1.15;font-family:'Source Serif 4 Display';-inkscape-font-specification:'Source Serif 4 Display Heavy';text-align:center;letter-spacing:-1.43235px;text-anchor:middle;fill:#9b1526;fill-opacity:1;stroke-width:0.300104"
     d="m 43.53833,52.238506 h 14.520288 v -1.382877 l -2.362415,-0.5186 C 55.523387,47.340797 55.523387,43.42262 55.523387,40.25349 v -8.815879 c 1.325252,-0.979563 2.765772,-1.555762 4.033407,-1.555762 1.843839,0 2.881014,1.037181 2.881014,3.918171 v 6.45347 c 0,3.16913 0,7.087307 -0.172816,10.083539 l -2.362434,0.5186 v 1.382877 h 14.289831 v -1.382877 l -2.362434,-0.5186 C 71.657139,47.340797 71.657139,43.42262 71.657139,40.25349 v -6.741567 c 0,-5.934864 -2.996257,-8.700643 -7.37541,-8.700643 -3.399589,0 -6.107743,1.382877 -8.758261,5.012951 v -6.626325 l 0.230485,-12.042614 -0.921945,-0.691461 -11.524031,2.996257 v 1.152417 l 2.996257,0.921895 v 24.71909 c 0,3.16913 0,7.087307 -0.172816,10.083539 l -2.592918,0.5186 z"
     id="text29-3"
     aria-label="chf"
     sodipodi:nodetypes="ccccscsssccccccssscccccccsccc" />
  <path
     style="font-weight:900;font-size:36.2612px;line-height:1.15;font-family:'Source Serif 4 Display';-inkscape-font-specification:'Source Serif 4 Display Heavy';text-align:center;letter-spacing:-1.43235px;text-anchor:middle;fill:#9b1526;fill-opacity:1;stroke-width:0.300104"
     d="m 32.648133,28.447406 c 4.724873,0 8.297323,-1.901451 10.54452,-6.338228 l -0.864295,-0.806653 c -1.498138,1.382852 -3.226754,2.304791 -5.301073,2.304791 -4.609631,0 -7.375403,-3.57245 -7.375403,-10.486896 0,-8.931128 3.111512,-11.4088038 5.358691,-11.4088038 h 0.172816 l 0.11528,3.1114804 c 0.11528,4.3791525 2.189579,5.6467874 4.263891,5.6467874 1.959095,0 3.111512,-0.8642961 3.745336,-2.8810025 0,-4.0334255 -3.284354,-7.49062674 -9.219243,-7.49062674 -8.412566,0 -14.116971,5.07057514 -14.116971,14.52032124 0,8.98874 5.646787,13.82883 12.676451,13.82883 z"
     id="path1"
     aria-label="chf"
     sodipodi:nodetypes="sccsssccscssss" />
  <path
     style="font-weight:900;font-size:36.2612px;line-height:1.15;font-family:'Source Serif 4 Display';-inkscape-font-specification:'Source Serif 4 Display Heavy';text-align:center;letter-spacing:-1.43235px;text-anchor:middle;fill:#9b1526;fill-opacity:1;stroke-width:0.300104"
     d="M 74.415981,76.901746 H 90.780124 V 75.518851 L 86.573857,74.827434 C 86.40104,71.831158 86.40104,68.028224 86.40104,64.916731 V 52.24028 h 5.531545 V 50.396422 H 86.343422 C 85.997701,43.539619 86.112937,39.621448 88.187274,36.337095 l 0.864302,1.728591 c 1.498113,2.938639 3.111493,4.091056 5.185824,4.091056 1.901458,0 3.572456,-1.037181 3.687692,-3.169117 -0.633817,-3.169112 -3.975807,-4.436746 -7.144924,-4.436746 -3.457214,0 -6.395847,0.979538 -8.81588,3.22671 -2.420057,2.247198 -4.206292,6.395847 -4.552012,11.696913 l -0.05751,0.691441 -3.169117,0.691461 v 1.382876 h 2.996257 v 12.676451 c 0,3.169117 0,7.087288 -0.172817,10.083539 l -2.592893,0.518581 z"
     id="path2"
     aria-label="chf"
     sodipodi:nodetypes="ccccsccccccscsscccccsccc" />
  <circle
     style="fill:#9b1526;fill-opacity:1;stroke:none;stroke-width:10.4525;stroke-linecap:round;stroke-linejoin:round;paint-order:fill markers stroke"
     id="path7"
     cx="91.939888"
     cy="57.770042"
     r="2.7657666" />
</svg>
